<svg width="431" height="299" viewBox="0 0 431 299" fill="none" xmlns="http://www.w3.org/2000/svg">
<path d="M158.072 50.1177H272.71C280.26 50.1193 287.727 51.7008 294.629 54.7605C301.531 57.8202 307.717 62.2905 312.789 67.8838C317.86 73.4772 321.705 80.0699 324.076 87.2381C326.447 94.4064 327.292 101.991 326.557 109.506L315.846 218.928H114.935L104.21 109.506C104.21 109.506 104.21 109.506 104.21 109.506C103.476 101.991 104.323 94.4053 106.696 87.2372C109.069 80.0689 112.916 73.4764 117.988 67.8833C123.061 62.2902 129.248 57.8202 136.151 54.7606C143.054 51.701 150.521 50.1195 158.071 50.1177C158.071 50.1177 158.071 50.1177 158.072 50.1177Z" fill="white" stroke="#FFDFBB" stroke-width="1.4"/>
<path d="M353.372 132.768C344.567 137.609 295.879 142.179 288.465 145.613C287.144 146.247 285.87 146.975 284.653 147.792C272.821 155.599 264.984 174.481 285.606 176.191C291.915 176.72 347.411 156.204 369.486 146.945C374.357 144.917 390.501 136.566 389.26 133.328C388.02 130.09 382.86 121.678 380.863 122.283C378.866 122.888 363.812 130.014 363.812 130.014C363.812 130.014 368.003 117.457 363.812 117.91C359.621 118.364 353.372 132.768 353.372 132.768Z" fill="white"/>
<path d="M285.833 176.977H285.545C276.21 176.191 273.245 172.045 272.383 168.701C270.506 161.333 276.921 151.953 284.214 147.141C285.465 146.307 286.775 145.564 288.133 144.917C291.552 143.313 302.839 141.604 315.911 139.607C330.844 137.337 347.684 134.765 352.767 132.208C353.796 129.818 359.334 117.472 363.691 117.078C364.061 117.024 364.44 117.068 364.787 117.206C365.135 117.344 365.441 117.572 365.673 117.865C367.277 119.877 365.961 125.43 365.083 128.456C369.032 126.58 378.957 121.905 380.637 121.451C383.662 120.634 389.064 130.529 389.987 133.01C391.802 137.776 370.015 147.565 369.788 147.656C349.681 156.098 293.67 176.977 285.833 176.977ZM363.979 118.591H363.842C361.104 118.864 356.414 127.669 354.099 133.071C354.029 133.233 353.907 133.366 353.751 133.449C348.773 136.187 332.191 138.714 316.138 141.15C303.732 143.041 291.93 144.826 288.798 146.324C287.507 146.938 286.263 147.646 285.076 148.442C277.406 153.511 272.383 162.422 273.896 168.308C274.939 172.408 279.009 174.859 285.682 175.419H285.924C292.989 175.419 346.988 155.538 369.138 146.233C376.794 143.026 389.23 135.552 388.474 133.57C386.961 129.636 382.286 122.979 381.03 122.979C379.426 123.403 368.291 128.668 364.13 130.65C363.99 130.717 363.834 130.741 363.68 130.719C363.527 130.698 363.383 130.632 363.267 130.529C363.154 130.427 363.073 130.293 363.035 130.145C362.997 129.997 363.005 129.841 363.056 129.697C364.281 125.99 365.537 120.165 364.448 118.803C364.394 118.731 364.323 118.673 364.241 118.636C364.158 118.599 364.068 118.584 363.979 118.591Z" fill="#2D2D2D"/>
<path d="M242.925 56.9826C255.444 45.944 266.119 32.9756 274.546 18.5679L287.179 26.39C287.179 26.39 275.59 57.2246 242.925 56.9826Z" fill="white"/>
<path d="M243.333 57.7542H242.909C242.749 57.7553 242.592 57.7063 242.46 57.6138C242.329 57.5214 242.229 57.3902 242.176 57.2386C242.123 57.0869 242.118 56.9224 242.163 56.768C242.207 56.6137 242.299 56.4771 242.425 56.3774C254.86 45.3864 265.472 32.4918 273.865 18.1745C273.916 18.0834 273.985 18.0039 274.068 17.9413C274.152 17.8787 274.248 17.8345 274.349 17.8114C274.451 17.7845 274.557 17.7786 274.661 17.7942C274.765 17.8099 274.865 17.8466 274.954 17.9022L287.588 25.7243C287.741 25.8203 287.857 25.9652 287.917 26.1354C287.978 26.3057 287.979 26.4914 287.921 26.6624C287.8 26.965 275.847 57.7542 243.333 57.7542ZM274.818 19.6572C266.735 33.2238 256.697 45.5253 245.028 56.1656C272.776 55.2124 284.365 30.8382 286.211 26.6926L274.818 19.6572Z" fill="#2D2D2D"/>
<path d="M242.925 56.9825C257.113 58.4479 271.344 54.6344 282.898 46.2706L285.545 63.7759C285.545 63.7759 267.208 73.353 239.944 62.7319L242.925 56.9825Z" fill="white"/>
<path d="M265.166 68.4812C256.414 68.4135 247.752 66.7098 239.626 63.4581C239.524 63.4163 239.432 63.3546 239.354 63.2767C239.276 63.1988 239.214 63.1062 239.172 63.0042C239.127 62.9044 239.104 62.7961 239.104 62.6865C239.104 62.5769 239.127 62.4686 239.172 62.3688L242.198 56.6194C242.271 56.4716 242.391 56.3517 242.538 56.278C242.686 56.2042 242.853 56.1807 243.015 56.2109C256.979 57.5749 270.962 53.8103 282.353 45.6201C282.463 45.5394 282.592 45.4887 282.727 45.4728C282.862 45.4569 282.999 45.4763 283.125 45.5293C283.247 45.5814 283.353 45.6648 283.433 45.7711C283.512 45.8773 283.563 46.0026 283.579 46.1345L286.196 63.6397C286.217 63.8011 286.189 63.965 286.117 64.1106C286.044 64.2562 285.929 64.3767 285.787 64.4567C285.757 64.5323 277.98 68.4812 265.166 68.4812ZM240.958 62.3083C264.712 71.2651 281.551 64.6836 284.607 63.322L282.277 47.6172C270.861 55.4197 257.094 59.0283 243.318 57.8298L240.958 62.3083Z" fill="#2D2D2D"/>
<path d="M298.678 142.39C298.678 142.39 294.139 131.225 272.519 106.079C262.14 93.975 234.286 89.4361 226.811 89.0427C228.445 89.2091 233.121 86.637 201.287 89.0427C184.917 90.2833 174.447 91.1003 164.809 101.358C146.653 120.709 107.316 161.878 107.316 161.878L148.847 173.724C148.847 173.724 155.58 169.004 158.046 165.736L152.085 210.036L264.243 216.572L263.305 165.781L274.803 175.162L298.678 142.39Z" fill="#66CCBA"/>
<path d="M224.89 88.9973C224.89 88.9973 225.586 88.9973 226.811 88.9973C226.146 88.9065 224.89 88.9973 224.89 88.9973Z" fill="#FF7747"/>
<path d="M195.599 93.7783L196.612 207.373H228.037V87.56L195.599 93.7783Z" fill="white"/>
<path d="M228.052 208.069H196.612C196.43 208.069 196.255 207.998 196.125 207.871C195.995 207.743 195.92 207.57 195.916 207.388L194.903 93.7783C194.903 93.6176 194.959 93.4621 195.061 93.338C195.163 93.2139 195.305 93.1289 195.462 93.0974L227.901 86.8791C228.001 86.8563 228.104 86.8564 228.204 86.8793C228.304 86.9022 228.397 86.9473 228.477 87.0113C228.557 87.0752 228.622 87.1564 228.666 87.2488C228.71 87.3412 228.733 87.4424 228.733 87.5448V207.373C228.733 207.555 228.662 207.73 228.534 207.86C228.407 207.99 228.234 208.065 228.052 208.069V208.069ZM197.308 206.692H227.356V88.3921L196.279 94.3381L197.308 206.692Z" fill="#2D2D2D"/>
<path d="M189.471 166.417C189.341 166.417 189.213 166.381 189.103 166.311C188.993 166.241 188.906 166.141 188.851 166.023L175.234 137.473C175.174 137.367 175.143 137.247 175.143 137.125C175.143 137.003 175.174 136.884 175.234 136.777L184.07 123.781L175.4 117.396C175.258 117.29 175.162 117.134 175.131 116.96C175.101 116.786 175.137 116.606 175.234 116.458L188.851 96.3352C188.901 96.2602 188.966 96.1959 189.041 96.146C189.116 96.0962 189.201 96.0618 189.289 96.0449C189.378 96.028 189.469 96.0289 189.558 96.0476C189.646 96.0663 189.73 96.1023 189.804 96.1537C189.879 96.2053 189.944 96.2713 189.994 96.3479C190.044 96.4245 190.079 96.5103 190.095 96.6002C190.112 96.6901 190.111 96.7825 190.092 96.8721C190.074 96.9616 190.037 97.0465 189.985 97.122L176.686 116.685L185.341 123.055C185.487 123.161 185.586 123.32 185.617 123.497C185.648 123.675 185.608 123.858 185.507 124.008L176.611 137.231L190.122 165.433C190.199 165.6 190.208 165.79 190.145 165.963C190.083 166.136 189.955 166.277 189.789 166.356C189.689 166.402 189.58 166.422 189.471 166.417V166.417Z" fill="#2D2D2D"/>
<path d="M233.075 166.417C232.976 166.439 232.872 166.439 232.772 166.417C232.606 166.338 232.478 166.197 232.416 166.024C232.353 165.851 232.362 165.66 232.44 165.494L245.951 137.292L236.979 124.068C236.877 123.919 236.838 123.736 236.869 123.558C236.9 123.38 236.999 123.221 237.145 123.115L245.799 116.745L232.5 97.1825C232.448 97.1071 232.412 97.0221 232.393 96.9326C232.374 96.843 232.373 96.7507 232.39 96.6607C232.407 96.5708 232.441 96.4851 232.491 96.4084C232.542 96.3318 232.606 96.2658 232.682 96.2142C232.756 96.1629 232.84 96.1268 232.928 96.1081C233.016 96.0894 233.108 96.0885 233.196 96.1054C233.285 96.1223 233.369 96.1567 233.445 96.2065C233.52 96.2564 233.585 96.3207 233.635 96.3958L247.327 116.518C247.424 116.667 247.461 116.846 247.43 117.02C247.399 117.195 247.303 117.351 247.161 117.457L238.492 123.796L247.327 136.792C247.387 136.899 247.418 137.019 247.418 137.14C247.418 137.262 247.387 137.382 247.327 137.488L233.711 166.038C233.652 166.156 233.561 166.254 233.449 166.321C233.336 166.388 233.206 166.422 233.075 166.417Z" fill="#2D2D2D"/>
<path d="M240.156 81.2962C239.959 81.2962 243.59 61.8846 243.908 60.2506C246.041 49.2815 247.691 39.326 246.692 30.46C244.074 31.7309 243.439 35.6192 241.26 37.5256C240.454 29.265 240.1 20.9665 240.201 12.6673C225.979 17.7055 211.001 23.2581 201.635 35.1048L200.516 17.418C193.949 28.0089 187.277 38.8419 183.752 50.8701C180.227 62.8983 182.662 74.1095 185.583 85.9713L240.156 81.2962Z" fill="white"/>
<path d="M185.583 86.6976C185.407 86.6956 185.237 86.6349 185.1 86.5252C184.963 86.4156 184.867 86.2632 184.826 86.0924C181.8 73.7162 179.606 62.505 183.071 50.6583C186.687 38.267 193.662 26.9801 199.926 17.0095C200.013 16.8703 200.142 16.7619 200.293 16.6995C200.445 16.6371 200.613 16.6238 200.773 16.6616C200.935 16.7005 201.08 16.7908 201.186 16.919C201.293 17.0472 201.355 17.2063 201.363 17.3727L202.331 33.0926C212.211 21.7754 227.553 16.3287 239.974 11.9108C240.093 11.8698 240.219 11.8577 240.343 11.8755C240.467 11.8932 240.585 11.9403 240.687 12.0128C240.789 12.0854 240.873 12.1812 240.93 12.2924C240.988 12.4036 241.018 12.5269 241.018 12.6521C240.93 20.3079 241.228 27.9632 241.911 35.589C242.244 35.0594 242.562 34.4845 242.879 33.8944C243.589 32.177 244.816 30.7229 246.389 29.7337C246.502 29.6777 246.627 29.6486 246.753 29.6486C246.879 29.6486 247.003 29.6777 247.116 29.7337C247.222 29.7986 247.313 29.8867 247.381 29.9915C247.449 30.0962 247.493 30.215 247.509 30.3389C248.553 39.4168 246.783 49.7656 244.71 60.3717C244.317 62.4293 241.094 79.7832 240.973 81.1903C241.003 81.2992 241.003 81.4143 240.973 81.5232C240.927 81.6663 240.839 81.7921 240.72 81.884C240.601 81.9758 240.457 82.0294 240.307 82.0376L185.689 86.6976H185.583ZM199.956 19.8993C194.146 29.2647 187.852 39.7648 184.569 51.0971C181.286 62.4293 183.313 73.1715 186.188 85.0787L239.581 80.5397C239.763 78.6182 240.564 73.58 243.197 60.0691C245.134 50.1136 246.813 40.4003 246.102 31.8519C245.37 32.6886 244.755 33.6198 244.271 34.6207C243.669 35.9098 242.845 37.0826 241.835 38.0854C241.729 38.1838 241.597 38.2491 241.455 38.2733C241.312 38.2975 241.166 38.2795 241.033 38.2216C240.897 38.171 240.779 38.0832 240.69 37.9681C240.602 37.853 240.548 37.7154 240.534 37.571C239.776 29.651 239.417 21.6977 239.46 13.7415C226.872 18.2804 211.561 23.8785 202.301 35.5587C202.201 35.68 202.067 35.7691 201.916 35.8149C201.765 35.8606 201.605 35.861 201.454 35.8159C201.306 35.7644 201.176 35.6713 201.079 35.5479C200.983 35.4245 200.924 35.276 200.909 35.12L199.956 19.8993Z" fill="#2D2D2D"/>
<path d="M232.122 80.4035C233.635 71.1138 249.037 68.8292 248.281 79.7832C248.16 83.5897 246.703 87.2322 244.165 90.0715C242.874 91.4552 241.202 92.4241 239.359 92.8551C237.516 93.2861 235.587 93.1599 233.816 92.4923" fill="white"/>
<path d="M237.039 93.9296C235.821 93.9431 234.614 93.6955 233.499 93.2034C233.406 93.1616 233.321 93.1019 233.251 93.0277C233.181 92.9534 233.126 92.866 233.089 92.7704C233.053 92.6749 233.035 92.5731 233.038 92.4709C233.041 92.3686 233.064 92.2679 233.106 92.1745C233.147 92.0812 233.207 91.9969 233.281 91.9266C233.356 91.8563 233.443 91.8013 233.538 91.7648C233.634 91.7283 233.736 91.7109 233.838 91.7137C233.94 91.7165 234.041 91.7394 234.134 91.7812C235.758 92.3905 237.527 92.5015 239.214 92.0999C240.901 91.6983 242.43 90.8024 243.606 89.5268C246.013 86.8168 247.39 83.346 247.494 79.7227C247.751 76.0159 245.981 73.6708 242.743 73.2925C240.497 73.0771 238.251 73.6972 236.434 75.0343C234.617 76.3714 233.356 78.3315 232.894 80.5397C232.877 80.6402 232.841 80.7365 232.787 80.8229C232.733 80.9094 232.663 80.9843 232.58 81.0434C232.497 81.1025 232.403 81.1445 232.304 81.1671C232.204 81.1898 232.101 81.1925 232.001 81.1752C231.797 81.1417 231.614 81.0292 231.493 80.8622C231.371 80.6951 231.32 80.4869 231.35 80.2825C231.865 77.6701 233.337 75.3446 235.479 73.7628C237.621 72.181 240.277 71.4574 242.925 71.7341C246.132 72.1124 249.431 74.4273 248.977 79.8286C248.842 83.8203 247.311 87.6381 244.65 90.6162C242.645 92.6749 239.912 93.8646 237.039 93.9296V93.9296Z" fill="#2D2D2D"/>
<path d="M193.677 80.4035C192.164 71.1138 176.762 68.8292 177.518 79.7832C177.645 83.5884 179.101 87.2288 181.634 90.0715C182.925 91.4552 184.598 92.4241 186.44 92.8551C188.283 93.2861 190.212 93.1599 191.983 92.4923" fill="white"/>
<path d="M188.714 93.9296C185.81 93.8884 183.04 92.6968 181.013 90.6162C178.393 87.654 176.884 83.8722 176.747 79.9194C176.369 74.5029 179.667 72.1881 182.799 71.8098C185.446 71.5366 188.1 72.2616 190.241 73.8428C192.382 75.424 193.856 77.7475 194.373 80.3582C194.392 80.4599 194.391 80.5645 194.368 80.6655C194.345 80.7666 194.302 80.8619 194.241 80.9456C194.18 81.0293 194.103 81.0995 194.014 81.152C193.924 81.2045 193.825 81.2382 193.722 81.2508C193.622 81.2681 193.519 81.2654 193.42 81.2428C193.321 81.2202 193.227 81.1781 193.144 81.1191C193.061 81.06 192.99 80.9851 192.936 80.8986C192.883 80.8122 192.846 80.7159 192.83 80.6154C192.364 78.4088 191.103 76.4506 189.287 75.1141C187.47 73.7776 185.225 73.1561 182.98 73.3682C179.697 73.7464 177.972 76.0916 178.23 79.7984C178.334 83.4216 179.711 86.8925 182.118 89.6025C183.294 90.8764 184.823 91.7711 186.51 92.1726C188.197 92.5741 189.965 92.4642 191.589 91.8568C191.778 91.7726 191.992 91.7667 192.185 91.8405C192.378 91.9142 192.534 92.0616 192.618 92.2502C192.702 92.4388 192.708 92.6532 192.634 92.8461C192.561 93.039 192.413 93.1948 192.225 93.2791C191.114 93.7419 189.917 93.9636 188.714 93.9296V93.9296Z" fill="#2D2D2D"/>
<path d="M195.901 123.221L211.379 135.945L227.992 126.701L229.096 88.1954L195.901 87.1514V123.221Z" fill="white"/>
<path d="M211.409 136.732C211.231 136.731 211.059 136.667 210.925 136.55L195.402 123.796C195.313 123.723 195.241 123.631 195.194 123.525C195.147 123.42 195.125 123.306 195.13 123.191V87.1515C195.129 86.9424 195.211 86.7415 195.356 86.5917C195.513 86.4491 195.72 86.3732 195.931 86.3798L229.126 87.4087C229.332 87.4165 229.527 87.505 229.668 87.655C229.81 87.8049 229.887 88.0044 229.883 88.2105L228.763 126.716C228.764 126.852 228.727 126.986 228.658 127.103C228.589 127.22 228.489 127.316 228.37 127.382L211.727 136.626C211.632 136.688 211.523 136.725 211.409 136.732V136.732ZM196.718 122.858L211.5 134.962L227.25 126.186L228.324 88.8914L196.718 87.9231V122.858Z" fill="#2D2D2D"/>
<path d="M196.945 102.614C197.248 104.369 206.689 116.08 228.476 117.411V102.614C223.271 103.356 216.372 105.897 210.759 105.383C206.043 105.211 201.383 104.307 196.945 102.705C196.279 102.357 197.641 103.068 196.945 102.614Z" fill="#2D2D2D"/>
<path d="M228.476 118.228C207.854 116.972 197.686 106.276 196.385 103.219C196.22 103.132 196.095 102.983 196.038 102.805C195.981 102.626 195.997 102.433 196.083 102.266C196.234 101.964 196.567 101.661 197.293 101.994C201.673 103.553 206.264 104.435 210.91 104.611C214.878 104.708 218.837 104.198 222.651 103.098C224.708 102.614 226.66 102.16 228.445 101.903C228.553 101.887 228.664 101.895 228.768 101.926C228.873 101.958 228.969 102.012 229.051 102.085C229.129 102.156 229.192 102.242 229.236 102.338C229.28 102.434 229.305 102.539 229.308 102.644V117.532C229.308 117.635 229.287 117.737 229.245 117.83C229.203 117.924 229.142 118.008 229.066 118.077C228.984 118.143 228.889 118.191 228.787 118.217C228.685 118.243 228.579 118.247 228.476 118.228V118.228ZM198.715 104.127C201.575 107.607 210.501 115.384 227.719 116.655V103.461C226.206 103.719 224.618 104.097 222.908 104.49C218.943 105.644 214.826 106.185 210.698 106.094C206.644 105.878 202.626 105.218 198.715 104.127V104.127Z" fill="#2D2D2D"/>
<path d="M210.955 108.802H213.437C216.235 108.802 219.007 108.251 221.592 107.179C224.178 106.108 226.527 104.537 228.505 102.557C230.484 100.578 232.052 98.2275 233.122 95.6412C234.192 93.0549 234.741 90.2831 234.739 87.4843V62.4293C234.739 57.1944 227.417 53.9869 223.15 53.3514C218.519 52.8553 213.838 53.0799 209.276 54.0171C198.019 55.757 189.531 59.8724 189.607 72.536C189.607 77.544 189.607 82.5671 189.607 87.5751C189.627 93.2197 191.887 98.6256 195.889 102.606C199.892 106.586 205.311 108.814 210.955 108.802V108.802Z" fill="white"/>
<path d="M213.437 109.589H210.955C205.097 109.581 199.48 107.249 195.339 103.105C191.198 98.9608 188.87 93.343 188.866 87.4843C188.866 85.82 188.866 84.1406 188.866 82.4763C188.866 79.1276 188.866 75.7839 188.866 72.4452C188.745 58.1475 199.638 54.6223 209.155 53.1547C213.801 52.1906 218.57 51.9659 223.286 52.489C228.355 53.3363 235.511 57.0279 235.511 62.4142V87.4843C235.511 93.3416 233.186 98.9594 229.047 103.104C224.909 107.249 219.294 109.581 213.437 109.589V109.589ZM218.974 53.7448C215.772 53.8244 212.58 54.1481 209.427 54.7131C196.037 56.7859 190.364 62.0813 190.454 72.4452C190.454 75.8041 190.454 79.1528 190.454 82.4915C190.454 84.1709 190.454 85.8352 190.454 87.4994C190.462 92.9422 192.628 98.1597 196.477 102.008C200.325 105.857 205.543 108.023 210.986 108.031H213.467C218.906 108.015 224.116 105.843 227.956 101.991C231.796 98.1399 233.953 92.9231 233.953 87.4843V62.4293C233.953 57.8903 227.432 54.7736 223.029 54.0474C221.687 53.8429 220.331 53.7417 218.974 53.7448Z" fill="#2D2D2D"/>
<path d="M219.467 81.5692C220.176 81.5224 220.663 80.1664 220.556 78.5405C220.448 76.9146 219.787 75.6346 219.078 75.6814C218.369 75.7282 217.882 77.0842 217.989 78.7101C218.097 80.3359 218.758 81.616 219.467 81.5692Z" fill="#2D2D2D"/>
<path d="M202.169 80.6639C202.879 80.6142 203.363 79.253 203.249 77.6236C203.135 75.9942 202.466 74.7136 201.756 74.7633C201.046 74.813 200.563 76.1742 200.677 77.8036C200.791 79.4331 201.459 80.7137 202.169 80.6639Z" fill="#2D2D2D"/>
<path d="M206.961 101.404C206.235 101.404 205.811 101.404 205.736 101.404C205.573 101.343 205.436 101.23 205.344 101.082C205.253 100.935 205.212 100.762 205.23 100.589C205.247 100.417 205.321 100.255 205.44 100.128C205.558 100.002 205.716 99.9185 205.887 99.8908C212.689 100.026 219.292 97.5894 224.375 93.0672C224.536 92.9373 224.74 92.8742 224.946 92.8911C225.152 92.908 225.343 93.0036 225.48 93.158C225.614 93.3168 225.679 93.5221 225.662 93.7289C225.645 93.9358 225.547 94.1276 225.389 94.2625C220.273 98.728 213.751 101.255 206.961 101.404V101.404Z" fill="#2D2D2D"/>
<path d="M227.22 96.7286C227.111 96.7568 226.996 96.7568 226.887 96.7286C223.014 94.9433 223.437 90.5708 224.209 88.5131C224.243 88.4162 224.296 88.327 224.365 88.2512C224.434 88.1753 224.517 88.1143 224.611 88.0718C224.704 88.0294 224.805 88.0064 224.908 88.0042C225.011 88.002 225.112 88.0207 225.208 88.0592C225.401 88.1309 225.559 88.2757 225.646 88.4625C225.734 88.6493 225.745 88.8631 225.677 89.0578C225.601 89.2394 224.012 93.6875 227.553 95.3216C227.737 95.4102 227.88 95.5672 227.951 95.7593C228.021 95.9513 228.014 96.1634 227.931 96.3504C227.858 96.4717 227.753 96.5708 227.628 96.6374C227.502 96.704 227.361 96.7355 227.22 96.7286V96.7286Z" fill="#2D2D2D"/>
<path d="M208.943 95.6393C208.689 95.6388 208.438 95.5798 208.209 95.467C207.981 95.3542 207.782 95.1906 207.627 94.9887C205.63 92.5226 207.733 81.6896 208.187 79.5412C208.257 79.372 208.384 79.2327 208.546 79.1473C208.709 79.0619 208.895 79.0358 209.075 79.0734C209.254 79.1111 209.415 79.2102 209.529 79.3536C209.643 79.497 209.703 79.6757 209.7 79.8589C208.656 84.8971 207.702 92.6133 208.822 93.9902C211.621 93.9902 213.739 90.6767 213.754 90.6465C213.808 90.5593 213.879 90.4838 213.963 90.4243C214.046 90.3648 214.141 90.3226 214.241 90.3001C214.341 90.2775 214.444 90.2752 214.545 90.2931C214.646 90.311 214.742 90.3488 214.829 90.4044C215.004 90.5138 215.129 90.6878 215.177 90.8888C215.226 91.0898 215.193 91.3017 215.086 91.4786C214.995 91.645 212.483 95.6393 208.943 95.6393Z" fill="#2D2D2D"/>
<path d="M214.435 78.2551C214.264 78.2525 214.099 78.1952 213.963 78.0918C213.827 77.9884 213.727 77.8442 213.679 77.6802C213.627 77.4817 213.656 77.271 213.757 77.0929C213.859 76.9149 214.026 76.7836 214.223 76.727C215.373 76.3942 219.322 73.1564 221.44 71.4165C222.454 70.5843 223.256 69.9035 223.649 69.6463C223.82 69.5259 224.031 69.4782 224.237 69.5136C224.443 69.5491 224.626 69.6648 224.746 69.8354C224.867 70.0059 224.914 70.2173 224.879 70.423C224.843 70.6287 224.728 70.8119 224.557 70.9323C224.209 71.1744 223.377 71.8401 222.424 72.6268C218.974 75.4561 216.009 77.8315 214.647 78.2249L214.435 78.2551Z" fill="#2D2D2D"/>
<path d="M204.903 78.2551C204.754 78.2543 204.607 78.2125 204.48 78.1341C201.076 75.91 197.233 73.5951 196.552 73.232C196.377 73.1969 196.22 73.1023 196.107 72.9644C195.994 72.8265 195.932 72.6538 195.932 72.4755C195.932 72.2973 195.994 72.1245 196.107 71.9866C196.22 71.8487 196.377 71.7542 196.552 71.719C196.93 71.6282 197.263 71.5677 205.372 76.8329C205.543 76.9471 205.662 77.1232 205.704 77.3239C205.747 77.5245 205.709 77.7338 205.599 77.9071C205.525 78.0216 205.421 78.1141 205.298 78.1753C205.176 78.2364 205.04 78.264 204.903 78.2551V78.2551Z" fill="#2D2D2D"/>
<path d="M428.583 276.622H0.756409L48.3398 187.583H380.999L428.583 276.622Z" fill="white"/>
<path d="M428.583 277.379H0.756467C0.628183 277.379 0.502192 277.345 0.390809 277.281C0.279427 277.218 0.186462 277.126 0.121011 277.016C0.0544251 276.904 0.0192871 276.776 0.0192871 276.645C0.0192871 276.515 0.0544251 276.387 0.121011 276.274L47.7044 187.235C47.7677 187.113 47.8631 187.011 47.9804 186.939C48.0977 186.867 48.2324 186.828 48.3701 186.827H381C381.137 186.828 381.272 186.867 381.389 186.939C381.506 187.011 381.602 187.113 381.665 187.235L429.279 276.274C429.338 276.389 429.367 276.517 429.363 276.647C429.359 276.776 429.322 276.902 429.255 277.013C429.188 277.124 429.094 277.216 428.982 277.28C428.869 277.344 428.742 277.378 428.613 277.379H428.583ZM2.02737 275.866H427.312L380.546 188.34H48.7937L2.02737 275.866Z" fill="#FFDFBB"/>
<path d="M326.396 200.035L264.364 184.497C264.364 184.497 233.272 233.548 217.733 243.503L291.991 264.912C291.991 264.912 322.659 215.922 326.396 200.035Z" fill="white"/>
<path d="M291.915 265.729H291.703L217.461 244.29C217.323 244.246 217.199 244.164 217.105 244.053C217.011 243.942 216.951 243.807 216.93 243.663C216.909 243.52 216.93 243.373 216.989 243.24C217.048 243.107 217.144 242.994 217.264 242.913C232.485 233.109 263.35 184.588 263.668 184.088C263.751 183.954 263.875 183.85 264.023 183.792C264.17 183.735 264.333 183.727 264.485 183.771L326.653 199.309C326.749 199.332 326.839 199.374 326.919 199.432C326.998 199.49 327.065 199.564 327.116 199.648C327.167 199.733 327.2 199.827 327.214 199.924C327.228 200.022 327.223 200.121 327.198 200.217C323.415 216.043 293.821 263.369 292.566 265.366C292.499 265.478 292.404 265.571 292.289 265.635C292.175 265.699 292.046 265.731 291.915 265.729ZM219.398 243.322L291.597 264.08C294.744 259.026 321.343 216.012 325.549 200.534L264.651 185.299C261.338 190.519 234.573 232.08 219.398 243.322Z" fill="#2D2D2D"/>
<path d="M298.678 251.809H298.421C278.843 244.835 249.037 234.244 247.176 234.032C246.976 234.004 246.794 233.897 246.672 233.735C246.55 233.574 246.497 233.37 246.526 233.169C246.554 232.969 246.66 232.788 246.822 232.666C246.984 232.544 247.187 232.491 247.388 232.519C249.99 232.867 293.927 248.541 298.935 250.327C299.136 250.361 299.315 250.473 299.433 250.639C299.55 250.805 299.597 251.011 299.563 251.212C299.529 251.412 299.417 251.591 299.251 251.709C299.085 251.827 298.879 251.874 298.678 251.84V251.809Z" fill="#FFDFBB"/>
<path d="M304.73 241.809C304.645 241.823 304.558 241.823 304.473 241.809C284.895 234.819 255.089 224.319 253.228 224.076C253.031 224.046 252.854 223.942 252.733 223.784C252.611 223.626 252.556 223.427 252.578 223.229C252.608 223.029 252.715 222.849 252.876 222.728C253.037 222.606 253.24 222.553 253.44 222.579C256.042 222.927 299.979 238.601 304.987 240.386C305.188 240.421 305.367 240.533 305.485 240.699C305.602 240.865 305.649 241.071 305.615 241.272C305.581 241.472 305.469 241.651 305.303 241.769C305.137 241.887 304.931 241.934 304.73 241.899V241.809Z" fill="#FFDFBB"/>
<path d="M312.855 229.266C312.77 229.28 312.683 229.28 312.598 229.266C293.02 222.231 263.214 211.731 261.338 211.549C261.139 211.523 260.959 211.419 260.837 211.26C260.715 211.101 260.661 210.9 260.687 210.702C260.717 210.505 260.822 210.327 260.98 210.206C261.138 210.085 261.336 210.029 261.534 210.051C264.152 210.399 308.089 226.074 313.097 227.859C313.297 227.893 313.476 228.005 313.594 228.171C313.712 228.337 313.759 228.543 313.725 228.744C313.691 228.945 313.578 229.124 313.412 229.241C313.246 229.359 313.04 229.406 312.84 229.372L312.855 229.266Z" fill="#FFDFBB"/>
<path d="M318.347 215.846H318.09C298.512 208.856 268.706 198.371 266.86 198.114C266.761 198.103 266.665 198.072 266.578 198.023C266.491 197.974 266.415 197.908 266.355 197.828C266.294 197.749 266.25 197.659 266.225 197.562C266.2 197.466 266.195 197.365 266.21 197.266C266.236 197.068 266.34 196.888 266.499 196.766C266.658 196.644 266.858 196.59 267.057 196.616C269.659 196.964 313.596 212.638 318.604 214.424C318.699 214.456 318.786 214.507 318.86 214.573C318.935 214.64 318.995 214.721 319.037 214.811C319.08 214.902 319.104 215 319.107 215.099C319.111 215.199 319.094 215.299 319.058 215.392C319.002 215.532 318.903 215.651 318.775 215.733C318.648 215.814 318.498 215.854 318.347 215.846V215.846Z" fill="#FFDFBB"/>
<path d="M280.432 216.572C280.432 216.572 288.723 260.085 294.941 269.935C294.941 269.935 355.294 267.075 370.832 255.683C370.832 255.683 345.702 221.746 341.556 206.208L280.432 216.572Z" fill="white"/>
<path d="M294.941 270.692C294.811 270.689 294.684 270.655 294.57 270.592C294.457 270.528 294.361 270.438 294.291 270.328C288.072 260.479 280.023 218.494 279.69 216.708C279.668 216.609 279.668 216.507 279.689 216.408C279.709 216.309 279.751 216.215 279.811 216.133C279.869 216.051 279.943 215.982 280.029 215.93C280.115 215.878 280.211 215.844 280.311 215.831L341.435 205.467C341.621 205.434 341.812 205.471 341.972 205.572C342.131 205.673 342.248 205.829 342.298 206.011C346.352 221.232 371.195 254.896 371.438 255.229C371.496 255.308 371.539 255.399 371.562 255.495C371.586 255.591 371.59 255.691 371.574 255.789C371.546 255.986 371.443 256.165 371.286 256.288C355.733 267.696 297.453 270.57 294.971 270.692H294.941ZM281.324 217.192C282.444 222.942 289.752 259.556 295.35 269.148C300.827 268.861 354.356 265.774 369.758 255.531C366.278 250.781 345.354 221.852 341.011 207.116L281.324 217.192Z" fill="#2D2D2D"/>
<path d="M169.757 196.51L150.239 251.401L247.282 255.062L229.096 196.51H169.757Z" fill="white"/>
<path d="M247.282 255.819L150.239 252.157C150.122 252.151 150.008 252.117 149.906 252.059C149.803 252.002 149.716 251.921 149.649 251.825C149.579 251.727 149.534 251.614 149.518 251.496C149.502 251.377 149.516 251.256 149.558 251.144L169.046 196.253C169.099 196.107 169.195 195.98 169.322 195.891C169.45 195.801 169.601 195.753 169.757 195.753H229.096C229.258 195.752 229.416 195.803 229.546 195.899C229.677 195.994 229.774 196.129 229.822 196.283L247.978 254.835C248.016 254.95 248.025 255.072 248.004 255.191C247.983 255.31 247.932 255.422 247.857 255.516C247.79 255.607 247.704 255.681 247.604 255.734C247.505 255.786 247.395 255.815 247.282 255.819V255.819ZM151.298 250.69L246.208 254.261L228.506 197.266H170.256L151.298 250.69Z" fill="#2D2D2D"/>
<path d="M428.568 276.622H0.756409V297.638H428.568V276.622Z" fill="white"/>
<path d="M428.583 298.394H0.756492C0.555858 298.394 0.363441 298.315 0.221571 298.173C0.079701 298.031 0 297.838 0 297.638V276.607C0.00387335 276.408 0.0848202 276.218 0.225859 276.077C0.366898 275.936 0.55707 275.855 0.756492 275.851H428.583C428.782 275.855 428.973 275.936 429.114 276.077C429.255 276.218 429.336 276.408 429.339 276.607V297.638C429.339 297.838 429.26 298.031 429.118 298.173C428.976 298.315 428.784 298.394 428.583 298.394ZM1.51298 296.881H427.766V277.379H1.51298V296.881Z" fill="#FFDFBB"/>
<path d="M194.676 178.551L209.972 206.526L210.138 207.872L210.955 214.484L205.826 210.233L204.782 209.37L189.486 181.38L194.676 178.551Z" fill="#2D2D2D"/>
<path d="M210.955 215.241C210.777 215.243 210.604 215.178 210.471 215.059L204.298 209.945C204.226 209.886 204.164 209.814 204.117 209.733L188.82 181.743C188.773 181.657 188.743 181.562 188.732 181.464C188.722 181.366 188.731 181.267 188.759 181.173C188.787 181.079 188.834 180.991 188.896 180.915C188.959 180.838 189.036 180.776 189.123 180.73L194.313 177.885C194.497 177.809 194.703 177.809 194.888 177.885C194.981 177.914 195.068 177.961 195.143 178.023C195.218 178.085 195.281 178.162 195.326 178.248L210.638 206.223C210.658 206.313 210.658 206.406 210.638 206.496L211.621 214.454C211.644 214.602 211.62 214.753 211.552 214.886C211.484 215.019 211.376 215.127 211.243 215.195C211.152 215.231 211.053 215.247 210.955 215.241ZM205.357 208.871L209.896 212.684L209.17 206.753L194.297 179.519L190.424 181.637L205.357 208.871Z" fill="#2D2D2D"/>
<path d="M186.393 174.107L190.203 172.024C190.555 171.832 190.969 171.787 191.354 171.9C191.739 172.012 192.064 172.274 192.256 172.626L199.515 185.901L193.143 189.385L185.884 176.11C185.692 175.758 185.647 175.344 185.76 174.959C185.873 174.573 186.134 174.249 186.486 174.056L186.393 174.107Z" fill="#2D2D2D"/>
<path d="M193.087 190.14H192.875C192.779 190.114 192.688 190.069 192.61 190.006C192.532 189.944 192.468 189.866 192.421 189.777L185.144 176.478C184.866 175.963 184.801 175.361 184.962 174.799C185.043 174.516 185.18 174.253 185.364 174.024C185.549 173.795 185.777 173.606 186.036 173.467L189.834 171.379C190.355 171.103 190.963 171.041 191.529 171.208C192.095 171.375 192.573 171.757 192.86 172.272L200.122 185.571C200.171 185.656 200.201 185.75 200.213 185.848C200.225 185.945 200.217 186.044 200.19 186.138C200.163 186.232 200.118 186.32 200.057 186.397C199.996 186.474 199.921 186.537 199.835 186.585L193.435 190.08C193.326 190.129 193.206 190.15 193.087 190.14ZM190.908 172.59C190.786 172.589 190.666 172.62 190.56 172.68L186.763 174.753C186.675 174.795 186.598 174.856 186.538 174.932C186.477 175.008 186.435 175.097 186.415 175.192C186.377 175.278 186.358 175.371 186.358 175.464C186.358 175.558 186.377 175.651 186.415 175.737L193.314 188.37L198.382 185.601L191.483 172.968C191.426 172.862 191.344 172.772 191.243 172.706C191.143 172.64 191.028 172.6 190.908 172.59V172.59Z" fill="#2D2D2D"/>
<path d="M189.622 190.095C189.484 190.098 189.347 190.063 189.227 189.994C189.107 189.924 189.008 189.823 188.941 189.702C188.775 189.414 185.114 182.787 184.675 181.804C184.236 180.82 184.766 177.265 185.038 175.948C185.078 175.744 185.198 175.564 185.371 175.447C185.544 175.331 185.756 175.288 185.961 175.328C186.061 175.346 186.158 175.384 186.243 175.44C186.329 175.496 186.403 175.568 186.461 175.652C186.519 175.737 186.559 175.832 186.58 175.932C186.6 176.032 186.601 176.136 186.581 176.236C186.188 177.849 186.025 179.51 186.097 181.168C186.445 181.94 189.244 187.039 190.303 188.945C190.354 189.034 190.386 189.133 190.398 189.234C190.41 189.336 190.402 189.439 190.374 189.538C190.346 189.637 190.298 189.729 190.234 189.809C190.17 189.889 190.091 189.955 190 190.004C189.883 190.063 189.754 190.094 189.622 190.095V190.095Z" fill="#2D2D2D"/>
<path d="M135.76 168.081C123.187 162.195 103.654 155.205 98.5708 173.724C97.2665 178.295 97.759 183.191 99.9474 187.41C102.136 191.63 105.854 194.853 110.342 196.419C132.825 204.786 195.069 213.395 195.069 213.395C195.069 213.395 201.121 212.351 203.284 208.432C205.448 204.514 210.849 208.689 213.875 206.072C216.901 203.455 214.768 198.431 211.893 194.437C209.019 190.443 199.653 190.004 197.278 190.458C194.902 190.912 188.911 194.437 188.896 194.452C183.252 197.751 169.696 186.116 165.066 183.453C156.22 178.41 147.203 173.644 138.014 169.155L135.76 168.081Z" fill="white"/>
<path d="M195.175 214.121H195.084C194.464 214.03 132.462 205.406 110.16 197.115C105.496 195.493 101.63 192.146 99.3567 187.762C97.0832 183.378 96.5746 178.29 97.9354 173.543C99.4484 168.126 102.263 164.465 106.348 162.543C115.032 158.534 127.529 163.421 136.093 167.446C136.895 167.809 137.682 168.187 138.423 168.55C147.501 172.983 156.685 177.809 165.52 182.878C166.58 183.483 168.077 184.542 169.817 185.768C175.37 189.671 184.645 196.207 188.654 193.862C188.654 193.862 194.706 190.292 197.248 189.792C199.457 189.369 209.352 189.671 212.559 194.059C216.553 199.581 217.234 204.166 214.435 206.617C212.922 208.009 210.683 207.751 208.777 207.524C206.371 207.237 204.858 207.146 203.98 208.765C201.756 212.941 195.538 214.045 195.281 214.091L195.175 214.121ZM113.882 162.422C111.495 162.372 109.125 162.842 106.938 163.799C103.231 165.509 100.659 168.913 99.3728 173.906C98.1085 178.314 98.5799 183.039 100.69 187.11C102.8 191.182 106.389 194.291 110.72 195.799C132.416 203.878 192.24 212.305 195.235 212.729C196.007 212.563 201.091 211.443 202.8 208.19C204.147 205.648 206.704 205.951 208.973 206.223C210.744 206.435 212.423 206.632 213.512 205.648C216.72 202.834 212.726 196.737 211.424 194.936C208.852 191.366 199.88 190.776 197.505 191.23C194.65 192.237 191.912 193.545 189.335 195.133C184.569 197.917 175.567 191.593 169 186.978C167.291 185.768 165.823 184.724 164.809 184.149C156.004 179.095 146.926 174.284 137.803 169.866L135.488 168.762C129.315 165.796 121.054 162.422 113.882 162.422V162.422Z" fill="#2D2D2D"/>
<path d="M181.256 64.6837C181.256 64.6837 220.29 81.1298 244.68 66.4992L247.282 50.0077C247.282 50.0077 209.458 58.4199 185.038 44.3038C183.4 47.6283 182.171 51.1387 181.377 54.7585C180.833 58.0416 180.792 61.3883 181.256 64.6837V64.6837Z" fill="white"/>
<path d="M219.625 73.2017C199.956 73.2017 181.255 65.4401 180.983 65.3191C180.875 65.2756 180.78 65.2058 180.706 65.1159C180.632 65.026 180.581 64.919 180.559 64.8047C180.086 61.4285 180.132 57.9998 180.696 54.6374C181.504 50.9697 182.754 47.4135 184.418 44.0465C184.46 43.9606 184.52 43.8841 184.592 43.8217C184.665 43.7593 184.75 43.7123 184.841 43.6834C184.927 43.6468 185.02 43.6279 185.114 43.6279C185.207 43.6279 185.3 43.6468 185.386 43.6834C209.261 57.4818 246.753 49.3874 247.131 49.3117C247.24 49.2819 247.355 49.2815 247.464 49.3108C247.573 49.34 247.672 49.3978 247.751 49.4781C247.836 49.5521 247.9 49.6468 247.937 49.7528C247.974 49.8589 247.983 49.9728 247.963 50.0833L245.361 66.5749C245.345 66.6753 245.307 66.7709 245.249 66.8547C245.191 66.9385 245.116 67.0083 245.028 67.059C237.463 71.6282 228.461 73.2017 219.625 73.2017ZM181.8 64.1238C185.779 65.6368 221.38 79.2537 243.969 65.9848L246.374 50.855C240.322 52.0351 207.4 57.5726 185.265 45.2418C183.802 48.3064 182.701 51.5305 181.982 54.8492C181.502 57.9451 181.466 61.0936 181.876 64.1995L181.8 64.1238Z" fill="#2D2D2D"/>
<path d="M205.811 131.225L209.336 137.08C209.336 137.08 206.946 157.672 215.388 169.518C223.831 181.365 271.717 152.225 271.717 152.225L273.23 135.945H256.163C256.163 135.945 233.075 165.721 222.272 158.64C212.771 152.391 213.648 135.945 213.648 135.945L219.852 131.225L212.196 124.401L205.811 131.225Z" fill="#2D2D2D"/>
<path d="M222.545 173.044C219.05 173.044 216.281 172.151 214.738 170.018C206.674 158.655 208.308 139.849 208.565 137.307L205.176 131.679C205.09 131.538 205.052 131.373 205.069 131.209C205.085 131.046 205.155 130.892 205.266 130.771L211.636 123.947C211.778 123.809 211.968 123.731 212.166 123.731C212.364 123.731 212.554 123.809 212.695 123.947L220.351 130.771C220.433 130.845 220.498 130.937 220.543 131.038C220.587 131.14 220.609 131.25 220.608 131.361C220.603 131.473 220.573 131.582 220.52 131.682C220.468 131.781 220.395 131.868 220.306 131.936L214.39 136.475C214.39 138.835 214.39 152.709 222.696 158.156C232.773 164.783 255.346 135.93 255.558 135.643C255.628 135.548 255.719 135.471 255.824 135.418C255.929 135.366 256.046 135.339 256.163 135.34H273.23C273.335 135.342 273.439 135.365 273.535 135.408C273.631 135.452 273.717 135.514 273.788 135.592C273.859 135.67 273.913 135.762 273.947 135.862C273.981 135.961 273.994 136.067 273.986 136.172L272.473 152.452C272.463 152.568 272.425 152.679 272.361 152.777C272.298 152.875 272.212 152.955 272.11 153.012C270.416 153.859 238.643 173.044 222.545 173.044ZM206.749 131.361L209.987 136.717C210.074 136.857 210.112 137.022 210.093 137.186C210.093 137.398 207.823 157.641 215.963 169.11C222.484 178.294 257.54 159.911 270.945 151.801L272.458 136.671H256.526C253.939 139.955 232.651 166.326 221.864 159.23C212.105 152.815 212.862 136.535 212.907 135.87C212.908 135.762 212.934 135.657 212.984 135.562C213.034 135.467 213.106 135.386 213.194 135.325L218.671 131.149L212.241 125.415L206.749 131.361Z" fill="#2D2D2D"/>
<path d="M217.37 122.283C203.753 122.283 196.597 116.655 196.189 116.352C196.028 116.224 195.925 116.037 195.902 115.832C195.88 115.628 195.939 115.423 196.068 115.263C196.196 115.102 196.383 114.999 196.587 114.977C196.791 114.954 196.996 115.013 197.157 115.142C197.278 115.217 208.005 123.569 227.78 119.681C227.88 119.659 227.984 119.657 228.085 119.675C228.186 119.694 228.283 119.733 228.369 119.789C228.454 119.845 228.528 119.918 228.586 120.004C228.643 120.089 228.683 120.185 228.703 120.286C228.743 120.488 228.702 120.699 228.589 120.871C228.476 121.044 228.299 121.165 228.097 121.209C224.566 121.917 220.973 122.277 217.37 122.283V122.283Z" fill="#2D2D2D"/>
<path d="M158.046 166.507C157.888 166.511 157.733 166.464 157.603 166.374C157.473 166.285 157.374 166.157 157.32 166.008L149.513 146.037C149.475 145.937 149.457 145.832 149.461 145.725C149.464 145.619 149.488 145.515 149.531 145.418C149.575 145.321 149.637 145.233 149.714 145.16C149.792 145.088 149.883 145.031 149.982 144.993C150.081 144.955 150.187 144.937 150.293 144.94C150.4 144.944 150.504 144.968 150.601 145.011C150.698 145.055 150.785 145.117 150.858 145.194C150.931 145.272 150.988 145.363 151.026 145.462L158.833 165.448C158.907 165.643 158.901 165.859 158.815 166.049C158.73 166.239 158.573 166.388 158.379 166.462C158.272 166.499 158.159 166.514 158.046 166.507Z" fill="#2D2D2D"/>
<path d="M363.676 199.944L307.378 205.815C307.378 205.815 314.292 253.822 318.438 263.838C318.438 263.838 369.546 267.635 395.797 252.445C395.797 252.4 364.024 208.932 363.676 199.944Z" fill="white"/>
<path d="M332.312 265.003C324.051 265.003 318.544 264.609 318.377 264.594C318.237 264.586 318.103 264.537 317.99 264.454C317.877 264.37 317.791 264.256 317.742 264.125C313.596 254.139 306.909 207.888 306.636 205.921C306.623 205.822 306.629 205.722 306.655 205.625C306.681 205.529 306.726 205.439 306.788 205.361C306.848 205.279 306.925 205.211 307.014 205.161C307.102 205.112 307.201 205.082 307.302 205.073L363.6 199.188C363.808 199.171 364.014 199.236 364.175 199.369C364.328 199.511 364.421 199.706 364.432 199.914C364.705 206.844 385.463 237.012 396.402 251.991C396.468 252.076 396.514 252.174 396.538 252.278C396.561 252.383 396.561 252.492 396.538 252.596C396.515 252.7 396.471 252.798 396.408 252.884C396.346 252.97 396.266 253.042 396.175 253.096C378.518 263.323 349.484 265.003 332.312 265.003ZM318.967 263.111C324.111 263.444 370.091 265.88 394.692 252.203C390.607 246.575 364.78 210.687 363.01 200.761L308.24 206.496C309.148 212.638 315.17 253.186 318.967 263.111V263.111Z" fill="#2D2D2D"/>
<path d="M361.785 54.2895L353.04 85.5023C353.04 85.5023 391.031 85.9562 404.254 69.616L409.217 37.3138C409.217 37.3138 372.754 55.7873 361.785 54.2895Z" fill="white"/>
<path d="M353.267 86.2739H353.024C352.909 86.2766 352.794 86.2503 352.691 86.1974C352.588 86.1446 352.5 86.0669 352.434 85.9713C352.362 85.8816 352.311 85.7757 352.287 85.6625C352.264 85.5494 352.267 85.4322 352.298 85.3208L361.058 54.0928C361.113 53.92 361.226 53.7715 361.377 53.6723C361.529 53.573 361.71 53.5292 361.891 53.5481C372.481 55.0611 408.506 36.9053 408.869 36.6632C408.987 36.5894 409.123 36.5502 409.262 36.5502C409.401 36.5502 409.538 36.5894 409.655 36.6632C409.769 36.7437 409.857 36.8544 409.911 36.9829C409.965 37.1113 409.981 37.2522 409.958 37.3894L405.071 69.737C405.05 69.8666 404.993 69.9875 404.905 70.085C399.307 77.0145 388.882 81.8409 373.889 84.4281C367.074 85.5902 360.179 86.2074 353.267 86.2739V86.2739ZM362.344 55.1065L354.038 84.7458C360.09 84.7458 391.772 83.5506 403.528 69.2983L408.248 38.6452C401.652 41.9133 372.95 55.8024 362.344 55.1065Z" fill="#2D2D2D"/>
<path d="M120.645 254.987L156.685 221.232L59.7932 213.425L24.8735 244.335L120.645 254.987Z" fill="#2D2D2D"/>
<path d="M120.63 255.728L24.8583 245.137C24.7142 245.121 24.5777 245.064 24.4651 244.973C24.3524 244.882 24.2683 244.76 24.2228 244.623C24.1792 244.484 24.1775 244.335 24.2178 244.195C24.2582 244.055 24.3389 243.93 24.4498 243.836L59.3694 212.926C59.4452 212.858 59.5336 212.805 59.6297 212.771C59.7258 212.738 59.8276 212.723 59.9292 212.729L156.76 220.536C156.904 220.553 157.04 220.608 157.154 220.696C157.269 220.784 157.357 220.901 157.411 221.035C157.456 221.174 157.461 221.323 157.426 221.464C157.391 221.606 157.318 221.735 157.214 221.837L121.175 255.592C121.015 255.699 120.822 255.747 120.63 255.728V255.728ZM26.6285 243.776L120.433 254.185L154.99 221.837L60.1108 214.197L26.6285 243.776Z" fill="#2D2D2D"/>
<path d="M120.645 254.987L102.595 179.217L8.59363 171.863L24.8733 244.335L120.645 254.987Z" fill="white"/>
<path d="M120.63 255.728L24.8583 245.137C24.7027 245.117 24.5571 245.049 24.4408 244.944C24.3246 244.838 24.2432 244.7 24.2077 244.547L7.92797 172.075C7.90578 171.959 7.90917 171.839 7.93791 171.724C7.96665 171.609 8.02004 171.502 8.0944 171.41C8.17405 171.321 8.27259 171.253 8.38264 171.208C8.49269 171.164 8.61139 171.144 8.72986 171.152L102.732 178.505C102.891 178.521 103.041 178.586 103.16 178.692C103.28 178.798 103.363 178.939 103.397 179.095L121.447 254.851C121.476 254.969 121.477 255.093 121.448 255.211C121.419 255.33 121.361 255.44 121.281 255.531C121.194 255.612 121.091 255.671 120.978 255.705C120.865 255.739 120.746 255.747 120.63 255.728V255.728ZM25.4786 243.624L119.647 254.094L101.96 179.958L9.53173 172.726L25.4786 243.624Z" fill="#2D2D2D"/>
<path d="M66.7226 225.015C63.5634 224.886 60.5381 223.703 58.1288 221.656C56.0064 219.338 54.135 216.802 52.5459 214.091C52.4638 213.952 52.4283 213.79 52.4447 213.63C52.461 213.469 52.5283 213.318 52.6367 213.198L54.7397 210.883C54.8168 210.801 54.911 210.737 55.0155 210.695C55.1201 210.653 55.2325 210.635 55.3449 210.641C55.458 210.65 55.5679 210.682 55.6672 210.737C55.7664 210.792 55.8526 210.868 55.9199 210.959C57.0504 212.385 58.6078 213.411 60.3639 213.887C62.12 214.364 63.9825 214.266 65.6786 213.607V213.607C68.1726 212.57 70.1939 210.645 71.3523 208.205C71.4907 207.643 71.5868 207.072 71.6398 206.496C71.6228 205.817 71.779 205.145 72.0937 204.544C72.3055 204.302 72.7745 203.727 76.0577 204.393C76.2288 204.424 76.384 204.513 76.497 204.645C76.6099 204.778 76.6739 204.945 76.678 205.119V209.174C76.9352 210.263 78.3877 216.935 76.678 219.25C75.6814 220.778 74.3716 222.076 72.8353 223.06C71.2989 224.043 69.5712 224.689 67.7665 224.954C67.4488 224.984 67.0857 225.015 66.7226 225.015ZM54.1346 213.788C55.5607 216.2 57.234 218.456 59.1274 220.521C61.4933 222.561 64.5563 223.607 67.6758 223.441C69.2702 223.193 70.7942 222.611 72.1475 221.732C73.5009 220.853 74.653 219.698 75.5281 218.342C76.5721 216.966 75.9215 212.154 75.2861 209.431C75.2776 209.381 75.2776 209.33 75.2861 209.28V205.769C74.6529 205.649 74.0091 205.593 73.3646 205.603C73.3646 205.815 73.3646 206.314 73.2435 206.677C73.2038 207.426 73.056 208.165 72.8048 208.871C71.4571 211.696 69.0811 213.898 66.1628 215.029V215.029C64.2957 215.75 62.2565 215.901 60.3036 215.462C58.3508 215.023 56.5723 214.014 55.1936 212.563L54.1346 213.788Z" fill="#FFDFBB"/>
<path d="M230.2 242.928L161.118 241.188C161.018 241.184 160.921 241.161 160.83 241.119C160.74 241.078 160.659 241.019 160.591 240.946C160.524 240.872 160.472 240.787 160.437 240.693C160.403 240.6 160.387 240.501 160.391 240.402C160.393 240.304 160.414 240.208 160.454 240.119C160.493 240.03 160.549 239.949 160.619 239.882C160.689 239.814 160.772 239.761 160.863 239.726C160.954 239.691 161.051 239.673 161.148 239.675V239.675L230.216 241.415C230.316 241.415 230.414 241.435 230.506 241.474C230.598 241.514 230.682 241.571 230.751 241.643C230.82 241.715 230.874 241.8 230.909 241.894C230.945 241.987 230.961 242.087 230.957 242.187C230.949 242.384 230.867 242.57 230.726 242.708C230.585 242.846 230.397 242.925 230.2 242.928V242.928Z" fill="#FFDFBB"/>
<path d="M183.691 229.266C173.736 229.266 166.11 229.266 165.762 229.175C165.562 229.139 165.384 229.025 165.267 228.857C165.151 228.69 165.106 228.483 165.142 228.283C165.178 228.082 165.293 227.904 165.46 227.788C165.627 227.671 165.834 227.626 166.035 227.662C167.548 227.798 207.218 227.662 228.067 227.662C228.268 227.662 228.46 227.742 228.602 227.884C228.744 228.026 228.824 228.218 228.824 228.419C228.824 228.619 228.744 228.812 228.602 228.954C228.46 229.096 228.268 229.175 228.067 229.175C219.367 229.221 198.821 229.266 183.691 229.266Z" fill="#FFDFBB"/>
<path d="M222.363 216.269H222.288L210.88 215.241C210.78 215.231 210.684 215.202 210.595 215.155C210.507 215.108 210.429 215.044 210.366 214.967C210.303 214.889 210.255 214.8 210.227 214.704C210.198 214.608 210.189 214.508 210.199 214.409C210.207 214.31 210.234 214.213 210.279 214.125C210.325 214.037 210.387 213.959 210.464 213.895C210.54 213.832 210.628 213.784 210.723 213.756C210.818 213.727 210.917 213.717 211.016 213.728L222.424 214.756C222.625 214.756 222.817 214.836 222.959 214.978C223.101 215.12 223.18 215.312 223.18 215.513C223.18 215.714 223.101 215.906 222.959 216.048C222.817 216.19 222.625 216.269 222.424 216.269H222.363Z" fill="#FFDFBB"/>
<path d="M357.911 158.595C357.911 158.595 359.167 122.661 378.503 104.127L430.126 119.106C430.126 119.106 402.045 149.592 402.408 174.905L357.911 158.595Z" fill="white"/>
<path d="M402.408 175.691C402.323 175.707 402.236 175.707 402.151 175.691L357.639 159.381C357.485 159.325 357.353 159.221 357.261 159.086C357.168 158.95 357.121 158.789 357.125 158.625C357.125 158.262 358.638 122.162 377.958 103.628C378.06 103.537 378.182 103.473 378.314 103.441C378.446 103.41 378.584 103.411 378.715 103.446L430.353 118.425C430.48 118.465 430.594 118.535 430.686 118.63C430.779 118.726 430.846 118.842 430.883 118.97C430.922 119.098 430.927 119.235 430.895 119.365C430.863 119.496 430.796 119.615 430.701 119.711C430.429 120.013 402.893 150.243 403.195 174.935C403.195 175.062 403.165 175.187 403.107 175.3C403.049 175.413 402.965 175.511 402.862 175.585C402.724 175.664 402.567 175.701 402.408 175.691ZM358.713 158.065L401.637 173.724C401.894 160.773 409.202 146.687 415.496 137.05C419.495 130.898 423.914 125.029 428.719 119.484L378.715 104.974C361.437 121.95 358.986 153.466 358.713 158.065Z" fill="#2D2D2D"/>
<path d="M413.816 124.144H413.604L378.125 113.856C377.934 113.796 377.775 113.665 377.679 113.49C377.583 113.315 377.558 113.11 377.61 112.918C377.636 112.821 377.682 112.731 377.743 112.652C377.805 112.574 377.882 112.508 377.97 112.46C378.057 112.412 378.154 112.383 378.253 112.373C378.353 112.363 378.453 112.373 378.548 112.403L414.028 122.691C414.229 122.72 414.41 122.826 414.532 122.988C414.654 123.15 414.707 123.353 414.679 123.554C414.65 123.754 414.544 123.936 414.382 124.058C414.22 124.18 414.017 124.233 413.816 124.204V124.144Z" fill="#FFDFBB"/>
<path d="M408.702 134.508H408.49L373.011 124.22C372.821 124.16 372.661 124.029 372.565 123.854C372.469 123.679 372.444 123.474 372.497 123.282C372.523 123.185 372.568 123.095 372.63 123.016C372.691 122.938 372.768 122.872 372.856 122.824C372.944 122.776 373.04 122.746 373.139 122.737C373.239 122.727 373.339 122.737 373.435 122.767L408.914 133.055C409.115 133.083 409.296 133.19 409.418 133.352C409.54 133.514 409.593 133.717 409.565 133.918C409.537 134.118 409.43 134.3 409.268 134.422C409.106 134.544 408.903 134.596 408.702 134.568V134.508Z" fill="#FFDFBB"/>
<path d="M404.33 145.432H404.118L368.638 135.143C368.543 135.115 368.454 135.069 368.377 135.007C368.299 134.945 368.235 134.868 368.187 134.781C368.139 134.694 368.109 134.598 368.098 134.499C368.087 134.401 368.096 134.301 368.124 134.205C368.15 134.109 368.195 134.019 368.257 133.94C368.319 133.861 368.396 133.796 368.483 133.748C368.571 133.7 368.667 133.67 368.767 133.66C368.866 133.651 368.967 133.661 369.062 133.691L404.542 143.979C404.637 144.007 404.726 144.053 404.803 144.115C404.881 144.178 404.945 144.255 404.993 144.342C405.041 144.429 405.071 144.524 405.082 144.623C405.093 144.722 405.084 144.822 405.056 144.917C405.007 145.07 404.91 145.203 404.779 145.295C404.648 145.388 404.49 145.436 404.33 145.432Z" fill="#FFDFBB"/>
<path d="M389.185 155.205C389.115 155.219 389.043 155.219 388.973 155.205L363.751 147.883C363.655 147.857 363.565 147.811 363.486 147.75C363.408 147.688 363.342 147.611 363.294 147.523C363.246 147.436 363.216 147.339 363.207 147.24C363.197 147.14 363.207 147.04 363.237 146.945C363.293 146.752 363.424 146.59 363.6 146.493C363.775 146.397 363.983 146.374 364.175 146.43L389.397 153.753C389.492 153.781 389.581 153.827 389.658 153.889C389.736 153.952 389.8 154.028 389.848 154.115C389.896 154.203 389.926 154.298 389.937 154.397C389.948 154.496 389.939 154.596 389.911 154.691C389.862 154.844 389.765 154.977 389.634 155.069C389.503 155.162 389.345 155.21 389.185 155.205V155.205Z" fill="#FFDFBB"/>
<path d="M395.766 72.5512H395.615C395.403 72.5512 394.889 72.3847 394.919 71.5526C394.92 71.3764 394.991 71.2077 395.116 71.0836C395.706 68.3905 397.96 54.4408 399.428 44.9695C399.444 44.8701 399.479 44.7749 399.532 44.6892C399.584 44.6035 399.653 44.529 399.735 44.47C399.816 44.411 399.909 44.3686 400.006 44.3453C400.104 44.3219 400.206 44.3181 400.305 44.334C400.405 44.3499 400.5 44.3852 400.585 44.4379C400.671 44.4906 400.746 44.5597 400.805 44.6412C400.864 44.7227 400.906 44.815 400.929 44.9128C400.953 45.0107 400.957 45.1122 400.941 45.2115C396.871 71.1138 396.598 72.5512 395.766 72.5512Z" fill="#FFDFBB"/>
<path d="M388.201 76.4093H388.05C387.823 76.4093 387.324 76.258 387.354 75.4107C387.355 75.2345 387.426 75.0658 387.551 74.9417C388.141 72.2486 390.395 58.2989 391.863 48.8276C391.877 48.7297 391.912 48.6357 391.963 48.5511C392.015 48.4666 392.083 48.3933 392.163 48.3354C392.243 48.2776 392.335 48.2365 392.431 48.2145C392.528 48.1925 392.628 48.19 392.725 48.2073C392.824 48.222 392.918 48.2561 393.003 48.3075C393.089 48.3588 393.163 48.4265 393.222 48.5066C393.281 48.5867 393.324 48.6777 393.347 48.7743C393.371 48.8709 393.376 48.9713 393.361 49.0697C389.306 74.972 389.034 76.4093 388.201 76.4093Z" fill="#FFDFBB"/>
<path d="M380.061 78.0282H379.91C379.698 78.0282 379.184 77.8769 379.214 77.0447C379.219 76.8648 379.289 76.6928 379.411 76.5606C380.001 73.8675 382.255 59.9178 383.723 50.4465C383.76 50.2493 383.872 50.0743 384.036 49.9585C384.2 49.8427 384.402 49.7952 384.6 49.8262C384.698 49.8408 384.792 49.8749 384.877 49.9265C384.961 49.9781 385.035 50.0461 385.093 50.1265C385.15 50.2069 385.191 50.298 385.214 50.3945C385.236 50.4911 385.238 50.5911 385.221 50.6886C381.166 76.5909 380.863 78.0282 380.061 78.0282Z" fill="#FFDFBB"/>
<path d="M372.361 82.0376H372.209C371.982 82.0376 371.483 81.8711 371.513 81.039C371.514 80.8628 371.585 80.6941 371.71 80.57C372.285 77.8617 374.554 63.9272 376.022 54.4559C376.055 54.2589 376.164 54.0826 376.325 53.9641C376.486 53.8456 376.686 53.7941 376.884 53.8204C377.081 53.8539 377.258 53.9625 377.376 54.1234C377.495 54.2842 377.546 54.4848 377.52 54.6828C373.45 80.5851 373.193 82.0376 372.361 82.0376Z" fill="#FFDFBB"/>
<path d="M364.221 83.1118H364.069C363.842 83.1118 363.343 82.9454 363.373 82.1132C363.377 81.933 363.447 81.7605 363.57 81.6291C364.145 78.936 366.415 64.9862 367.882 55.5301C367.897 55.4317 367.931 55.3372 367.982 55.2519C368.034 55.1667 368.101 55.0925 368.181 55.0334C368.262 54.9744 368.353 54.9318 368.449 54.9079C368.546 54.8841 368.646 54.8796 368.744 54.8946C368.941 54.9282 369.118 55.0368 369.236 55.1976C369.355 55.3584 369.406 55.559 369.38 55.757C365.355 81.6745 365.098 83.1118 364.221 83.1118Z" fill="#FFDFBB"/>
<path d="M331.737 29.3857C331.737 29.3857 331.313 37.4348 338.379 48.2073C338.379 48.2073 353.418 25.0283 362.587 21.4728C371.755 17.9173 338.394 14.5131 331.737 29.3857Z" fill="white"/>
<path d="M338.379 48.9638C338.253 48.9609 338.129 48.9278 338.019 48.8673C337.908 48.8067 337.814 48.7205 337.743 48.6158C330.632 37.7677 330.935 29.6884 330.935 29.3404C330.946 29.2462 330.972 29.1544 331.011 29.068C335.686 18.6133 352.828 16.6918 360.968 17.993C363.51 18.3864 364.811 19.0823 364.917 20.096C365.022 21.1097 363.404 21.957 362.844 22.1688C353.978 25.6033 339.12 48.3888 338.969 48.6158C338.901 48.7223 338.807 48.81 338.696 48.8708C338.585 48.9316 338.46 48.9636 338.333 48.9638H338.379ZM332.448 29.5522C332.448 30.5961 332.614 37.6315 338.349 46.8153C341.375 42.2764 353.978 23.9844 362.299 20.7618C362.67 20.6455 363.018 20.4664 363.328 20.2322C362.481 19.5968 358.229 18.7949 352.177 19.3547C347.487 19.7783 336.155 21.6544 332.448 29.5522Z" fill="#2D2D2D"/>
<path d="M365.567 40.2187C365.567 40.2187 353.932 20.8071 331.737 29.3858C336.2 19.581 341.612 10.2367 347.895 1.48634C347.895 1.48634 360.135 -2.78027 376.506 10.9274C376.506 10.9274 371.195 31.398 365.567 40.2187Z" fill="white"/>
<path d="M365.567 40.9752C365.438 40.9691 365.313 40.9313 365.202 40.8654C365.091 40.7994 364.998 40.7072 364.932 40.597C364.463 39.8253 353.342 21.8511 332.024 30.0061C331.886 30.0638 331.733 30.0773 331.587 30.0448C331.441 30.0123 331.308 29.9354 331.207 29.8245C331.103 29.719 331.033 29.5848 331.006 29.4392C330.979 29.2936 330.997 29.1432 331.056 29.0075C335.551 19.158 340.993 9.76864 347.305 0.971903C347.393 0.840476 347.52 0.739943 347.668 0.684438C348.183 0.51801 360.499 -3.55192 377.005 10.2768C377.113 10.3704 377.193 10.4921 377.235 10.6283C377.278 10.7645 377.282 10.91 377.247 11.0484C377.035 11.8805 371.846 31.7309 366.218 40.5516C366.155 40.6724 366.062 40.775 365.948 40.8492C365.834 40.9235 365.703 40.9669 365.567 40.9752ZM342.676 26.4505C355.491 26.4505 363.267 35.71 365.522 38.8116C370.333 30.5356 374.857 14.1651 375.643 11.1997C361.149 -0.752895 350.029 1.66788 348.41 2.12177C342.614 10.3043 337.551 18.9821 333.28 28.0543C336.307 27.0267 339.479 26.4854 342.676 26.4505V26.4505Z" fill="#2D2D2D"/>
<path d="M363.54 29.5824C363.46 29.5972 363.378 29.5972 363.298 29.5824C363.203 29.5501 363.116 29.4993 363.041 29.4331C362.966 29.3668 362.905 29.2862 362.861 29.1962C362.817 29.1061 362.792 29.0083 362.787 28.9084C362.781 28.8085 362.795 28.7084 362.829 28.6141L368.956 10.8214C369.022 10.6337 369.158 10.4792 369.337 10.3914C369.515 10.3037 369.721 10.2896 369.909 10.3524C370.098 10.421 370.253 10.5605 370.341 10.7413C370.428 10.9221 370.442 11.13 370.378 11.3207L364.221 29.0831C364.17 29.2246 364.078 29.3477 363.956 29.4366C363.835 29.5255 363.69 29.5763 363.54 29.5824Z" fill="#FFDFBB"/>
<path d="M356.383 25.0889C356.303 25.1033 356.221 25.1033 356.141 25.0889C355.954 25.0235 355.799 24.8868 355.711 24.7085C355.624 24.5301 355.61 24.3243 355.672 24.1357L361.724 6.55483C361.747 6.45027 361.791 6.35161 361.854 6.26535C361.917 6.17909 361.998 6.1072 362.091 6.0544C362.184 6.0016 362.287 5.9691 362.393 5.95904C362.499 5.94899 362.607 5.9616 362.708 5.99605C362.809 6.0305 362.902 6.086 362.98 6.1589C363.058 6.23181 363.12 6.32045 363.162 6.419C363.203 6.51754 363.223 6.62374 363.22 6.73061C363.218 6.83748 363.193 6.94258 363.146 7.03899L357.095 24.6199C357.039 24.7617 356.94 24.8828 356.813 24.9667C356.686 25.0506 356.536 25.0933 356.383 25.0889V25.0889Z" fill="#FFDFBB"/>
<path d="M347.578 22.7588C347.478 22.7801 347.375 22.7801 347.275 22.7588C347.094 22.6788 346.95 22.532 346.874 22.3489C346.798 22.1658 346.795 21.9604 346.867 21.7754C353.842 5.05693 354.341 4.99642 354.855 4.92077C355.052 4.90269 355.249 4.95963 355.406 5.08022C355.563 5.20081 355.669 5.37619 355.702 5.57135C355.723 5.70255 355.707 5.8368 355.656 5.95951C355.605 6.08221 355.522 6.18867 355.415 6.26732C354.659 7.34154 350.649 16.6464 348.274 22.3503C348.21 22.4784 348.11 22.5851 347.986 22.6576C347.863 22.7301 347.721 22.7653 347.578 22.7588V22.7588Z" fill="#FFDFBB"/>
<path d="M70.3538 115.641C70.3538 115.641 41.0624 111.964 33.5126 99.8605C28.6408 92.0233 40.669 65.4704 40.669 65.4704C40.669 65.4704 44.6936 80.7818 55.4206 83.0815C66.1477 85.3813 73.0318 86.3344 73.0318 86.3344C73.0318 86.3344 64.8011 107.985 70.3538 115.641Z" fill="white"/>
<path d="M70.3538 116.397H70.263C69.0526 116.246 40.5177 112.539 32.862 100.254C27.8389 92.1745 39.4738 66.2571 39.9731 65.1527C40.0344 65.0073 40.1414 64.8858 40.2778 64.8066C40.4143 64.7275 40.5729 64.6949 40.7295 64.7139C40.8853 64.7252 41.0336 64.7854 41.1531 64.8859C41.2727 64.9864 41.3574 65.1222 41.3952 65.2737C41.3952 65.425 45.4349 80.1766 55.5719 82.3402C66.1628 84.6096 73.0771 85.5779 73.1377 85.5931C73.2599 85.6012 73.3782 85.6402 73.4813 85.7063C73.5845 85.7724 73.6693 85.8636 73.7277 85.9713C73.7761 86.0729 73.8012 86.1841 73.8012 86.2966C73.8012 86.4091 73.7761 86.5203 73.7277 86.6219C73.6521 86.8337 65.7089 107.97 70.959 115.217C71.0367 115.342 71.078 115.486 71.078 115.633C71.078 115.78 71.0367 115.925 70.959 116.049C70.8934 116.152 70.8042 116.237 70.6989 116.297C70.5936 116.358 70.4752 116.392 70.3538 116.397ZM40.548 67.6339C37.9759 73.6859 30.2748 93.2185 34.1481 99.4066C40.4421 109.513 62.8947 113.674 68.9467 114.627C65.3306 106.82 70.611 90.8734 71.9726 86.9094C69.7486 86.5614 63.621 85.5779 55.2239 83.7775C46.494 81.9317 42.061 71.946 40.548 67.6339Z" fill="#2D2D2D"/>
<path d="M38.1424 98.9073C37.9558 98.908 37.7758 98.8382 37.6384 98.712C37.501 98.5858 37.4162 98.4124 37.401 98.2265C36.6142 90.9793 41.2137 78.4367 41.4104 77.9071C41.4817 77.7213 41.6232 77.5711 41.8045 77.489C41.9857 77.4069 42.192 77.3994 42.3787 77.4684C42.5673 77.5366 42.721 77.677 42.8061 77.8586C42.8912 78.0401 42.9007 78.2481 42.8326 78.4367C42.8326 78.5577 38.1575 91.176 38.8989 98.1054C38.9201 98.3039 38.8621 98.5028 38.7374 98.6586C38.6127 98.8145 38.4314 98.9148 38.2331 98.9376L38.1424 98.9073Z" fill="#FFDFBB"/>
<path d="M37.416 104.127C37.416 104.127 36.8714 97.1977 40.1243 92.5982L33.6336 85.6234C33.6336 85.6234 28.671 97.9542 37.416 104.127Z" fill="white"/>
<path d="M37.4161 104.944C37.2595 104.943 37.1068 104.896 36.9773 104.808C27.8994 98.3021 32.8771 85.5326 32.9225 85.4115C32.971 85.2939 33.0472 85.1898 33.1447 85.1081C33.2422 85.0264 33.358 84.9696 33.4823 84.9425C33.608 84.9198 33.7374 84.9286 33.8589 84.9682C33.9804 85.0078 34.0901 85.077 34.1783 85.1695L40.669 92.1443C40.7894 92.2702 40.8627 92.4338 40.8765 92.6074C40.8903 92.7811 40.8437 92.9542 40.7446 93.0975C37.7187 97.4095 38.1726 104.067 38.1726 104.127C38.1867 104.27 38.1584 104.413 38.0911 104.54C38.0237 104.666 37.9205 104.77 37.7943 104.838C37.6814 104.91 37.5498 104.947 37.4161 104.944V104.944ZM33.9362 87.1363C33.0889 90.0413 31.5003 97.7272 36.6293 102.554C36.608 99.1171 37.4786 95.7338 39.156 92.7344L33.9362 87.1363Z" fill="#2D2D2D"/>
<path d="M44.9811 104.944C44.8804 104.942 44.7812 104.92 44.6891 104.879C44.5971 104.839 44.5141 104.78 44.4451 104.707C44.376 104.633 44.3223 104.547 44.287 104.453C44.2518 104.358 44.2357 104.258 44.2397 104.157C44.2397 103.628 44.7088 91.1003 47.7499 83.5959C47.7863 83.5035 47.841 83.4194 47.9106 83.3485C47.9802 83.2777 48.0633 83.2215 48.1551 83.1834C48.2468 83.1453 48.3453 83.126 48.4446 83.1267C48.5439 83.1274 48.6421 83.1481 48.7333 83.1874C48.8258 83.2241 48.9101 83.2787 48.9814 83.348C49.0527 83.4173 49.1097 83.4999 49.1491 83.5913C49.1884 83.6826 49.2094 83.7808 49.2107 83.8803C49.2121 83.9797 49.1938 84.0785 49.1569 84.1709C46.2218 91.4181 45.7527 104.082 45.7527 104.218C45.7448 104.416 45.6596 104.603 45.5153 104.739C45.371 104.874 45.1792 104.948 44.9811 104.944Z" fill="#FFDFBB"/>
<path d="M52.8334 107.274C52.6365 107.27 52.4485 107.192 52.3079 107.054C52.1672 106.916 52.0846 106.73 52.0769 106.533C51.9105 98.166 55.4811 87.6507 55.6324 87.212C55.6986 87.0214 55.8379 86.8649 56.0195 86.7769C56.2011 86.689 56.4101 86.6768 56.6007 86.743C56.7914 86.8092 56.9478 86.9484 57.0358 87.13C57.1238 87.3116 57.136 87.5207 57.0698 87.7113C57.0698 87.802 53.4235 98.4081 53.5899 106.503C53.5919 106.602 53.5743 106.701 53.5382 106.793C53.502 106.886 53.4479 106.97 53.3791 107.042C53.3102 107.114 53.2279 107.171 53.1369 107.211C53.0459 107.251 52.9479 107.272 52.8485 107.274H52.8334Z" fill="#FFDFBB"/>
<path d="M60.6857 109.211C60.5871 109.213 60.4891 109.195 60.3974 109.159C60.3057 109.122 60.2221 109.068 60.1517 108.999C60.0812 108.93 60.0253 108.848 59.9871 108.757C59.9489 108.666 59.9292 108.568 59.9292 108.469C59.904 103.733 60.304 99.0033 61.1245 94.3381C61.1681 94.1435 61.2855 93.9733 61.4519 93.8632C61.6184 93.7532 61.8209 93.712 62.0172 93.7481C62.1155 93.766 62.2092 93.8037 62.2926 93.8587C62.376 93.9138 62.4474 93.9852 62.5025 94.0686C62.5576 94.152 62.5953 94.2456 62.6133 94.344C62.6313 94.4423 62.6292 94.5432 62.6072 94.6407C61.8061 99.2011 61.4162 103.824 61.4422 108.454C61.4422 108.655 61.3625 108.847 61.2206 108.989C61.0788 109.131 60.8864 109.211 60.6857 109.211V109.211Z" fill="#FFDFBB"/>
</svg>
