<svg width="310" height="203" viewBox="0 0 310 203" fill="none" xmlns="http://www.w3.org/2000/svg">
<path d="M279.48 114.302L282.525 43.1197C282.525 43.1197 269.909 47.8801 261.971 40.4807L266.265 120.554L279.48 114.302Z" fill="white"/>
<path d="M266.295 121.041C266.205 121.044 266.117 121.02 266.042 120.97C265.968 120.93 265.906 120.872 265.861 120.801C265.817 120.73 265.792 120.648 265.788 120.564L261.525 40.491C261.52 40.3896 261.545 40.289 261.597 40.2022C261.65 40.1154 261.727 40.0462 261.819 40.0038C261.911 39.9605 262.013 39.946 262.113 39.9623C262.212 39.9787 262.305 40.025 262.377 40.0951C269.99 47.2001 282.282 42.6631 282.403 42.6225C282.482 42.5914 282.566 42.5808 282.65 42.5914C282.733 42.6021 282.813 42.6337 282.88 42.6834C282.948 42.7337 283.003 42.7997 283.04 42.8756C283.077 42.9516 283.096 43.0353 283.094 43.1198L280.049 114.302C280.044 114.394 280.014 114.484 279.962 114.561C279.911 114.638 279.839 114.699 279.754 114.738L266.559 120.991C266.479 121.036 266.387 121.053 266.295 121.041ZM262.54 41.6278L266.732 119.783L278.912 113.987L281.957 43.8506C279.298 44.6829 269.645 47.19 262.54 41.6278Z" fill="#FFDFBB"/>
<path d="M283.332 43.8218C283.767 40.5087 279.526 37.2197 273.86 36.4756C268.194 35.7316 263.248 37.8143 262.813 41.1274C262.378 44.4405 266.618 47.7295 272.285 48.4736C277.951 49.2176 282.897 47.1349 283.332 43.8218Z" fill="white"/>
<path d="M273.786 48.2557C273.108 48.2596 272.43 48.2223 271.756 48.144C265.666 47.4843 261.19 44.084 261.464 40.43C261.528 39.793 261.722 39.1759 262.035 38.6172C262.347 38.0584 262.772 37.5699 263.281 37.182C265.402 35.4159 268.945 34.6242 272.781 35.0505C278.871 35.7103 283.347 39.1105 283.073 42.7645C283.009 43.4015 282.815 44.0186 282.503 44.5773C282.19 45.1361 281.766 45.6246 281.257 46.0125C279.091 47.5814 276.458 48.372 273.786 48.2557V48.2557ZM270.863 35.9539C268.4 35.8403 265.97 36.555 263.961 37.9839C263.557 38.2841 263.22 38.6645 262.97 39.1011C262.721 39.5378 262.564 40.0213 262.51 40.5214C262.276 43.5663 266.488 46.5606 271.898 47.1595C275.41 47.5452 278.76 46.8144 280.637 45.2614C281.04 44.9574 281.376 44.5748 281.625 44.1368C281.875 43.6989 282.032 43.2147 282.089 42.7138C282.322 39.6688 278.11 36.6238 272.7 36.0757C272.091 36.0002 271.477 35.9595 270.863 35.9539Z" fill="#FFDFBB"/>
<path d="M274.304 48.0222C274.169 48.0411 274.033 48.0057 273.924 47.9238C273.816 47.842 273.744 47.7204 273.725 47.5858C273.706 47.4512 273.742 47.3146 273.824 47.2061C273.905 47.0976 274.027 47.0261 274.162 47.0072C275.289 46.6899 276.351 46.1744 277.298 45.4847C277.786 45.1848 278.202 44.7826 278.52 44.306C278.837 43.8293 279.047 43.2896 279.135 42.7239C279.132 41.7617 278.77 40.8352 278.12 40.1255C277.556 39.458 276.862 38.9123 276.08 38.5214C275.298 38.1306 274.445 37.9028 273.573 37.8519C271.84 37.8238 270.132 38.2658 268.63 39.1308C268.183 39.2996 267.781 39.5714 267.459 39.9241C267.136 40.2767 266.901 40.7004 266.772 41.1608C266.731 41.5134 266.763 41.8708 266.868 42.21C266.973 42.5492 267.148 42.8626 267.381 43.1299C267.853 43.6323 268.438 44.0151 269.087 44.2464L269.33 44.3378L269.432 40.3488C269.433 40.2643 269.456 40.1815 269.498 40.1085C269.541 40.0355 269.602 39.9749 269.675 39.9327C270.493 39.4331 271.416 39.1307 272.371 39.0497C273.326 38.9687 274.286 39.1111 275.177 39.4658C275.648 39.6387 276.072 39.9204 276.415 40.2879C276.748 40.7323 276.965 41.2532 277.045 41.8029C277.124 42.3527 277.065 42.9136 276.872 43.4344C276.695 43.9087 276.424 44.3422 276.075 44.7086C275.727 45.075 275.307 45.3667 274.842 45.5659C274.039 45.9079 273.164 46.0473 272.294 45.9719C271.051 45.9194 269.825 45.6551 268.67 45.1904C267.882 44.9074 267.173 44.4412 266.6 43.8303C266.275 43.4499 266.033 43.0065 265.888 42.5279C265.743 42.0492 265.698 41.5458 265.757 41.0492C265.897 40.421 266.187 39.8361 266.603 39.3447C267.018 38.8532 267.547 38.4699 268.143 38.2275C269.835 37.2677 271.76 36.7936 273.705 36.8572C274.715 36.9154 275.702 37.1795 276.606 37.6334C277.511 38.0872 278.312 38.7211 278.963 39.4962C279.434 39.9725 279.788 40.552 279.997 41.189C280.206 41.8259 280.263 42.5027 280.164 43.1657C280.066 43.8287 279.814 44.4595 279.429 45.0083C279.045 45.5571 278.537 46.0086 277.948 46.3272C276.907 47.0874 275.738 47.6547 274.497 48.0019L274.304 48.0222ZM270.305 44.7032C270.968 44.8763 271.649 44.975 272.335 44.9975C273.047 45.0619 273.764 44.954 274.426 44.6829C274.759 44.5342 275.059 44.3202 275.309 44.0534C275.558 43.7867 275.751 43.4727 275.877 43.1299C276.01 42.7777 276.054 42.3983 276.006 42.025C275.959 41.6517 275.82 41.2957 275.603 40.9883C275.371 40.7415 275.082 40.5566 274.76 40.4503C274.059 40.1717 273.304 40.05 272.55 40.0938C271.796 40.1377 271.061 40.3459 270.396 40.7041L270.305 44.7032Z" fill="#FFDFBB"/>
<path d="M297.172 112.13L307.778 42.0134C307.778 42.0134 294.766 44.7844 287.671 36.2279L283.439 116.332L297.172 112.13Z" fill="white"/>
<path d="M283.439 116.809C283.324 116.807 283.214 116.768 283.124 116.697C283.059 116.648 283.007 116.583 282.973 116.509C282.939 116.434 282.925 116.352 282.931 116.271L287.164 36.1975C287.17 36.0959 287.206 35.9983 287.267 35.9171C287.329 35.8359 287.413 35.7745 287.509 35.7408C287.608 35.7102 287.713 35.7093 287.812 35.7382C287.912 35.767 288 35.8244 288.067 35.9032C294.878 44.1247 307.545 41.5466 307.667 41.5161C307.747 41.4969 307.831 41.498 307.911 41.5193C307.99 41.5405 308.063 41.5813 308.124 41.6379C308.182 41.695 308.227 41.7652 308.253 41.8429C308.28 41.9205 308.288 42.0033 308.276 42.0845L297.679 112.211C297.664 112.305 297.623 112.393 297.56 112.465C297.497 112.537 297.415 112.589 297.324 112.617L283.581 116.789L283.439 116.809ZM288.118 37.4764L283.977 115.631L296.725 111.764L307.2 42.6326C304.429 43.0386 294.441 43.9927 288.118 37.4764Z" fill="#FFDFBB"/>
<path d="M307.763 42.069C308.75 38.9062 305.077 34.9475 299.559 33.2269C294.042 31.5064 288.769 32.6754 287.783 35.8382C286.797 39.0009 290.47 42.9596 295.987 44.6802C301.505 46.4008 306.777 45.2317 307.763 42.069Z" fill="white"/>
<path d="M300.988 45.972C299.485 45.9618 297.991 45.7536 296.542 45.3528C290.625 43.7694 286.514 39.7094 287.174 36.1366C287.298 35.5249 287.552 34.9467 287.918 34.4408C288.284 33.935 288.753 33.513 289.295 33.2033C291.579 31.762 295.203 31.5082 298.989 32.5232C304.906 34.1168 309.017 38.1666 308.357 41.7496C308.228 42.3595 307.972 42.9356 307.607 43.4408C307.241 43.946 306.774 44.3692 306.236 44.6829C304.639 45.5896 302.823 46.0358 300.988 45.972V45.972ZM294.553 32.9292C292.906 32.8678 291.275 33.2574 289.833 34.0559C289.411 34.2933 289.044 34.6179 288.757 35.0082C288.47 35.3985 288.269 35.8455 288.169 36.3193C287.61 39.3643 291.488 42.9473 296.806 44.3784C300.267 45.3122 303.678 45.0991 305.698 43.8202C306.119 43.5839 306.485 43.2608 306.772 42.8723C307.059 42.4839 307.26 42.0389 307.362 41.5669V41.5669C307.921 38.5219 304.043 34.9288 298.725 33.5078C297.365 33.134 295.963 32.9395 294.553 32.9292Z" fill="#FFDFBB"/>
<path d="M299.08 45.6268C298.956 45.6256 298.836 45.5798 298.743 45.4978C298.65 45.4159 298.589 45.3032 298.572 45.1802C298.558 45.046 298.597 44.9114 298.68 44.8052C298.763 44.699 298.885 44.6296 299.019 44.6118C300.159 44.4786 301.263 44.1344 302.277 43.5968C302.788 43.3771 303.242 43.0448 303.606 42.6247C303.97 42.2046 304.234 41.7076 304.378 41.171C304.477 40.1972 304.221 39.2204 303.658 38.4203C302.68 36.9077 301.144 35.8424 299.384 35.4565C297.682 35.1397 295.925 35.3013 294.309 35.9234C293.142 36.3294 292.472 36.9385 292.279 37.6794C292.206 38.027 292.203 38.3859 292.271 38.7346C292.339 39.0834 292.476 39.4149 292.675 39.7094C293.095 40.2801 293.636 40.7514 294.259 41.0898L294.482 41.2116L295 37.3038C295.01 37.2154 295.044 37.1313 295.097 37.0601C295.151 36.9888 295.222 36.9328 295.304 36.8978C296.189 36.5327 297.146 36.3775 298.1 36.4444C299.055 36.5113 299.981 36.7985 300.805 37.2836C301.257 37.5263 301.644 37.8745 301.932 38.2986C302.215 38.7765 302.373 39.3177 302.393 39.8728C302.412 40.4278 302.292 40.9789 302.044 41.4755C301.822 41.9168 301.51 42.3071 301.129 42.6216C300.748 42.9361 300.306 43.168 299.831 43.3025C298.984 43.5127 298.099 43.5127 297.253 43.3025C296.019 43.0548 294.835 42.6019 293.751 41.9627C292.988 41.5555 292.331 40.9749 291.833 40.2676C291.55 39.8498 291.356 39.3783 291.264 38.8823C291.171 38.3864 291.182 37.8767 291.295 37.385C291.504 36.7843 291.863 36.2465 292.337 35.8222C292.811 35.3978 293.385 35.1009 294.005 34.9592C295.802 34.2664 297.757 34.0906 299.648 34.4517C301.672 34.9001 303.44 36.1246 304.571 37.8621C305.27 38.8762 305.577 40.1099 305.434 41.3334C305.27 42.0287 304.946 42.6761 304.488 43.2241C304.03 43.7722 303.45 44.2057 302.795 44.49C301.672 45.0836 300.451 45.4688 299.192 45.6268H299.08ZM295.416 41.6988C296.069 41.9769 296.749 42.1878 297.446 42.3281C298.139 42.4964 298.863 42.4964 299.557 42.3281C299.89 42.2298 300.199 42.0648 300.466 41.8432C300.733 41.6216 300.952 41.348 301.11 41.039C301.288 40.7049 301.382 40.3319 301.382 39.953C301.382 39.5741 301.288 39.2011 301.11 38.8669C300.91 38.5751 300.637 38.3407 300.318 38.1869C299.671 37.8042 298.948 37.567 298.199 37.4916C297.451 37.4163 296.695 37.5046 295.984 37.7504L295.416 41.6988Z" fill="#FFDFBB"/>
<path d="M269.787 127.953L269.432 56.6802C269.432 56.6802 281.845 62.1307 290.067 55.1881L282.718 134.937L269.787 127.953Z" fill="white"/>
<path d="M282.718 135.444C282.633 135.446 282.549 135.425 282.475 135.383L269.543 128.4C269.463 128.359 269.396 128.296 269.35 128.219C269.303 128.142 269.279 128.054 269.28 127.964L268.924 56.6802C268.924 56.5953 268.946 56.5117 268.987 56.4373C269.027 56.3628 269.086 56.2997 269.158 56.2539C269.233 56.2139 269.316 56.193 269.401 56.193C269.486 56.193 269.57 56.2139 269.645 56.2539C269.757 56.2539 281.825 61.5014 289.732 54.843C289.811 54.7794 289.906 54.7398 290.007 54.729C290.108 54.7182 290.21 54.7366 290.3 54.7821C290.388 54.8312 290.46 54.9038 290.508 54.9917C290.557 55.0796 290.58 55.1793 290.574 55.2795L283.216 135.028C283.21 135.113 283.182 135.194 283.136 135.265C283.09 135.336 283.027 135.394 282.952 135.434C282.876 135.457 282.796 135.461 282.718 135.444V135.444ZM270.295 127.659L282.282 134.135L289.448 56.3148C282.221 61.5217 272.69 58.4767 269.949 57.4617L270.295 127.659Z" fill="#FFDFBB"/>
<path d="M280.125 61.7982C285.826 61.4385 290.276 58.4348 290.065 55.0893C289.854 51.7437 285.062 49.3232 279.361 49.6829C273.66 50.0425 269.209 53.0462 269.421 56.3918C269.632 59.7373 274.424 62.1579 280.125 61.7982Z" fill="white"/>
<path d="M278.983 62.3541C275.542 62.3541 272.456 61.3391 270.589 59.6745C270.095 59.2598 269.689 58.7492 269.398 58.1735C269.107 57.5977 268.935 56.9689 268.894 56.325C268.762 52.6507 273.411 49.5042 279.48 49.22C283.317 49.0068 286.829 50.0015 288.879 51.8691C289.372 52.2849 289.776 52.7959 290.068 53.3713C290.359 53.9468 290.531 54.5751 290.574 55.2186C290.706 58.832 285.956 62.0394 279.988 62.3236C279.656 62.3439 279.321 62.3541 278.983 62.3541ZM280.455 50.1741H279.531C274.111 50.4684 269.797 53.2191 269.909 56.2641C269.95 56.7706 270.091 57.264 270.324 57.7153C270.558 58.1667 270.879 58.567 271.269 58.8929C273.096 60.5575 276.415 61.471 279.927 61.2782C285.357 60.9838 289.671 58.2332 289.559 55.1882C289.518 54.6806 289.376 54.1864 289.141 53.7349C288.905 53.2833 288.582 52.8836 288.189 52.5593C286.535 51.0571 283.621 50.1639 280.455 50.1639V50.1741Z" fill="#FFDFBB"/>
<path d="M277.511 62.0596C277.457 62.0693 277.402 62.0693 277.349 62.0596C276.123 61.6412 274.979 61.0127 273.969 60.2022C273.37 59.7894 272.87 59.2498 272.503 58.6218C272.136 57.9938 271.913 57.2927 271.847 56.5685C271.864 55.3507 272.351 54.1866 273.208 53.3205C273.891 52.5816 274.72 51.992 275.642 51.5886C276.564 51.1851 277.56 50.9765 278.567 50.9758C280.507 51.0346 282.397 51.6129 284.038 52.6506C284.622 52.9236 285.134 53.3321 285.529 53.8423C285.925 54.3524 286.193 54.9495 286.311 55.5839C286.356 56.0838 286.294 56.5876 286.13 57.0618C285.965 57.536 285.702 57.9699 285.357 58.3346C284.756 58.9312 284.017 59.3704 283.205 59.6135C282.033 60.0159 280.8 60.2117 279.561 60.192C278.683 60.2196 277.812 60.0314 277.024 59.6439C276.122 59.1783 275.44 58.376 275.126 57.4109C274.951 56.885 274.912 56.3233 275.014 55.7783C275.115 55.2334 275.352 54.723 275.704 54.2949C276.061 53.9392 276.501 53.6777 276.983 53.5336C277.893 53.233 278.86 53.1462 279.809 53.2799C280.758 53.4137 281.663 53.7645 282.454 54.305C282.524 54.3521 282.581 54.4156 282.62 54.49C282.659 54.5644 282.678 54.6473 282.677 54.7313V58.7304L282.931 58.6492C283.586 58.4618 284.183 58.1127 284.667 57.6342C284.911 57.3797 285.098 57.076 285.215 56.7434C285.332 56.4109 285.377 56.0571 285.347 55.7057C285.243 55.2278 285.029 54.7811 284.72 54.4019C284.411 54.0227 284.018 53.7217 283.571 53.5235C282.098 52.5789 280.397 52.0494 278.648 51.9908V51.9908C277.78 51.9923 276.921 52.1735 276.126 52.5228C275.332 52.8722 274.618 53.3822 274.03 54.0208C273.357 54.6977 272.965 55.6043 272.933 56.5583C273.001 57.1332 273.191 57.6869 273.491 58.1823C273.79 58.6777 274.192 59.1034 274.669 59.4308C275.582 60.1628 276.611 60.7359 277.714 61.1258C277.849 61.1474 277.969 61.2215 278.049 61.3319C278.129 61.4423 278.162 61.5799 278.14 61.7145C278.119 61.8491 278.045 61.9697 277.934 62.0496C277.824 62.1295 277.686 62.1624 277.552 62.1408L277.511 62.0596ZM278.922 54.2035C278.373 54.2011 277.828 54.2903 277.308 54.4674C276.981 54.5525 276.683 54.7244 276.445 54.9648C276.217 55.2601 276.065 55.6079 276.005 55.9766C275.945 56.3453 275.977 56.7232 276.1 57.076C276.213 57.428 276.393 57.7544 276.632 58.0365C276.87 58.3187 277.162 58.551 277.491 58.7203C278.125 59.0176 278.82 59.1635 279.521 59.1466C280.202 59.1616 280.883 59.1003 281.551 58.9639L281.602 54.9749C280.795 54.4785 279.869 54.2118 278.922 54.2035V54.2035Z" fill="#FFDFBB"/>
<path d="M291.721 187.676H1.31951C1.18491 187.676 1.05583 187.623 0.960655 187.527C0.86548 187.432 0.812012 187.303 0.812012 187.169C0.812012 187.034 0.86548 186.905 0.960655 186.81C1.05583 186.715 1.18491 186.661 1.31951 186.661H291.721C291.856 186.661 291.985 186.715 292.08 186.81C292.175 186.905 292.229 187.034 292.229 187.169C292.229 187.303 292.175 187.432 292.08 187.527C291.985 187.623 291.856 187.676 291.721 187.676Z" fill="#FFDFBB"/>
<path d="M256.917 97.9907H306.581V182.916C306.575 185.443 305.57 187.865 303.784 189.653C301.998 191.441 299.577 192.449 297.05 192.457H266.488C263.952 192.457 261.52 191.449 259.727 189.656C257.934 187.863 256.927 185.431 256.927 182.895V97.9907H256.917Z" fill="white"/>
<path d="M297.05 192.985H266.488C263.816 192.982 261.254 191.919 259.364 190.029C257.475 188.14 256.412 185.578 256.409 182.906V97.9907C256.409 97.8561 256.463 97.727 256.558 97.6318C256.653 97.5366 256.782 97.4832 256.917 97.4832H306.581C306.715 97.4832 306.844 97.5366 306.94 97.6318C307.035 97.727 307.088 97.8561 307.088 97.9907V182.906C307.086 185.571 306.028 188.127 304.148 190.015C302.267 191.904 299.715 192.971 297.05 192.985ZM257.465 98.4982V182.906C257.468 185.309 258.423 187.613 260.123 189.312C261.822 191.011 264.126 191.967 266.529 191.97H297.05C299.451 191.964 301.753 191.007 303.45 189.308C305.147 187.609 306.101 185.307 306.104 182.906V98.4982H257.465Z" fill="#FFDFBB"/>
<path d="M22.9491 87.5159H9.84546V164.981H22.9491V87.5159Z" fill="white"/>
<path d="M22.9999 165.488H9.80486C9.67027 165.488 9.54118 165.435 9.44601 165.34C9.35083 165.244 9.29736 165.115 9.29736 164.981V87.5159C9.29736 87.3813 9.35083 87.2522 9.44601 87.1571C9.54118 87.0619 9.67027 87.0084 9.80486 87.0084H22.9999C23.1345 87.0084 23.2635 87.0619 23.3587 87.1571C23.4539 87.2522 23.5074 87.3813 23.5074 87.5159V164.981C23.5074 165.115 23.4539 165.244 23.3587 165.34C23.2635 165.435 23.1345 165.488 22.9999 165.488ZM10.4037 164.473H22.4416V88.0234H10.353L10.4037 164.473Z" fill="#FFDFBB"/>
<path d="M40.3563 72.2097H22.9491V149.675H40.3563V72.2097Z" fill="white"/>
<path d="M40.3564 150.192H22.9999C22.8653 150.192 22.7362 150.139 22.6411 150.043C22.5459 149.948 22.4924 149.819 22.4924 149.685V72.2096C22.4924 72.0751 22.5459 71.946 22.6411 71.8508C22.7362 71.7556 22.8653 71.7021 22.9999 71.7021H40.3564C40.491 71.7021 40.6201 71.7556 40.7153 71.8508C40.8105 71.946 40.8639 72.0751 40.8639 72.2096V149.685C40.8639 149.819 40.8105 149.948 40.7153 150.043C40.6201 150.139 40.491 150.192 40.3564 150.192ZM23.4567 149.177H39.8489V72.6867H23.4567V149.177Z" fill="#FFDFBB"/>
<path d="M70.4207 78.4215H40.3564V155.886H70.4207V78.4215Z" fill="white"/>
<path d="M70.4207 156.394H40.3564C40.2218 156.394 40.0927 156.34 39.9975 156.245C39.9023 156.15 39.8489 156.021 39.8489 155.886V78.4214C39.8489 78.2868 39.9023 78.1578 39.9975 78.0626C40.0927 77.9674 40.2218 77.9139 40.3564 77.9139H70.4207C70.5553 77.9139 70.6844 77.9674 70.7795 78.0626C70.8747 78.1578 70.9282 78.2868 70.9282 78.4214V155.917C70.9204 156.046 70.8635 156.167 70.7692 156.256C70.6748 156.345 70.5502 156.394 70.4207 156.394V156.394ZM40.8639 155.379H69.9132V78.9289H40.8639V155.379Z" fill="#FFDFBB"/>
<path d="M83.6258 129.364H0.507446V193.593H83.6258V129.364Z" fill="white"/>
<path d="M83.6258 194.101H0.5075C0.372903 194.101 0.243818 194.048 0.148643 193.952C0.0534682 193.857 0 193.728 0 193.594V129.364C0 129.23 0.0534682 129.101 0.148643 129.005C0.243818 128.91 0.372903 128.857 0.5075 128.857H83.6258C83.7596 128.859 83.8872 128.914 83.9818 129.008C84.0764 129.103 84.1307 129.231 84.1333 129.364V193.594C84.1307 193.727 84.0764 193.855 83.9818 193.949C83.8872 194.044 83.7596 194.098 83.6258 194.101V194.101ZM1.015 193.086H83.1183V129.872H1.015V193.086Z" fill="#FFDFBB"/>
<path d="M32.7845 151.491H9.80486C9.67027 151.491 9.54118 151.438 9.44601 151.343C9.35083 151.248 9.29736 151.118 9.29736 150.984V138.083C9.29736 137.949 9.35083 137.82 9.44601 137.724C9.54118 137.629 9.67027 137.576 9.80486 137.576H32.7439C32.8785 137.576 33.0075 137.629 33.1027 137.724C33.1979 137.82 33.2514 137.949 33.2514 138.083V150.984C33.2518 151.112 33.2039 151.235 33.1174 151.329C33.0308 151.423 32.9119 151.481 32.7845 151.491V151.491ZM10.353 150.476H32.277V138.591H10.353V150.476Z" fill="#FFDFBB"/>
<path d="M15.7427 97.9603C15.1148 97.9563 14.5022 97.7663 13.9822 97.4143C13.4622 97.0623 13.0582 96.5642 12.8211 95.9827C12.5841 95.4013 12.5247 94.7626 12.6504 94.1474C12.7761 93.5322 13.0812 92.9681 13.5273 92.5262C13.9735 92.0844 14.5405 91.7846 15.1569 91.6648C15.7733 91.545 16.4113 91.6106 16.9904 91.8531C17.5696 92.0957 18.0639 92.5045 18.4108 93.0278C18.7578 93.5512 18.9419 94.1656 18.9399 94.7935C18.9386 95.2115 18.8548 95.6252 18.6933 96.0108C18.5317 96.3964 18.2957 96.7464 17.9987 97.0406C17.7017 97.3348 17.3495 97.5674 16.9624 97.7253C16.5752 97.8831 16.1607 97.963 15.7427 97.9603V97.9603ZM15.7427 92.6315C15.316 92.6355 14.9 92.7657 14.5472 93.0057C14.1943 93.2457 13.9204 93.5847 13.7598 93.9801C13.5993 94.3755 13.5594 94.8095 13.6451 95.2276C13.7308 95.6456 13.9383 96.0289 14.2414 96.3292C14.5446 96.6296 14.9298 96.8335 15.3486 96.9153C15.7674 96.997 16.2011 96.9531 16.595 96.7889C16.9888 96.6246 17.3253 96.3475 17.562 95.9925C17.7986 95.6374 17.9249 95.2202 17.9249 94.7935C17.9236 94.5082 17.8661 94.2261 17.7557 93.963C17.6453 93.7 17.4842 93.4613 17.2816 93.2605C17.0789 93.0598 16.8387 92.9009 16.5747 92.793C16.3107 92.6851 16.0279 92.6302 15.7427 92.6315V92.6315Z" fill="#FFDFBB"/>
<path d="M31.6478 84.5014C31.019 84.5014 30.4044 84.3148 29.8817 83.9652C29.359 83.6157 28.9518 83.1189 28.7117 82.5378C28.4715 81.9567 28.4092 81.3174 28.5326 80.7009C28.656 80.0843 28.9596 79.5183 29.4049 79.0744C29.8503 78.6305 30.4173 78.3287 31.0342 78.2073C31.6511 78.0858 32.2902 78.1502 32.8706 78.3922C33.4509 78.6342 33.9464 79.043 34.2942 79.5668C34.6421 80.0906 34.8267 80.7058 34.8247 81.3346C34.8247 81.7513 34.7425 82.1639 34.5827 82.5488C34.4229 82.9337 34.1887 83.2832 33.8936 83.5774C33.5985 83.8716 33.2481 84.1047 32.8628 84.2632C32.4774 84.4218 32.0645 84.5027 31.6478 84.5014V84.5014ZM31.6478 79.1726C31.2202 79.1726 30.8022 79.2994 30.4466 79.537C30.0911 79.7745 29.814 80.1122 29.6504 80.5072C29.4867 80.9023 29.4439 81.337 29.5274 81.7563C29.6108 82.1757 29.8167 82.5609 30.119 82.8633C30.4214 83.1656 30.8066 83.3715 31.226 83.455C31.6454 83.5384 32.0801 83.4956 32.4751 83.3319C32.8701 83.1683 33.2078 82.8912 33.4454 82.5357C33.6829 82.1802 33.8097 81.7622 33.8097 81.3346C33.8111 81.0503 33.7561 80.7685 33.6479 80.5056C33.5397 80.2427 33.3805 80.0039 33.1795 79.8028C32.9785 79.6018 32.7396 79.4426 32.4767 79.3344C32.2138 79.2263 31.932 79.1713 31.6478 79.1726V79.1726Z" fill="#FFDFBB"/>
<path d="M63.0822 92.6315H40.3564C40.2218 92.6315 40.0927 92.578 39.9975 92.4828C39.9023 92.3876 39.8489 92.2586 39.8489 92.124C39.8489 91.9894 39.9023 91.8603 39.9975 91.7651C40.0927 91.6699 40.2218 91.6165 40.3564 91.6165H63.0822C63.2168 91.6165 63.3459 91.6699 63.4411 91.7651C63.5363 91.8603 63.5897 91.9894 63.5897 92.124C63.5897 92.2586 63.5363 92.3876 63.4411 92.4828C63.3459 92.578 63.2168 92.6315 63.0822 92.6315Z" fill="#FFDFBB"/>
<path d="M40.3564 103.999H22.9999C22.8653 103.999 22.7362 103.946 22.6411 103.851C22.5459 103.756 22.4924 103.627 22.4924 103.492C22.4924 103.357 22.5459 103.228 22.6411 103.133C22.7362 103.038 22.8653 102.984 22.9999 102.984H40.3564C40.491 102.984 40.6201 103.038 40.7153 103.133C40.8105 103.228 40.8639 103.357 40.8639 103.492C40.8639 103.627 40.8105 103.756 40.7153 103.851C40.6201 103.946 40.491 103.999 40.3564 103.999Z" fill="#FFDFBB"/>
<path d="M237.114 24.1292H70.7861C63.325 24.1292 57.2765 30.1776 57.2765 37.6388V158.343C57.2765 165.804 63.325 171.852 70.7861 171.852H237.114C244.575 171.852 250.624 165.804 250.624 158.343V37.6388C250.624 30.1776 244.575 24.1292 237.114 24.1292Z" fill="white"/>
<path d="M237.165 172.36H70.7861C67.0701 172.354 63.5079 170.876 60.8804 168.248C58.2528 165.621 56.7743 162.058 56.7689 158.343V37.6387C56.7743 33.9228 58.2528 30.3606 60.8804 27.733C63.5079 25.1055 67.0701 23.627 70.7861 23.6216H237.165C240.882 23.6243 244.445 25.1019 247.074 27.7301C249.702 30.3582 251.179 33.922 251.182 37.6387V158.343C251.177 162.058 249.698 165.621 247.071 168.248C244.443 170.876 240.881 172.354 237.165 172.36ZM70.7861 24.6366C67.3385 24.6393 64.0329 26.01 61.5951 28.4478C59.1573 30.8856 57.7866 34.1912 57.7839 37.6387V158.343C57.7893 161.789 59.1609 165.093 61.5981 167.531C64.0353 169.968 67.3393 171.339 70.7861 171.345H237.165C240.612 171.342 243.918 169.971 246.356 167.533C248.794 165.096 250.164 161.79 250.167 158.343V37.6387C250.164 34.1912 248.794 30.8856 246.356 28.4478C243.918 26.01 240.612 24.6393 237.165 24.6366H70.7861Z" fill="#2D2D2D"/>
<path d="M227.492 6.93506H80.4083V147.066H227.492V6.93506Z" fill="#66CCBA"/>
<path d="M250.949 147.563H56.9516C56.817 147.563 56.6879 147.51 56.5927 147.415C56.4976 147.32 56.4441 147.19 56.4441 147.056C56.4467 146.922 56.501 146.794 56.5956 146.7C56.6902 146.605 56.8178 146.551 56.9516 146.548H250.949C251.083 146.548 251.212 146.602 251.307 146.697C251.403 146.792 251.456 146.921 251.456 147.056C251.456 147.19 251.403 147.32 251.307 147.415C251.212 147.51 251.083 147.563 250.949 147.563Z" fill="#2D2D2D"/>
<path d="M153.955 162.941C156.517 162.941 158.594 160.864 158.594 158.302C158.594 155.74 156.517 153.663 153.955 153.663C151.393 153.663 149.317 155.74 149.317 158.302C149.317 160.864 151.393 162.941 153.955 162.941Z" fill="white"/>
<path d="M153.935 163.438C152.916 163.44 151.92 163.139 151.072 162.575C150.224 162.01 149.563 161.207 149.172 160.266C148.782 159.325 148.679 158.29 148.877 157.29C149.075 156.291 149.566 155.373 150.286 154.653C151.006 153.933 151.924 153.442 152.923 153.244C153.922 153.046 154.958 153.149 155.899 153.539C156.839 153.93 157.643 154.591 158.208 155.439C158.772 156.287 159.073 157.283 159.071 158.302C159.068 159.663 158.526 160.968 157.564 161.931C156.601 162.893 155.296 163.435 153.935 163.438V163.438ZM153.935 154.171C153.117 154.169 152.318 154.409 151.637 154.862C150.956 155.315 150.425 155.959 150.111 156.714C149.797 157.469 149.714 158.3 149.872 159.102C150.03 159.904 150.423 160.641 151 161.219C151.577 161.798 152.313 162.193 153.115 162.353C153.917 162.513 154.748 162.432 155.503 162.119C156.259 161.807 156.904 161.278 157.359 160.598C157.813 159.919 158.056 159.119 158.056 158.302C158.056 157.208 157.622 156.159 156.849 155.384C156.077 154.61 155.029 154.174 153.935 154.171V154.171Z" fill="#FFDFBB"/>
<path d="M188.963 193.462H118.948C116.818 193.462 115.091 195.188 115.091 197.319V197.897C115.091 200.027 116.818 201.754 118.948 201.754H188.963C191.093 201.754 192.82 200.027 192.82 197.897V197.319C192.82 195.188 191.093 193.462 188.963 193.462Z" fill="white"/>
<path d="M188.963 202.251H118.928C117.773 202.251 116.665 201.793 115.849 200.976C115.032 200.16 114.573 199.052 114.573 197.897V197.308C114.573 196.154 115.032 195.046 115.849 194.229C116.665 193.413 117.773 192.954 118.928 192.954H188.963C190.118 192.954 191.227 193.413 192.045 194.229C192.863 195.045 193.324 196.153 193.327 197.308V197.897C193.324 199.053 192.863 200.16 192.045 200.977C191.227 201.793 190.118 202.251 188.963 202.251V202.251ZM118.928 193.969C118.042 193.969 117.193 194.321 116.566 194.947C115.94 195.573 115.588 196.423 115.588 197.308V197.897C115.591 198.782 115.944 199.63 116.569 200.255C117.195 200.881 118.043 201.234 118.928 201.236H188.963C189.849 201.236 190.7 200.885 191.327 200.259C191.955 199.633 192.309 198.784 192.312 197.897V197.308C192.312 196.869 192.225 196.434 192.057 196.028C191.888 195.622 191.642 195.254 191.33 194.944C191.019 194.633 190.65 194.388 190.244 194.22C189.837 194.053 189.402 193.968 188.963 193.969H118.928Z" fill="#2D2D2D"/>
<path d="M180.457 193.593H127.443L131.087 171.842H176.813L180.457 193.593Z" fill="white"/>
<path d="M180.457 194.101H127.443C127.37 194.101 127.297 194.085 127.23 194.053C127.163 194.022 127.104 193.976 127.058 193.918C127.009 193.864 126.973 193.799 126.953 193.729C126.934 193.658 126.932 193.584 126.946 193.512L130.59 171.761C130.609 171.644 130.67 171.537 130.761 171.461C130.853 171.384 130.968 171.343 131.087 171.345H176.762C176.882 171.343 176.999 171.384 177.092 171.46C177.185 171.536 177.248 171.643 177.27 171.761L180.964 193.472C180.975 193.544 180.97 193.617 180.951 193.686C180.932 193.756 180.898 193.821 180.853 193.878C180.807 193.942 180.748 193.995 180.679 194.033C180.611 194.072 180.535 194.095 180.457 194.101V194.101ZM128.042 193.086H179.807L176.336 172.36H131.514L128.042 193.086Z" fill="#2D2D2D"/>
<path d="M129.27 182.723L177.544 176.166L176.813 171.842H131.087L129.27 182.723Z" fill="#2D2D2D"/>
<path d="M129.27 183.23C129.201 183.231 129.133 183.216 129.07 183.188C129.007 183.16 128.951 183.119 128.905 183.068C128.85 183.011 128.809 182.942 128.784 182.866C128.759 182.79 128.752 182.71 128.763 182.632L130.59 171.761C130.609 171.644 130.67 171.537 130.761 171.461C130.853 171.384 130.968 171.343 131.087 171.345H176.762C176.882 171.343 176.999 171.384 177.092 171.46C177.185 171.536 177.248 171.643 177.27 171.761L177.99 176.075C178.001 176.142 177.999 176.21 177.983 176.277C177.967 176.343 177.939 176.405 177.899 176.46C177.858 176.516 177.807 176.562 177.747 176.597C177.688 176.632 177.622 176.655 177.554 176.663L129.281 183.22L129.27 183.23ZM131.514 172.36L129.879 182.124L176.955 175.73L176.387 172.36H131.514Z" fill="#2D2D2D"/>
<path d="M108.25 83.9634H94.1311V95.1487H108.25V83.9634Z" fill="white"/>
<path d="M166.308 86.7546H121.759C121.49 86.7546 121.232 86.6477 121.042 86.4573C120.851 86.267 120.744 86.0088 120.744 85.7396C120.744 85.4704 120.851 85.2122 121.042 85.0219C121.232 84.8315 121.49 84.7246 121.759 84.7246H166.308C166.577 84.7246 166.835 84.8315 167.025 85.0219C167.216 85.2122 167.323 85.4704 167.323 85.7396C167.323 86.0088 167.216 86.267 167.025 86.4573C166.835 86.6477 166.577 86.7546 166.308 86.7546Z" fill="white"/>
<path d="M156.98 93.139H121.759C121.49 93.139 121.232 93.0321 121.042 92.8417C120.851 92.6514 120.744 92.3932 120.744 92.124C120.744 91.8548 120.851 91.5966 121.042 91.4063C121.232 91.2159 121.49 91.109 121.759 91.109H156.98C157.249 91.109 157.507 91.2159 157.698 91.4063C157.888 91.5966 157.995 91.8548 157.995 92.124C157.995 92.3932 157.888 92.6514 157.698 92.8417C157.507 93.0321 157.249 93.139 156.98 93.139Z" fill="white"/>
<path d="M99.8557 92.9868C99.7612 92.9968 99.6659 92.9968 99.5715 92.9868C99.3449 92.942 99.1314 92.8467 98.9468 92.7078C98.7623 92.569 98.6115 92.3902 98.5057 92.1849L97.1761 89.617C97.0727 89.4388 97.0065 89.2415 96.9816 89.037C96.9567 88.8326 96.9736 88.6252 97.0311 88.4274C97.0887 88.2296 97.1858 88.0456 97.3166 87.8864C97.4473 87.7273 97.609 87.5963 97.7918 87.5014C97.9747 87.4066 98.1749 87.3498 98.3803 87.3346C98.5857 87.3193 98.7921 87.3459 98.9869 87.4127C99.1817 87.4796 99.361 87.5852 99.5138 87.7234C99.6666 87.8615 99.7898 88.0292 99.876 88.2163L100.323 89.079L103.368 86.4299C103.519 86.2966 103.695 86.1944 103.886 86.1291C104.076 86.0639 104.278 86.0368 104.479 86.0496C104.681 86.0623 104.877 86.1145 105.058 86.2033C105.24 86.292 105.401 86.4156 105.535 86.5669C105.668 86.7182 105.77 86.8942 105.835 87.085C105.901 87.2758 105.928 87.4776 105.915 87.6788C105.902 87.88 105.85 88.0768 105.761 88.2578C105.672 88.4388 105.549 88.6006 105.398 88.7339L100.871 92.6417C100.587 92.8785 100.225 93.0014 99.8557 92.9868V92.9868Z" fill="#66CCBA"/>
<path d="M108.25 103.492H94.1311V114.677H108.25V103.492Z" fill="white"/>
<path d="M166.308 106.283H121.759C121.49 106.283 121.232 106.176 121.042 105.986C120.851 105.796 120.744 105.537 120.744 105.268C120.744 104.999 120.851 104.741 121.042 104.55C121.232 104.36 121.49 104.253 121.759 104.253H166.308C166.577 104.253 166.835 104.36 167.025 104.55C167.216 104.741 167.323 104.999 167.323 105.268C167.323 105.537 167.216 105.796 167.025 105.986C166.835 106.176 166.577 106.283 166.308 106.283Z" fill="white"/>
<path d="M156.98 112.678H121.759C121.49 112.678 121.232 112.571 121.042 112.38C120.851 112.19 120.744 111.932 120.744 111.663C120.744 111.394 120.851 111.135 121.042 110.945C121.232 110.755 121.49 110.648 121.759 110.648H156.98C157.249 110.648 157.507 110.755 157.698 110.945C157.888 111.135 157.995 111.394 157.995 111.663C157.995 111.932 157.888 112.19 157.698 112.38C157.507 112.571 157.249 112.678 156.98 112.678Z" fill="white"/>
<path d="M99.8557 112.475C99.7612 112.485 99.6659 112.485 99.5715 112.475C99.3463 112.43 99.134 112.335 98.9497 112.198C98.7654 112.062 98.6138 111.886 98.5057 111.683L97.1761 109.105C97.0727 108.927 97.0065 108.729 96.9816 108.525C96.9567 108.32 96.9736 108.113 97.0311 107.915C97.0887 107.718 97.1858 107.534 97.3166 107.374C97.4473 107.215 97.609 107.084 97.7918 106.989C97.9747 106.895 98.1749 106.838 98.3803 106.822C98.5857 106.807 98.7921 106.834 98.9869 106.901C99.1817 106.968 99.361 107.073 99.5138 107.211C99.6666 107.349 99.7898 107.517 99.876 107.704L100.323 108.567L103.368 105.918C103.519 105.784 103.695 105.682 103.886 105.617C104.076 105.552 104.278 105.525 104.479 105.537C104.681 105.55 104.877 105.602 105.058 105.691C105.24 105.78 105.401 105.904 105.535 106.055C105.668 106.206 105.77 106.382 105.835 106.573C105.901 106.764 105.928 106.965 105.915 107.167C105.902 107.368 105.85 107.565 105.761 107.746C105.672 107.927 105.549 108.089 105.398 108.222L100.871 112.13C100.586 112.366 100.225 112.488 99.8557 112.475Z" fill="#66CCBA"/>
<path d="M181.817 83.4152C181.185 83.966 180.591 84.5595 180.041 85.1915C177.214 88.3643 175.528 92.3903 175.25 96.6305H183.644C183.879 94.6185 184.674 92.7126 185.938 91.1292C186.457 90.4682 187.053 89.8719 187.714 89.353C189.297 88.0906 191.204 87.2992 193.215 87.0692V78.665C188.996 78.9481 184.989 80.6182 181.817 83.4152V83.4152Z" fill="white"/>
<path d="M213.729 96.6306C213.461 92.3974 211.793 88.3733 208.988 85.1915L203.051 91.1293C204.307 92.716 205.098 94.6206 205.334 96.6306C205.334 97.0467 205.406 97.4629 205.406 97.8892C205.406 98.3155 205.406 98.7316 205.334 99.1478C205.099 101.16 204.304 103.066 203.041 104.649C202.522 105.31 201.925 105.906 201.264 106.425C199.682 107.689 197.775 108.481 195.763 108.709C194.93 108.804 194.089 108.804 193.256 108.709C191.245 108.477 189.339 107.686 187.755 106.425C187.094 105.906 186.497 105.31 185.978 104.649C184.717 103.064 183.923 101.159 183.685 99.1478H175.25C175.517 103.383 177.188 107.408 180 110.587C180.551 111.219 181.144 111.812 181.776 112.363C184.96 115.167 188.982 116.838 193.215 117.113C193.632 117.113 194.048 117.113 194.464 117.113C194.88 117.113 195.306 117.113 195.722 117.113C199.956 116.839 203.979 115.168 207.161 112.363C207.796 111.815 208.39 111.221 208.938 110.587C211.75 107.408 213.421 103.383 213.688 99.1478C213.688 98.7316 213.688 98.3155 213.688 97.8892C213.688 97.4629 213.759 97.0467 213.729 96.6306Z" fill="white"/>
<path d="M207.212 83.4152C204.026 80.6098 200 78.9394 195.763 78.665V87.0692C197.778 87.2995 199.687 88.0908 201.275 89.353L207.212 83.4152Z" fill="#2D2D2D"/>
<path d="M201.275 89.8606C201.159 89.8644 201.047 89.8245 200.96 89.7489C199.445 88.5459 197.624 87.7901 195.702 87.5667C195.58 87.5519 195.468 87.4934 195.385 87.4019C195.303 87.3104 195.257 87.1922 195.256 87.0693V78.6651C195.255 78.5962 195.27 78.528 195.298 78.465C195.326 78.402 195.367 78.3457 195.418 78.2997C195.468 78.2517 195.527 78.2144 195.591 78.1899C195.656 78.1655 195.725 78.1545 195.794 78.1576C200.147 78.4276 204.284 80.1462 207.547 83.0398C207.65 83.1345 207.712 83.2656 207.72 83.4052C207.721 83.4733 207.708 83.5408 207.682 83.6037C207.655 83.6665 207.617 83.7233 207.568 83.7706L201.64 89.7185C201.541 89.811 201.41 89.8619 201.275 89.8606V89.8606ZM196.271 86.6227C198.06 86.8936 199.759 87.5897 201.224 88.6527L206.461 83.4153C203.584 81.0106 200.045 79.5349 196.311 79.1828L196.271 86.6227Z" fill="#2D2D2D"/>
<path d="M209.76 130.379H94.1311C93.8619 130.379 93.6037 130.272 93.4134 130.082C93.223 129.892 93.1161 129.634 93.1161 129.364C93.1161 129.095 93.223 128.837 93.4134 128.647C93.6037 128.456 93.8619 128.349 94.1311 128.349H209.76C210.029 128.349 210.287 128.456 210.478 128.647C210.668 128.837 210.775 129.095 210.775 129.364C210.775 129.634 210.668 129.892 210.478 130.082C210.287 130.272 210.029 130.379 209.76 130.379Z" fill="#2D2D2D"/>
<path d="M169.069 69.6418H94.1311C93.8619 69.6418 93.6037 69.5348 93.4134 69.3445C93.223 69.1541 93.1161 68.896 93.1161 68.6268V28.3313C93.1161 28.0621 93.223 27.8039 93.4134 27.6136C93.6037 27.4232 93.8619 27.3163 94.1311 27.3163C94.4003 27.3163 94.6585 27.4232 94.8488 27.6136C95.0392 27.8039 95.1461 28.0621 95.1461 28.3313V67.6118H169.069C169.338 67.6118 169.596 67.7187 169.786 67.9091C169.977 68.0994 170.084 68.3576 170.084 68.6268C170.084 68.896 169.977 69.1541 169.786 69.3445C169.596 69.5348 169.338 69.6418 169.069 69.6418V69.6418Z" fill="#2D2D2D"/>
<path d="M98.526 64.6378C98.3837 64.6465 98.2412 64.6222 98.1099 64.5667C97.8708 64.4451 97.6896 64.2337 97.606 63.9788C97.5223 63.724 97.5429 63.4464 97.6633 63.2066C98.0084 62.5367 106.128 46.7433 116.755 43.4446C122.845 41.5364 124.987 45.0381 126.834 48.1237C128.499 50.915 129.94 53.3205 134.102 53.0262C138.639 52.7014 141.278 48.1745 143.825 43.7897C146.373 39.4049 149.144 34.6547 154.036 34.8374C158.093 35.0862 162.16 35.0862 166.216 34.8374C166.35 34.8247 166.484 34.8384 166.612 34.8777C166.74 34.9171 166.859 34.9812 166.962 35.0665C167.066 35.1518 167.151 35.2566 167.214 35.3749C167.276 35.4932 167.315 35.6227 167.328 35.756C167.34 35.8893 167.327 36.0237 167.287 36.1517C167.248 36.2797 167.184 36.3987 167.099 36.5019C167.013 36.6051 166.909 36.6905 166.79 36.7532C166.672 36.8159 166.542 36.8547 166.409 36.8674C162.252 37.1263 158.082 37.1263 153.925 36.8674C150.271 36.7456 147.977 40.6533 145.551 44.8148C142.871 49.4229 139.826 54.6502 134.213 55.0562C128.793 55.4317 126.723 52.0112 125.078 49.1692C123.272 46.1242 121.962 43.9521 117.344 45.3832C107.529 48.4282 99.541 63.9679 99.4598 64.1303C99.3663 64.2929 99.2295 64.4264 99.0646 64.516C98.8998 64.6056 98.7134 64.6478 98.526 64.6378Z" fill="white"/>
<path d="M216.865 69.6418H184.283C184.014 69.6418 183.756 69.5348 183.566 69.3445C183.375 69.1541 183.268 68.896 183.268 68.6268V33.3149C183.268 33.0457 183.375 32.7876 183.566 32.5972C183.756 32.4069 184.014 32.2999 184.283 32.2999H216.865C217.134 32.2999 217.392 32.4069 217.583 32.5972C217.773 32.7876 217.88 33.0457 217.88 33.3149V68.6268C217.88 68.896 217.773 69.1541 217.583 69.3445C217.392 69.5348 217.134 69.6418 216.865 69.6418ZM185.298 67.6118H215.85V34.3299H185.298V67.6118Z" fill="white"/>
<path d="M198.311 69.6418C198.041 69.6418 197.783 69.5348 197.593 69.3445C197.403 69.1541 197.296 68.896 197.296 68.6268V33.3149C197.296 33.0457 197.403 32.7876 197.593 32.5972C197.783 32.4069 198.041 32.2999 198.311 32.2999C198.58 32.2999 198.838 32.4069 199.028 32.5972C199.219 32.7876 199.326 33.0457 199.326 33.3149V68.6268C199.326 68.896 199.219 69.1541 199.028 69.3445C198.838 69.5348 198.58 69.6418 198.311 69.6418Z" fill="white"/>
<path d="M216.865 43.2517H184.283C184.014 43.2517 183.756 43.1447 183.566 42.9544C183.375 42.764 183.268 42.5059 183.268 42.2367C183.268 41.9675 183.375 41.7093 183.566 41.519C183.756 41.3286 184.014 41.2217 184.283 41.2217H216.865C217.134 41.2217 217.392 41.3286 217.583 41.519C217.773 41.7093 217.88 41.9675 217.88 42.2367C217.88 42.5059 217.773 42.764 217.583 42.9544C217.392 43.1447 217.134 43.2517 216.865 43.2517Z" fill="white"/>
<path d="M111.68 21.7134C111.134 21.6961 110.605 21.5145 110.163 21.1922C109.722 20.8699 109.387 20.4219 109.204 19.9067C108.189 17.5722 106.504 11.1168 106.636 9.75673C106.788 8.13273 107.57 7.72673 108.026 7.72673C109.041 7.56433 110.056 8.51843 110.787 10.0714C111.54 12.5633 112.14 15.0987 112.584 17.6636C112.596 17.7302 112.596 17.7987 112.582 17.8651C112.568 17.9315 112.541 17.9946 112.503 18.0507C112.465 18.1068 112.416 18.1548 112.36 18.192C112.303 18.2292 112.239 18.2548 112.173 18.2675C112.106 18.2802 112.038 18.2796 111.971 18.2658C111.905 18.252 111.842 18.2252 111.786 18.187C111.73 18.1489 111.682 18.1 111.644 18.0433C111.607 17.9866 111.581 17.9231 111.569 17.8564C111.128 15.3663 110.549 12.9028 109.833 10.4774C109.275 9.18833 108.503 8.67068 108.158 8.73158C107.813 8.79248 107.691 9.21878 107.631 9.88868C107.529 10.9037 109.052 16.9937 110.117 19.5312C110.236 19.9318 110.502 20.2728 110.861 20.4855C111.221 20.6983 111.648 20.7671 112.056 20.6781C113.193 20.3736 114.198 18.8308 113.873 16.0599C113.223 10.5383 110.006 3.31148 108.575 1.64688C108.382 1.35021 108.084 1.13787 107.741 1.05303C107.398 0.968188 107.036 1.01721 106.727 1.19013C105.712 1.79913 105.154 3.74793 106.291 6.56963C106.316 6.63161 106.329 6.69797 106.329 6.76492C106.328 6.83188 106.315 6.89811 106.289 6.95985C106.263 7.02158 106.225 7.07761 106.178 7.12473C106.13 7.17184 106.074 7.20913 106.012 7.23445C105.95 7.25978 105.883 7.27265 105.816 7.27233C105.749 7.27201 105.683 7.2585 105.621 7.23258C105.56 7.20666 105.504 7.16883 105.457 7.12126C105.409 7.07369 105.372 7.01731 105.347 6.95533C103.987 3.55508 104.799 1.17998 106.199 0.327376C106.712 0.0275751 107.318 -0.0709304 107.9 0.0509871C108.481 0.172905 108.997 0.506547 109.346 0.987128C111.071 3.01713 114.238 10.4977 114.878 15.9381C115.284 19.318 113.863 21.2465 112.32 21.6627C112.11 21.707 111.895 21.7241 111.68 21.7134Z" fill="#2D2D2D"/>
<path d="M301.019 105.035H289.965V112.962H301.019V105.035Z" fill="white"/>
<path d="M301.019 113.469H289.945C289.81 113.469 289.681 113.416 289.586 113.321C289.491 113.226 289.437 113.096 289.437 112.962V105.035C289.437 104.9 289.491 104.771 289.586 104.676C289.681 104.581 289.81 104.527 289.945 104.527H300.998C301.133 104.527 301.262 104.581 301.357 104.676C301.452 104.771 301.506 104.9 301.506 105.035V112.962C301.506 113.093 301.455 113.219 301.364 113.314C301.274 113.408 301.15 113.464 301.019 113.469V113.469ZM290.473 112.454H300.511V105.542H290.473V112.454Z" fill="#FFDFBB"/>
<path d="M42.0616 24.1292H13.0732V53.1175H42.0616V24.1292Z" fill="white"/>
<path d="M42.0616 53.625H13.0732C12.9394 53.6224 12.8118 53.5681 12.7172 53.4735C12.6226 53.3788 12.5683 53.2513 12.5657 53.1175V24.1291C12.5657 23.9945 12.6191 23.8654 12.7143 23.7702C12.8095 23.6751 12.9386 23.6216 13.0732 23.6216H42.0616C42.1962 23.6216 42.3253 23.6751 42.4204 23.7702C42.5156 23.8654 42.5691 23.9945 42.5691 24.1291V53.1175C42.5691 53.2521 42.5156 53.3812 42.4204 53.4763C42.3253 53.5715 42.1962 53.625 42.0616 53.625ZM13.5807 52.61H41.5541V24.6366H13.5807V52.61Z" fill="#FFDFBB"/>
<path d="M37.149 31.0718H18.4019C18.2673 31.0718 18.1382 31.0183 18.0431 30.9231C17.9479 30.8279 17.8944 30.6989 17.8944 30.5643C17.8944 30.4297 17.9479 30.3006 18.0431 30.2054C18.1382 30.1102 18.2673 30.0568 18.4019 30.0568H37.149C37.2827 30.0594 37.4103 30.1137 37.5049 30.2083C37.5996 30.3029 37.6539 30.4305 37.6565 30.5643C37.6565 30.6989 37.603 30.8279 37.5078 30.9231C37.4126 31.0183 37.2836 31.0718 37.149 31.0718Z" fill="#FFDFBB"/>
<path d="M37.149 36.3193H18.4019C18.2673 36.3193 18.1382 36.2659 18.0431 36.1707C17.9479 36.0755 17.8944 35.9464 17.8944 35.8118C17.8944 35.6772 17.9479 35.5481 18.0431 35.453C18.1382 35.3578 18.2673 35.3043 18.4019 35.3043H37.149C37.2836 35.3043 37.4126 35.3578 37.5078 35.453C37.603 35.5481 37.6565 35.6772 37.6565 35.8118C37.6539 35.9456 37.5996 36.0732 37.5049 36.1678C37.4103 36.2624 37.2827 36.3167 37.149 36.3193V36.3193Z" fill="#FFDFBB"/>
<path d="M37.149 41.5465H18.4019C18.2673 41.5465 18.1382 41.493 18.0431 41.3979C17.9479 41.3027 17.8944 41.1736 17.8944 41.039C17.8944 40.9044 17.9479 40.7753 18.0431 40.6801C18.1382 40.585 18.2673 40.5315 18.4019 40.5315H37.149C37.2827 40.5341 37.4103 40.5884 37.5049 40.683C37.5996 40.7776 37.6539 40.9052 37.6565 41.039C37.6565 41.1736 37.603 41.3027 37.5078 41.3979C37.4126 41.493 37.2836 41.5465 37.149 41.5465Z" fill="#FFDFBB"/>
<path d="M31.6477 46.7839H18.4527C18.3861 46.7866 18.3195 46.7762 18.2569 46.7531C18.1943 46.7301 18.1368 46.695 18.0878 46.6497C18.0388 46.6045 17.9992 46.55 17.9712 46.4894C17.9433 46.4288 17.9275 46.3633 17.9249 46.2967C17.9249 46.1621 17.9784 46.033 18.0736 45.9378C18.1687 45.8427 18.2978 45.7892 18.4324 45.7892H31.6274C31.762 45.7892 31.8911 45.8427 31.9863 45.9378C32.0815 46.033 32.1349 46.1621 32.1349 46.2967C32.1299 46.4243 32.077 46.5453 31.9867 46.6356C31.8964 46.7259 31.7753 46.7789 31.6477 46.7839V46.7839Z" fill="#FFDFBB"/>
</svg>
