<svg width="480" height="414" viewBox="0 0 480 414" fill="none" xmlns="http://www.w3.org/2000/svg">
<path d="M477.232 41.5658C477.232 41.5658 472.797 33.3828 465.761 22.0834C465.761 22.0834 443.162 38.9656 443.334 38.0288C443.506 37.0919 477.232 41.5658 477.232 41.5658Z" fill="#1F2223"/>
<path d="M477.232 42.5217H477.098C465.206 40.9348 445.8 38.5832 443.678 38.87C443.123 39.0994 442.951 38.9847 442.76 38.87C442.595 38.7586 442.466 38.6019 442.388 38.4187C442.31 38.2355 442.286 38.0337 442.32 37.8375C442.32 37.5699 442.435 37.3022 443.066 37.1492C444.366 36.633 457.291 27.169 465.11 21.3185C465.216 21.239 465.336 21.1826 465.465 21.1529C465.593 21.1232 465.727 21.1211 465.856 21.1465C465.985 21.1676 466.108 21.216 466.217 21.2886C466.326 21.3611 466.418 21.4561 466.487 21.5671C473.542 32.7709 477.959 41.0304 478.073 41.1069C478.153 41.2527 478.193 41.4167 478.19 41.5829C478.188 41.749 478.141 41.9115 478.056 42.0543C477.971 42.1972 477.851 42.3154 477.706 42.3973C477.562 42.4793 477.398 42.5222 477.232 42.5217ZM446.641 37.0919C450.809 37.3213 459.05 38.2199 475.416 40.3804C473.829 37.5316 470.254 31.2796 465.359 23.479C455.149 31.1267 449.7 35.0844 446.699 37.0919H446.641Z" fill="#1F2223"/>
<path d="M177.787 382.557L166.507 363.743L182.127 349.634L177.787 382.557Z" fill="#1F2223"/>
<path d="M177.787 383.513C177.623 383.51 177.462 383.467 177.319 383.387C177.175 383.307 177.054 383.192 176.965 383.054L165.685 364.241C165.572 364.049 165.529 363.824 165.564 363.604C165.598 363.384 165.709 363.183 165.876 363.036L181.477 348.926C181.623 348.794 181.806 348.711 182.001 348.687C182.196 348.663 182.394 348.7 182.567 348.792C182.738 348.886 182.877 349.03 182.966 349.203C183.054 349.377 183.089 349.574 183.064 349.767L178.743 382.633C178.719 382.833 178.632 383.021 178.494 383.168C178.357 383.316 178.177 383.416 177.979 383.455L177.787 383.513ZM167.731 363.935L177.29 379.708L180.923 352.081L167.731 363.935Z" fill="#1F2223"/>
<path d="M185.11 386.457L366.742 412.325C370.468 412.818 374.247 411.967 377.401 409.924C380.555 407.881 382.877 404.78 383.95 401.179L477.94 49.5766C479.852 42.2922 475.206 35.8873 467.501 35.2564L282.293 20.3243C278.632 20.1444 275.016 21.2003 272.027 23.3223C269.039 25.4444 266.85 28.5095 265.812 32.0252L175.627 372.003C175.159 373.581 175.041 375.241 175.28 376.87C175.52 378.498 176.112 380.054 177.015 381.43C177.917 382.806 179.109 383.969 180.508 384.837C181.906 385.705 183.476 386.258 185.11 386.457Z" fill="#1F2223"/>
<path d="M368.75 413.492C368.015 413.488 367.28 413.437 366.551 413.339L184.919 387.451C183.162 387.235 181.473 386.644 179.965 385.717C178.458 384.79 177.167 383.549 176.182 382.079C175.202 380.568 174.557 378.865 174.29 377.084C174.022 375.304 174.14 373.486 174.633 371.754L264.818 31.8342C265.921 28.1 268.244 24.843 271.415 22.5834C274.586 20.3238 278.423 19.1919 282.312 19.3685L467.52 34.3006C469.397 34.4125 471.227 34.9364 472.879 35.8352C474.532 36.734 475.966 37.9856 477.08 39.501C478.104 40.9913 478.783 42.6914 479.068 44.4775C479.352 46.2635 479.235 48.0905 478.724 49.8254L384.734 401.427C383.711 404.884 381.607 407.921 378.73 410.093C375.852 412.264 372.355 413.456 368.75 413.492ZM185.206 385.559L366.838 411.446C370.34 411.913 373.894 411.117 376.862 409.2C379.83 407.284 382.017 404.372 383.032 400.988L476.946 49.4048C477.389 47.9398 477.497 46.3939 477.262 44.8815C477.027 43.369 476.455 41.9288 475.588 40.6673C474.631 39.3689 473.397 38.3004 471.975 37.5396C470.552 36.7789 468.978 36.3451 467.367 36.2699L282.159 21.2804C278.717 21.0996 275.314 22.087 272.503 24.0824C269.692 26.0779 267.638 28.9645 266.673 32.274L176.545 372.252C176.118 373.721 176.011 375.265 176.232 376.779C176.453 378.293 176.997 379.741 177.826 381.027C178.668 382.268 179.765 383.314 181.045 384.095C182.324 384.877 183.756 385.376 185.244 385.559H185.206Z" fill="#1F2223"/>
<path d="M173.295 367.108L354.927 392.977C358.651 393.462 362.426 392.607 365.579 390.565C368.731 388.523 371.054 385.427 372.134 381.83L466.105 30.2281C468.017 22.9437 463.371 16.5388 455.666 15.9078L270.42 0.975745C266.757 0.798295 263.14 1.85481 260.149 3.9762C257.158 6.09758 254.964 9.16119 253.92 12.6767L163.792 352.597C163.314 354.18 163.189 355.848 163.425 357.484C163.661 359.121 164.253 360.686 165.159 362.069C166.064 363.452 167.262 364.62 168.668 365.491C170.073 366.362 171.653 366.914 173.295 367.108Z" fill="white"/>
<path d="M356.934 394.105C356.199 394.101 355.464 394.05 354.735 393.952L173.103 368.064C171.346 367.848 169.657 367.257 168.149 366.33C166.641 365.403 165.351 364.162 164.365 362.692C163.384 361.182 162.739 359.479 162.471 357.698C162.204 355.917 162.322 354.099 162.817 352.367L253.021 12.4473C254.125 8.71659 256.449 5.46428 259.621 3.21109C262.793 0.957899 266.629 -0.165835 270.515 0.019804L455.685 14.9519C457.578 15.0513 459.426 15.5692 461.096 16.4684C462.765 17.3676 464.215 18.6258 465.34 20.1523C466.359 21.6449 467.036 23.3449 467.32 25.1301C467.604 26.9152 467.49 28.7412 466.984 30.4767L372.994 382.079C371.961 385.541 369.842 388.578 366.95 390.744C364.058 392.909 360.547 394.088 356.934 394.105ZM269.311 1.89348C266.058 1.98357 262.916 3.09866 260.334 5.07967C257.752 7.06068 255.862 9.80644 254.933 12.9253L164.729 352.845C164.302 354.315 164.195 355.858 164.416 357.372C164.637 358.886 165.18 360.335 166.01 361.621C166.852 362.862 167.949 363.908 169.229 364.689C170.508 365.471 171.94 365.97 173.428 366.152L355.06 392.04C358.553 392.492 362.093 391.689 365.049 389.774C368.005 387.858 370.184 384.955 371.197 381.582L465.13 29.9987C465.569 28.5332 465.674 26.9881 465.44 25.4763C465.205 23.9646 464.635 22.5245 463.772 21.2612C462.813 19.9604 461.576 18.8904 460.15 18.1295C458.724 17.3687 457.146 16.9362 455.532 16.8638L270.343 1.93172L269.311 1.89348Z" fill="#1F2223"/>
<path d="M448.114 53.3622L258.509 36.9388L185.76 311.223L372.593 336.059L448.114 53.3622Z" fill="#66CCBA"/>
<path d="M364.945 298.26C364.763 298.261 364.585 298.21 364.432 298.111C364.28 298.013 364.159 297.872 364.085 297.706L325.846 216.851C325.791 216.737 325.76 216.613 325.753 216.486C325.747 216.36 325.765 216.234 325.808 216.114C325.851 215.995 325.917 215.886 326.002 215.792C326.087 215.699 326.19 215.623 326.305 215.57C326.534 215.465 326.794 215.455 327.03 215.54C327.266 215.626 327.459 215.802 327.567 216.029L365.805 296.903C365.86 297.016 365.891 297.138 365.897 297.263C365.904 297.388 365.885 297.513 365.842 297.631C365.8 297.748 365.734 297.856 365.648 297.948C365.563 298.04 365.461 298.113 365.347 298.165C365.22 298.223 365.084 298.256 364.945 298.26Z" fill="white"/>
<path d="M248.337 365.063L283.784 370.053C286.036 370.33 288.312 369.797 290.207 368.55C292.102 367.303 293.492 365.423 294.128 363.246L297.646 350.035C297.94 349.032 298.01 347.976 297.85 346.942C297.69 345.909 297.305 344.924 296.72 344.057C296.136 343.189 295.368 342.462 294.47 341.925C293.573 341.389 292.568 341.057 291.528 340.953L256.042 336.135C253.812 335.892 251.568 336.44 249.701 337.684C247.835 338.928 246.466 340.79 245.833 342.942L242.334 356.038C242.039 357.03 241.966 358.073 242.12 359.096C242.273 360.119 242.65 361.095 243.223 361.956C243.795 362.817 244.55 363.542 245.434 364.079C246.318 364.615 247.309 364.951 248.337 365.063Z" fill="white"/>
<path d="M284.969 371.162C284.528 371.168 284.086 371.136 283.65 371.066L248.203 366.095C247.042 365.961 245.924 365.575 244.927 364.964C243.93 364.353 243.079 363.532 242.433 362.558C241.786 361.584 241.361 360.48 241.185 359.324C241.009 358.169 241.088 356.988 241.416 355.866L244.896 342.77C245.592 340.392 247.105 338.336 249.169 336.965C251.232 335.593 253.714 334.995 256.176 335.275L291.661 340.074C292.842 340.213 293.978 340.605 294.994 341.221C296.01 341.838 296.882 342.666 297.55 343.649C298.188 344.631 298.608 345.737 298.783 346.895C298.958 348.052 298.883 349.234 298.563 350.36L295.084 363.514C294.448 365.709 293.12 367.64 291.297 369.018C289.474 370.397 287.255 371.149 284.969 371.162ZM248.471 364.202L283.918 369.173C285.935 369.419 287.975 368.941 289.673 367.824C291.37 366.707 292.617 365.024 293.191 363.074L296.728 349.863C296.972 348.997 297.03 348.09 296.899 347.2C296.767 346.31 296.448 345.458 295.963 344.701C295.441 343.949 294.766 343.316 293.981 342.845C293.197 342.373 292.321 342.074 291.413 341.967L255.908 337.168C253.91 336.938 251.895 337.422 250.219 338.535C248.543 339.648 247.314 341.317 246.75 343.248L243.27 356.363C243.009 357.223 242.941 358.131 243.071 359.02C243.202 359.909 243.527 360.759 244.024 361.508C244.521 362.257 245.177 362.887 245.946 363.353C246.715 363.819 247.577 364.109 248.471 364.202Z" fill="#E6EBDE"/>
<path d="M392.018 29.7885L337.853 25.2572C337.728 25.2459 337.606 25.21 337.494 25.1515C337.382 25.093 337.283 25.0131 337.203 24.9164C337.122 24.8196 337.061 24.7079 337.023 24.5876C336.986 24.4673 336.972 24.3408 336.983 24.2152C336.995 24.0897 337.031 23.9676 337.089 23.8559C337.148 23.7443 337.227 23.6452 337.324 23.5644C337.421 23.4837 337.533 23.4227 337.653 23.3851C337.773 23.3475 337.9 23.334 338.025 23.3453L392.171 27.8574C392.424 27.8574 392.668 27.9581 392.847 28.1374C393.026 28.3167 393.127 28.5598 393.127 28.8134C393.127 29.0669 393.026 29.3101 392.847 29.4893C392.668 29.6686 392.424 29.7693 392.171 29.7693L392.018 29.7885Z" fill="#E6EBDE"/>
<path d="M330.34 24.6263L323.151 24.0336C323.026 24.0241 322.904 23.9896 322.793 23.9322C322.681 23.8747 322.583 23.7955 322.502 23.6993C322.422 23.603 322.362 23.4916 322.326 23.3717C322.289 23.2518 322.277 23.1258 322.29 23.0012C322.315 22.7493 322.436 22.5167 322.629 22.3526C322.821 22.1884 323.07 22.1057 323.323 22.1217L330.492 22.7335C330.746 22.7335 330.989 22.8343 331.168 23.0135C331.348 23.1928 331.448 23.436 331.448 23.6895C331.448 23.943 331.348 24.1862 331.168 24.3655C330.989 24.5447 330.746 24.6455 330.492 24.6455L330.34 24.6263Z" fill="#E6EBDE"/>
<path d="M383.529 204.71C383.529 204.71 406.816 127.927 386.627 110.911L287.819 99.019C287.819 99.019 270.879 116.666 268.432 130.222C265.984 143.777 245.489 172.647 253.136 189.873L383.529 204.71Z" fill="#1F2223"/>
<path d="M383.529 205.666H383.433L253.021 190.81C252.857 190.79 252.701 190.729 252.567 190.632C252.433 190.535 252.326 190.406 252.256 190.256C246.96 178.287 254.704 161.023 260.937 147.142C264.015 140.297 266.672 134.371 267.437 130.05C269.903 116.36 286.365 99.0765 287.072 98.35C287.175 98.2433 287.301 98.1618 287.44 98.1121C287.58 98.0623 287.729 98.0456 287.875 98.0632L386.684 109.974C386.865 109.999 387.037 110.072 387.181 110.185C407.619 127.392 385.269 201.842 384.389 204.997C384.331 205.183 384.217 205.346 384.064 205.466C383.91 205.586 383.723 205.655 383.529 205.666ZM253.862 188.975L382.841 203.678C385.173 195.686 404.273 127.698 386.225 111.905L288.181 100.09C285.849 102.614 271.548 118.368 269.368 130.47C268.546 135.021 265.85 141.043 262.734 148.003C256.845 161.252 249.331 177.79 253.862 188.975Z" fill="#1F2223"/>
<path d="M392.859 206.966H392.726L227.593 183.794C227.346 183.756 227.123 183.622 226.973 183.422C226.823 183.222 226.757 182.971 226.79 182.723C226.823 182.472 226.955 182.245 227.155 182.091C227.356 181.936 227.61 181.868 227.861 181.901L392.993 205.073C393.246 205.111 393.473 205.247 393.627 205.45C393.781 205.654 393.848 205.91 393.815 206.163C393.775 206.388 393.657 206.591 393.483 206.738C393.308 206.884 393.088 206.965 392.859 206.966Z" fill="#1F2223"/>
<path d="M386.626 110.911C386.626 110.911 376.608 112.288 370.471 133.128C361.083 165.019 348.713 232.318 340.893 257.632C329.422 294.455 298.831 299.694 298.831 299.694L169.49 280.938C169.49 280.938 222.125 262.699 231.015 231.687C240.365 199.012 253.308 137.277 256.807 123.492C262.983 99.0764 287.876 99.0764 287.876 99.0764L386.626 110.911Z" fill="white"/>
<path d="M298.774 300.593H298.64L169.298 281.837C169.086 281.804 168.89 281.702 168.741 281.547C168.592 281.391 168.499 281.19 168.476 280.976C168.455 280.764 168.506 280.551 168.621 280.371C168.735 280.19 168.906 280.054 169.107 279.982C169.643 279.81 221.398 261.532 230.04 231.362C236.521 208.706 244.838 171.653 250.326 147.123C252.792 136.129 254.742 127.43 255.813 123.205C262.103 98.3498 287.57 98.063 287.818 98.063L386.741 109.974C386.971 110.002 387.183 110.112 387.338 110.285C387.492 110.457 387.579 110.68 387.582 110.911C387.581 111.142 387.497 111.365 387.347 111.54C387.196 111.715 386.988 111.831 386.76 111.867C386.607 111.867 377.201 113.607 371.465 133.395C366.704 149.532 361.217 174.693 355.883 199.031C350.682 222.873 345.749 245.396 341.887 257.919C335.922 277.21 324.68 287.783 316.153 293.251C310.927 296.752 305.09 299.242 298.946 300.593H298.774ZM173.218 280.479L298.754 298.681C300.991 298.222 329.345 291.893 339.975 257.345C343.799 244.898 348.751 222.414 353.952 198.63C359.267 174.253 364.792 149.054 369.553 132.86C373.587 119.19 379.285 113.741 382.936 111.427L287.704 99.9558C286.824 99.9558 263.594 100.281 257.667 123.683C256.616 127.87 254.666 136.55 252.199 147.543C246.693 172.093 238.376 209.184 231.876 231.897C227.191 248.206 210.519 260.92 197.346 268.702C189.61 273.227 181.545 277.164 173.218 280.479Z" fill="#1F2223"/>
<path d="M324.451 259.869H324.336L306.842 257.957C306.591 257.928 306.362 257.801 306.205 257.604C306.047 257.408 305.974 257.156 306.001 256.905C306.012 256.78 306.049 256.659 306.109 256.548C306.169 256.438 306.25 256.34 306.348 256.262C306.446 256.183 306.559 256.125 306.68 256.092C306.801 256.058 306.927 256.048 307.052 256.064L324.565 257.976C324.816 258.005 325.045 258.132 325.202 258.329C325.36 258.526 325.433 258.777 325.407 259.028C325.374 259.259 325.26 259.471 325.085 259.626C324.909 259.78 324.684 259.867 324.451 259.869Z" fill="#E6EBDE"/>
<path d="M292.732 256.274H292.617L240.25 250.328C239.999 250.3 239.77 250.173 239.612 249.976C239.455 249.779 239.381 249.528 239.408 249.277C239.42 249.152 239.457 249.03 239.517 248.92C239.576 248.809 239.658 248.712 239.756 248.633C239.854 248.555 239.967 248.497 240.088 248.463C240.209 248.429 240.335 248.42 240.46 248.436L292.846 254.363C293.1 254.378 293.337 254.493 293.506 254.683C293.674 254.873 293.76 255.122 293.745 255.376C293.73 255.629 293.615 255.866 293.424 256.035C293.234 256.203 292.985 256.29 292.732 256.274Z" fill="#E6EBDE"/>
<path d="M308.812 279.848H308.697L292.618 277.936C292.492 277.921 292.371 277.882 292.261 277.82C292.15 277.758 292.053 277.675 291.975 277.575C291.897 277.476 291.839 277.362 291.805 277.24C291.771 277.119 291.761 276.991 291.776 276.866C291.791 276.74 291.831 276.619 291.893 276.509C291.955 276.398 292.038 276.301 292.138 276.223C292.237 276.145 292.351 276.087 292.473 276.053C292.594 276.019 292.722 276.009 292.847 276.024L308.926 277.936C309.052 277.944 309.175 277.976 309.288 278.031C309.401 278.086 309.502 278.163 309.585 278.257C309.669 278.351 309.733 278.461 309.774 278.579C309.815 278.698 309.832 278.824 309.825 278.95C309.817 279.075 309.785 279.198 309.73 279.311C309.675 279.424 309.598 279.525 309.504 279.609C309.41 279.692 309.301 279.756 309.182 279.797C309.063 279.839 308.937 279.856 308.812 279.848Z" fill="#E6EBDE"/>
<path d="M274.798 275.986H274.684L224.61 270.25C224.357 270.223 224.125 270.095 223.965 269.896C223.806 269.697 223.732 269.443 223.76 269.189C223.788 268.936 223.915 268.704 224.114 268.544C224.313 268.385 224.567 268.311 224.821 268.339L274.913 274.074C275.164 274.103 275.393 274.23 275.55 274.427C275.708 274.624 275.781 274.875 275.754 275.126C275.727 275.361 275.614 275.578 275.438 275.736C275.262 275.894 275.035 275.983 274.798 275.986Z" fill="#E6EBDE"/>
<path d="M298.773 299.637C291.207 292.646 285.388 283.977 281.785 274.327C278.182 264.676 276.896 254.315 278.029 244.076L142.283 219.585C142.283 219.585 153.926 265.031 169.413 280.881L298.773 299.637Z" fill="white"/>
<path d="M298.774 300.593H298.64L169.299 281.837C169.089 281.801 168.895 281.7 168.744 281.55C153.257 265.7 141.843 221.688 141.365 219.814C141.326 219.66 141.326 219.498 141.366 219.345C141.406 219.191 141.485 219.05 141.595 218.935C141.703 218.813 141.841 218.721 141.995 218.667C142.149 218.614 142.314 218.6 142.474 218.629L278.221 243.12C278.455 243.171 278.663 243.306 278.804 243.5C278.945 243.694 279.01 243.933 278.985 244.172C277.913 254.254 279.2 264.448 282.744 273.948C286.287 283.447 291.991 291.993 299.405 298.91C299.564 299.031 299.681 299.2 299.738 299.392C299.794 299.584 299.788 299.789 299.719 299.977C299.651 300.165 299.524 300.327 299.357 300.437C299.191 300.548 298.993 300.603 298.793 300.593H298.774ZM169.891 279.982L295.925 298.26C289.087 291.263 283.851 282.864 280.58 273.644C277.308 264.423 276.079 254.602 276.978 244.86L143.602 220.789C145.744 228.609 156.412 265.891 169.891 279.982Z" fill="#1F2223"/>
<path d="M352.537 140.718H352.441L268.317 131.158C268.19 131.147 268.067 131.109 267.955 131.048C267.843 130.988 267.744 130.904 267.666 130.804C267.587 130.704 267.529 130.589 267.497 130.466C267.464 130.342 267.457 130.214 267.476 130.088C267.504 129.837 267.631 129.608 267.828 129.45C268.025 129.293 268.276 129.22 268.527 129.246L352.652 138.806C352.905 138.819 353.143 138.932 353.314 139.12C353.484 139.308 353.572 139.556 353.56 139.81C353.547 140.063 353.434 140.301 353.246 140.472C353.058 140.642 352.809 140.731 352.556 140.718H352.537Z" fill="#E6EBDE"/>
<path d="M349.019 162.361H348.904L333.112 160.564C332.986 160.549 332.865 160.509 332.755 160.447C332.644 160.385 332.548 160.302 332.469 160.203C332.391 160.103 332.334 159.989 332.299 159.868C332.265 159.746 332.255 159.619 332.271 159.493C332.286 159.368 332.325 159.246 332.387 159.136C332.449 159.026 332.532 158.929 332.632 158.851C332.731 158.773 332.845 158.715 332.967 158.681C333.088 158.647 333.216 158.637 333.341 158.652L349.115 160.43C349.24 160.436 349.363 160.467 349.477 160.521C349.59 160.575 349.692 160.651 349.777 160.744C349.861 160.837 349.926 160.946 349.968 161.064C350.01 161.183 350.029 161.308 350.023 161.434C350.016 161.559 349.985 161.682 349.932 161.796C349.878 161.909 349.802 162.011 349.709 162.096C349.616 162.18 349.507 162.245 349.388 162.287C349.27 162.33 349.144 162.348 349.019 162.342V162.361Z" fill="#E6EBDE"/>
<path d="M315.541 158.556L264.914 152.82C264.66 152.793 264.428 152.665 264.269 152.466C264.109 152.267 264.035 152.013 264.063 151.759C264.091 151.506 264.218 151.274 264.417 151.114C264.616 150.955 264.87 150.881 265.124 150.908L315.752 156.644C315.877 156.652 316 156.684 316.113 156.739C316.226 156.794 316.327 156.871 316.411 156.965C316.494 157.059 316.558 157.168 316.599 157.287C316.641 157.406 316.658 157.532 316.65 157.658C316.643 157.783 316.611 157.906 316.556 158.019C316.501 158.132 316.424 158.233 316.33 158.317C316.236 158.4 316.126 158.464 316.007 158.505C315.888 158.546 315.762 158.564 315.637 158.556H315.541Z" fill="#E6EBDE"/>
<path d="M343.819 182.532H343.704L317.683 179.587C317.431 179.554 317.201 179.423 317.044 179.223C316.887 179.023 316.814 178.77 316.842 178.517C316.875 178.265 317.006 178.035 317.206 177.878C317.406 177.721 317.659 177.648 317.912 177.675L343.914 180.639C344.039 180.651 344.161 180.688 344.271 180.747C344.382 180.807 344.479 180.888 344.558 180.986C344.636 181.085 344.694 181.197 344.728 181.318C344.762 181.439 344.771 181.566 344.756 181.691C344.728 181.92 344.617 182.132 344.445 182.287C344.273 182.442 344.05 182.529 343.819 182.532Z" fill="#E6EBDE"/>
<path d="M292.732 176.739H292.618L259.618 172.915C259.492 172.901 259.371 172.863 259.26 172.802C259.149 172.741 259.052 172.659 258.973 172.56C258.894 172.462 258.835 172.349 258.8 172.227C258.764 172.106 258.753 171.979 258.767 171.854C258.781 171.728 258.819 171.607 258.88 171.496C258.941 171.385 259.023 171.287 259.121 171.208C259.22 171.129 259.333 171.071 259.454 171.035C259.576 171 259.703 170.989 259.828 171.003L292.847 174.731C293.099 174.765 293.328 174.895 293.485 175.095C293.643 175.295 293.715 175.549 293.688 175.802C293.678 176.05 293.574 176.286 293.396 176.46C293.219 176.634 292.981 176.734 292.732 176.739Z" fill="#E6EBDE"/>
<path d="M339.383 201.632H339.268L317.568 199.089C317.316 199.055 317.087 198.925 316.93 198.725C316.772 198.525 316.7 198.271 316.727 198.018C316.765 197.768 316.897 197.542 317.095 197.386C317.294 197.229 317.545 197.155 317.797 197.177L339.479 199.643C339.732 199.656 339.97 199.769 340.141 199.957C340.311 200.145 340.399 200.394 340.387 200.647C340.374 200.901 340.261 201.139 340.073 201.309C339.885 201.479 339.637 201.568 339.383 201.555V201.632Z" fill="#E6EBDE"/>
<path d="M294.529 196.546H294.414L255.163 192.091C254.912 192.062 254.683 191.936 254.525 191.739C254.368 191.542 254.294 191.29 254.321 191.04C254.355 190.787 254.486 190.558 254.686 190.401C254.886 190.244 255.139 190.171 255.392 190.198L294.625 194.653C294.878 194.653 295.121 194.754 295.301 194.933C295.48 195.112 295.581 195.356 295.581 195.609C295.581 195.863 295.48 196.106 295.301 196.285C295.121 196.464 294.878 196.565 294.625 196.565L294.529 196.546Z" fill="#E6EBDE"/>
<path d="M334.775 222.777L315.522 220.598C315.271 220.569 315.042 220.442 314.885 220.245C314.727 220.048 314.654 219.797 314.681 219.546C314.693 219.421 314.729 219.3 314.789 219.189C314.849 219.079 314.93 218.981 315.028 218.903C315.126 218.824 315.239 218.766 315.36 218.732C315.481 218.698 315.608 218.689 315.732 218.705L334.985 220.885C335.239 220.9 335.476 221.015 335.644 221.205C335.813 221.395 335.899 221.644 335.884 221.898C335.869 222.152 335.753 222.389 335.563 222.557C335.373 222.726 335.124 222.812 334.871 222.797L334.775 222.777Z" fill="#E6EBDE"/>
<path d="M303.515 219.24H303.401L250.574 213.237C250.324 213.208 250.095 213.081 249.937 212.885C249.779 212.688 249.706 212.436 249.733 212.185C249.745 212.06 249.782 211.939 249.841 211.828C249.901 211.718 249.982 211.62 250.08 211.542C250.179 211.463 250.291 211.406 250.412 211.372C250.533 211.338 250.66 211.328 250.785 211.344L303.611 217.329C303.864 217.341 304.103 217.454 304.273 217.642C304.443 217.831 304.532 218.079 304.519 218.332C304.506 218.586 304.393 218.824 304.205 218.994C304.017 219.165 303.769 219.253 303.515 219.24Z" fill="#E6EBDE"/>
<path d="M329.919 239.889H329.804L306.861 237.289C306.611 237.26 306.382 237.133 306.224 236.937C306.067 236.74 305.993 236.488 306.02 236.237C306.032 236.112 306.069 235.991 306.128 235.88C306.188 235.77 306.269 235.672 306.368 235.594C306.466 235.515 306.579 235.458 306.7 235.424C306.82 235.39 306.947 235.38 307.072 235.396L330.015 237.996C330.268 238.012 330.505 238.127 330.674 238.317C330.842 238.507 330.929 238.756 330.913 239.01C330.898 239.263 330.783 239.5 330.593 239.669C330.403 239.837 330.154 239.924 329.9 239.908L329.919 239.889Z" fill="#E6EBDE"/>
<path d="M296.594 236.123L245.814 230.387C245.56 230.359 245.328 230.232 245.168 230.033C245.009 229.834 244.935 229.579 244.963 229.326C244.991 229.072 245.118 228.84 245.317 228.681C245.516 228.521 245.77 228.447 246.024 228.475L296.804 234.211C297.058 234.226 297.295 234.341 297.464 234.531C297.632 234.721 297.718 234.971 297.703 235.224C297.688 235.478 297.573 235.715 297.383 235.883C297.193 236.052 296.943 236.138 296.69 236.123H296.594Z" fill="#E6EBDE"/>
<path d="M32.5322 111.874L76.4219 206.211C80.0565 214.023 89.336 217.41 97.1482 213.775L241.912 146.425C249.724 142.79 253.111 133.511 249.476 125.698L205.587 31.3616C201.952 23.5494 192.673 20.1628 184.86 23.7974L40.0964 91.1482C32.2842 94.7828 28.8976 104.062 32.5322 111.874Z" fill="white"/>
<path d="M90.6041 216.296C87.4487 216.3 84.3578 215.403 81.6954 213.709C79.033 212.016 76.91 209.596 75.5764 206.737L31.6023 112.403C29.753 108.422 29.56 103.87 31.0658 99.7468C32.5716 95.6238 35.6529 92.2675 39.6323 90.4155L184.403 23.0586C188.384 21.2093 192.936 21.0163 197.059 22.5221C201.182 24.0279 204.538 27.1092 206.39 31.0886L250.269 125.423C251.187 127.392 251.709 129.524 251.804 131.695C251.898 133.866 251.564 136.035 250.82 138.077C250.076 140.119 248.937 141.994 247.468 143.595C245.999 145.197 244.228 146.493 242.258 147.41L97.487 214.767C95.3303 215.768 92.982 216.29 90.6041 216.296ZM191.439 23.3071C189.313 23.3086 187.212 23.7717 185.282 24.6646L40.5118 92.0215C36.9946 93.6614 34.272 96.6302 32.942 100.276C31.6121 103.922 31.7835 107.946 33.4186 111.466L77.3928 205.819C79.0365 209.338 82.0088 212.06 85.6577 213.39C89.3065 214.72 93.3339 214.548 96.8561 212.912L241.55 145.555C245.067 143.915 247.79 140.947 249.12 137.301C250.45 133.655 250.279 129.631 248.643 126.111L204.669 31.7578C203.492 29.2402 201.623 27.1091 199.28 25.6129C196.938 24.1167 194.218 23.3171 191.439 23.3071Z" fill="#1F2223"/>
<path d="M159.15 68.9564L170.224 92.7572C172.852 98.4058 179.561 100.854 185.21 98.2265L202.059 90.3873C207.708 87.7594 210.156 81.0499 207.528 75.4014L196.455 51.6005C193.827 45.952 187.118 43.5033 181.469 46.1313L164.62 53.9704C158.971 56.5984 156.522 63.3079 159.15 68.9564Z" fill="#66CCBA"/>
<path d="M55.4398 104.759C51.9645 106.376 50.458 110.504 52.0748 113.979C53.6917 117.454 57.8197 118.961 61.295 117.344L93.7287 102.255C97.204 100.638 98.7105 96.5096 97.0936 93.0344C95.4768 89.5591 91.3488 88.0525 87.8735 89.6694L55.4398 104.759Z" fill="#E6EBDE"/>
<path d="M195.5 130.004L198.605 136.677C199.42 138.429 201.501 139.189 203.253 138.374L227.66 127.018C229.412 126.203 230.172 124.122 229.357 122.37L226.252 115.696C225.437 113.944 223.356 113.185 221.604 114L197.196 125.355C195.444 126.17 194.685 128.251 195.5 130.004Z" fill="#E6EBDE"/>
<path d="M158.246 147.354L161.351 154.028C162.166 155.78 164.247 156.54 165.999 155.725L190.407 144.369C192.159 143.554 192.918 141.473 192.103 139.721L188.998 133.047C188.183 131.295 186.102 130.536 184.35 131.351L159.942 142.706C158.19 143.521 157.431 145.602 158.246 147.354Z" fill="#E6EBDE"/>
<path d="M120.966 164.677L124.071 171.351C124.887 173.103 126.968 173.862 128.72 173.047L153.127 161.692C154.879 160.877 155.639 158.796 154.824 157.044L151.719 150.37C150.903 148.618 148.822 147.858 147.07 148.673L122.663 160.029C120.911 160.844 120.151 162.925 120.966 164.677Z" fill="#E6EBDE"/>
<path d="M83.7125 182.009L86.8176 188.683C87.6327 190.435 89.7137 191.194 91.4658 190.379L115.873 179.024C117.625 178.209 118.385 176.128 117.57 174.376L114.465 167.702C113.65 165.95 111.569 165.19 109.817 166.005L85.4089 177.361C83.6569 178.176 82.8974 180.257 83.7125 182.009Z" fill="#E6EBDE"/>
<path d="M355.558 95.8454C355.397 95.8469 355.239 95.8073 355.099 95.7303C354.958 95.6533 354.84 95.5415 354.755 95.4056L329.116 55.2553C328.995 55.0427 328.959 54.7916 329.018 54.5539C329.076 54.3162 329.223 54.1099 329.429 53.9775C329.635 53.8452 329.884 53.7968 330.124 53.8425C330.365 53.8881 330.579 54.0243 330.722 54.2229L356.361 94.3732C356.497 94.5863 356.544 94.8448 356.49 95.0921C356.436 95.3394 356.287 95.5553 356.074 95.6924C355.923 95.7973 355.742 95.8509 355.558 95.8454Z" fill="white"/>
<path d="M278.029 84.1824C277.853 84.1824 277.679 84.1344 277.528 84.0434C277.376 83.9525 277.252 83.8221 277.169 83.6662L264.072 58.3715C264.013 58.2614 263.976 58.1405 263.964 58.0159C263.952 57.8913 263.965 57.7657 264.003 57.6462C264.04 57.5268 264.101 57.4162 264.182 57.3207C264.263 57.2252 264.362 57.147 264.474 57.0905C264.585 57.0307 264.708 56.9936 264.834 56.9814C264.96 56.9692 265.087 56.9821 265.208 57.0195C265.329 57.0568 265.441 57.1178 265.538 57.199C265.636 57.2801 265.716 57.3797 265.774 57.492L278.871 82.7867C278.986 83.013 279.009 83.2755 278.934 83.5183C278.859 83.7612 278.692 83.9652 278.469 84.0868C278.329 84.144 278.18 84.1763 278.029 84.1824Z" fill="white"/>
<path d="M64.4491 232.414L56.4382 241.61C51.3333 247.996 35.1011 243.522 20.2264 231.572C5.35166 219.623 -2.60192 204.825 2.56026 198.42L10.5903 189.223L64.4491 232.414Z" fill="white"/>
<path d="M48.8667 245.491C41.219 245.491 30.1872 240.769 19.6143 232.318C12.9038 227.141 7.26688 220.705 3.01882 213.371C-0.518231 206.737 -0.957965 201.23 1.75696 197.827L9.80614 188.592C9.9687 188.407 10.1968 188.291 10.4427 188.27C10.6886 188.248 10.9332 188.323 11.1254 188.478L65.0415 231.592C65.145 231.668 65.231 231.765 65.2936 231.877C65.3563 231.989 65.3942 232.114 65.4048 232.242C65.4257 232.504 65.3434 232.765 65.1753 232.968L57.1453 242.164C56.1116 243.315 54.8278 244.213 53.3926 244.79C51.9574 245.367 50.4091 245.607 48.8667 245.491ZM10.6283 190.543L3.22913 199.089C1.06866 201.785 1.60401 206.737 4.70132 212.472C8.82487 219.589 14.3001 225.83 20.8188 230.846C35.0244 242.317 50.9889 246.887 55.6922 241.036L63.0722 232.548L10.6283 190.543Z" fill="#1F2223"/>
<path d="M64.4423 232.398C69.5512 226.018 61.6195 211.178 46.7264 199.251C31.8333 187.323 15.6184 182.826 10.5095 189.205C5.40062 195.584 13.3323 210.424 28.2254 222.352C43.1185 234.279 59.3334 238.777 64.4423 232.398Z" fill="white"/>
<path d="M56.8776 236.276C49.2299 236.276 38.179 231.554 27.6443 223.122C20.9233 217.95 15.279 211.514 11.0297 204.175C7.49269 197.54 7.05294 192.034 9.78699 188.631C12.5019 185.228 17.9891 184.444 25.2162 186.451C33.3061 188.991 40.8209 193.09 47.3371 198.516C62.881 210.962 70.7199 226.105 65.1944 232.93C64.1558 234.086 62.8662 234.989 61.4245 235.569C59.9828 236.149 58.4273 236.391 56.8776 236.276ZM18.0847 187.293C16.8334 187.174 15.5716 187.34 14.3931 187.777C13.2146 188.214 12.1499 188.911 11.2783 189.816C9.07957 192.55 9.61492 197.464 12.7313 203.2C16.8493 210.314 22.3179 216.556 28.8297 221.573C43.0353 233.045 59.0189 237.614 63.7031 231.764C68.3873 225.913 60.3573 211.325 46.1326 199.949C39.823 194.684 32.5411 190.709 24.7 188.249C22.5487 187.63 20.3231 187.308 18.0847 187.293Z" fill="#1F2223"/>
<path d="M24.9488 194.462L28.4476 197.789H28.8491C29.9771 197.999 31.0478 198.152 32.1949 198.439C35.2094 199.245 38.0574 200.579 40.6074 202.377C42.2017 203.459 43.6479 204.745 44.9092 206.201C45.7019 206.99 46.2297 208.005 46.4196 209.107C46.4587 209.497 46.3769 209.89 46.1854 210.232C45.9939 210.574 45.7019 210.849 45.3489 211.019C44.7945 211.402 44.1827 211.746 43.5709 212.128L50.1479 218.38C51.2759 217.577 50.7788 216.22 49.2302 214.556L53.2643 213.868C54.4914 214.933 55.4925 216.233 56.2087 217.692C56.5127 218.24 56.6443 218.867 56.5863 219.491C56.5283 220.116 56.2834 220.708 55.8836 221.191C55.4821 221.63 54.9277 222.013 54.4306 222.453L56.8205 224.728L52.9966 225.932L50.5494 223.619C49.364 223.619 48.2551 223.619 47.0314 223.619C44.6727 223.393 42.3737 222.746 40.2441 221.707C37.3551 220.431 34.7538 218.584 32.5964 216.277C30.3977 213.868 29.9198 211.975 31.2772 210.694C32.1839 209.914 33.2368 209.323 34.3745 208.954L34.8334 208.782L28.1608 202.473H27.9696C27.8184 202.88 27.7157 203.304 27.6637 203.735C27.8809 204.599 28.3702 205.369 29.0594 205.934L22.8074 206.316C22.3103 205.781 21.8132 205.264 21.3735 204.748C19.7675 202.836 19.1557 201.249 19.6528 200.007C19.9799 199.406 20.4523 198.897 21.0268 198.527C21.6012 198.156 22.2595 197.935 22.9413 197.884C23.1516 197.884 23.1516 197.77 22.9413 197.559C21.7368 196.45 20.5514 195.322 19.366 194.194L24.9488 194.462ZM40.0529 213.772C39.4602 214.25 38.6955 214.614 38.8484 215.512C39.0014 216.411 41.0854 218.285 43.0164 218.935C43.9662 219.274 44.9719 219.43 45.9799 219.393L40.0529 213.772ZM38.5234 207.367C39.0396 207.081 39.5558 206.851 39.6323 206.335C39.7661 205.379 37.7204 203.563 35.6173 202.798C34.7187 202.454 33.8583 202.263 32.8641 201.976L38.5234 207.367Z" fill="#E6EBDE"/>
<path d="M126.606 329.425L131.29 340.686C134.731 348.104 123.508 360.627 106.225 368.695C88.9409 376.764 72.116 377.261 68.6554 369.862L63.9712 358.581L126.606 329.425Z" fill="white"/>
<path d="M81.1975 376.075C74.5249 376.075 69.5921 374.163 67.814 370.34L63.1107 359.04C63.018 358.811 63.0158 358.555 63.1045 358.325C63.1933 358.094 63.3663 357.905 63.5887 357.797L126.223 328.641C126.341 328.588 126.468 328.562 126.596 328.562C126.724 328.562 126.851 328.588 126.969 328.641C127.089 328.69 127.199 328.762 127.291 328.854C127.382 328.946 127.455 329.056 127.504 329.176L132.188 340.437C135.897 348.41 124.694 361.258 106.645 369.67C98.7025 373.558 90.034 375.74 81.1975 376.075ZM65.2138 359.059L69.5347 369.479C72.6894 376.247 89.304 375.502 105.861 367.816C122.418 360.13 133.622 347.894 130.449 341.049L126.147 330.667L65.2138 359.059Z" fill="#1F2223"/>
<path d="M101.524 357.43C118.821 349.375 130.046 336.839 126.596 329.43C123.146 322.021 106.327 322.545 89.0301 330.6C71.733 338.654 60.5078 351.19 63.9579 358.599C67.4081 366.008 84.227 365.485 101.524 357.43Z" fill="white"/>
<path d="M76.4555 364.776C69.5726 364.776 64.8502 362.749 63.0721 359.04C59.2483 351.048 70.5477 338.181 88.5962 329.788C106.645 321.394 123.699 321.069 127.427 329.08C131.156 337.091 119.952 349.939 101.903 358.352C94.2809 362.068 86.0074 364.263 77.5453 364.814L76.4555 364.776ZM114.178 325.276C105.585 325.629 97.1605 327.764 89.4375 331.547C72.9376 339.194 61.6764 351.469 64.8311 358.314C66.3224 361.487 70.9874 363.17 77.5262 362.979C85.7325 362.446 93.7545 360.309 101.138 356.688C117.638 349.041 128.9 336.766 125.726 329.922C124.273 326.71 119.99 325.276 114.178 325.276Z" fill="#1F2223"/>
<path d="M75.0596 347.989L79.5909 346.326L79.8394 346.001C80.5277 345.083 81.1204 344.089 81.9043 343.286C83.9714 340.963 86.4305 339.022 89.1696 337.55C90.8532 336.606 92.6529 335.886 94.523 335.409C95.5855 335.064 96.7299 335.064 97.7924 335.409C98.1415 335.552 98.4404 335.796 98.6514 336.109C98.8623 336.422 98.9759 336.79 98.9778 337.168C98.9778 337.837 99.1116 338.544 99.169 339.252L107.696 336.135C107.467 334.759 106.052 334.606 103.872 335.256L105.039 331.432C106.561 330.809 108.193 330.497 109.837 330.514C110.472 330.484 111.099 330.652 111.634 330.994C112.168 331.337 112.583 331.837 112.82 332.426C113.027 333.052 113.193 333.691 113.317 334.338L116.414 333.21L115.803 337.168L112.648 338.353C112.113 339.405 111.654 340.418 111.042 341.489C109.814 343.506 108.234 345.287 106.377 346.746C103.966 348.774 101.16 350.278 98.1365 351.163C95.001 352.081 93.1082 351.66 92.5537 349.882C92.2559 348.727 92.1909 347.525 92.3625 346.345C92.3625 346.173 92.3625 346.001 92.3625 345.848L83.7589 349.041L83.6059 349.175C83.8975 349.493 84.2321 349.77 84.6001 349.997C85.4665 350.194 86.3738 350.1 87.1812 349.729L84.7531 355.465C84.0457 355.675 83.3765 355.885 82.7265 356.038C80.2983 356.65 78.5967 356.497 77.6981 355.484C77.3152 354.932 77.0747 354.294 76.998 353.627C76.9212 352.96 77.0107 352.284 77.2584 351.66C77.2584 351.469 77.2584 351.431 76.9525 351.545L72.3447 353.247L75.0596 347.989ZM99.0734 343.018C99.2454 343.764 99.2263 344.605 100.087 344.93C101.017 344.919 101.935 344.717 102.784 344.335C103.633 343.954 104.394 343.401 105.019 342.712C105.745 342.007 106.329 341.17 106.74 340.246L99.0734 343.018ZM92.6493 341.546C92.6493 340.972 92.6493 340.38 92.2096 340.093C91.4257 339.558 88.902 340.571 87.2577 342.12C86.5694 342.77 86.015 343.458 85.3458 344.223L92.6493 341.546Z" fill="#E6EBDE"/>
<path d="M80.815 259.066C74.0085 270.403 81.6371 295.526 81.6371 295.526L91.7129 302.868C95.3046 305.028 99.2866 306.46 103.432 307.082C107.577 307.704 111.804 307.503 115.871 306.491C119.938 305.479 123.767 303.675 127.137 301.184C130.508 298.693 133.354 295.562 135.515 291.97C137.676 288.378 139.107 284.396 139.729 280.251C140.351 276.106 140.15 271.879 139.138 267.812C138.126 263.744 136.323 259.916 133.831 256.546C131.34 253.175 128.209 250.328 124.617 248.168L113.451 242.681C113.451 242.681 87.6214 247.747 80.815 259.066Z" fill="white"/>
<path d="M108.098 308.393C102.154 308.383 96.3255 306.757 91.2346 303.69L81.0632 296.31C80.8987 296.185 80.7782 296.011 80.719 295.813C80.394 294.761 73.0714 270.136 79.9925 258.569C86.9519 247.097 112.151 241.954 113.222 241.744C113.415 241.688 113.621 241.688 113.814 241.744L125.018 247.231C131.186 250.931 135.971 256.551 138.64 263.23C141.309 269.909 141.714 277.279 139.794 284.21C137.874 291.142 133.735 297.253 128.01 301.607C122.285 305.961 115.29 308.318 108.098 308.317V308.393ZM82.4589 295.01L92.2862 302.141C99.3219 306.344 107.737 307.585 115.687 305.593C123.636 303.6 130.471 298.536 134.693 291.511C138.913 284.476 140.171 276.054 138.189 268.092C136.206 260.131 131.147 253.282 124.12 249.047L113.279 243.751C110.354 244.363 87.7549 249.487 81.6368 259.62C75.5186 269.83 81.6368 292.085 82.4589 294.952V295.01Z" fill="#1F2223"/>
<path d="M101.215 303.25C118.838 303.25 133.125 288.964 133.125 271.34C133.125 253.717 118.838 239.43 101.215 239.43C83.5917 239.43 69.3052 253.717 69.3052 271.34C69.3052 288.964 83.5917 303.25 101.215 303.25Z" fill="white"/>
<path d="M101.158 304.245C96.0966 304.231 91.1071 303.049 86.578 300.791C82.0489 298.532 78.1026 295.259 75.0466 291.224C71.9907 287.19 69.9076 282.505 68.9599 277.534C68.0121 272.562 68.2253 267.439 69.5827 262.564C70.9401 257.688 73.4052 253.192 76.7857 249.426C80.1663 245.659 84.3709 242.725 89.0719 240.85C93.773 238.976 98.8434 238.212 103.888 238.619C108.932 239.027 113.815 240.593 118.154 243.197C124.324 246.899 129.108 252.523 131.773 259.206C134.438 265.89 134.836 273.263 132.906 280.194C130.976 287.125 126.825 293.232 121.09 297.577C115.355 301.921 108.352 304.264 101.158 304.245ZM101.272 240.425C93.7834 240.413 86.5444 243.118 80.8969 248.036C75.2494 252.954 71.5765 259.753 70.5587 267.172C69.541 274.591 71.2476 282.128 75.3621 288.385C79.4766 294.643 85.7201 299.196 92.9354 301.202C100.151 303.208 107.848 302.529 114.602 299.293C121.355 296.057 126.707 290.482 129.664 283.602C132.621 276.722 132.984 269.003 130.685 261.876C128.386 254.748 123.581 248.696 117.16 244.841C112.365 241.946 106.874 240.406 101.272 240.387V240.425Z" fill="#1F2223"/>
<path d="M83.3198 256.714L87.2966 259.123C87.5643 259.276 87.6981 259.257 87.8893 259.028C89.4504 257.292 91.4228 255.977 93.6251 255.204C95.9232 254.393 98.4382 254.447 100.699 255.357C101.311 255.605 101.904 255.892 102.611 256.179L98.902 262.335C97.9686 261.786 96.8766 261.571 95.8047 261.723C94.9811 261.938 94.1704 262.2 93.3765 262.507V262.66L101.024 267.287L101.579 266.714C102.911 265.271 104.406 263.988 106.033 262.89C107.232 262.026 108.643 261.506 110.115 261.385C111.587 261.264 113.065 261.546 114.389 262.201C116.963 263.251 119.023 265.27 120.124 267.822C121.032 269.897 121.259 272.206 120.774 274.419C120.488 275.795 120.029 277.153 119.627 278.567L122.61 280.365L119.207 286.1L116.147 284.188C115.134 285.144 114.236 286.1 113.26 286.942C111.361 288.606 108.957 289.583 106.435 289.714C104.266 289.767 102.13 289.175 100.298 288.012L103.93 281.952C105.008 282.545 106.251 282.767 107.467 282.584C108.683 282.401 109.805 281.823 110.66 280.938L102.42 276.005C101.407 276.942 100.393 277.917 99.3608 278.835C98.1509 279.998 96.6735 280.845 95.059 281.301C93.4009 281.716 91.6544 281.595 90.0689 280.957C88.0916 280.268 86.3443 279.043 85.0214 277.42C84.0731 276.245 83.3949 274.875 83.0348 273.408C82.6747 271.941 82.6414 270.413 82.9374 268.931C83.1669 267.727 83.6448 266.561 83.989 265.394C83.989 265.26 83.989 265.127 84.1419 264.974L80.0122 262.488L83.3198 256.714ZM114.064 275.183C114.506 274.181 114.652 273.073 114.484 271.99C114.313 271.069 113.809 270.243 113.069 269.669C112.329 269.094 111.404 268.811 110.469 268.874C109.146 269.238 107.949 269.959 107.009 270.958L114.064 275.183ZM89.3041 268.052C89.1681 268.989 89.1042 269.935 89.1129 270.882C89.1554 271.394 89.3091 271.891 89.5632 272.338C89.8173 272.785 90.1658 273.171 90.5844 273.469C91.003 273.768 91.4816 273.971 91.9869 274.066C92.4923 274.161 93.0121 274.144 93.5104 274.017C94.517 273.577 95.4169 272.925 96.1488 272.105L89.3041 268.052Z" fill="#E6EBDE"/>
</svg>
