<svg width="256" height="256" viewBox="0 0 256 256" fill="none" xmlns="http://www.w3.org/2000/svg">
<path d="M128.003 256C198.693 256 256 198.689 256 128C256 57.2998 198.699 0 128.003 0C57.3069 0 0 57.2998 0 128C0 198.689 57.3069 256 128.003 256Z" fill="#1FC0E7"/>
<path d="M62.3671 127.968L84.1669 106.066C84.8894 105.338 85.2933 104.359 85.2933 103.324C85.2933 101.162 83.5412 99.41 81.3851 99.41C80.3326 99.41 79.3485 99.8196 78.6089 100.576L56.8205 122.382L34.9467 100.536C34.2071 99.8082 33.2286 99.41 32.1876 99.41C30.0258 99.41 28.2793 101.162 28.2793 103.318C28.2793 104.371 28.7003 105.366 29.4512 106.106L51.251 127.934L29.4626 149.779C28.7003 150.542 28.2793 151.532 28.2793 152.584C28.2793 154.746 30.0315 156.498 32.1876 156.498C33.2286 156.498 34.2071 156.1 34.9467 155.36L56.792 133.503L78.552 155.275C79.3257 156.071 80.3156 156.498 81.3851 156.498C83.5355 156.498 85.2877 154.746 85.2877 152.584C85.2877 151.543 84.8894 150.564 84.1499 149.825L62.3614 127.945L62.3671 127.968ZM191.966 127.963C191.966 131.888 195.151 135.074 199.077 135.074C202.979 135.074 206.165 131.888 206.165 127.963C206.165 124.037 202.979 120.851 199.071 120.851C195.163 120.851 191.983 124.037 191.983 127.963H191.966ZM178.511 127.963C178.511 116.613 187.727 107.369 199.071 107.369C210.392 107.369 219.625 116.613 219.625 127.963C219.625 139.312 210.398 148.556 199.071 148.556C187.733 148.556 178.511 139.323 178.511 127.963ZM170.422 127.963C170.422 143.778 183.279 156.657 199.071 156.657C214.863 156.657 227.72 143.789 227.72 127.968C227.72 112.153 214.863 99.2734 199.071 99.2734C183.273 99.2734 170.422 112.147 170.422 127.968V127.963ZM168.391 99.7627H167.196C163.584 99.7627 160.102 100.9 157.195 103.148C156.797 101.407 155.227 100.076 153.361 100.076C151.216 100.076 149.492 101.811 149.492 103.967L149.504 152.294C149.504 154.439 151.267 156.185 153.401 156.185C155.551 156.185 157.303 154.439 157.309 152.283V122.564C157.309 112.665 158.219 108.66 166.684 107.602C167.481 107.505 168.323 107.522 168.334 107.522C170.644 107.437 172.294 105.838 172.294 103.682C172.294 101.521 170.53 99.7684 168.368 99.7684L168.391 99.7627ZM93.3773 123.246C93.3773 123.133 93.3886 123.019 93.3943 122.916C95.6585 113.928 103.782 107.289 113.448 107.289C123.233 107.289 131.425 114.082 133.586 123.229H93.3716L93.3773 123.246ZM141.579 122.507C139.895 114.525 135.532 107.966 128.893 103.756C119.176 97.5781 106.354 97.9195 96.9783 104.61C89.3211 110.054 84.9008 118.974 84.9008 128.162C84.9008 130.466 85.1853 132.792 85.7541 135.085C88.6441 146.463 98.4176 155.087 110.068 156.515C113.527 156.936 116.895 156.743 120.365 155.832C123.369 155.093 126.265 153.887 128.933 152.169C131.703 150.388 134.019 148.033 136.271 145.217C136.306 145.16 136.351 145.12 136.397 145.063C137.955 143.129 137.665 140.364 135.959 139.056C134.514 137.946 132.09 137.497 130.19 139.943C129.78 140.535 129.32 141.138 128.825 141.735C127.306 143.414 125.423 145.035 123.17 146.298C120.291 147.834 117.026 148.704 113.556 148.727C102.189 148.596 96.1136 140.649 93.9461 134.983C93.5707 133.919 93.2805 132.821 93.0757 131.683L93.0189 131.086H133.808C139.395 130.961 142.398 127.007 141.568 122.495L141.579 122.507Z" fill="white"/>
</svg>
