<svg width="256" height="256" viewBox="0 0 256 256" fill="none" xmlns="http://www.w3.org/2000/svg">
<path d="M159.999 128.056C159.995 137.568 158.253 146.67 155.084 155.08C146.678 158.249 137.568 159.991 128.052 160.003H127.944C118.436 159.991 109.326 158.253 100.92 155.084C97.7506 146.678 96.005 137.568 96.001 128.056V127.944C96.005 118.436 97.7466 109.326 100.912 100.924C109.318 97.7506 118.432 96.005 127.944 96.001H128.052C137.568 96.005 146.678 97.7506 155.084 100.924C158.253 109.326 159.995 118.436 159.999 127.944V128.056ZM254.222 106.667H179.506L232.335 53.8344C228.184 48.0025 223.555 42.5326 218.507 37.485V37.481C213.459 32.4374 207.989 27.8161 202.162 23.6654L149.329 76.4984V1.78174C142.415 0.619387 135.312 0.004022 128.064 0H127.932C120.684 0.004022 113.585 0.619387 106.667 1.78174V76.4984L53.8344 23.6654C48.0025 27.8161 42.5366 32.4414 37.4971 37.489L37.4689 37.5091C32.4293 42.5487 27.8121 48.0106 23.6614 53.8344L76.4984 106.667H1.78174C1.78174 106.667 0 120.7 0 127.956V128.044C0 135.3 0.615365 142.411 1.78174 149.333H76.4984L23.6614 202.166C31.9708 213.825 42.1746 224.033 53.8344 232.339L106.667 179.502V254.222C113.581 255.381 120.672 255.992 127.907 256H128.088C135.328 255.992 142.427 255.381 149.329 254.222V179.502L202.166 232.339C207.993 228.188 213.459 223.563 218.507 218.519L218.519 218.507C223.559 213.459 228.188 207.989 232.335 202.166L179.498 149.333H254.222C255.385 142.423 255.992 135.332 256 128.092V127.907C255.992 120.668 255.385 113.577 254.222 106.667Z" fill="#FF4A00"/>
</svg>
