<svg width="206" height="248" viewBox="0 0 206 248" fill="none" xmlns="http://www.w3.org/2000/svg">
<g clip-path="url(#clip0_830_1219)">
<path d="M19.8511 235.508H18.6433C18.3356 235.515 18.0304 235.452 17.7506 235.324C17.4708 235.196 17.2238 235.006 17.0283 234.768C16.8327 234.531 16.6938 234.252 16.6219 233.953C16.55 233.654 16.547 233.342 16.6133 233.041L24.987 189.701H28.7019L19.8511 235.508Z" fill="white"/>
<path d="M19.8512 236.016H18.6433C18.2659 236.014 17.8934 235.93 17.552 235.769C17.2106 235.608 16.9087 235.374 16.6677 235.084C16.4266 234.794 16.2523 234.454 16.1569 234.089C16.0616 233.723 16.0476 233.342 16.116 232.971L24.4796 189.63C24.5031 189.513 24.5664 189.407 24.659 189.331C24.7515 189.255 24.8674 189.214 24.9871 189.214H28.702C28.7769 189.213 28.8509 189.231 28.9179 189.264C28.9849 189.298 29.0431 189.347 29.0877 189.407C29.1357 189.464 29.1706 189.53 29.1899 189.602C29.2092 189.674 29.2124 189.75 29.1993 189.823L20.3485 235.65C20.3189 235.758 20.2537 235.853 20.1634 235.919C20.0731 235.986 19.9631 236.02 19.8512 236.016ZM25.4032 190.209L17.1107 233.143C17.0692 233.369 17.0776 233.601 17.1353 233.823C17.193 234.045 17.2985 234.252 17.4446 234.429C17.5906 234.606 17.7736 234.748 17.9806 234.847C18.1877 234.946 18.4139 234.998 18.6433 235.001H19.435L28.0828 190.209H25.4032Z" fill="#1F2223"/>
<path d="M49.6312 235.508H50.8796C51.182 235.513 51.4818 235.451 51.7571 235.326C52.0324 235.201 52.2762 235.016 52.4708 234.784C52.6654 234.553 52.8058 234.281 52.8817 233.988C52.9576 233.695 52.9672 233.389 52.9096 233.092L44.5257 189.701H40.7804L49.6312 235.508Z" fill="white"/>
<path d="M50.8797 236.015H49.6313C49.5138 236.017 49.3994 235.978 49.3083 235.903C49.2173 235.829 49.1555 235.725 49.1339 235.609L40.2831 189.802C40.2701 189.729 40.2733 189.654 40.2926 189.582C40.3119 189.51 40.3468 189.443 40.3948 189.386C40.4394 189.326 40.4976 189.277 40.5646 189.244C40.6316 189.21 40.7056 189.193 40.7805 189.193H44.4954C44.6144 189.192 44.73 189.233 44.8212 189.309C44.9125 189.386 44.9733 189.492 44.9927 189.61L53.3766 233.001C53.4501 233.37 53.4409 233.751 53.3495 234.117C53.2581 234.482 53.0868 234.822 52.848 235.114C52.6092 235.405 52.3089 235.639 51.9685 235.801C51.6282 235.962 51.2563 236.046 50.8797 236.046V236.015ZM50.0474 235H50.8797C51.104 235 51.3256 234.951 51.5289 234.856C51.7323 234.762 51.9125 234.624 52.0571 234.452C52.2002 234.279 52.3034 234.077 52.3596 233.859C52.4157 233.642 52.4233 233.414 52.3819 233.194L44.13 190.208H41.4504L50.0474 235Z" fill="#1F2223"/>
<path d="M27.0678 96.5951C26.4588 99.3051 12.2386 213.32 12.2386 213.32H14.8066L33.0766 91.6216L27.0678 96.5951Z" fill="#1F2223"/>
<path d="M14.8065 213.797H12.2386C12.1659 213.796 12.0941 213.781 12.0277 213.751C11.9613 213.721 11.9018 213.678 11.8529 213.625C11.8064 213.57 11.7716 213.507 11.7507 213.439C11.7297 213.371 11.723 213.299 11.7311 213.229C12.3096 208.57 25.9411 99.1934 26.5704 96.5037C26.5951 96.3926 26.6557 96.2927 26.7429 96.2195L32.7111 91.2257C32.7897 91.1574 32.8873 91.115 32.9908 91.1041C33.0943 91.0932 33.1986 91.1144 33.2897 91.1648C33.3785 91.2162 33.4501 91.2928 33.4953 91.385C33.5405 91.4772 33.5572 91.5807 33.5434 91.6824L15.2734 213.381C15.2517 213.492 15.1942 213.592 15.1099 213.667C15.0256 213.743 14.9191 213.788 14.8065 213.797ZM12.7765 212.782H14.3295L32.295 92.8395L27.494 96.8995C26.6414 102.117 13.893 204.185 12.8171 212.782H12.7765Z" fill="#1F2223"/>
<path d="M51.3771 127.583L52.1891 202.074H54.2089L61.1008 121.655L51.3771 127.583Z" fill="#1F2223"/>
<path d="M54.2089 202.581H52.1789C52.1127 202.583 52.0469 202.571 51.9854 202.547C51.9239 202.522 51.8679 202.486 51.8206 202.439C51.7734 202.393 51.7358 202.338 51.7102 202.277C51.6846 202.216 51.6714 202.15 51.6714 202.084L50.8594 127.593C50.8589 127.506 50.881 127.419 50.9237 127.343C50.9664 127.266 51.0282 127.202 51.103 127.157L60.8267 121.229C60.9077 121.18 61.0008 121.154 61.0956 121.154C61.1905 121.154 61.2836 121.18 61.3646 121.229C61.4446 121.279 61.5091 121.35 61.5504 121.434C61.5917 121.518 61.6082 121.613 61.5981 121.706L54.7164 202.155C54.6969 202.275 54.635 202.384 54.5418 202.463C54.4487 202.541 54.3305 202.583 54.2089 202.581ZM52.6864 201.566H53.7014L60.4714 122.61L51.8439 127.867L52.6864 201.566Z" fill="#1F2223"/>
<path d="M190.645 61.7298L202.267 220.171H204.449L195.456 48.1389L190.645 61.7298Z" fill="#1F2223"/>
<path d="M204.5 220.679H202.267C202.14 220.679 202.018 220.631 201.926 220.544C201.833 220.457 201.777 220.338 201.77 220.212L190.138 61.7601C190.118 61.6938 190.118 61.6235 190.138 61.5572L194.949 47.9663C194.958 47.8996 194.98 47.8355 195.015 47.7775C195.049 47.7195 195.094 47.6688 195.148 47.6283C195.201 47.5877 195.263 47.5582 195.328 47.5413C195.393 47.5244 195.461 47.5205 195.527 47.5299C195.594 47.5392 195.658 47.5615 195.716 47.5957C195.774 47.6298 195.825 47.675 195.865 47.7287C195.906 47.7825 195.935 47.8436 195.952 47.9088C195.969 47.9739 195.973 48.0418 195.964 48.1084L204.957 220.141C204.961 220.209 204.952 220.277 204.929 220.342C204.906 220.407 204.871 220.466 204.825 220.516C204.739 220.607 204.624 220.665 204.5 220.679ZM202.795 219.664H203.972L195.081 50.717L191.153 61.8007L202.795 219.664Z" fill="#1F2223"/>
<path d="M164.763 138.626L166.316 229.601H168.731L169.746 124.548L164.763 138.626Z" fill="#1F2223"/>
<path d="M168.731 230.108H166.316C166.184 230.106 166.057 230.053 165.963 229.96C165.869 229.868 165.813 229.743 165.808 229.611L164.255 138.636C164.246 138.576 164.246 138.514 164.255 138.454L169.239 124.386C169.25 124.319 169.275 124.255 169.31 124.198C169.346 124.141 169.393 124.091 169.448 124.052C169.504 124.013 169.566 123.985 169.632 123.97C169.698 123.955 169.766 123.953 169.833 123.965C169.899 123.976 169.963 124 170.02 124.036C170.077 124.072 170.127 124.119 170.166 124.174C170.205 124.229 170.233 124.292 170.248 124.358C170.263 124.423 170.265 124.492 170.254 124.558L169.239 229.611C169.239 229.677 169.226 229.743 169.2 229.804C169.174 229.865 169.137 229.92 169.09 229.966C169.042 230.012 168.986 230.049 168.925 230.073C168.863 230.098 168.797 230.11 168.731 230.108ZM166.823 229.093H168.234L169.249 127.593L165.311 138.758L166.823 229.093Z" fill="#1F2223"/>
<path d="M49.3369 1.06323L1.2157 124.761L159.738 152.806L204.784 25.6364L49.3369 1.06323Z" fill="white"/>
<path d="M159.738 153.313H159.647L1.12439 125.259C1.05086 125.246 0.981122 125.217 0.920321 125.174C0.85952 125.131 0.809223 125.074 0.773157 125.009C0.737092 124.944 0.716181 124.871 0.711973 124.797C0.707766 124.722 0.720369 124.648 0.74885 124.579L48.87 0.880546C48.9121 0.773044 48.9888 0.682686 49.0882 0.623835C49.1875 0.564985 49.3036 0.541017 49.4181 0.555744L204.865 25.139C204.939 25.1511 205.009 25.1792 205.07 25.2213C205.132 25.2634 205.183 25.3185 205.221 25.3826C205.251 25.4496 205.267 25.5223 205.267 25.5958C205.267 25.6693 205.251 25.742 205.221 25.8089L160.215 152.978C160.18 153.076 160.115 153.161 160.03 153.221C159.945 153.281 159.843 153.313 159.738 153.313ZM1.9161 124.365L159.404 152.237L204.064 26.0424L49.6617 1.6215L1.9161 124.365Z" fill="#1F2223"/>
<path d="M111.546 105.537H111.435L43.4296 90.6471C43.3593 90.63 43.2934 90.5987 43.2358 90.555C43.1781 90.5114 43.1301 90.4564 43.0946 90.3934C43.0644 90.3264 43.0487 90.2538 43.0487 90.1803C43.0487 90.1067 43.0644 90.0341 43.0946 89.9671L68.5204 22.9771C68.5595 22.8654 68.6373 22.7713 68.7396 22.7118C68.8419 22.6522 68.9622 22.6311 69.0786 22.6523L126.04 32.2745C126.115 32.2884 126.185 32.3183 126.246 32.3621C126.307 32.4059 126.359 32.4626 126.396 32.5282C126.43 32.5957 126.449 32.6706 126.449 32.7465C126.449 32.8224 126.43 32.8972 126.396 32.9647L124.122 38.5573L135.287 40.4757L138.058 34.1725C138.104 34.0696 138.182 33.9848 138.282 33.9315C138.381 33.8782 138.495 33.8595 138.606 33.8782L173.969 39.9682C174.043 39.9781 174.114 40.0053 174.175 40.0476C174.237 40.0899 174.288 40.1462 174.324 40.2118C174.354 40.2789 174.369 40.3515 174.369 40.425C174.369 40.4984 174.354 40.5709 174.324 40.6381L159.454 80.8423C159.413 80.9548 159.333 81.0491 159.229 81.1085C159.125 81.168 159.004 81.1887 158.886 81.167L123.209 74.062L111.993 105.212C111.958 105.304 111.897 105.383 111.818 105.441C111.738 105.498 111.644 105.532 111.546 105.537ZM44.1807 89.7641L111.171 104.441L122.336 73.3008C122.377 73.1862 122.458 73.0904 122.565 73.0308C122.671 72.9711 122.795 72.9517 122.914 72.976L158.591 80.081L173.187 40.77L138.809 34.883L136.048 41.1862C136.001 41.2899 135.92 41.375 135.819 41.4283C135.718 41.4815 135.603 41.4999 135.49 41.4805L123.31 39.3896C123.236 39.3758 123.166 39.3459 123.104 39.3021C123.043 39.2582 122.992 39.2015 122.955 39.1359C122.92 39.0684 122.902 38.9936 122.902 38.9177C122.902 38.8418 122.92 38.7669 122.955 38.6994L125.228 33.1068L69.3019 23.6571L44.1807 89.7641Z" fill="#E6EBDE"/>
<path d="M153.75 142.849H153.659L13.8221 117.311C13.7479 117.301 13.6771 117.274 13.6154 117.232C13.5537 117.19 13.5028 117.133 13.4668 117.068C13.4369 116.999 13.4215 116.925 13.4215 116.849C13.4215 116.774 13.4369 116.7 13.4668 116.631L54.8991 9.3051C54.9412 9.1976 55.018 9.10725 55.1173 9.0484C55.2166 8.98955 55.3327 8.96558 55.4472 8.9803L192.635 30.2953C192.709 30.3061 192.779 30.3325 192.842 30.3728C192.905 30.413 192.959 30.4662 193 30.5288C193.03 30.5976 193.045 30.6719 193.045 30.747C193.045 30.8221 193.03 30.8963 193 30.9652L154.257 142.514C154.218 142.615 154.148 142.702 154.057 142.762C153.966 142.822 153.859 142.852 153.75 142.849ZM14.5833 116.459L153.415 141.834L191.884 31.2088L55.6908 10.0055L14.5833 116.459Z" fill="#E6EBDE"/>
<path d="M120.783 141.773L118.194 149.202L41.2574 135.744L43.7442 128.05L120.783 141.773Z" fill="white"/>
<path d="M118.225 149.71H118.134L41.1965 136.251C41.1253 136.24 41.0575 136.213 40.9978 136.173C40.9381 136.133 40.8881 136.08 40.8515 136.018C40.8156 135.955 40.7926 135.886 40.7839 135.815C40.7751 135.743 40.7809 135.671 40.8007 135.601L43.2976 127.908C43.333 127.79 43.4107 127.69 43.5156 127.626C43.6206 127.562 43.7454 127.54 43.866 127.563L120.874 141.255C120.946 141.266 121.015 141.294 121.075 141.336C121.135 141.379 121.184 141.434 121.219 141.499C121.251 141.563 121.268 141.634 121.268 141.707C121.268 141.779 121.251 141.85 121.219 141.915L118.672 149.375C118.639 149.469 118.579 149.551 118.5 149.611C118.42 149.671 118.324 149.705 118.225 149.71ZM41.9477 135.348L117.89 148.624L120.143 142.168L44.1299 128.628L41.9477 135.348Z" fill="#1F2223"/>
<path d="M32.8838 190.99H36.5987V223.764C36.5987 224.257 36.403 224.729 36.0547 225.078C35.7063 225.426 35.2339 225.622 34.7412 225.622C34.2486 225.622 33.7762 225.426 33.4278 225.078C33.0795 224.729 32.8838 224.257 32.8838 223.764V190.99Z" fill="white"/>
<path d="M34.7412 226.16C34.1148 226.157 33.5148 225.907 33.0718 225.464C32.6289 225.021 32.3789 224.421 32.3762 223.795V190.99C32.3762 190.855 32.4297 190.726 32.5249 190.631C32.62 190.536 32.7491 190.482 32.8837 190.482H36.5986C36.7332 190.482 36.8623 190.536 36.9575 190.631C37.0526 190.726 37.1061 190.855 37.1061 190.99V223.764C37.1102 224.077 37.052 224.388 36.9349 224.679C36.8179 224.969 36.6443 225.233 36.4243 225.456C36.2043 225.679 35.9422 225.856 35.6533 225.977C35.3644 226.098 35.0543 226.16 34.7412 226.16ZM33.3912 191.528V223.795C33.3912 224.153 33.5335 224.496 33.7866 224.749C34.0398 225.002 34.3831 225.145 34.7412 225.145C35.0992 225.145 35.4426 225.002 35.6957 224.749C35.9489 224.496 36.0911 224.153 36.0911 223.795V191.528H33.3912Z" fill="#1F2223"/>
<path d="M47.8347 177.145C39.2179 175.197 30.2747 175.197 21.6579 177.145H9.35608V185.915C9.35608 191.548 20.7241 196.065 34.7311 196.065C48.7381 196.065 60.1061 191.508 60.1061 185.915V177.186L47.8347 177.145Z" fill="#1F2223"/>
<path d="M34.7412 196.573C20.2165 196.573 8.84851 191.873 8.84851 185.875V177.146C8.84851 177.011 8.90198 176.882 8.99715 176.787C9.09233 176.692 9.22141 176.638 9.35601 176.638H21.5969C30.2516 174.691 39.2307 174.691 47.8854 176.638H60.1365C60.2711 176.638 60.4001 176.692 60.4953 176.787C60.5905 176.882 60.644 177.011 60.644 177.146V185.915C60.644 191.873 49.2658 196.573 34.7412 196.573ZM9.86351 177.653V185.915C9.86351 191.173 21.2518 195.598 34.7412 195.598C48.2305 195.598 59.629 191.173 59.629 185.915V177.694H47.8347H47.7129C39.1752 175.772 30.3172 175.772 21.7796 177.694H21.6578L9.86351 177.653Z" fill="#1F2223"/>
<path d="M34.7412 187.336C48.7667 187.336 60.1365 182.774 60.1365 177.145C60.1365 171.517 48.7667 166.955 34.7412 166.955C20.7158 166.955 9.34595 171.517 9.34595 177.145C9.34595 182.774 20.7158 187.336 34.7412 187.336Z" fill="white"/>
<path d="M34.7412 187.844C20.2165 187.844 8.84851 183.144 8.84851 177.146C8.84851 171.147 20.2165 166.437 34.7412 166.437C49.2658 166.437 60.644 171.137 60.644 177.146C60.644 183.154 49.2658 187.844 34.7412 187.844ZM34.7412 167.452C21.2518 167.452 9.86351 171.888 9.86351 177.146C9.86351 182.403 21.2518 186.829 34.7412 186.829C48.2305 186.829 59.629 182.393 59.629 177.146C59.629 171.898 48.1899 167.452 34.7412 167.452Z" fill="#1F2223"/>
<path d="M59.832 214.934L52.9097 225.084C52.9097 225.084 65.6479 233.072 67.5054 233.549C69.3628 234.026 86.1306 233.833 85.3592 232.118C84.5878 230.402 68.8858 224.373 68.8858 224.373L68.4087 220.212L59.832 214.934Z" fill="#1F2223"/>
<path d="M72.55 234.209C70.8149 234.254 69.0787 234.183 67.3532 233.996C65.4754 233.519 53.9349 226.292 52.6255 225.48C52.5661 225.444 52.5154 225.395 52.4768 225.337C52.4382 225.279 52.4128 225.213 52.4022 225.145C52.3744 225.012 52.3999 224.873 52.4733 224.759L59.3956 214.609C59.4681 214.502 59.5789 214.426 59.7053 214.398C59.8318 214.369 59.9643 214.391 60.0756 214.457L68.6524 219.694C68.718 219.735 68.7739 219.79 68.816 219.855C68.8581 219.92 68.8854 219.993 68.896 220.07L69.3324 223.927C73.3924 225.48 85.0446 230.108 85.8059 231.834C85.8696 231.97 85.8911 232.122 85.8676 232.27C85.8441 232.418 85.7766 232.556 85.6739 232.666C84.73 233.864 77.625 234.209 72.55 234.209ZM53.6101 224.891C57.4265 227.276 66.2062 232.656 67.6069 233.011C69.4745 233.488 83.0552 233.204 84.7807 232.148C83.7657 231.011 75.9401 227.591 68.6828 224.81C68.5969 224.775 68.5217 224.718 68.4647 224.645C68.4076 224.572 68.3709 224.485 68.358 224.394L67.9114 220.476L59.964 215.614L53.6101 224.891Z" fill="#1F2223"/>
<path d="M75.1687 213.594C74.9758 213.888 68.4088 220.171 68.4088 220.171L59.832 214.934L65.445 205.403L75.1687 213.594Z" fill="white"/>
<path d="M68.4087 220.679C68.3158 220.681 68.2242 220.656 68.1448 220.608L59.5681 215.35C59.4546 215.281 59.3729 215.169 59.3406 215.04C59.3083 214.911 59.328 214.774 59.3955 214.66L65.0186 205.139C65.0546 205.073 65.1055 205.017 65.1672 204.975C65.2289 204.933 65.2997 204.905 65.3738 204.895C65.4456 204.883 65.5191 204.887 65.5893 204.906C65.6594 204.926 65.7245 204.96 65.7799 205.007L75.4934 213.198C75.5899 213.278 75.6536 213.39 75.6723 213.514C75.691 213.637 75.6635 213.764 75.5949 213.868C75.4021 214.162 71.2304 218.162 68.7538 220.526C68.6632 220.621 68.5393 220.675 68.4087 220.679ZM60.5222 214.761L68.3377 219.532C70.4996 217.502 73.4127 214.639 74.4277 213.635L65.587 206.215L60.5222 214.761Z" fill="#1F2223"/>
<path d="M97.7626 236.076L98.331 246.937L130.527 241.507C130.527 241.507 122.052 235.701 108.339 234.27L97.7626 236.076Z" fill="#1F2223"/>
<path d="M98.331 247.444C98.2166 247.443 98.106 247.404 98.0163 247.333C97.9613 247.288 97.9158 247.232 97.8827 247.17C97.8495 247.107 97.8294 247.038 97.8235 246.967L97.2551 236.107C97.2481 235.983 97.2866 235.861 97.3633 235.764C97.4399 235.667 97.5494 235.601 97.6712 235.579L108.248 233.772H108.39C122.072 235.203 130.72 241.04 130.821 241.101C130.905 241.157 130.969 241.238 131.005 241.333C131.041 241.427 131.048 241.53 131.024 241.628C131.004 241.727 130.954 241.818 130.882 241.888C130.809 241.959 130.718 242.006 130.618 242.024L98.4122 247.454L98.331 247.444ZM98.331 236.503L98.8486 246.348L129.146 241.273C122.735 237.739 115.674 235.543 108.39 234.818L98.331 236.503Z" fill="#1F2223"/>
<path d="M97.184 227.124C97.184 227.408 97.7625 236.076 97.7625 236.076L108.339 234.27L108.816 225.602L97.184 227.124Z" fill="white"/>
<path d="M97.7626 236.584C97.6493 236.586 97.5385 236.55 97.4479 236.482C97.3928 236.438 97.3474 236.382 97.3142 236.319C97.2811 236.257 97.261 236.188 97.2551 236.117C97.1536 234.666 96.6765 227.408 96.6765 227.124C96.6781 227.001 96.7242 226.883 96.8064 226.791C96.8885 226.7 97.0011 226.641 97.1231 226.627L108.745 225.094C108.818 225.084 108.893 225.09 108.963 225.113C109.033 225.136 109.098 225.175 109.151 225.226C109.206 225.277 109.25 225.34 109.278 225.411C109.306 225.481 109.318 225.557 109.313 225.632L108.836 234.3C108.831 234.414 108.786 234.522 108.711 234.607C108.635 234.692 108.532 234.749 108.42 234.767L97.8438 236.584H97.7626ZM97.7626 227.571C97.8336 228.86 98.0772 232.646 98.2701 235.488L107.892 233.833L108.308 226.18L97.7626 227.571Z" fill="#1F2223"/>
<path d="M56.5129 149.578C56.5129 149.578 104.147 143.488 108.907 154.349C113.668 165.209 73.5649 217.969 73.5649 217.969L60.7556 208.336L78.0106 171.878C78.0106 171.878 37.8369 177.795 34.9949 168.447C32.1529 159.099 55.9547 151.293 55.9547 151.293L56.5129 149.578Z" fill="#1F2223"/>
<path d="M73.5649 218.476C73.455 218.477 73.3479 218.441 73.2604 218.375L60.4511 208.742C60.3563 208.672 60.2884 208.571 60.2589 208.456C60.2293 208.342 60.2399 208.221 60.2887 208.113L77.1783 172.507C70.9361 173.359 37.2381 177.582 34.4976 168.589C31.6556 159.302 52.8589 151.801 55.5385 150.897L56.0359 149.426C56.0634 149.334 56.1176 149.252 56.1917 149.19C56.2658 149.129 56.3563 149.091 56.452 149.081C58.411 148.827 104.512 143.062 109.374 154.156C114.236 165.25 75.5949 216.111 73.9709 218.283C73.9212 218.343 73.8591 218.391 73.789 218.424C73.719 218.457 73.6425 218.475 73.5649 218.476ZM61.3849 208.174L73.4634 217.258C75.2194 214.934 84.192 202.916 92.5962 189.955C108.075 166.092 109.75 157.495 108.44 154.551C106.583 150.309 97.0723 148.177 80.9338 148.401C69.7688 148.553 58.8677 149.811 56.8885 150.045L56.4216 151.456C56.3961 151.531 56.3535 151.6 56.2972 151.656C56.2408 151.712 56.1723 151.755 56.0968 151.781C55.8633 151.852 32.7518 159.545 35.472 168.295C37.705 175.613 66.937 172.994 77.97 171.34C78.0604 171.328 78.152 171.341 78.2358 171.377C78.3195 171.413 78.3924 171.47 78.4471 171.543C78.5025 171.616 78.5366 171.703 78.5455 171.794C78.5545 171.886 78.538 171.978 78.4978 172.06L61.3849 208.174Z" fill="#1F2223"/>
<path d="M21.1706 156.348C21.1706 157.485 16.0246 172.06 28.8846 179.206C41.7447 186.351 94.0476 183.499 94.0476 183.499L95.0626 229.601L109.486 228.646C109.486 228.646 117.677 183.875 111.008 172.821C104.34 161.768 43.1758 152.42 43.1758 152.42L21.1706 156.348Z" fill="#1F2223"/>
<path d="M95.0524 230.108C94.9863 230.109 94.9205 230.098 94.859 230.073C94.7975 230.049 94.7414 230.012 94.6942 229.966C94.6469 229.92 94.6094 229.864 94.5837 229.803C94.5581 229.742 94.5449 229.677 94.5449 229.611L93.5299 184.027C87.714 184.332 40.9225 186.483 28.6207 179.652C20.8661 175.349 18.1256 167.777 20.5007 157.16C20.5693 156.892 20.6235 156.621 20.6631 156.348C20.6654 156.23 20.7079 156.116 20.7836 156.026C20.8593 155.936 20.9636 155.874 21.0792 155.851L43.1149 151.943H43.2874C45.7843 152.318 104.756 161.433 111.465 172.568C118.174 183.702 110.348 226.901 110.003 228.738C109.985 228.848 109.93 228.95 109.847 229.025C109.765 229.101 109.659 229.146 109.547 229.154L95.1133 230.108H95.0524ZM94.0374 182.992C94.165 182.991 94.2882 183.038 94.3825 183.124C94.4825 183.219 94.5408 183.351 94.5449 183.489L95.5599 229.063L109.059 228.169C109.841 223.754 116.743 183.306 110.582 173.085C104.218 162.55 45.764 153.354 43.1961 152.958L21.6273 156.784L21.5055 157.373C19.2522 167.523 21.8303 174.699 29.1485 178.769C41.7243 185.753 93.5096 183.012 94.0273 182.992H94.0374Z" fill="#1F2223"/>
<path d="M68.023 71.7173C66.4092 71.7173 65.0491 69.9715 64.978 67.769C64.9235 66.7736 65.175 65.7854 65.6987 64.9371C65.9159 64.5584 66.2231 64.2389 66.5931 64.0071C66.9631 63.7752 67.3844 63.6379 67.82 63.6075C69.4745 63.5466 70.865 65.3127 70.9665 67.5457C71.068 69.7787 69.779 71.6057 68.1245 71.7173H68.023ZM67.8809 64.6123C67.6071 64.6368 67.3438 64.7295 67.1151 64.882C66.8863 65.0345 66.6995 65.2419 66.5716 65.4852C66.1601 66.1544 65.9652 66.9342 66.0133 67.7182C66.0742 69.3727 67.0283 70.7632 68.1042 70.6922C69.1801 70.6211 70.0327 69.2204 69.9718 67.5761C69.8703 65.9623 68.9365 64.6123 67.8809 64.6123Z" fill="#1F2223"/>
<path d="M49.6008 86.2724C47.6113 86.8181 45.5158 86.8495 43.5108 86.3637C42.303 86.0897 40.8414 85.1559 41.2474 83.9785L42.8105 83.2477C39.3655 79.9662 36.9378 75.7626 35.8171 71.1387C35.2783 68.8293 35.2359 66.4317 35.6926 64.1046C36.1492 61.7775 37.0946 59.5738 38.4663 57.6392C39.0959 56.7024 39.9139 55.9072 40.8681 55.3042C41.8223 54.7013 42.8918 54.3039 44.0082 54.1375L40.2121 53.833C41.903 52.024 43.9751 50.6137 46.2783 49.7044C48.5815 48.795 51.0582 48.4093 53.5288 48.5753L51.0218 47.0223C53.7674 46.098 56.7266 46.0158 59.5192 46.7863C62.3118 47.5568 64.8103 49.1448 66.6934 51.3462C67.5292 52.2483 68.077 53.3792 68.2667 54.5942C68.4697 56.6242 66.5818 57.9437 65.1506 59.0805C66.6833 60.9481 67.4039 61.3947 67.1806 63.8104C66.8452 66.0505 66.1204 68.2147 65.039 70.2049C63.8525 72.2782 62.5123 74.2596 61.0297 76.1325C57.8324 80.5681 54.3815 84.9224 49.6008 86.2724Z" fill="white"/>
<path d="M46.4645 87.2165C45.4389 87.2098 44.4174 87.0872 43.4195 86.8511C42.4099 86.656 41.515 86.0776 40.9225 85.2372C40.7992 85.024 40.7235 84.7865 40.7008 84.5412C40.678 84.2959 40.7086 84.0486 40.7906 83.8162C40.8127 83.752 40.8474 83.6929 40.8927 83.6423C40.938 83.5917 40.9931 83.5508 41.0545 83.5219L41.968 83.0956C38.6872 79.8318 36.3784 75.7203 35.2995 71.2201C34.7487 68.8434 34.7082 66.377 35.1806 63.9836C35.653 61.5901 36.6275 59.3241 38.0399 57.3349C38.9151 56.15 40.0284 55.1612 41.3083 54.432L40.141 54.3406C40.0456 54.3312 39.9546 54.296 39.8777 54.2388C39.8008 54.1816 39.741 54.1045 39.7045 54.0158C39.6704 53.9272 39.6617 53.8307 39.6797 53.7374C39.6976 53.6441 39.7414 53.5577 39.8061 53.488C42.9016 50.1969 47.1578 48.2417 51.6714 48.0375L50.7173 47.4488C50.6373 47.3995 50.5729 47.3285 50.5316 47.244C50.4902 47.1596 50.4737 47.0652 50.4838 46.9717C50.4937 46.8763 50.5303 46.7856 50.5896 46.7101C50.6489 46.6347 50.7284 46.5776 50.8188 46.5454C53.6642 45.5941 56.7285 45.5118 59.6208 46.3091C62.5132 47.1063 65.1026 48.7468 67.0588 51.0216C67.9587 52.0016 68.5454 53.228 68.7437 54.5436C68.9568 56.6954 67.2415 58.0555 65.8408 59.1619L66.054 59.4156C67.2314 60.7859 67.8708 61.5471 67.6475 63.8512C67.3017 66.1647 66.5564 68.4005 65.4449 70.4588C64.5359 72.1172 63.4938 73.699 62.3289 75.1887L61.3951 76.4473C58.1775 80.9032 54.625 85.3692 49.6921 86.7597C48.6429 87.0623 47.5564 87.2161 46.4645 87.2165ZM41.6737 84.3339C41.6635 84.4753 41.6953 84.6165 41.765 84.7399C42.2136 85.3334 42.8697 85.7358 43.6021 85.8665C45.5287 86.3445 47.5461 86.3165 49.4587 85.7853C54.077 84.476 57.4975 80.1622 60.6237 75.8586L61.5676 74.5797C62.7046 73.1386 63.7229 71.6077 64.6126 70.0021C65.6411 68.0526 66.3277 65.9413 66.6426 63.7598C66.8253 61.8719 66.399 61.3847 65.2825 60.0754L64.7243 59.4055C64.6796 59.3547 64.6464 59.2948 64.6272 59.23C64.6079 59.1651 64.6029 59.0969 64.6126 59.0299C64.6272 58.8958 64.6926 58.7723 64.7953 58.6848L65.1709 58.3905C66.5107 57.3755 67.8911 56.259 67.7287 54.6451C67.5488 53.5324 67.0438 52.4976 66.2773 51.6712C64.5803 49.7022 62.3723 48.2404 59.897 47.4469C57.4217 46.6535 54.7754 46.5593 52.2499 47.1747L53.813 48.1897C53.908 48.2511 53.9802 48.3419 54.0187 48.4482C54.0572 48.5545 54.0598 48.6705 54.0262 48.7784C53.9904 48.8852 53.9202 48.9771 53.8265 49.0396C53.7327 49.1021 53.6209 49.1316 53.5086 49.1235C51.291 48.9782 49.0672 49.2867 46.9729 50.0302C44.8787 50.7736 42.9581 51.9364 41.3286 53.4474L44.0386 53.6707C44.1669 53.6786 44.2872 53.7358 44.3743 53.8304C44.4613 53.925 44.5084 54.0497 44.5055 54.1782C44.5084 54.3041 44.4624 54.4262 44.3773 54.5189C44.2921 54.6116 44.1744 54.6677 44.0487 54.6756C41.562 54.8887 39.735 56.8375 38.8621 57.9845C37.5343 59.8601 36.6198 61.9962 36.1789 64.2516C35.7379 66.507 35.7807 68.8302 36.3043 71.0678C37.3952 75.5803 39.7591 79.6846 43.1149 82.8926C43.1734 82.9501 43.2171 83.0209 43.2422 83.099C43.2673 83.1771 43.2732 83.2601 43.2592 83.3409C43.2452 83.4217 43.2119 83.4979 43.162 83.563C43.1121 83.6281 43.0472 83.6802 42.9728 83.7147L41.6737 84.3339Z" fill="#1F2223"/>
<path d="M67.0081 71.0271C67.0081 71.0271 71.0681 76.7923 70.3068 78.0408C69.5456 79.2892 66.8457 78.5483 66.8457 78.5483" fill="white"/>
<path d="M68.4899 79.2792C67.9006 79.2728 67.3143 79.1944 66.7441 79.0457C66.6095 79.0107 66.4943 78.9237 66.4239 78.8038C66.3535 78.6839 66.3336 78.5409 66.3686 78.4063C66.4036 78.2717 66.4906 78.1565 66.6105 78.0861C66.7304 78.0157 66.8734 77.9957 67.008 78.0307C67.6068 78.1931 69.444 78.4875 69.9109 77.7364C70.2154 77.2086 68.6828 74.194 66.6325 71.281C66.5829 71.228 66.5453 71.165 66.5222 71.0962C66.4991 71.0274 66.491 70.9545 66.4985 70.8823C66.5059 70.8101 66.5288 70.7404 66.5655 70.6778C66.6022 70.6152 66.6519 70.5612 66.7112 70.5195C66.7705 70.4777 66.8381 70.4492 66.9095 70.4358C66.9808 70.4223 67.0541 70.4244 67.1246 70.4417C67.195 70.459 67.2609 70.4913 67.3179 70.5363C67.3748 70.5813 67.4214 70.6379 67.4546 70.7024C68.7335 72.5193 71.6263 76.8939 70.7737 78.2743C70.5111 78.6236 70.1632 78.8995 69.7632 79.0755C69.3633 79.2514 68.9248 79.3216 68.4899 79.2792Z" fill="#1F2223"/>
<path d="M65.445 58.1062C67.9825 60.055 67.9216 69.5148 67.9825 72.3162C68.0772 76.2205 68.0772 80.1316 67.9825 84.0495C67.9216 86.5261 61.5068 86.7697 60.3497 86.0795L59.1216 96.1077C59.1216 96.1077 58.5938 96.7675 53.3462 94.5345C48.0987 92.3015 48.0175 91.0632 48.0175 91.0632L48.0987 79.7561C48.0987 79.7561 52.3414 79.6546 54.6962 74.5289C57.051 69.4031 56.7262 61.6485 56.7262 61.6485C56.7262 61.6485 62.938 56.198 65.445 58.1062Z" fill="white"/>
<path d="M58.6546 96.6661C56.7256 96.4147 54.8524 95.8418 53.1127 94.9711C47.9768 92.7685 47.4998 91.4287 47.4795 91.0735L47.5607 79.7156C47.5607 79.5837 47.6131 79.4572 47.7064 79.3639C47.7996 79.2707 47.9261 79.2183 48.058 79.2183C48.2204 79.2183 52.0165 79.0457 54.2089 74.2854C56.4825 69.3322 56.178 61.7197 56.178 61.6385C56.1751 61.5623 56.1891 61.4864 56.2189 61.4162C56.2487 61.346 56.2937 61.2833 56.3506 61.2325C57.0205 60.6539 62.9988 55.6094 65.719 57.7003C67.9622 59.4156 68.358 65.6579 68.4494 71.5347V72.2351C68.5407 76.1428 68.5407 80.1013 68.4494 83.9989C68.4179 84.42 68.2704 84.824 68.0231 85.1663C67.7758 85.5085 67.4386 85.7755 67.0487 85.9376C65.0639 86.8032 62.8679 87.0644 60.7354 86.6887L59.5783 96.1079C59.5688 96.2003 59.5336 96.2882 59.4768 96.3616C59.3712 96.4706 59.2426 96.5545 59.1003 96.6072C58.958 96.6599 58.8057 96.68 58.6546 96.6661ZM48.5046 90.9618C48.596 91.1445 49.3065 92.2306 53.5289 94.0068C56.8682 95.4278 58.1877 95.6308 58.6039 95.6308L59.7914 85.9579C59.7999 85.8741 59.8294 85.7938 59.8774 85.7246C59.9253 85.6553 59.99 85.5994 60.0655 85.562C60.1395 85.5193 60.2236 85.4967 60.3091 85.4967C60.3946 85.4967 60.4786 85.5193 60.5527 85.562C62.5532 86.0404 64.6551 85.8552 66.5412 85.0342C67.1096 84.7297 67.4039 84.3643 67.4141 83.9583C67.5054 80.081 67.5054 76.1428 67.4141 72.2554V71.4941C67.3633 68.3781 67.2314 60.1058 65.0897 58.4514C63.3947 57.1623 58.8881 60.3697 57.1829 61.7907C57.1829 63.1914 57.2742 69.9107 55.1529 74.6609C53.1229 79.0254 49.8546 79.9389 48.6061 80.1318L48.5046 90.9618Z" fill="#1F2223"/>
<path d="M67.7693 81.1164C67.7693 81.1164 66.2468 81.5935 62.4507 78.3455L67.7693 81.1164Z" fill="white"/>
<path d="M67.475 81.6543C66.734 81.6543 65.0491 81.2686 62.0955 78.7311C61.9932 78.6436 61.9299 78.5191 61.9194 78.3849C61.9089 78.2507 61.9522 78.1178 62.0397 78.0155C62.1272 77.9132 62.2517 77.8499 62.3859 77.8394C62.5201 77.829 62.653 77.8722 62.7553 77.9597C66.1657 80.8829 67.5968 80.6292 67.607 80.619C67.7357 80.5932 67.8695 80.6164 67.9821 80.684C68.0947 80.7515 68.1781 80.8587 68.2159 80.9844C68.2511 81.1082 68.237 81.2409 68.1764 81.3544C68.1158 81.468 68.0136 81.5537 67.8912 81.5934C67.7564 81.635 67.616 81.6556 67.475 81.6543Z" fill="#1F2223"/>
<path d="M60.3699 86.0491C60.3699 86.0491 57.0103 85.1153 55.3964 82.8823C55.3964 82.8823 53.6202 90.3324 59.6391 92.0173L60.3699 86.0491Z" fill="#1F2223"/>
<path d="M59.5885 92.535H59.4565C53.0417 90.7689 54.8281 82.8925 54.8484 82.8113C54.8639 82.7003 54.9165 82.5979 54.9976 82.5205C55.0786 82.4431 55.1834 82.3954 55.295 82.385C55.3892 82.3618 55.4882 82.3678 55.5789 82.4022C55.6695 82.4367 55.7476 82.4979 55.8025 82.5779C57.0541 84.001 58.6892 85.0334 60.5121 85.5518C60.6291 85.5868 60.7299 85.6621 60.7967 85.7642C60.8636 85.8664 60.8922 85.9889 60.8775 86.1101L60.1467 92.058C60.1363 92.1295 60.1111 92.198 60.0727 92.2592C60.0342 92.3204 59.9834 92.3729 59.9234 92.4132C59.8323 92.4965 59.7118 92.5403 59.5885 92.535ZM55.6706 84.0598C55.4574 85.968 55.4777 89.9772 59.1622 91.3576L59.761 86.445C58.2445 85.9278 56.8517 85.1018 55.6706 84.0192V84.0598Z" fill="#1F2223"/>
<path d="M65.3933 66.8418C65.4026 66.0683 65.1648 65.4383 64.8621 65.4346C64.5594 65.431 64.3065 66.0551 64.2971 66.8286C64.2878 67.6022 64.5256 68.2322 64.8283 68.2358C65.131 68.2395 65.3839 67.6154 65.3933 66.8418Z" fill="#1F2223"/>
<path d="M55.6096 71.7985C55.543 71.8072 55.4753 71.8027 55.4104 71.7852C55.3455 71.7677 55.2847 71.7376 55.2314 71.6966C55.1239 71.6138 55.0536 71.4916 55.0361 71.357C55.0186 71.2224 55.0553 71.0864 55.1381 70.9788C55.2209 70.8713 55.3431 70.801 55.4777 70.7835L70.317 67.0585C70.4475 67.028 70.5848 67.0503 70.6989 67.1207C70.813 67.1911 70.8946 67.3037 70.926 67.434C70.9426 67.498 70.9464 67.5647 70.937 67.6302C70.9275 67.6956 70.9052 67.7586 70.8711 67.8153C70.8371 67.872 70.7921 67.9213 70.7388 67.9604C70.6855 67.9996 70.6249 68.0276 70.5606 68.0431L55.7314 71.7681L55.6096 71.7985Z" fill="#1F2223"/>
<path d="M59.5884 73.7575C59.4541 72.781 59.0459 71.8625 58.411 71.1084C58.0142 70.4594 57.5214 69.8743 56.9494 69.3727C56.6596 69.1238 56.3178 68.9427 55.9491 68.8426C55.5803 68.7425 55.1939 68.726 54.8179 68.7942C54.4937 68.8851 54.1927 69.0445 53.9353 69.2616C53.678 69.4787 53.4701 69.7485 53.3259 70.0528C53.0345 70.6609 52.8852 71.3273 52.8894 72.0016C52.8641 73.4718 53.2258 74.9229 53.9384 76.2092C54.6511 77.4955 55.6895 78.5717 56.9494 79.3299L56.7261 79.1066" fill="white"/>
<path d="M56.9798 79.8375C56.8903 79.8381 56.8023 79.8135 56.7261 79.7664C55.3865 78.9623 54.2807 77.8215 53.5185 76.4576C52.7564 75.0936 52.3646 73.5539 52.3819 71.9916C52.3756 71.2397 52.5423 70.4966 52.8691 69.8195C53.0489 69.4492 53.3059 69.1218 53.6227 68.8592C53.9396 68.5966 54.3091 68.4049 54.7062 68.297C55.1547 68.2121 55.6165 68.2292 56.0575 68.3469C56.4985 68.4646 56.9074 68.68 57.2539 68.977C57.8736 69.5037 58.4078 70.1235 58.8373 70.8141C59.5225 71.6475 59.9587 72.6571 60.0959 73.7272C60.1014 73.8628 60.0535 73.9952 59.9624 74.0959C59.8712 74.1965 59.7442 74.2573 59.6087 74.2652C59.542 74.2679 59.4755 74.2574 59.4129 74.2344C59.3503 74.2114 59.2928 74.1762 59.2438 74.131C59.1948 74.0857 59.1551 74.0313 59.1272 73.9707C59.0992 73.9101 59.0835 73.8446 59.0809 73.7779C58.934 72.9015 58.5595 72.079 57.9948 71.3927C57.6226 70.7883 57.1645 70.2412 56.6348 69.7687C56.4062 69.567 56.1351 69.4194 55.8416 69.3368C55.5482 69.2542 55.2399 69.2388 54.9397 69.2916C54.6827 69.3652 54.445 69.4942 54.2433 69.6695C54.0417 69.8449 53.8809 70.0624 53.7724 70.3066C53.5174 70.8493 53.389 71.4428 53.3969 72.0423C53.385 73.3305 53.6865 74.6022 54.2753 75.748C54.8641 76.8937 55.7226 77.8792 56.7769 78.6195C56.8418 78.6195 56.906 78.633 56.9655 78.6592C57.0249 78.6854 57.0782 78.7238 57.1219 78.7718L57.3452 78.9951C57.4239 79.087 57.4671 79.204 57.4671 79.3249C57.4671 79.4459 57.4239 79.5629 57.3452 79.6548C57.2999 79.7084 57.2441 79.7523 57.1813 79.7837C57.1185 79.8151 57.05 79.8334 56.9798 79.8375Z" fill="#1F2223"/>
<path d="M123.371 86.9019C122.089 87.0881 120.823 87.3731 119.585 87.7545C119.088 88.0793 118.194 88.7187 118.194 88.7187C118.592 88.943 119.03 89.0845 119.484 89.1349C119.95 89.1349 122.62 88.6172 122.62 88.6172" fill="white"/>
<path d="M119.433 89.6424C118.912 89.5881 118.408 89.4293 117.951 89.1755C117.876 89.1329 117.813 89.0727 117.767 89.0001C117.721 88.9276 117.694 88.845 117.687 88.7594C117.681 88.6729 117.698 88.5865 117.735 88.5083C117.773 88.4302 117.829 88.3628 117.9 88.3128C117.9 88.3128 118.803 87.6632 119.311 87.2978C120.608 86.8789 121.945 86.5933 123.3 86.4452C123.433 86.4244 123.569 86.4562 123.679 86.5339C123.789 86.6116 123.864 86.729 123.889 86.8613C123.899 86.9273 123.896 86.9946 123.88 87.0595C123.864 87.1243 123.835 87.1853 123.795 87.239C123.756 87.2928 123.706 87.3382 123.649 87.3726C123.592 87.4071 123.528 87.43 123.462 87.4399C122.245 87.6032 121.043 87.868 119.869 88.2316C119.697 88.3432 119.473 88.4853 119.26 88.6376H119.463C119.778 88.6376 121.493 88.3128 122.508 88.1301C122.575 88.1187 122.643 88.1207 122.709 88.1357C122.775 88.1507 122.837 88.1786 122.892 88.2177C122.947 88.2568 122.994 88.3064 123.03 88.3637C123.066 88.4209 123.091 88.4846 123.102 88.5513C123.113 88.6179 123.111 88.6862 123.096 88.7521C123.081 88.818 123.053 88.8803 123.014 88.9354C122.975 88.9906 122.926 89.0374 122.868 89.0734C122.811 89.1094 122.747 89.1337 122.681 89.1451C122.407 89.1958 119.971 89.6323 119.494 89.6627L119.433 89.6424Z" fill="#1F2223"/>
<path d="M118.032 97.1938L121.767 93.1338C121.715 91.5288 121.858 89.9235 122.194 88.3531C122.691 86.922 123.696 85.2066 124.224 85.5619C124.751 85.9171 124.224 88.9926 125.086 89.4189C125.949 89.8452 127.512 88.4952 127.512 87.5614C127.512 86.6276 125.939 85.5314 126.152 84.7803C126.365 84.0292 126.731 82.9939 128.446 83.9176C130.161 84.8412 132.506 86.5566 132.445 89.1042C132.384 91.6519 124.772 102.969 124.772 102.969L118.032 97.1938Z" fill="white"/>
<path d="M124.741 103.527C124.619 103.527 124.5 103.484 124.406 103.406L117.697 97.61C117.645 97.5665 117.602 97.5123 117.572 97.451C117.543 97.3898 117.526 97.3228 117.525 97.2547C117.521 97.1865 117.53 97.1182 117.553 97.0537C117.576 96.9893 117.611 96.9299 117.657 96.8792L121.26 93.0323C121.204 91.4324 121.358 89.8321 121.717 88.272C122.052 87.257 122.924 85.4198 123.797 85.1356C123.913 85.0977 124.036 85.0881 124.156 85.1075C124.276 85.1269 124.39 85.1749 124.488 85.2473C124.904 85.5416 124.934 86.1912 124.985 87.1859C124.985 87.6934 125.056 88.9013 125.279 89.0637C125.411 89.0879 125.546 89.0832 125.676 89.0499C125.806 89.0166 125.927 88.9555 126.03 88.8708C126.263 88.7441 126.468 88.5704 126.63 88.3607C126.792 88.1511 126.91 87.9101 126.974 87.6528C126.86 87.2456 126.647 86.8727 126.355 86.5668C125.919 85.9882 125.462 85.3792 125.634 84.7398C125.677 84.4296 125.791 84.1336 125.967 83.8747C126.143 83.6159 126.377 83.4013 126.649 83.2477C126.989 83.1363 127.349 83.1068 127.702 83.1615C128.055 83.2162 128.39 83.3535 128.679 83.5624C131.532 85.1153 133.014 87.0641 132.953 89.2058C132.882 91.8143 125.98 102.177 125.198 103.345C125.158 103.405 125.105 103.456 125.044 103.494C124.983 103.532 124.914 103.558 124.843 103.568L124.741 103.527ZM118.763 97.1532L124.64 102.228C127.685 97.7013 131.856 90.7993 131.907 89.1043C131.968 86.9119 129.877 85.3285 128.172 84.3845C127.492 84.0191 127.157 84.0496 127.055 84.1105C126.954 84.1714 126.721 84.5571 126.619 84.9326C126.568 85.095 126.944 85.5924 127.167 85.8867C127.613 86.3506 127.901 86.944 127.989 87.5818C127.921 88.0066 127.756 88.4103 127.508 88.762C127.26 89.1138 126.935 89.4044 126.558 89.6118C126.314 89.7982 126.026 89.9178 125.721 89.9588C125.417 89.9997 125.107 89.9606 124.822 89.8452C124.071 89.4697 124.021 88.272 123.97 87.1047C123.97 86.8205 123.97 86.4247 123.899 86.1608C123.363 86.8619 122.948 87.6474 122.671 88.4851C122.359 90.0004 122.227 91.547 122.275 93.0932C122.276 93.2256 122.225 93.3531 122.133 93.4485L118.763 97.1532Z" fill="#1F2223"/>
<path d="M66.2062 99.498C66.4092 99.498 69.2512 89.886 69.5658 89.0537C70.0889 87.4045 70.8332 85.8338 71.7785 84.3847C72.205 83.7499 72.7621 83.2135 73.4127 82.8114C73.4738 82.7683 73.5439 82.7395 73.6177 82.7272C73.6915 82.7149 73.7672 82.7194 73.839 82.7404C73.8884 82.7702 73.931 82.81 73.9642 82.8571C73.9974 82.9043 74.0204 82.9579 74.0318 83.0144C74.1062 83.2348 74.1356 83.4678 74.1181 83.6997C74.1007 83.9316 74.0368 84.1577 73.9303 84.3644C74.3668 83.5524 74.8032 81.9791 76.0618 82.1314C77.5539 82.3141 77.1783 84.0396 76.6404 84.882C76.6404 84.882 77.8482 82.3851 78.9952 83.2276C79.1497 83.3245 79.2824 83.4524 79.385 83.6032C79.4875 83.7541 79.5577 83.9245 79.5911 84.1038C79.6245 84.2831 79.6204 84.4674 79.5789 84.645C79.5375 84.8226 79.4597 84.9898 79.3504 85.1358C79.3504 85.1358 80.1421 83.2073 81.2789 84.1208C82.4157 85.0343 81.7763 86.4045 81.2789 87.3282C80.7816 88.2518 76.8535 93.1949 76.8535 93.1949C76.8535 93.1949 80.3553 90.2615 81.0658 90.972C81.7763 91.6825 75.7675 98.077 74.3059 101.264L66.2062 99.498Z" fill="white"/>
<path d="M74.3058 101.721H74.2043L66.0843 100.005C66.019 99.9921 65.957 99.966 65.9017 99.9287C65.8465 99.8914 65.7991 99.8436 65.7624 99.788C65.7256 99.7323 65.7001 99.67 65.6875 99.6046C65.6748 99.5391 65.6752 99.4718 65.6885 99.4065C65.7069 99.321 65.7452 99.2411 65.8001 99.1731C66.1046 98.5438 67.4749 94.0981 68.226 91.6215C68.6421 90.2309 68.9771 89.1449 69.0684 88.8911C69.605 87.1982 70.3699 85.5864 71.342 84.1003C71.8074 83.3997 72.425 82.8134 73.1487 82.385C73.2775 82.2993 73.4252 82.2462 73.579 82.2303C73.7328 82.2144 73.8882 82.2361 74.0318 82.2936C74.1433 82.3438 74.2409 82.4205 74.316 82.5169C74.4995 82.2162 74.7652 81.9743 75.0817 81.8196C75.3983 81.665 75.7524 81.604 76.1024 81.644C76.3824 81.6603 76.653 81.7506 76.8866 81.9057C77.1202 82.0609 77.3085 82.2753 77.432 82.5271C77.4832 82.6416 77.524 82.7605 77.5538 82.8823C77.7349 82.7503 77.9376 82.6507 78.1527 82.588C78.3462 82.5429 78.5472 82.5404 78.7417 82.5807C78.9362 82.621 79.1197 82.7032 79.2793 82.8214C79.5502 83.0191 79.7724 83.276 79.9289 83.5725C80.0532 83.4987 80.1862 83.4408 80.3248 83.4C80.538 83.3425 80.7619 83.3374 80.9776 83.3851C81.1932 83.4328 81.394 83.5319 81.5631 83.674C83.1465 84.8616 82.0604 86.8713 81.7052 87.531C80.9779 88.6478 80.1919 89.7252 79.3504 90.7587C80.2233 90.3121 80.9845 90.1497 81.3804 90.576C82.0401 91.2358 81.1774 92.4335 78.5891 95.8134C77.1352 97.5666 75.8442 99.4488 74.7321 101.437C74.6927 101.517 74.6324 101.586 74.5575 101.636C74.4826 101.686 74.3957 101.715 74.3058 101.721ZM66.9166 99.1325L74.0216 100.635C75.145 98.723 76.4142 96.9007 77.8177 95.1841C78.8231 93.9578 79.7357 92.6584 80.5481 91.2967C79.3175 91.8703 78.1786 92.6228 77.1681 93.5297C77.076 93.616 76.9544 93.6641 76.8281 93.6641C76.7018 93.6641 76.5803 93.616 76.4881 93.5297C76.4024 93.4392 76.3547 93.3193 76.3547 93.1947C76.3547 93.0701 76.4024 92.9503 76.4881 92.8598C77.5741 91.4895 80.4669 87.7848 80.8627 87.0743C81.5834 85.7345 81.624 84.9732 81.0048 84.5063C80.8018 84.3541 80.6902 84.3845 80.6496 84.3947C80.3837 84.5232 80.1691 84.7378 80.0406 85.0037C79.9789 85.1675 79.8934 85.3214 79.7868 85.4604C79.7167 85.562 79.6106 85.6331 79.4901 85.6595C79.3695 85.6859 79.2434 85.6655 79.1372 85.6025C79.0286 85.544 78.9455 85.4472 78.9043 85.3309C78.863 85.2146 78.8665 85.0871 78.9139 84.9732C78.9694 84.8289 79.0374 84.6896 79.1169 84.5571C79.1586 84.3854 79.1423 84.2047 79.0708 84.0432C78.9992 83.8817 78.8763 83.7483 78.7211 83.6639C78.6851 83.63 78.6407 83.6064 78.5925 83.5957C78.5442 83.5849 78.494 83.5875 78.447 83.603C78.0613 83.6943 77.5944 84.3135 77.3102 84.7905C77.2426 84.9326 77.1715 85.0646 77.0971 85.1864C77.0246 85.2935 76.9145 85.3697 76.7886 85.3997C76.6628 85.4298 76.5302 85.4116 76.417 85.3488C76.3044 85.2864 76.2203 85.1829 76.1824 85.0598C76.1446 84.9368 76.1559 84.8039 76.214 84.689C76.214 84.689 76.3054 84.5063 76.4069 84.3236C76.6256 83.9125 76.68 83.4336 76.5591 82.9838C76.5591 82.8722 76.3967 82.7098 76.0313 82.6692C75.4223 82.5981 75.0163 83.2173 74.6611 84.1105C74.5697 84.3033 74.4885 84.4759 74.4073 84.6281C74.3763 84.6877 74.3338 84.7406 74.2822 84.7837C74.2306 84.8267 74.171 84.8591 74.1068 84.879C74.0426 84.8988 73.9751 84.9057 73.9082 84.8992C73.8413 84.8927 73.7764 84.873 73.7171 84.8413C73.6004 84.775 73.514 84.666 73.4761 84.5372C73.4383 84.4084 73.4519 84.27 73.5141 84.1511C73.6457 83.902 73.6852 83.6144 73.6258 83.3391C73.0655 83.6894 72.5876 84.1568 72.2251 84.7093C71.3007 86.1181 70.5765 87.6484 70.0733 89.2565C69.9819 89.5103 69.6571 90.576 69.241 91.9361C67.9316 96.0875 67.3023 98.1378 66.9166 99.1325Z" fill="#1F2223"/>
<path d="M70.8853 94.5651C70.8853 94.5651 44.3228 81.5122 32.5995 96.0876C20.8763 110.663 16.3595 156.105 19.7395 161.819C19.7395 161.819 48.3117 163.92 61.7503 147.914L67.7287 118.661C67.7287 118.661 92.3323 140.037 106.623 128.923C115.314 122.073 122.269 113.272 126.923 103.233L118.347 95.8034C118.347 95.8034 100.341 112.947 93.195 110.663C86.0494 108.379 70.8853 94.5651 70.8853 94.5651Z" fill="#FF7747"/>
<path d="M104.147 166.853C104.086 166.863 104.025 166.863 103.964 166.853C96.8592 164.235 57.6701 155.526 57.2742 155.435C57.2088 155.42 57.1468 155.393 57.092 155.354C57.0371 155.316 56.9903 155.267 56.9545 155.21C56.9186 155.154 56.8943 155.091 56.883 155.025C56.8717 154.959 56.8736 154.891 56.8886 154.826C56.92 154.695 57.0012 154.581 57.1149 154.509C57.2286 154.437 57.3658 154.412 57.4975 154.44C59.1114 154.805 97.1333 163.25 104.32 165.899C104.382 165.923 104.44 165.959 104.489 166.005C104.538 166.051 104.577 166.106 104.605 166.168C104.632 166.229 104.647 166.295 104.648 166.362C104.65 166.43 104.638 166.496 104.614 166.559C104.575 166.649 104.509 166.726 104.426 166.779C104.343 166.831 104.245 166.857 104.147 166.853Z" fill="white"/>
<path d="M70.1342 184.565C69.9996 184.565 69.8705 184.512 69.7754 184.416C69.6802 184.321 69.6267 184.192 69.6267 184.058C69.6267 183.923 69.6802 183.794 69.7754 183.699C69.8705 183.604 69.9996 183.55 70.1342 183.55L94.0476 182.992C94.1805 182.989 94.3092 183.039 94.406 183.13C94.5028 183.221 94.56 183.346 94.5653 183.479C94.568 183.615 94.5175 183.746 94.4245 183.845C94.3315 183.943 94.2034 184.002 94.0679 184.007L70.1545 184.565H70.1342Z" fill="white"/>
<path d="M137.337 84.6892C135.521 84.6892 124.457 86.9121 124.457 86.9121L124.548 88.262C124.548 88.262 136.475 86.364 137.52 86.1305C138.566 85.8971 139.164 84.6892 137.337 84.6892Z" fill="white"/>
<path d="M124.548 88.7694C124.434 88.768 124.323 88.7287 124.234 88.6578C124.179 88.613 124.133 88.5575 124.1 88.4947C124.067 88.432 124.047 88.3631 124.041 88.2924L123.96 86.9424C123.95 86.8198 123.986 86.698 124.061 86.6006C124.136 86.5031 124.245 86.4369 124.366 86.4146C124.812 86.3233 135.531 84.1816 137.337 84.1816C138.748 84.1816 138.982 84.8617 139.012 85.1966C139.083 85.8361 138.474 86.4857 137.622 86.6785C136.607 86.912 125.117 88.7085 124.63 88.81L124.548 88.7694ZM124.995 87.318V87.6732C127.35 87.2977 136.495 85.8361 137.388 85.6432C137.623 85.5985 137.83 85.4637 137.967 85.2677C137.754 85.2162 137.536 85.1923 137.317 85.1966C135.987 85.1966 128.923 86.5364 124.995 87.318Z" fill="#1F2223"/>
<path d="M82.0909 128.558H81.9285C70.4083 124.761 57.5685 110.166 57.0001 109.547C56.9065 109.45 56.8541 109.321 56.8541 109.186C56.8541 109.052 56.9065 108.922 57.0001 108.826C57.0497 108.782 57.1077 108.748 57.1705 108.727C57.2334 108.705 57.2999 108.697 57.3661 108.701C57.4323 108.706 57.4969 108.724 57.5561 108.754C57.6152 108.784 57.6678 108.826 57.7106 108.877C57.8426 109.029 70.9056 123.878 82.2026 127.593C82.2657 127.614 82.3241 127.647 82.3743 127.69C82.4245 127.734 82.4655 127.787 82.4948 127.847C82.5242 127.906 82.5413 127.971 82.5451 128.037C82.549 128.104 82.5395 128.17 82.5172 128.233C82.4857 128.323 82.4285 128.401 82.3527 128.459C82.277 128.517 82.1859 128.551 82.0909 128.558Z" fill="#1F2223"/>
<path d="M167.26 175.684L198.319 166.346L198.664 171.015L165.473 180.363L167.26 175.684Z" fill="#1F2223"/>
<path d="M165.473 180.84C165.403 180.841 165.333 180.827 165.268 180.799C165.203 180.771 165.145 180.73 165.098 180.678C165.038 180.607 164.997 180.523 164.979 180.432C164.961 180.341 164.967 180.248 164.996 180.16L166.782 175.471C166.81 175.399 166.853 175.334 166.91 175.281C166.966 175.228 167.034 175.189 167.107 175.166L198.176 165.828C198.25 165.809 198.327 165.805 198.402 165.818C198.477 165.83 198.549 165.858 198.613 165.899C198.675 165.944 198.726 166.002 198.763 166.068C198.799 166.135 198.821 166.209 198.826 166.285L199.171 170.954C199.178 171.069 199.146 171.183 199.079 171.277C199.013 171.371 198.916 171.439 198.806 171.472L165.615 180.84H165.473ZM167.645 176.069L166.305 179.571L198.126 170.69L197.862 167.066L167.645 176.069Z" fill="#1F2223"/>
<path d="M155.577 84.5977H155.475L139.855 81.2583C139.782 81.2444 139.713 81.2145 139.654 81.1707C139.594 81.1269 139.545 81.0704 139.51 81.0053C139.475 80.9401 139.455 80.868 139.451 80.7941C139.448 80.7203 139.461 80.6465 139.489 80.5783L140.859 77.1476C140.909 77.0224 141.007 76.9221 141.13 76.8688C141.254 76.8155 141.394 76.8136 141.519 76.8634C141.644 76.9132 141.745 77.0107 141.798 77.1344C141.851 77.2581 141.853 77.3979 141.803 77.5231L140.656 80.355L155.262 83.471L156.633 80.02C156.657 79.958 156.694 79.9015 156.74 79.8536C156.787 79.8057 156.842 79.7675 156.903 79.7411C156.965 79.7147 157.031 79.7007 157.097 79.6998C157.164 79.6988 157.23 79.7111 157.292 79.7358C157.355 79.7593 157.413 79.7952 157.461 79.8415C157.51 79.8878 157.549 79.9434 157.575 80.005C157.602 80.0667 157.616 80.1331 157.616 80.2002C157.616 80.2673 157.603 80.3338 157.576 80.3956L156.054 84.2424C156.021 84.3435 155.957 84.4318 155.872 84.4954C155.786 84.559 155.683 84.5947 155.577 84.5977Z" fill="#E6EBDE"/>
<path d="M122.914 73.9807C122.857 73.9912 122.799 73.9912 122.742 73.9807C122.615 73.9347 122.511 73.8411 122.452 73.7198C122.394 73.5985 122.385 73.4591 122.427 73.3311L126.345 62.3793L120.681 53.1631C120.61 53.0487 120.587 52.9106 120.617 52.7793C120.648 52.6479 120.729 52.5341 120.844 52.4627C120.958 52.3914 121.096 52.3684 121.227 52.3989C121.359 52.4293 121.473 52.5107 121.544 52.6251L127.36 62.0849C127.401 62.1492 127.426 62.2218 127.435 62.2974C127.444 62.3729 127.435 62.4495 127.411 62.5214L123.412 73.6864C123.367 73.7793 123.296 73.857 123.208 73.9094C123.119 73.9619 123.017 73.9867 122.914 73.9807Z" fill="#E6EBDE"/>
<path d="M130.77 53.3965C130.706 53.4063 130.641 53.4063 130.578 53.3965C130.454 53.3447 130.355 53.247 130.302 53.124C130.249 53.0009 130.246 52.8622 130.293 52.7368L135.104 40.7699C135.16 40.6475 135.261 40.5509 135.385 40.5C135.51 40.4491 135.649 40.4476 135.774 40.4959C135.836 40.5203 135.893 40.557 135.94 40.6037C135.988 40.6504 136.025 40.7062 136.051 40.7677C136.077 40.8293 136.09 40.8953 136.089 40.9619C136.089 41.0286 136.075 41.0944 136.048 41.1556L131.237 53.0616C131.205 53.1597 131.142 53.245 131.058 53.3052C130.975 53.3654 130.874 53.3974 130.77 53.3965Z" fill="#E6EBDE"/>
<path d="M68.3885 41.4908C68.2633 41.4912 68.1426 41.4444 68.0504 41.3597C67.9582 41.2751 67.9014 41.1588 67.8912 41.034L66.6325 28.1841C66.6204 28.0495 66.6623 27.9156 66.7489 27.8119C66.8355 27.7082 66.9598 27.6431 67.0944 27.631C67.229 27.6188 67.3629 27.6607 67.4666 27.7473C67.5703 27.8339 67.6354 27.9582 67.6475 28.0928L68.896 40.9325C68.903 40.9992 68.8967 41.0667 68.8775 41.1309C68.8583 41.1952 68.8265 41.255 68.7841 41.3069C68.7416 41.3588 68.6892 41.4018 68.6301 41.4334C68.5709 41.4649 68.506 41.4844 68.4392 41.4908H68.3885Z" fill="#E6EBDE"/>
<path d="M84.6082 99.64C84.5476 99.6497 84.486 99.6497 84.4254 99.64C84.3001 99.5901 84.1991 99.4932 84.1442 99.37C84.0892 99.2468 84.0845 99.1069 84.1311 98.9803L97.0419 66.0131C97.0969 65.8974 97.1935 65.8068 97.3125 65.7594C97.4315 65.712 97.5641 65.7114 97.6835 65.7576C97.8029 65.8038 97.9005 65.8935 97.9566 66.0087C98.0126 66.1238 98.0231 66.2559 97.9858 66.3785L85.075 99.3457C85.0361 99.4362 84.9707 99.5128 84.8873 99.5654C84.8039 99.6179 84.7066 99.6439 84.6082 99.64Z" fill="#E6EBDE"/>
<path d="M152.735 120.133H152.633L129.918 115.697C129.786 115.673 129.669 115.597 129.593 115.487C129.517 115.376 129.488 115.24 129.512 115.109C129.539 114.976 129.616 114.859 129.728 114.784C129.84 114.708 129.977 114.679 130.111 114.703L152.826 119.138C152.892 119.149 152.955 119.173 153.011 119.209C153.068 119.245 153.116 119.291 153.154 119.346C153.192 119.401 153.218 119.463 153.232 119.529C153.245 119.594 153.245 119.661 153.232 119.727C153.207 119.841 153.144 119.943 153.054 120.016C152.964 120.09 152.851 120.131 152.735 120.133Z" fill="#E6EBDE"/>
<path d="M150.482 126.03H150.39L127.664 121.595C127.599 121.584 127.536 121.56 127.48 121.524C127.424 121.488 127.376 121.441 127.339 121.386C127.302 121.331 127.277 121.268 127.265 121.203C127.253 121.138 127.254 121.071 127.269 121.006C127.293 120.874 127.369 120.758 127.479 120.682C127.59 120.605 127.725 120.576 127.857 120.6L150.583 125.015C150.649 125.026 150.711 125.05 150.767 125.086C150.823 125.122 150.871 125.169 150.908 125.224C150.945 125.279 150.971 125.341 150.983 125.407C150.995 125.472 150.994 125.539 150.979 125.604C150.962 125.723 150.902 125.832 150.81 125.91C150.719 125.989 150.602 126.031 150.482 126.03Z" fill="#E6EBDE"/>
<path d="M147.183 131.602H147.081L124.366 127.177C124.233 127.15 124.117 127.072 124.041 126.96C123.965 126.848 123.936 126.711 123.96 126.578C123.973 126.513 123.999 126.451 124.036 126.396C124.074 126.34 124.122 126.293 124.177 126.256C124.233 126.22 124.295 126.194 124.361 126.181C124.426 126.169 124.493 126.169 124.559 126.182L147.274 130.608C147.409 130.62 147.533 130.685 147.62 130.789C147.706 130.892 147.748 131.026 147.736 131.161C147.724 131.296 147.659 131.42 147.555 131.506C147.451 131.593 147.318 131.635 147.183 131.623V131.602Z" fill="#E6EBDE"/>
<path d="M103 47.3574H102.919L85.3897 44.3124C85.3155 44.3025 85.2447 44.2753 85.183 44.2329C85.1213 44.1906 85.0704 44.1344 85.0344 44.0688C85.002 44.0006 84.9851 43.926 84.9851 43.8505C84.9851 43.775 85.002 43.7005 85.0344 43.6323L91.4391 26.763C91.4869 26.6384 91.5819 26.5376 91.7034 26.4825C91.825 26.4274 91.9634 26.4224 92.0887 26.4687C92.1512 26.4912 92.2086 26.5261 92.2575 26.5712C92.3063 26.6163 92.3456 26.6707 92.3731 26.7313C92.4005 26.7918 92.4155 26.8573 92.4172 26.9238C92.4189 26.9902 92.4073 27.0564 92.383 27.1183L86.2017 43.4192L102.716 46.251L109.12 30.011C109.172 29.8873 109.269 29.788 109.392 29.7333C109.515 29.6786 109.653 29.6727 109.78 29.7167C109.842 29.7413 109.899 29.7779 109.947 29.8244C109.994 29.8709 110.033 29.9263 110.059 29.9876C110.085 30.0489 110.099 30.1148 110.1 30.1815C110.101 30.2482 110.089 30.3144 110.064 30.3764L103.518 47.0326C103.477 47.1346 103.405 47.2211 103.312 47.2795C103.219 47.3379 103.11 47.3652 103 47.3574Z" fill="#E6EBDE"/>
<path d="M93.997 22.4391H93.865L71.8903 18.5415C71.8236 18.5295 71.76 18.5045 71.703 18.4679C71.646 18.4313 71.5968 18.3838 71.5582 18.3282C71.5195 18.2726 71.4922 18.2099 71.4778 18.1438C71.4633 18.0776 71.4621 18.0093 71.4741 17.9426C71.4861 17.876 71.5111 17.8123 71.5477 17.7554C71.5843 17.6984 71.6317 17.6492 71.6873 17.6105C71.7429 17.5719 71.8056 17.5446 71.8718 17.5301C71.9379 17.5157 72.0063 17.5145 72.0729 17.5265L94.0883 21.485C94.2229 21.4971 94.3472 21.5622 94.4338 21.6659C94.5204 21.7696 94.5622 21.9035 94.5501 22.0381C94.538 22.1727 94.4729 22.297 94.3692 22.3836C94.2654 22.4702 94.1315 22.5121 93.997 22.5V22.4391Z" fill="#E6EBDE"/>
<path d="M154.125 80.152C154.05 80.1529 153.975 80.1369 153.907 80.1053C153.838 80.0737 153.778 80.0272 153.73 79.9693L144.138 68.2663C144.054 68.1624 144.014 68.0295 144.027 67.8965C144.041 67.7634 144.106 67.641 144.209 67.5558C144.261 67.5126 144.32 67.4801 144.385 67.4602C144.449 67.4404 144.517 67.4336 144.584 67.4402C144.651 67.4468 144.716 67.4667 144.776 67.4988C144.835 67.5308 144.887 67.5744 144.93 67.6269L154.511 79.34C154.554 79.3917 154.587 79.4515 154.607 79.516C154.627 79.5804 154.633 79.6481 154.627 79.7152C154.62 79.7823 154.6 79.8474 154.568 79.9067C154.536 79.966 154.493 80.0183 154.44 80.0606C154.348 80.1243 154.237 80.1564 154.125 80.152Z" fill="#E6EBDE"/>
</g>
<defs>
<clipPath id="clip0_830_1219">
<rect width="206" height="248" fill="white"/>
</clipPath>
</defs>
</svg>
