<svg width="252" height="238" viewBox="0 0 252 238" fill="none" xmlns="http://www.w3.org/2000/svg">
<g clip-path="url(#clip0_810_1590)">
<path d="M175.38 50.7209C175.38 50.7209 179.592 47.8079 195.781 61.4089C211.971 75.0099 212.62 87.3117 212.62 87.3117V33.5167C212.62 33.5167 204.196 10.1717 177.004 1.13818L175.38 50.7209Z" fill="#E6EBDE"/>
<path d="M212.62 87.8192C212.49 87.8219 212.364 87.7735 212.269 87.6843C212.174 87.5951 212.118 87.4722 212.113 87.3421C212.113 87.2203 211.26 75.0708 195.456 61.7946C179.998 48.8127 175.735 51.1269 175.654 51.1472C175.574 51.1946 175.483 51.2195 175.39 51.2195C175.297 51.2195 175.206 51.1946 175.126 51.1472C175.048 51.1021 174.983 51.0369 174.938 50.9584C174.894 50.8799 174.871 50.7909 174.872 50.7006L176.496 1.15847C176.497 1.07948 176.516 1.00174 176.553 0.9317C176.589 0.861656 176.642 0.80132 176.706 0.755687C176.771 0.710054 176.845 0.680434 176.923 0.669285C177.002 0.658136 177.081 0.665776 177.156 0.691572C204.277 9.72507 213.016 33.1716 213.097 33.3746C213.106 33.4317 213.106 33.49 213.097 33.5471V87.3421C213.097 87.475 213.045 87.6025 212.952 87.6974C212.859 87.7923 212.733 87.847 212.6 87.8496L212.62 87.8192ZM176.75 49.98C179.216 49.98 184.799 51.5634 196.106 61.0638C206.459 69.7623 210.519 77.8823 212.113 82.7239V33.6588C208.847 26.2573 204.085 19.6124 198.124 14.1429C192.164 8.67334 185.135 4.4977 177.481 1.87912L175.908 49.98C176.188 49.9508 176.47 49.9508 176.75 49.98V49.98Z" fill="#2D2D2D"/>
<path d="M46.7285 68.991V21.1134C65.3277 14.6471 85.037 11.9859 104.685 13.2878V59.2267C104.685 59.2267 69.2108 60.2011 46.7285 68.991Z" fill="#E6EBDE"/>
<path d="M46.7386 69.4984C46.6346 69.5016 46.532 69.4733 46.4443 69.4172C46.3784 69.3673 46.3249 69.3029 46.2879 69.229C46.251 69.155 46.2315 69.0736 46.2311 68.9909V21.1134C46.2296 21.0115 46.2588 20.9114 46.3149 20.8264C46.3711 20.7413 46.4515 20.6751 46.5458 20.6363C65.2352 14.1791 85.0235 11.5084 104.756 12.7802C104.883 12.7905 105.002 12.8484 105.089 12.9425C105.175 13.0366 105.223 13.1599 105.223 13.2877V59.2266C105.223 59.3578 105.172 59.4839 105.082 59.5785C104.991 59.6731 104.867 59.7289 104.736 59.7341C104.38 59.7341 69.0585 60.81 46.8807 69.468C46.8348 69.4841 46.7871 69.4943 46.7386 69.4984V69.4984ZM47.2461 21.4585V68.25C68.1247 60.3127 99.8739 58.8815 104.208 58.7191V13.7648C84.9007 12.5911 65.5502 15.2047 47.2461 21.4585V21.4585Z" fill="#2D2D2D"/>
<path d="M24.5001 95.655C24.5001 95.655 7.24505 102.821 0.718603 123.994V81.6074C0.718603 81.6074 0.343054 61.0841 24.5001 48.0515V95.655Z" fill="#E6EBDE"/>
<path d="M0.667778 124.461H0.596729C0.475671 124.441 0.365365 124.38 0.285442 124.287C0.205519 124.194 0.161165 124.076 0.160278 123.953V81.6074C0.160278 81.4044 0.16028 60.6375 24.2056 47.6049C24.2834 47.5623 24.3707 47.5399 24.4594 47.5399C24.5481 47.5399 24.6354 47.5623 24.7131 47.6049C24.7873 47.6512 24.8485 47.7155 24.8911 47.7918C24.9337 47.8681 24.9563 47.954 24.9567 48.0414V95.655C24.9562 95.7552 24.9261 95.853 24.8701 95.9361C24.8141 96.0192 24.7348 96.0838 24.6421 96.1219C19.0284 98.934 14.049 102.864 10.0099 107.671C5.97087 112.478 2.9575 118.061 1.15498 124.075C1.12799 124.184 1.0655 124.281 0.977315 124.351C0.88913 124.421 0.780246 124.46 0.667778 124.461ZM23.9417 48.965C1.15498 61.6525 1.15498 81.445 1.15498 81.5973V120.898C5.2635 109.809 13.3895 100.668 23.9214 95.2896L23.9417 48.965Z" fill="#2D2D2D"/>
<path d="M0.667847 81.6074C0.667847 81.6074 4.9004 100.02 21.1911 106.13V155.672C21.1911 155.672 2.6268 142.853 0.667847 123.953V81.6074Z" fill="white"/>
<path d="M21.1911 156.179C21.089 156.18 20.9894 156.148 20.9069 156.088C20.714 155.956 2.11921 142.893 0.17041 124.004V81.6074C0.172002 81.4818 0.21922 81.361 0.303256 81.2677C0.387291 81.1743 0.502415 81.1147 0.627165 81.0999C0.751596 81.0846 0.877192 81.1169 0.97882 81.1903C1.08045 81.2637 1.1506 81.3728 1.17526 81.4957C1.17526 81.6784 5.54991 99.7657 21.3839 105.653C21.4801 105.69 21.5627 105.755 21.6207 105.841C21.6787 105.926 21.7094 106.027 21.7087 106.13V155.672C21.708 155.764 21.6821 155.855 21.6338 155.933C21.5855 156.012 21.5166 156.076 21.4347 156.119C21.3605 156.161 21.2763 156.182 21.1911 156.179ZM1.15496 84.9061V123.953C2.82971 140.122 17.1108 151.957 20.6633 154.667V106.475C8.70656 101.816 3.18496 90.4683 1.15496 84.9061Z" fill="#2D2D2D"/>
<path d="M134.76 104.364C134.76 104.364 154.369 170.613 162.296 173.932C170.224 177.251 182.434 168.359 183.459 162.706C184.484 157.052 168.518 91.5239 168.518 91.5239L134.76 104.364Z" fill="white"/>
<path d="M166.123 175.17C164.731 175.192 163.35 174.93 162.063 174.399C158.632 172.968 152.928 160.747 145.031 138.072C139.205 121.274 134.282 104.668 134.232 104.506C134.192 104.383 134.202 104.25 134.259 104.135C134.316 104.019 134.415 103.93 134.536 103.887L168.295 91.0571C168.361 91.0294 168.432 91.0152 168.503 91.0152C168.575 91.0152 168.645 91.0294 168.711 91.0571C168.775 91.091 168.831 91.1386 168.875 91.1964C168.919 91.2543 168.95 91.3211 168.965 91.392C169.625 94.0716 184.961 157.073 183.926 162.777C183.337 165.974 179.531 170.044 174.669 172.683C172.06 174.182 169.129 175.035 166.123 175.17V175.17ZM135.379 104.668C136.201 107.439 140.748 122.512 146.036 137.737C156.186 167.101 160.723 172.724 162.499 173.465C165.605 174.774 169.889 174.165 174.233 171.81C178.77 169.354 182.444 165.477 182.962 162.615C183.753 158.26 173.705 114.991 168.153 92.204L135.379 104.668Z" fill="#2D2D2D"/>
<path d="M168.63 159.6C167.798 138.133 201.181 108.596 201.181 108.596L219.451 120.188C219.451 120.188 205.86 158.91 192.493 171.953C185.885 178.418 169.087 172.795 168.63 159.6Z" fill="white"/>
<path d="M185.114 175.18C182.917 175.159 180.743 174.721 178.709 173.891C173.756 171.922 168.356 167.141 168.072 159.63C167.717 150.597 173.147 139.198 184.149 125.74C189.274 119.514 194.837 113.663 200.795 108.231C200.883 108.165 200.99 108.129 201.1 108.129C201.21 108.129 201.317 108.165 201.404 108.231L219.674 119.812C219.773 119.873 219.848 119.965 219.886 120.074C219.925 120.183 219.926 120.302 219.888 120.411C219.745 120.797 206.114 159.397 192.807 172.419C190.7 174.306 187.94 175.296 185.114 175.18V175.18ZM169.087 159.6C169.351 166.624 174.426 171.1 179.085 172.957C184.058 174.937 189.306 174.419 192.127 171.648C204.561 159.468 217.37 124.461 218.822 120.411L201.191 109.246C197.953 112.179 168.315 139.696 169.087 159.59V159.6Z" fill="#2D2D2D"/>
<path d="M183.063 171.303C182.958 171.302 182.856 171.271 182.769 171.212C182.66 171.132 182.587 171.014 182.564 170.881C182.541 170.748 182.571 170.612 182.647 170.501C182.911 170.136 209.037 133.383 213.828 112.362C213.842 112.296 213.87 112.234 213.908 112.18C213.947 112.125 213.995 112.078 214.052 112.042C214.109 112.006 214.172 111.982 214.238 111.971C214.304 111.959 214.372 111.961 214.437 111.976C214.502 111.99 214.564 112.018 214.618 112.056C214.673 112.095 214.719 112.144 214.754 112.201C214.789 112.258 214.812 112.321 214.822 112.387C214.832 112.453 214.829 112.52 214.813 112.585C209.971 133.799 183.743 170.724 183.479 171.09C183.433 171.157 183.371 171.211 183.298 171.248C183.225 171.285 183.145 171.304 183.063 171.303V171.303Z" fill="#E6EBDE"/>
<path d="M141.479 118.229C156.435 118.229 168.559 106.104 168.559 91.1484C168.559 76.1924 156.435 64.0682 141.479 64.0682C126.523 64.0682 114.399 76.1924 114.399 91.1484C114.399 106.104 126.523 118.229 141.479 118.229Z" fill="#2D2D2D"/>
<path d="M141.479 118.736C136.022 118.736 130.689 117.118 126.152 114.087C121.615 111.055 118.079 106.747 115.991 101.706C113.903 96.6647 113.357 91.1178 114.421 85.7663C115.486 80.4148 118.113 75.4991 121.971 71.6409C125.829 67.7827 130.745 65.1553 136.097 64.0908C141.448 63.0263 146.995 63.5726 152.036 65.6607C157.077 67.7487 161.386 71.2847 164.417 75.8215C167.448 80.3582 169.066 85.692 169.066 91.1484C169.058 98.4626 166.149 105.475 160.977 110.647C155.805 115.819 148.793 118.728 141.479 118.736V118.736ZM141.479 64.5757C136.223 64.5757 131.086 66.1341 126.716 69.054C122.346 71.9738 118.94 76.1239 116.929 80.9795C114.918 85.835 114.391 91.1779 115.417 96.3325C116.442 101.487 118.973 106.222 122.689 109.938C126.405 113.654 131.14 116.185 136.295 117.21C141.449 118.236 146.792 117.71 151.648 115.698C156.503 113.687 160.653 110.281 163.573 105.911C166.493 101.542 168.051 96.404 168.051 91.1484C168.041 84.1042 165.238 77.3515 160.257 72.3705C155.276 67.3895 148.523 64.5864 141.479 64.5757V64.5757Z" fill="#2D2D2D"/>
<path d="M103.071 71.295C103.071 71.295 64.7346 82.3686 57.2439 101.907C49.7532 121.446 73.9407 220.662 73.9407 220.662C73.9407 220.662 115.454 242.668 157.171 219.546C157.171 219.546 168.894 135.494 162.713 114.321C156.531 93.1479 142.24 72.381 133.369 69.265C124.498 66.1489 103.071 71.295 103.071 71.295Z" fill="white"/>
<path d="M115.931 230.477C101.331 230.456 86.9139 227.23 73.697 221.028C73.6336 220.996 73.578 220.95 73.5341 220.894C73.4903 220.837 73.4593 220.772 73.4433 220.703C73.3824 220.459 67.3533 195.582 62.2783 168.644C55.4879 132.398 53.6305 109.875 56.7668 101.654C59.9032 93.4322 68.6626 85.7182 82.7407 78.735C89.2513 75.5411 96.0013 72.8601 102.929 70.7165V70.7165C103.802 70.5033 124.569 65.6415 133.501 68.7778C143.062 72.0969 157.181 93.6859 163.139 114.067C169.29 135.108 158.064 216.064 157.617 219.495C157.609 219.574 157.582 219.649 157.538 219.715C157.494 219.781 157.434 219.834 157.363 219.871C144.691 226.901 130.423 230.553 115.931 230.477ZM74.3771 220.236C77.554 221.83 117.261 240.851 156.683 219.14C157.384 214.065 168.122 134.641 162.205 114.382C155.77 92.3766 141.59 72.6754 133.206 69.7218C124.63 66.7478 103.822 71.5488 103.203 71.6909C102.35 71.9345 64.9883 83.0487 57.7209 101.999C50.5449 120.766 73.0982 214.938 74.3771 220.236V220.236Z" fill="#2D2D2D"/>
<path d="M139.104 225.869C138.972 225.867 138.845 225.814 138.751 225.721C138.657 225.629 138.601 225.504 138.596 225.372C138.596 224.286 136.668 117.132 135.551 108.647C134.313 99.512 114.429 91.6762 114.236 91.595C114.113 91.5432 114.014 91.4455 113.961 91.3224C113.908 91.1994 113.905 91.0606 113.952 90.9352C113.975 90.8736 114.011 90.8172 114.057 90.7695C114.102 90.7217 114.157 90.6835 114.217 90.6571C114.278 90.6306 114.343 90.6165 114.409 90.6154C114.475 90.6144 114.54 90.6265 114.602 90.651C115.444 90.9758 135.257 98.771 136.566 108.515C137.703 117.021 139.55 220.906 139.611 225.321C139.612 225.388 139.601 225.454 139.576 225.516C139.552 225.578 139.516 225.635 139.47 225.683C139.423 225.731 139.368 225.77 139.307 225.796C139.246 225.823 139.18 225.838 139.114 225.839L139.104 225.869Z" fill="#E6EBDE"/>
<path d="M93.2966 69.265L94.9206 92.7217C94.9206 92.7217 104.583 103.054 114.398 101.857C125.076 100.537 132.74 92.7217 132.74 92.7217L131.247 76.299L93.2966 69.265Z" fill="#2D2D2D"/>
<path d="M112.805 102.466C103.487 102.466 94.9816 93.4931 94.606 93.0871C94.5234 93.002 94.4731 92.8907 94.4639 92.7724L92.8501 69.3158C92.8428 69.24 92.8538 69.1637 92.882 69.0931C92.9103 69.0224 92.955 68.9596 93.0125 68.9098C93.0699 68.8556 93.1397 68.8162 93.2157 68.795C93.2917 68.7738 93.3717 68.7714 93.4489 68.788L131.4 75.7813C131.508 75.803 131.606 75.8593 131.679 75.9417C131.752 76.0241 131.797 76.1282 131.806 76.2381L133.298 92.6608C133.303 92.7346 133.294 92.8087 133.269 92.8786C133.245 92.9484 133.206 93.0125 133.156 93.0668C132.831 93.3916 125.239 101.045 114.51 102.364C113.944 102.433 113.375 102.467 112.805 102.466ZM95.4688 92.5187C96.6157 93.6859 105.538 102.456 114.388 101.359C123.909 100.182 131.095 93.6352 132.263 92.5187L130.831 76.7151L93.9057 69.9045L95.4688 92.5187Z" fill="#2D2D2D"/>
<path d="M139.885 120.431C139.885 120.431 118.448 127.272 118.225 154.941C118.002 182.61 137.033 176.256 148.025 167.121C159.018 157.986 160.733 144.487 159.759 136.336C158.784 128.186 153.567 116.523 139.885 120.431Z" fill="white"/>
<path d="M130.425 175.464C128.706 175.502 127 175.155 125.432 174.449C120.225 171.973 117.626 165.426 117.718 154.992C117.941 127.262 139.51 120.056 139.733 119.985C144.646 118.584 148.868 119.03 152.339 121.324C158.49 125.384 159.952 133.88 160.246 136.377C161.373 145.766 158.845 158.9 148.34 167.608C143.489 171.597 136.515 175.464 130.425 175.464ZM140.038 120.918C139.571 121.071 118.956 128.145 118.723 154.961C118.631 164.969 121.037 171.201 125.828 173.495C132.283 176.54 141.621 171.79 147.66 166.786C157.81 158.341 160.307 145.583 159.211 136.448C158.927 134.063 157.536 125.983 151.74 122.126C148.594 120.015 144.646 119.599 140.038 120.918Z" fill="#2D2D2D"/>
<path d="M154.542 143.888C154.146 152.008 145.762 163.975 139.895 166.218C136.312 167.598 131.511 168.796 128.385 165.345C126.406 163.142 125.097 159.072 125.229 151.987C125.553 133.717 139.114 128.693 142.971 127.881C144.758 127.602 146.587 127.939 148.157 128.835C151.619 130.713 154.958 135.179 154.542 143.888Z" fill="white"/>
<path d="M133.815 168.136C132.732 168.17 131.654 167.968 130.655 167.546C129.657 167.124 128.761 166.491 128.03 165.69C125.726 163.132 124.62 158.514 124.741 151.977C125.107 131.353 142.169 127.536 142.89 127.384C144.792 127.093 146.737 127.451 148.411 128.399C151.111 129.84 155.516 133.748 155.07 143.888C154.653 152.475 146.016 164.401 140.098 166.695C138.11 167.555 135.98 168.043 133.815 168.136V168.136ZM144.148 128.308C143.807 128.311 143.467 128.348 143.133 128.419C142.433 128.561 126.132 132.205 125.787 152.028C125.675 158.311 126.69 162.686 128.832 165.051C131.826 168.349 136.515 167.081 139.784 165.781C145.366 163.609 153.72 151.906 154.105 143.867C154.562 134.286 150.472 130.672 148.015 129.323C146.831 128.667 145.502 128.318 144.148 128.308Z" fill="#2D2D2D"/>
<path d="M154.542 143.888C154.146 152.008 145.762 163.975 139.895 166.218C136.312 167.598 131.511 168.796 128.385 165.345C131.846 165.72 136.992 164.462 142.595 156.981C150.106 146.963 150.715 136.052 148.147 128.835C151.619 130.713 154.958 135.179 154.542 143.888Z" fill="#2D2D2D"/>
<path d="M133.816 168.136C132.732 168.169 131.654 167.968 130.655 167.546C129.657 167.124 128.761 166.491 128.03 165.69C127.959 165.614 127.912 165.519 127.897 165.416C127.882 165.313 127.899 165.208 127.945 165.115C127.992 165.022 128.066 164.945 128.157 164.896C128.249 164.846 128.353 164.826 128.456 164.837C131.694 165.182 136.688 164.046 142.22 156.717C149.873 146.506 150.066 135.727 147.701 129.038C147.667 128.943 147.663 128.84 147.688 128.743C147.714 128.645 147.767 128.557 147.843 128.49C147.919 128.423 148.015 128.38 148.116 128.367C148.217 128.354 148.32 128.372 148.411 128.419C151.111 129.86 155.516 133.768 155.07 143.908C154.653 152.495 146.016 164.421 140.098 166.715C138.108 167.568 135.979 168.05 133.816 168.136V168.136ZM129.756 165.944C132.719 168.075 136.779 166.908 139.703 165.781C145.285 163.609 153.638 151.906 154.024 143.867C154.42 135.646 151.466 131.799 149.051 130.033C151.03 137.016 150.401 147.44 142.961 157.326C137.947 164.086 133.207 165.852 129.766 165.944H129.756Z" fill="#2D2D2D"/>
<path d="M41.5012 139.98C41.5012 139.98 43.785 209 50.6362 214.248C57.4875 219.495 71.5249 213.923 73.9812 208.706C76.4375 203.489 77.4525 136.062 77.4525 136.062L41.5012 139.98Z" fill="white"/>
<path d="M57.7209 216.856C55.0796 216.953 52.4797 216.18 50.3216 214.654C47.3578 212.4 44.9015 199.124 42.9933 175.201C41.5824 157.479 40.9633 140.163 40.9633 139.99C40.9624 139.863 41.0085 139.74 41.0928 139.644C41.177 139.549 41.2935 139.488 41.42 139.473L77.3206 135.565C77.3914 135.556 77.4633 135.562 77.5315 135.583C77.5997 135.604 77.6627 135.64 77.7164 135.687C77.7702 135.736 77.8133 135.795 77.843 135.861C77.8727 135.928 77.8883 136 77.889 136.072C77.889 138.833 76.8131 203.671 74.3669 208.929C72.9967 211.872 68.2769 214.857 62.9177 216.186C61.2172 216.61 59.4733 216.835 57.7209 216.856V216.856ZM42.029 140.427C42.1305 143.319 42.7294 159.052 44.059 175.119C46.5255 206.097 49.4588 212.674 50.9813 213.842C53.6711 215.872 57.9544 216.379 62.7553 215.202C67.7694 213.963 72.2963 211.142 73.5245 208.493C75.3921 204.483 76.5695 160.077 76.945 136.631L42.029 140.427Z" fill="#2D2D2D"/>
<path d="M66.0236 194.851C80.7614 179.21 125.218 182.326 125.218 182.326L129.786 203.499C129.786 203.499 92.647 220.957 73.9609 220.581C64.765 220.409 56.98 204.443 66.0236 194.851Z" fill="white"/>
<path d="M74.5192 221.099H73.9305C69.5152 221.018 65.2015 217.475 62.938 212.096C60.908 207.173 60.502 199.977 65.6481 194.516C71.8497 187.929 83.776 183.798 101.102 182.224C109.131 181.518 117.201 181.386 125.249 181.828C125.36 181.833 125.466 181.874 125.55 181.946C125.635 182.018 125.693 182.116 125.716 182.224L130.283 203.397C130.308 203.51 130.293 203.628 130.241 203.731C130.189 203.835 130.104 203.917 129.999 203.966C129.634 204.128 93.3068 221.099 74.5192 221.099ZM116.347 182.59C102.655 182.59 76.7624 184.143 66.3891 195.196C61.578 200.271 61.9332 207.072 63.8718 211.69C65.9526 216.623 69.9618 220.003 73.9508 220.074C91.3073 220.459 125.3 205.011 129.207 203.204L124.802 182.803C123.757 182.742 120.651 182.59 116.347 182.59Z" fill="#2D2D2D"/>
<path d="M69.16 213.679C69.043 213.679 68.9296 213.639 68.8389 213.565C68.7483 213.491 68.686 213.388 68.6626 213.273C68.6387 213.14 68.6677 213.003 68.7436 212.891C68.8195 212.779 68.9361 212.701 69.0686 212.674C69.4949 212.593 112.318 204.057 125.746 195.419C125.859 195.355 125.992 195.336 126.119 195.367C126.245 195.398 126.354 195.476 126.425 195.586C126.495 195.695 126.52 195.827 126.496 195.955C126.472 196.082 126.4 196.196 126.294 196.272C112.703 205.031 71.0276 213.334 69.2615 213.679H69.16Z" fill="#E6EBDE"/>
<path d="M124.031 185.686C124.031 185.686 133.349 176.957 137.49 173.506C141.631 170.055 149.873 165.274 149.67 169.446C149.467 173.617 141.783 175.667 141.489 176.784C141.489 176.784 157.181 174.358 164.499 176.784C171.817 179.21 173.776 181.169 171.604 182.366C169.432 183.564 161.393 180.732 157.698 181.169C154.004 181.605 150.532 182.366 150.532 182.366C150.532 182.366 163.352 183.128 167.473 185.726C171.594 188.325 173.34 190.943 170.731 191.816C168.122 192.689 160.094 186.386 152.278 187.472C152.278 187.472 169.016 192.902 168.569 197.236C168.122 201.57 166.306 200.931 164.509 199.845C162.713 198.759 153.994 195.054 150.086 194.404C150.086 194.404 167.93 208.756 163.139 209.629C158.348 210.502 148.249 199.642 148.249 199.642C148.249 199.642 128.832 208.777 124.051 203.336C119.271 197.896 124.031 185.686 124.031 185.686Z" fill="#2D2D2D"/>
<path d="M162.54 210.137C157.79 210.137 149.65 201.854 148.076 200.2C145.376 201.438 128.294 208.929 123.615 203.62C118.692 198.018 123.331 186.01 123.523 185.503C123.552 185.432 123.597 185.369 123.655 185.32C123.747 185.229 133.034 176.53 137.135 173.14C139.865 170.866 146.686 166.289 149.203 167.547C149.538 167.728 149.808 168.01 149.976 168.352C150.143 168.694 150.199 169.08 150.137 169.456C149.974 172.501 146.29 174.47 143.854 175.759L143.407 175.992C147.914 175.424 158.774 174.358 164.621 176.297C172.741 178.976 172.852 180.631 172.903 181.179C172.954 181.727 172.781 182.265 171.807 182.803C170.467 183.534 167.635 183.016 164.357 182.407C162.184 181.885 159.954 181.636 157.719 181.666C156.501 181.808 155.303 181.991 154.247 182.163C158.409 182.59 164.905 183.524 167.706 185.29C169.564 186.467 172.66 188.73 172.416 190.679C172.355 191.197 172.03 191.887 170.853 192.283C169.675 192.679 167.727 191.897 165.098 190.791C162.134 189.553 158.592 188.061 154.948 187.858C159.8 189.634 169.412 193.613 169.036 197.287C168.823 199.317 168.305 200.504 167.402 200.951C166.499 201.398 165.27 200.951 164.205 200.271C160.312 198.295 156.253 196.665 152.075 195.399C164.479 205.62 164.499 208.594 164.377 209.132C164.311 209.406 164.159 209.653 163.944 209.835C163.729 210.018 163.461 210.127 163.179 210.147C162.967 210.165 162.752 210.161 162.54 210.137V210.137ZM148.229 199.083C148.299 199.082 148.369 199.096 148.434 199.124C148.499 199.152 148.557 199.194 148.604 199.246C151.355 202.21 159.322 209.761 163.027 209.081C163.382 209.02 163.413 208.899 163.423 208.858C163.87 207.082 155.699 199.54 149.751 194.76C149.662 194.689 149.6 194.591 149.572 194.481C149.545 194.371 149.554 194.255 149.599 194.151C149.645 194.048 149.723 193.963 149.822 193.91C149.922 193.856 150.036 193.837 150.147 193.856C154.024 194.506 162.824 198.211 164.753 199.368C165.544 199.845 166.427 200.291 166.976 200.017C167.351 199.824 167.848 199.175 168.051 197.145C168.346 194.283 158.429 189.959 152.106 187.908C152.039 187.902 151.974 187.883 151.915 187.852C151.856 187.821 151.803 187.779 151.76 187.727C151.674 187.624 151.632 187.49 151.644 187.355C151.656 187.221 151.721 187.096 151.825 187.01C151.929 186.923 152.063 186.881 152.197 186.893C157.008 186.223 161.931 188.284 165.524 189.796C167.767 190.74 169.696 191.552 170.599 191.258C171.147 191.075 171.442 190.821 171.482 190.497C171.574 189.756 170.467 188.162 167.239 186.091C163.271 183.584 150.665 182.803 150.533 182.803C150.411 182.796 150.297 182.744 150.21 182.658C150.124 182.572 150.073 182.457 150.066 182.336C150.053 182.213 150.087 182.09 150.16 181.991C150.233 181.891 150.341 181.823 150.462 181.798C150.462 181.798 154.004 181.027 157.678 180.59C160.012 180.548 162.342 180.803 164.611 181.351C167.311 181.849 170.366 182.366 171.391 181.849C171.665 181.697 171.98 181.463 171.959 181.209C171.939 180.956 171.462 179.545 164.377 177.2C157.292 174.855 141.753 177.2 141.601 177.2C141.517 177.21 141.432 177.2 141.353 177.172C141.274 177.144 141.202 177.098 141.144 177.038C141.09 176.974 141.051 176.899 141.032 176.818C141.012 176.736 141.013 176.652 141.032 176.571C141.174 176.002 141.875 175.617 143.448 174.784C145.681 173.597 149.061 171.8 149.193 169.324C149.193 168.583 148.939 168.43 148.827 168.38C147.264 167.588 141.651 170.674 137.855 173.84C134.059 177.007 125.452 185.005 124.508 185.929C124.061 187.117 120.164 198.018 124.447 202.9C126.264 204.93 130.882 204.93 137.804 202.9C141.303 201.843 144.728 200.554 148.056 199.043C148.116 199.044 148.175 199.058 148.229 199.083V199.083Z" fill="#2D2D2D"/>
<path d="M141.621 24.9805C141.621 24.9805 144.443 52.1318 143.793 66.4636C143.143 80.7954 137.5 85.3527 125.523 87.7786C113.546 90.2044 94.6771 79.7398 84.0399 66.0576C73.4027 52.3754 72.205 45.179 75.7271 24.9805H141.621Z" fill="white"/>
<path d="M122.021 88.55C110.267 88.55 93.6012 79.1308 83.6745 66.3114C73.1083 52.7611 71.6061 45.3922 75.25 24.8892C75.2694 24.7718 75.3302 24.6653 75.4215 24.5889C75.5127 24.5126 75.6283 24.4715 75.7473 24.4731H141.641C141.767 24.4724 141.889 24.5189 141.983 24.6033C142.077 24.6878 142.136 24.8042 142.149 24.9298C142.149 25.2039 144.97 52.2739 144.321 66.4839C143.62 81.78 137.216 85.9313 125.675 88.2455C124.47 88.4643 123.246 88.5663 122.021 88.55V88.55ZM76.1533 25.4881C72.6516 45.5343 74.1233 52.3653 84.4662 65.7125C95.3165 79.6586 114.084 89.5244 125.452 87.2508C136.505 85.0381 142.626 81.0695 143.285 66.4433C143.884 53.3194 141.529 29.1015 141.164 25.4881H76.1533Z" fill="#2D2D2D"/>
<path d="M75.7271 24.9806C75.7271 24.9806 77.9905 34.3186 101.011 35.8411C124.031 37.3636 141.611 31.2837 141.611 24.9806C141.611 18.6774 125.229 12.8006 108.664 12.3844C92.099 11.9683 76.671 19.1139 75.7271 24.9806Z" fill="white"/>
<path d="M108.278 36.5922C105.944 36.5922 103.511 36.511 100.98 36.3486C77.8484 34.8159 75.3311 25.4982 75.2499 25.1024C75.2347 25.0356 75.2347 24.9662 75.2499 24.8994C76.2649 18.6673 91.8959 11.4506 108.745 11.8769C124.538 12.2931 142.189 17.9669 142.189 24.9806C142.143 25.7435 141.939 26.4885 141.589 27.1682C141.24 27.8479 140.753 28.4475 140.159 28.9289C135.886 32.857 124.447 36.5922 108.278 36.5922ZM76.2649 24.9501C76.4172 25.3967 77.219 27.3861 80.1625 29.5075C83.2583 31.7405 89.3889 34.5825 101.061 35.3336C119.9 36.582 134.607 32.6743 139.408 28.2286C139.901 27.8413 140.308 27.3566 140.605 26.8047C140.902 26.2529 141.082 25.6457 141.134 25.0212C141.134 19.2458 125.36 13.369 108.654 12.9325C92.708 12.425 77.351 19.256 76.2649 24.9501Z" fill="#2D2D2D"/>
<path d="M88.0695 65.4486C91.9164 66.9508 100.96 67.3264 99.6507 55.1159C98.3413 42.9055 93.5607 36.1557 85.258 36.1354C76.9553 36.1151 76.8538 45.9911 77.8282 49.8988C78.8026 53.8066 79.777 62.16 88.0695 65.4486Z" fill="#2D2D2D"/>
<path d="M92.16 66.6971C90.7005 66.6921 89.2535 66.4274 87.8868 65.9155V65.9155C80.2235 62.8705 78.6097 55.7046 77.6454 51.3909C77.5439 50.8935 77.4323 50.4368 77.3308 50.0206C76.6203 47.1786 76.5087 41.7281 79.1071 38.409C79.8294 37.4963 80.7582 36.7682 81.8169 36.2846C82.8757 35.8011 84.0342 35.576 85.1971 35.6279V35.6279C93.5911 35.6279 98.7473 42.3675 100.097 55.0652C100.605 59.8661 99.6202 63.2664 97.1436 65.1543C95.6949 66.1979 93.9449 66.7397 92.16 66.6971ZM88.2624 64.9716C90.0995 65.6922 93.9362 66.3723 96.5955 64.3423C98.7574 62.6878 99.6405 59.6022 99.1533 55.2073C97.8439 42.9359 93.1648 36.7038 85.2579 36.6835C84.2431 36.6291 83.2299 36.8181 82.303 37.2347C81.376 37.6514 80.5621 38.2837 79.9292 39.0789C77.5642 42.1239 77.6962 47.27 78.3356 49.8176C78.4473 50.2338 78.5488 50.7007 78.6604 51.2082C79.5739 55.2682 81.1167 62.2108 88.2826 65.0122L88.2624 64.9716Z" fill="#2D2D2D"/>
<path d="M94.9207 58.1C94.6652 58.7624 94.2559 59.3545 93.7264 59.8275C93.197 60.3005 92.5626 60.6408 91.8757 60.8202C86.3338 62.1905 82.8422 55.6031 81.8576 52.2638C80.8731 48.9244 81.4516 40.3578 86.3439 41.0074C86.9894 41.0194 87.624 41.1755 88.2014 41.4642C89.9694 42.3332 91.4859 43.6399 92.6065 45.2603C95.0526 48.5083 96.4635 54.5272 94.9207 58.1Z" fill="white"/>
<path d="M90.3836 61.5104C85.7451 61.5104 82.4768 56.3034 81.3298 52.3754C80.6498 50.0206 80.5787 44.4888 82.8726 41.8092C83.2852 41.3088 83.8188 40.9222 84.4227 40.6859C85.0267 40.4497 85.681 40.3717 86.3236 40.4593C87.0287 40.4733 87.7219 40.6431 88.3536 40.9566C90.2046 41.8573 91.7944 43.2165 92.9719 44.905C95.4383 48.1428 97.0319 54.4155 95.3876 58.2624C95.1007 59.0071 94.6394 59.6723 94.0425 60.2021C93.4456 60.7319 92.7304 61.1109 91.9569 61.3074C91.4425 61.4378 90.9143 61.5059 90.3836 61.5104V61.5104ZM85.7857 41.4844C85.375 41.4796 84.9686 41.5685 84.5975 41.7444C84.2264 41.9203 83.9003 42.1785 83.644 42.4994C81.7866 44.6614 81.614 49.7059 82.3042 52.1013C83.1061 54.8317 86.3642 61.6322 91.7133 60.3025C92.3323 60.1502 92.9051 59.8498 93.3824 59.4273C93.8598 59.0048 94.2274 58.4726 94.4538 57.8767V57.8767C95.9763 54.3546 94.4538 48.5488 92.1599 45.5444C91.0854 44.0006 89.6405 42.7511 87.9578 41.9107C87.456 41.6576 86.9055 41.5156 86.3439 41.4946H86.2424L85.7857 41.4844Z" fill="#2D2D2D"/>
<path d="M75.7271 24.9806C75.7271 24.9806 78.9446 4.68056 98.0571 1.63556C114.602 -1.00343 135.876 6.71056 141.621 24.9806C141.621 24.9806 143.793 37.3636 110.562 37.1606C77.3307 36.9576 75.7271 24.9806 75.7271 24.9806Z" fill="#2D2D2D"/>
<path d="M111.414 37.6579H110.562C77.28 37.4346 75.25 25.5591 75.25 25.0516V24.8994C75.25 24.6964 78.7517 4.23397 98.0063 1.16867C115.17 -1.55153 136.373 6.54817 142.138 24.8283C142.219 25.8091 142.089 26.7958 141.756 27.7219C141.423 28.6481 140.896 29.4922 140.21 30.1977C137.327 33.6182 129.989 37.6579 111.414 37.6579ZM76.265 24.9806C76.4781 25.9144 79.6247 36.4298 110.592 36.6328H111.445C129.563 36.6328 136.657 32.8062 139.428 29.5278C140.011 28.9342 140.464 28.2265 140.759 27.4491C141.054 26.6717 141.185 25.8415 141.144 25.011C136.759 11.1258 119.474 -1.27748 98.1484 2.11262C80.2336 5.02567 76.4984 23.59 76.265 24.9806Z" fill="#2D2D2D"/>
<path d="M61.0907 156.017C76.0467 156.017 88.1709 143.893 88.1709 128.937C88.1709 113.981 76.0467 101.857 61.0907 101.857C46.1347 101.857 34.0105 113.981 34.0105 128.937C34.0105 143.893 46.1347 156.017 61.0907 156.017Z" fill="#2D2D2D"/>
<path d="M61.0908 156.555C55.6344 156.555 50.3006 154.937 45.7639 151.906C41.2271 148.874 37.6911 144.566 35.6031 139.525C33.515 134.484 32.9687 128.937 34.0332 123.585C35.0976 118.234 37.7251 113.318 41.5833 109.46C45.4415 105.602 50.3572 102.974 55.7087 101.91C61.0602 100.845 66.6071 101.392 71.6481 103.48C76.6891 105.568 80.9977 109.104 84.0291 113.64C87.0605 118.177 88.6785 123.511 88.6785 128.967C88.6704 136.282 85.7613 143.294 80.5893 148.466C75.4174 153.638 68.405 156.547 61.0908 156.555V156.555ZM61.0908 102.395C55.8352 102.395 50.6976 103.953 46.3278 106.873C41.9579 109.793 38.552 113.943 36.5408 118.798C34.5296 123.654 34.0033 128.997 35.0286 134.151C36.054 139.306 38.5848 144.041 42.301 147.757C46.0173 151.473 50.7521 154.004 55.9067 155.029C61.0613 156.055 66.4042 155.528 71.2597 153.517C76.1152 151.506 80.2653 148.1 83.1851 143.73C86.105 139.36 87.6635 134.223 87.6635 128.967C87.6608 121.918 84.8613 115.157 79.8794 110.17C74.8975 105.182 68.1403 102.375 61.0908 102.364V102.395Z" fill="#2D2D2D"/>
<path d="M125.594 59.0034C127.057 59.0034 128.243 57.2084 128.243 54.9941C128.243 52.7799 127.057 50.9849 125.594 50.9849C124.131 50.9849 122.945 52.7799 122.945 54.9941C122.945 57.2084 124.131 59.0034 125.594 59.0034Z" fill="#2D2D2D"/>
<path d="M137.398 52.2637C138.862 52.2637 140.048 50.4687 140.048 48.2545C140.048 46.0402 138.862 44.2452 137.398 44.2452C135.935 44.2452 134.749 46.0402 134.749 48.2545C134.749 50.4687 135.935 52.2637 137.398 52.2637Z" fill="#2D2D2D"/>
<path d="M95.55 60.9318C95.4755 60.93 95.4023 60.9117 95.3356 60.8784C95.269 60.8451 95.2104 60.7975 95.1643 60.739L81.0253 43.6971C80.9827 43.6458 80.9505 43.5866 80.9308 43.5229C80.911 43.4591 80.904 43.3921 80.9101 43.3257C80.9162 43.2592 80.9354 43.1946 80.9665 43.1356C80.9976 43.0766 81.04 43.0242 81.0913 42.9816C81.1426 42.9389 81.2018 42.9068 81.2656 42.887C81.3293 42.8672 81.3963 42.8602 81.4627 42.8663C81.5292 42.8725 81.5938 42.8916 81.6528 42.9227C81.7119 42.9538 81.7642 42.9962 81.8069 43.0475L95.956 60.13C95.9989 60.1809 96.0312 60.2399 96.0509 60.3035C96.0707 60.3671 96.0774 60.434 96.0708 60.5003C96.0642 60.5665 96.0443 60.6308 96.0124 60.6892C95.9804 60.7477 95.9371 60.7991 95.8849 60.8405C95.7887 60.9119 95.6691 60.9445 95.55 60.9318V60.9318Z" fill="#2D2D2D"/>
<path d="M219.441 120.198C216.122 120.46 212.784 120.276 209.514 119.65C203.16 118.635 199.902 114.879 199.74 107.551C199.577 100.222 197.466 90.6206 199.74 88.0831C202.013 85.5456 211.473 79.5266 211.92 82.46C212.366 85.3933 205.891 89.2503 205.566 91.1484C205.241 93.0464 207.687 94.5182 207.525 98.5883C207.525 98.5883 211.077 80.1864 219.4 78.2274C227.723 76.2685 228.535 80.6736 226.414 82.1352C224.293 83.5968 220.527 83.9317 219.4 85.7181C218.274 87.5045 217.462 94.5182 217.462 94.5182C217.462 94.5182 226.089 80.836 231.469 83.9317C236.848 87.0275 237 90.9352 234.392 90.448C231.783 89.9608 228.86 89.1894 227.226 91.5239C225.592 93.8584 223.318 97.6139 223.318 97.6139C223.318 97.6139 233.123 91.7472 236.036 93.2088C238.949 94.6704 241.568 99.2988 237.985 99.0248C234.402 98.7507 230.971 98.5883 229.347 100.375C227.723 102.161 227.226 105.917 225.927 109.824C224.628 113.732 224.14 120.147 219.441 120.198Z" fill="#2D2D2D"/>
<path d="M216.974 120.817C214.447 120.796 211.926 120.575 209.433 120.157C202.734 119.071 199.405 114.95 199.232 107.561C199.232 105.237 198.938 102.679 198.694 100.202C198.136 94.5284 197.679 89.6361 199.364 87.7482C201.394 85.5253 208.854 80.4909 211.463 81.2522C211.726 81.3167 211.963 81.4586 212.144 81.6595C212.325 81.8604 212.441 82.111 212.478 82.3788C212.813 84.4088 210.55 86.5302 208.55 88.4688C207.413 89.5549 206.236 90.6714 206.124 91.2804C206.112 92.0445 206.339 92.7934 206.774 93.422C207.17 94.1493 207.493 94.9144 207.738 95.7058C209.129 90.377 212.752 79.3237 219.339 77.7707C225.927 76.2178 227.459 78.5929 227.764 79.3541C227.996 79.9278 228.022 80.5644 227.837 81.1551C227.652 81.7457 227.267 82.2536 226.749 82.592C225.708 83.2364 224.584 83.7382 223.41 84.084C221.877 84.6321 220.425 85.099 219.867 86.0328C219.309 86.9666 218.649 90.0928 218.294 92.4781C220.933 88.7733 227.236 80.9274 231.763 83.5258C235.6 85.7385 237.041 88.4587 236.473 89.9913C236.311 90.3981 236.001 90.7288 235.606 90.917C235.211 91.1053 234.759 91.1372 234.341 91.0063L233.793 90.8947C231.448 90.4481 229.012 89.971 227.703 91.9097C226.8 93.219 225.673 94.9547 224.861 96.2742C227.906 94.6096 233.935 91.6559 236.331 92.8536C238.442 93.8686 240.695 96.7715 240.228 98.4666C240.086 98.9538 239.639 99.7353 238.005 99.6237C234.351 99.3395 231.215 99.238 229.784 100.811C228.769 101.948 228.19 104.039 227.53 106.455C227.216 107.622 226.891 108.83 226.465 110.078C226.221 110.829 225.998 111.682 225.764 112.575C224.81 116.209 223.633 120.695 219.492 120.797C218.654 120.849 217.813 120.856 216.974 120.817V120.817ZM210.813 82.1758C208.53 82.1758 202.115 86.2358 200.125 88.4282C198.715 89.9812 199.222 95.1272 199.699 100.101C199.943 102.598 200.197 105.176 200.247 107.531C200.41 114.453 203.373 118.147 209.595 119.152C212.816 119.759 216.102 119.94 219.37 119.69H219.431C222.821 119.69 223.805 115.874 224.76 112.23C225.003 111.316 225.226 110.454 225.49 109.662C225.896 108.444 226.221 107.246 226.505 106.099C227.196 103.552 227.794 101.359 228.992 100.009C230.728 98.1012 234.118 98.1925 238.036 98.4869C238.716 98.5478 239.112 98.4057 239.203 98.0809C239.477 97.0659 237.782 94.6197 235.833 93.6352C233.641 92.5288 226.262 96.4264 223.602 98.02C223.504 98.0757 223.391 98.0979 223.279 98.0832C223.167 98.0686 223.064 98.0179 222.983 97.9388C222.904 97.8582 222.854 97.7535 222.842 97.6414C222.829 97.5293 222.854 97.416 222.912 97.3196C222.912 97.3196 225.216 93.5337 226.83 91.2296C228.444 88.9256 231.418 89.3417 233.935 89.8289L234.483 89.9304C234.849 90.0015 235.316 90.0015 235.498 89.5955C235.833 88.6718 234.717 86.3678 231.235 84.3581C227.175 82.0134 220.233 91.0875 217.908 94.772C217.847 94.8689 217.755 94.9423 217.647 94.9801C217.538 95.018 217.421 95.0181 217.312 94.9804C217.204 94.9428 217.112 94.8696 217.05 94.7727C216.989 94.6759 216.962 94.5612 216.974 94.4472C216.974 94.1528 217.817 87.3422 219.004 85.4441C219.756 84.2464 221.369 83.678 223.064 83.0792C224.15 82.7534 225.19 82.2931 226.16 81.7089C226.493 81.5042 226.741 81.1862 226.859 80.8133C226.976 80.4404 226.955 80.0376 226.8 79.6789C226.272 78.4914 224.09 77.6489 219.542 78.6639C211.636 80.5214 208.083 98.4463 208.053 98.6188C208.026 98.7441 207.955 98.8554 207.852 98.932C207.749 99.0086 207.622 99.0452 207.494 99.035C207.367 99.0197 207.25 98.9568 207.167 98.8589C207.084 98.761 207.042 98.6353 207.048 98.5072C207.104 96.8509 206.684 95.2133 205.84 93.7874C205.289 92.9692 205.028 91.9901 205.099 91.0063C205.261 90.0725 206.388 88.9763 207.819 87.6365C209.545 85.9922 211.696 83.9622 211.453 82.4803C211.447 82.4037 211.416 82.3312 211.365 82.2742C211.313 82.2172 211.244 82.179 211.169 82.1657C211.05 82.153 210.931 82.1564 210.813 82.1758V82.1758Z" fill="#2D2D2D"/>
<path d="M31.3918 180.803V130.622C31.3918 130.622 59.4566 149.166 101.427 145.025V193.968C101.427 193.968 73.9406 202.321 31.3918 180.803Z" fill="white"/>
<path d="M86.7906 196.018C74.4888 196.018 55.1429 193.379 31.1584 181.26C31.0756 181.216 31.0064 181.15 30.9581 181.07C30.9099 180.989 30.8844 180.897 30.8844 180.803V130.622C30.881 130.529 30.9034 130.438 30.9491 130.357C30.9948 130.277 31.062 130.211 31.1432 130.167C31.2244 130.122 31.3163 130.102 31.4087 130.107C31.501 130.112 31.5901 130.143 31.6659 130.195C31.9501 130.378 60.0859 148.587 101.366 144.527C101.435 144.521 101.505 144.528 101.571 144.549C101.637 144.57 101.699 144.604 101.752 144.649C101.802 144.698 101.843 144.756 101.871 144.82C101.899 144.885 101.913 144.954 101.914 145.025V193.968C101.915 194.076 101.881 194.182 101.817 194.27C101.753 194.358 101.662 194.423 101.559 194.455C101.437 194.496 96.159 196.018 86.7906 196.018ZM31.8994 180.499C71.0073 200.18 97.5394 194.435 100.919 193.582V145.593C63.3644 149.105 36.7511 134.428 31.8994 131.525V180.499Z" fill="#2D2D2D"/>
<path d="M162.032 151.734V80.0138C162.032 80.0138 225.206 77.6387 251.352 51.9897V126.085C251.352 126.085 225.206 146.984 162.032 151.734Z" fill="#66CCBA"/>
<path d="M162.033 152.241C161.906 152.239 161.783 152.193 161.687 152.109C161.637 152.061 161.596 152.002 161.568 151.938C161.54 151.873 161.526 151.804 161.525 151.734V80.0138C161.525 79.8827 161.576 79.7566 161.666 79.662C161.757 79.5673 161.881 79.5116 162.012 79.5063C162.642 79.5063 225.287 76.8369 250.977 51.6243C251.048 51.5545 251.138 51.5076 251.235 51.4895C251.333 51.4714 251.434 51.483 251.525 51.5228C251.625 51.5588 251.711 51.6252 251.771 51.7126C251.831 51.7999 251.862 51.9039 251.86 52.01V126.105C251.86 126.181 251.843 126.257 251.81 126.325C251.776 126.394 251.728 126.454 251.667 126.501C251.403 126.714 224.699 147.552 162.093 152.262L162.033 152.241ZM162.54 80.501V151.186C221.654 146.638 248.338 127.688 250.845 125.811V53.1772C225.602 76.7252 168.427 80.1965 162.54 80.501Z" fill="#2D2D2D"/>
<path d="M131.248 236.74V191.441C131.248 191.441 174.781 191.116 205.87 167.801V214.41C205.87 214.41 177.42 238.07 131.248 236.74Z" fill="#66CCBA"/>
<path d="M134.861 237.339C133.663 237.339 132.465 237.339 131.237 237.339C131.105 237.334 130.98 237.278 130.888 237.184C130.795 237.09 130.742 236.963 130.74 236.831V191.441C130.743 191.307 130.797 191.179 130.892 191.085C130.986 190.99 131.114 190.936 131.247 190.933C131.684 190.933 174.974 190.344 205.566 167.395C205.642 167.342 205.731 167.311 205.824 167.304C205.916 167.298 206.009 167.316 206.092 167.358C206.175 167.399 206.245 167.462 206.296 167.54C206.346 167.618 206.374 167.708 206.378 167.801V214.41C206.377 214.485 206.36 214.559 206.328 214.627C206.297 214.695 206.251 214.756 206.195 214.806C205.911 215.06 178.577 237.339 134.861 237.339ZM131.755 236.324C175.004 237.4 202.805 216.217 205.363 214.227V168.857C176.364 190.091 136.678 191.847 131.755 191.978V236.324Z" fill="#2D2D2D"/>
</g>
<defs>
<clipPath id="clip0_810_1590">
<rect width="252" height="238" fill="white"/>
</clipPath>
</defs>
</svg>
