<svg width="316" height="218" viewBox="0 0 316 218" fill="none" xmlns="http://www.w3.org/2000/svg">
<g clip-path="url(#clip0_830_1821)">
<path d="M157.442 217.711C193.599 217.711 222.909 216.466 222.909 214.93C222.909 213.394 193.599 212.149 157.442 212.149C121.285 212.149 91.9744 213.394 91.9744 214.93C91.9744 216.466 121.285 217.711 157.442 217.711Z" fill="#E6EBDE"/>
<path d="M173.692 78.0675C173.584 77.8429 173.562 77.5864 173.631 77.3469L201.797 9.758C201.868 9.58545 202.01 9.62606 202.122 9.85951C225.396 59.7569 291.98 5.74875 315.254 55.6462C315.358 55.8755 315.379 56.1336 315.315 56.377L287.149 123.966C287.078 124.138 286.925 124.088 286.824 123.864C263.56 73.9669 196.966 127.965 173.692 78.0675Z" fill="white"/>
<path d="M315.122 55.961L286.956 123.55C263.672 73.6524 197.098 127.661 173.824 77.7632L201.99 10.1743C225.264 60.0616 291.848 6.11432 315.122 55.961Z" fill="#1F2223"/>
<path d="M205.492 33.499C202.079 29.9825 199.304 25.8988 197.291 21.4307L201.99 10.1743C203.998 14.6395 206.77 18.7201 210.181 22.2325L205.492 33.499Z" fill="#FF7747"/>
<path d="M211.074 51.8299C207.235 50.1215 203.748 47.7119 200.792 44.7249L205.492 33.4685C208.446 36.4527 211.929 38.862 215.764 40.5735L211.074 51.8299Z" fill="#FF7747"/>
<path d="M227.599 43.9026C223.52 43.3312 219.539 42.2078 215.764 40.5632L220.463 29.3069C224.236 30.9467 228.214 32.0667 232.288 32.6361L227.599 43.9026Z" fill="#FF7747"/>
<path d="M235.78 56.0014C231.473 56.058 227.168 55.7968 222.899 55.2199L227.599 43.9534C231.862 44.5473 236.164 44.8255 240.469 44.7857L235.78 56.0014Z" fill="#FF7747"/>
<path d="M253.857 44.329C249.37 44.532 244.874 44.7451 240.469 44.735L245.168 33.4787C249.573 33.4787 254.06 33.2756 258.556 33.0625L253.857 44.329Z" fill="#FF7747"/>
<path d="M262.545 55.2199C258.14 55.2199 253.654 55.4229 249.157 55.6259L253.847 44.3594C258.343 44.1564 262.839 43.9534 267.245 43.9534L262.545 55.2199Z" fill="#FF7747"/>
<path d="M280.125 44.7655C275.862 44.1634 271.56 43.8818 267.255 43.923L271.944 32.6565C276.269 32.6128 280.592 32.8944 284.875 33.499L280.125 44.7655Z" fill="#FF7747"/>
<path d="M287.26 59.3611C283.485 57.7165 279.503 56.5931 275.425 56.0217L280.125 44.7654C284.211 45.3346 288.2 46.4616 291.98 48.1149L287.26 59.3611Z" fill="#FF7747"/>
<path d="M302.231 55.2199C299.285 52.2352 295.809 49.8257 291.98 48.1149L296.669 36.8484C300.505 38.5629 303.991 40.9717 306.951 43.9534L302.231 55.2199Z" fill="#FF7747"/>
<path d="M305.733 78.4939C303.73 74.0231 300.954 69.9411 297.532 66.4357L302.231 55.22C305.647 58.7287 308.419 62.8101 310.422 67.2782L305.733 78.4939Z" fill="#FF7747"/>
<path d="M196.103 56.0217C192.688 52.5109 189.912 48.4301 187.902 43.9635L192.601 32.697C194.604 37.1651 197.377 41.2465 200.792 44.7552L196.103 56.0217Z" fill="#FF7747"/>
<path d="M201.645 74.3627C197.812 72.6479 194.33 70.2391 191.373 67.2577L196.073 55.9912C199.025 58.978 202.508 61.3876 206.345 63.0962L201.645 74.3627Z" fill="#FF7747"/>
<path d="M218.21 66.385C214.131 65.8219 210.149 64.7017 206.375 63.0558L211.074 51.7893C214.842 53.4652 218.82 54.6194 222.899 55.22L218.21 66.385Z" fill="#FF7747"/>
<path d="M226.38 78.565C222.075 78.6062 217.773 78.3246 213.51 77.7226L218.21 66.4561C222.473 67.0584 226.775 67.34 231.08 67.2985L226.38 78.565Z" fill="#FF7747"/>
<path d="M244.468 66.862C239.982 67.065 235.485 67.268 231.08 67.268L235.78 56.0015C240.185 56.0015 244.671 55.7985 249.167 55.5955L244.468 66.862Z" fill="#FF7747"/>
<path d="M253.166 77.7224C248.761 77.7224 244.265 77.9254 239.779 78.1284L244.468 66.8619C248.964 66.6589 253.461 66.4458 257.866 66.4559L253.166 77.7224Z" fill="#FF7747"/>
<path d="M270.736 67.2881C266.472 66.6946 262.171 66.4164 257.866 66.4558L262.545 55.2198C266.85 55.18 271.152 55.4582 275.415 56.0521L270.736 67.2881Z" fill="#FF7747"/>
<path d="M277.872 81.894C274.097 80.2484 270.115 79.1282 266.037 78.5648L270.736 67.2983C274.814 67.8711 278.795 68.9944 282.571 70.6377L277.872 81.894Z" fill="#FF7747"/>
<path d="M292.843 77.6921C289.889 74.7078 286.406 72.2986 282.571 70.5871L287.26 59.3206C291.097 61.0292 294.58 63.4388 297.532 66.4256L292.843 77.6921Z" fill="#FF7747"/>
<path d="M296.344 101.017C294.329 96.5529 291.554 92.4729 288.143 88.9584L292.843 77.6919C296.253 81.1972 299.025 85.271 301.034 89.7298L296.344 101.017Z" fill="#FF7747"/>
<path d="M186.714 78.565C183.301 75.0523 180.526 70.9719 178.513 66.5068L183.213 55.22C185.216 59.688 187.988 63.7695 191.404 67.2782L186.714 78.565Z" fill="#FF7747"/>
<path d="M192.287 96.8959C188.454 95.1811 184.972 92.7723 182.015 89.7909L186.714 78.5244C189.669 81.5079 193.152 83.9171 196.986 85.6294L192.287 96.8959Z" fill="#FF7747"/>
<path d="M208.821 88.9584C204.745 88.4034 200.764 87.2971 196.986 85.6698L201.675 74.4033C205.45 76.0479 209.432 77.168 213.51 77.7325L208.821 88.9584Z" fill="#FF7747"/>
<path d="M216.992 101.067C212.687 101.104 208.385 100.822 204.122 100.225L208.821 88.9585C213.084 89.5609 217.386 89.8425 221.691 89.8009L216.992 101.067Z" fill="#FF7747"/>
<path d="M235.079 89.3949C230.593 89.5979 226.097 89.8009 221.691 89.8009L226.381 78.5344C230.796 78.5344 235.282 78.3314 239.779 78.1284L235.079 89.3949Z" fill="#FF7747"/>
<path d="M243.778 100.245C239.373 100.245 234.876 100.448 230.39 100.651L235.079 89.3949C239.576 89.1818 244.072 88.9788 248.477 88.9788L243.778 100.245Z" fill="#FF7747"/>
<path d="M261.347 89.8213C257.084 89.2243 252.782 88.9427 248.477 88.9788L253.166 77.7225C257.471 77.6827 261.773 77.9609 266.037 78.5548L261.347 89.8213Z" fill="#FF7747"/>
<path d="M268.483 104.417C264.707 102.776 260.726 101.656 256.648 101.088L261.347 89.8213C265.425 90.3906 269.406 91.5106 273.182 93.1505L268.483 104.417Z" fill="#FF7747"/>
<path d="M283.454 100.225C280.497 97.2438 277.015 94.8349 273.182 93.1201L277.871 81.8638C281.706 83.5753 285.189 85.9845 288.143 88.9688L283.454 100.225Z" fill="#FF7747"/>
<path d="M286.956 123.55C284.952 119.087 282.187 115.007 278.785 111.492L283.485 100.225C286.895 103.738 289.667 107.818 291.676 112.283L286.956 123.55Z" fill="#FF7747"/>
<path d="M204.152 4.35816C204.152 4.7773 204.066 5.19196 203.898 5.57617L202.112 9.84931L173.641 77.9254L166.76 94.3887L147.353 140.794L117.177 212.961C117.039 213.377 116.816 213.761 116.523 214.087C116.23 214.414 115.873 214.676 115.474 214.858C115.075 215.04 114.642 215.138 114.204 215.145C113.765 215.152 113.33 215.069 112.925 214.9C112.52 214.731 112.154 214.481 111.851 214.164C111.547 213.847 111.312 213.471 111.161 213.06C111.009 212.648 110.944 212.21 110.97 211.772C110.996 211.334 111.111 210.906 111.31 210.515L143.628 133.233L163.146 86.5427L198.032 3.11986C198.329 2.4626 198.84 1.92559 199.482 1.59662C200.124 1.26764 200.859 1.16615 201.566 1.30875C202.273 1.45135 202.911 1.82959 203.375 2.38165C203.839 2.93372 204.102 3.62694 204.122 4.34802L204.152 4.35816Z" fill="white"/>
<path d="M200.965 1.16102C201.384 1.16087 201.799 1.24726 202.183 1.41477C202.765 1.65679 203.262 2.06529 203.612 2.58898C203.963 3.11267 204.15 3.7282 204.152 4.35826C204.152 4.7774 204.066 5.19206 203.898 5.57626L202.112 9.84941L173.641 77.9255L166.76 94.3888L147.353 140.795L117.177 212.961C116.938 213.544 116.53 214.042 116.005 214.391C115.48 214.74 114.863 214.925 114.233 214.92C113.711 214.916 113.198 214.785 112.739 214.536C112.28 214.288 111.888 213.93 111.6 213.495C111.311 213.06 111.134 212.561 111.083 212.041C111.033 211.522 111.111 210.997 111.31 210.515L143.628 133.233L163.146 86.5428L198.032 3.11996C198.273 2.53744 198.681 2.03945 199.205 1.68895C199.729 1.33845 200.345 1.1512 200.975 1.15086L200.965 1.16102ZM200.975 0.227214C200.162 0.219918 199.366 0.456925 198.689 0.907537C198.012 1.35815 197.486 2.00161 197.179 2.75457L162.294 86.1876L142.765 132.878L110.458 210.16C110.042 211.167 110.042 212.297 110.457 213.305C110.871 214.312 111.667 215.115 112.67 215.539C113.168 215.748 113.703 215.855 114.243 215.854C115.058 215.863 115.857 215.627 116.536 215.176C117.215 214.726 117.742 214.081 118.05 213.326L148.226 141.16L167.622 94.8049L174.504 78.3416C174.504 78.3416 174.504 78.3416 174.504 78.2706L202.924 10.2656L204.721 5.99241C204.995 5.36824 205.108 4.68496 205.049 4.00563C204.99 3.32629 204.761 2.67278 204.382 2.1054C204.004 1.53802 203.489 1.07505 202.885 0.759216C202.28 0.443381 201.606 0.284854 200.924 0.298264L200.975 0.227214Z" fill="#1F2223"/>
<path d="M154.498 123.732L159.299 112.253C158.234 110.598 157.208 108.913 156.254 107.178C156.145 107.077 156.043 106.968 155.95 106.853C155.656 106.498 155.381 106.122 155.107 105.757L151.91 113.349C152.925 116.78 153.768 120.241 154.498 123.732Z" fill="#E6EBDE"/>
<path d="M142.308 78.0675C142.416 77.8429 142.438 77.5864 142.369 77.3469L114.203 9.758C114.132 9.58545 113.99 9.62606 113.878 9.85951C90.604 59.7569 24.02 5.74875 0.746087 55.6462C0.642492 55.8755 0.620986 56.1336 0.685186 56.377L28.8514 123.966C28.9225 124.138 29.0747 124.088 29.1762 123.864C52.44 73.9669 119.034 127.965 142.308 78.0675Z" fill="white"/>
<path d="M0.87793 55.961C24.1519 6.06357 90.7359 60.021 114.01 10.1743L142.176 77.7632C118.902 127.661 52.3283 73.7032 29.0442 123.55L0.87793 55.961Z" fill="#1F2223"/>
<path d="M110.508 33.499C113.921 29.9825 116.696 25.8988 118.709 21.4307L114.01 10.1743C112.002 14.6395 109.23 18.7201 105.819 22.2325L110.508 33.499Z" fill="#FF7747"/>
<path d="M104.926 51.8299C108.765 50.1216 112.252 47.712 115.208 44.7249L110.508 33.499C107.554 36.4833 104.071 38.8925 100.236 40.604L104.926 51.8299Z" fill="#FF7747"/>
<path d="M88.4015 43.9026C92.4796 43.3312 96.461 42.2078 100.236 40.5632L95.5369 29.3069C91.7642 30.9467 87.7863 32.0667 83.7122 32.6361L88.4015 43.9026Z" fill="#FF7747"/>
<path d="M80.2206 56.0014C84.5274 56.058 88.8325 55.7968 93.1009 55.2199L88.4014 43.9534C84.1377 44.5473 79.836 44.8255 75.5312 44.7857L80.2206 56.0014Z" fill="#FF7747"/>
<path d="M62.1435 44.329C66.6298 44.532 71.1263 44.7451 75.5314 44.735L70.8319 33.4787C66.4268 33.4787 61.9405 33.2756 57.4441 33.0625L62.1435 44.329Z" fill="#FF7747"/>
<path d="M53.4551 55.2199C57.8602 55.2199 62.3465 55.4229 66.8429 55.6259L62.1536 44.3594C57.6572 44.1564 53.1607 43.9534 48.7556 43.9534L53.4551 55.2199Z" fill="#FF7747"/>
<path d="M35.8752 44.7655C40.1382 44.1634 44.4403 43.8818 48.7454 43.923L44.0561 32.6565C39.7477 32.6153 35.4422 32.8969 31.1758 33.499L35.8752 44.7655Z" fill="#FF7747"/>
<path d="M28.7398 59.3611C32.5151 57.7165 36.4965 56.5931 40.5747 56.0217L35.8752 44.7654C31.7889 45.3346 27.8 46.4616 24.02 48.1149L28.7398 59.3611Z" fill="#FF7747"/>
<path d="M13.7685 55.2199C16.7146 52.2352 20.1911 49.8257 24.02 48.1149L19.351 36.8281C15.5152 38.5427 12.0293 40.9515 9.06909 43.9331L13.7685 55.2199Z" fill="#FF7747"/>
<path d="M10.2667 78.4939C12.2694 74.0231 15.0457 69.9411 18.4679 66.4357L13.7684 55.22C10.353 58.7287 7.58055 62.8101 5.57739 67.2782L10.2667 78.4939Z" fill="#FF7747"/>
<path d="M119.897 56.0217C123.312 52.5109 126.088 48.4301 128.098 43.9635L123.399 32.697C121.395 37.1651 118.623 41.2465 115.208 44.7552L119.897 56.0217Z" fill="#FF7747"/>
<path d="M114.355 74.3627C118.188 72.6479 121.67 70.2391 124.627 67.2577L119.927 55.9912C116.975 58.978 113.492 61.3876 109.656 63.0962L114.355 74.3627Z" fill="#FF7747"/>
<path d="M97.7901 66.385C101.869 65.8219 105.851 64.7017 109.625 63.0558L104.926 51.7893C101.158 53.4652 97.1801 54.6194 93.1008 55.22L97.7901 66.385Z" fill="#FF7747"/>
<path d="M89.6194 78.565C93.9245 78.6062 98.2266 78.3246 102.49 77.7226L97.7901 66.385C93.5272 66.9874 89.225 67.269 84.9199 67.2275L89.6194 78.565Z" fill="#FF7747"/>
<path d="M71.5322 66.862C76.0185 67.065 80.515 67.268 84.9201 67.268L80.2206 56.0015C75.8155 56.0015 71.3292 55.7985 66.8328 55.5955L71.5322 66.862Z" fill="#FF7747"/>
<path d="M62.8337 77.7224C67.2388 77.7224 71.7353 77.9254 76.2216 78.1284L71.5323 66.8619C67.0358 66.6589 62.5394 66.4458 58.1343 66.4559L62.8337 77.7224Z" fill="#FF7747"/>
<path d="M45.2641 67.2881C49.5279 66.6946 53.8296 66.4164 58.1343 66.4558L53.4552 55.2198C49.1505 55.18 44.8487 55.4582 40.585 56.0521L45.2641 67.2881Z" fill="#FF7747"/>
<path d="M38.1287 81.894C41.9028 80.2484 45.8849 79.1282 49.9636 78.5648L45.2641 67.2983C41.1863 67.8711 37.205 68.9944 33.4292 70.6377L38.1287 81.894Z" fill="#FF7747"/>
<path d="M23.1573 77.6921C26.1115 74.7078 29.5946 72.2986 33.4291 70.5871L28.7398 59.3206C24.9037 61.0292 21.4201 63.4388 18.468 66.4256L23.1573 77.6921Z" fill="#FF7747"/>
<path d="M19.6556 101.017C21.6709 96.5529 24.4459 92.4729 27.8568 88.9584L23.1574 77.6919C19.7472 81.1972 16.9752 85.271 14.9663 89.7298L19.6556 101.017Z" fill="#FF7747"/>
<path d="M129.286 78.565C132.699 75.0523 135.474 70.9719 137.487 66.5068L132.787 55.22C130.784 59.688 128.012 63.7695 124.596 67.2782L129.286 78.565Z" fill="#FF7747"/>
<path d="M123.713 96.8958C127.546 95.181 131.029 92.7722 133.985 89.7908L129.286 78.5649C126.331 81.5484 122.848 83.9576 119.014 85.6699L123.713 96.8958Z" fill="#FF7747"/>
<path d="M107.179 88.9585C111.255 88.4035 115.236 87.2972 119.014 85.6699L114.355 74.3628C110.58 76.0073 106.598 77.1275 102.52 77.692L107.179 88.9585Z" fill="#FF7747"/>
<path d="M99.0083 101.067C103.313 101.104 107.615 100.822 111.878 100.225L107.179 88.9585C102.916 89.5609 98.6139 89.8425 94.3088 89.8009L99.0083 101.067Z" fill="#FF7747"/>
<path d="M80.9209 89.395C85.4072 89.598 89.9036 89.801 94.3087 89.801L89.6194 78.5649C85.2042 78.5649 80.7179 78.3619 76.2214 78.1589L80.9209 89.395Z" fill="#FF7747"/>
<path d="M72.2224 100.245C76.6275 100.245 81.1239 100.448 85.6102 100.651L80.9209 89.3949C76.4245 89.1818 71.928 88.9788 67.5229 88.9788L72.2224 100.245Z" fill="#FF7747"/>
<path d="M54.6527 89.8213C58.9162 89.2243 63.2179 88.9427 67.5229 88.9788L62.8336 77.7225C58.5289 77.6827 54.2271 77.9609 49.9634 78.5548L54.6527 89.8213Z" fill="#FF7747"/>
<path d="M47.5173 104.417C51.2931 102.776 55.2746 101.656 59.3522 101.088L54.6528 89.8213C50.5754 90.3906 46.5941 91.5106 42.8179 93.1505L47.5173 104.417Z" fill="#FF7747"/>
<path d="M32.546 100.225C35.5026 97.2436 38.9851 94.8348 42.8178 93.1199L38.1285 81.894C34.294 83.6056 30.8109 86.0148 27.8567 88.999L32.546 100.225Z" fill="#FF7747"/>
<path d="M29.095 123.55C31.0832 119.091 33.8307 115.011 37.215 111.492L32.5155 100.225C29.1047 103.738 26.3327 107.818 24.3245 112.283L29.095 123.55Z" fill="#FF7747"/>
<path d="M202.985 214.686C203.762 214.357 204.378 213.734 204.697 212.952C205.017 212.171 205.014 211.294 204.69 210.515L117.979 3.11986C117.647 2.34423 117.023 1.73089 116.242 1.41341C115.461 1.09592 114.585 1.10002 113.807 1.42481C113.028 1.7522 112.41 2.37485 112.088 3.1566C111.767 3.93835 111.768 4.81559 112.092 5.59646L198.813 212.991C199.145 213.767 199.769 214.38 200.55 214.698C201.331 215.015 202.207 215.011 202.985 214.686Z" fill="white"/>
<path d="M115.035 1.16112C115.664 1.16062 116.28 1.34637 116.803 1.69498C117.327 2.04359 117.736 2.53944 117.979 3.12006L204.69 210.515C205.014 211.296 205.015 212.173 204.693 212.955C204.372 213.737 203.754 214.359 202.975 214.687C202.585 214.845 202.168 214.928 201.747 214.93C201.117 214.931 200.502 214.745 199.978 214.396C199.454 214.048 199.045 213.552 198.803 212.971L112.092 5.57637C111.774 4.79785 111.776 3.9257 112.097 3.14873C112.418 2.37176 113.033 1.7525 113.807 1.42502C114.197 1.2664 114.614 1.18371 115.035 1.18141V1.16112ZM115.035 0.257765C114.492 0.255599 113.953 0.362599 113.452 0.572416C112.445 0.993862 111.646 1.79665 111.229 2.80542C111.019 3.3035 110.912 3.83837 110.912 4.37867C110.912 4.91897 111.019 5.45383 111.229 5.95192L197.95 213.347C198.257 214.1 198.783 214.743 199.46 215.194C200.137 215.645 200.933 215.882 201.747 215.874C202.29 215.876 202.829 215.769 203.33 215.56C204.337 215.138 205.136 214.335 205.553 213.327C205.762 212.828 205.87 212.294 205.87 211.753C205.87 211.213 205.762 210.678 205.553 210.18L118.831 2.76482C118.524 2.01186 117.998 1.3684 117.322 0.917787C116.645 0.467175 115.848 0.230171 115.035 0.237468V0.257765Z" fill="#1F2223"/>
<path d="M142.308 78.565C142.2 78.5667 142.094 78.5299 142.011 78.4611C141.927 78.3923 141.871 78.296 141.851 78.1894C141.851 78.0676 141.385 75.2967 147.038 72.9622L149.687 69.5112C149.762 69.4136 149.872 69.3493 149.993 69.3322C150.115 69.3151 150.238 69.3466 150.337 69.4198C150.385 69.4566 150.426 69.5028 150.457 69.5557C150.487 69.6085 150.507 69.6669 150.515 69.7275C150.522 69.788 150.517 69.8495 150.501 69.9082C150.484 69.9669 150.456 70.0218 150.418 70.0694L147.688 73.6219C147.641 73.6914 147.573 73.7445 147.495 73.7742C142.511 75.8042 142.765 78.0067 142.765 78.027C142.775 78.0871 142.773 78.1486 142.759 78.2078C142.745 78.2671 142.719 78.323 142.683 78.3722C142.647 78.4213 142.602 78.4628 142.55 78.4942C142.497 78.5256 142.44 78.5462 142.379 78.5548L142.308 78.565Z" fill="#1F2223"/>
<path d="M113.878 10.3264C113.775 10.3222 113.676 10.2868 113.594 10.2249C113.498 10.1489 113.436 10.0382 113.42 9.91671C113.405 9.7952 113.438 9.67259 113.513 9.57529C114.527 8.27387 115.962 7.36596 117.573 7.00734C118.392 6.90384 119.223 7.08285 119.927 7.51484L121.247 4.46984C121.296 4.35733 121.388 4.26868 121.501 4.22309C121.615 4.1775 121.743 4.17863 121.856 4.22624C121.912 4.25043 121.962 4.28548 122.004 4.32935C122.046 4.37321 122.079 4.42502 122.101 4.48172C122.122 4.53843 122.133 4.5989 122.131 4.6596C122.129 4.72031 122.115 4.78002 122.089 4.83524L120.547 8.35729C120.521 8.42251 120.48 8.48055 120.427 8.52648C120.374 8.57242 120.31 8.60491 120.242 8.62119C120.173 8.64059 120.1 8.64335 120.029 8.62924C119.959 8.61513 119.893 8.58455 119.836 8.53999C119.541 8.29006 119.198 8.10343 118.828 7.99168C118.458 7.87994 118.068 7.84546 117.684 7.89039C116.331 8.22972 115.128 9.00781 114.264 10.1031C114.223 10.1689 114.166 10.2236 114.099 10.2626C114.031 10.3015 113.956 10.3234 113.878 10.3264Z" fill="#1F2223"/>
<path d="M147.322 73.7742C147.213 73.7669 147.11 73.7213 147.031 73.6456C146.951 73.5699 146.901 73.4687 146.889 73.3599C146.877 73.251 146.904 73.1414 146.964 73.0501C147.025 72.9589 147.116 72.8918 147.221 72.8607L151.829 71.8457C151.942 71.8354 152.054 71.8665 152.146 71.9333C152.238 72 152.302 72.0977 152.327 72.2083C152.351 72.3188 152.335 72.4347 152.281 72.5342C152.227 72.6336 152.138 72.71 152.032 72.749L147.424 73.764L147.322 73.7742Z" fill="#1F2223"/>
<path d="M124.596 8.68209H120.11C119.986 8.68209 119.868 8.6329 119.78 8.54534C119.692 8.45778 119.643 8.33902 119.643 8.21519C119.643 8.09136 119.692 7.9726 119.78 7.88504C119.868 7.79748 119.986 7.74829 120.11 7.74829H124.596C124.72 7.74829 124.839 7.79748 124.927 7.88504C125.014 7.9726 125.063 8.09136 125.063 8.21519C125.063 8.33902 125.014 8.45778 124.927 8.54534C124.839 8.6329 124.72 8.68209 124.596 8.68209Z" fill="#1F2223"/>
<path d="M173.641 78.4025C173.538 78.401 173.438 78.3653 173.357 78.301C173.277 78.2368 173.219 78.1475 173.195 78.0472C172.917 76.9978 172.241 76.098 171.31 75.5389C170.38 74.9799 169.268 74.8055 168.211 75.053C168.146 75.0606 168.08 75.0546 168.017 75.0353C167.954 75.0161 167.896 74.9841 167.846 74.9413L165.105 72.6474C165.012 72.5668 164.953 72.4529 164.941 72.3299C164.93 72.2068 164.967 72.0841 165.044 71.9877C165.131 71.9033 165.248 71.8562 165.369 71.8562C165.49 71.8562 165.607 71.9033 165.694 71.9877L168.302 74.1496C169.563 73.9368 170.857 74.2017 171.933 74.8924C173.008 75.5832 173.788 76.6502 174.118 77.8848C174.143 78.0044 174.121 78.1289 174.057 78.2327C173.993 78.3366 173.891 78.4119 173.773 78.4431L173.641 78.4025Z" fill="#1F2223"/>
<path d="M165.379 75.5807C165.265 75.5772 165.156 75.5319 165.073 75.4534C164.99 75.375 164.939 75.2688 164.929 75.155C164.919 75.0412 164.951 74.9276 165.019 74.8359C165.087 74.7441 165.186 74.6805 165.298 74.6571L168.059 74.1293C168.179 74.1112 168.302 74.1401 168.402 74.2099C168.503 74.2798 168.572 74.3853 168.597 74.5048C168.608 74.5642 168.608 74.6253 168.596 74.6846C168.584 74.7439 168.56 74.8002 168.526 74.8502C168.492 74.9003 168.449 74.9431 168.398 74.9761C168.348 75.0092 168.291 75.0318 168.231 75.0428L165.47 75.5706L165.379 75.5807Z" fill="#1F2223"/>
<path d="M202.112 10.3163C202.042 10.3154 201.974 10.2995 201.91 10.2697C201.847 10.24 201.792 10.197 201.747 10.1438C201.686 10.0524 200.102 8.19498 195.941 8.67203C195.852 8.70558 195.755 8.70558 195.667 8.67203L191.18 6.20558C191.088 6.13884 191.023 6.04068 190.998 5.92956C190.973 5.81844 190.99 5.70203 191.045 5.60224C191.1 5.50245 191.189 5.42617 191.296 5.38774C191.404 5.34931 191.521 5.35138 191.627 5.39358L195.991 7.78898C200.579 7.30178 202.396 9.51448 202.477 9.61598C202.553 9.71203 202.588 9.83384 202.574 9.95528C202.561 10.0767 202.501 10.1881 202.406 10.2656C202.316 10.3143 202.213 10.3321 202.112 10.3163Z" fill="#1F2223"/>
<path d="M191.404 9.67695C191.298 9.67871 191.195 9.64296 191.114 9.57606C191.032 9.50916 190.976 9.41544 190.957 9.31155C190.944 9.25289 190.942 9.19215 190.952 9.1328C190.962 9.07346 190.984 9.01669 191.016 8.96575C191.048 8.91482 191.09 8.87072 191.139 8.836C191.188 8.80129 191.244 8.77663 191.302 8.76345L195.789 7.74845C195.91 7.72153 196.037 7.74383 196.141 7.81046C196.246 7.87708 196.32 7.98256 196.347 8.1037C196.374 8.22484 196.351 8.35171 196.285 8.4564C196.218 8.56109 196.113 8.63503 195.992 8.66195L191.505 9.67695H191.404Z" fill="#1F2223"/>
</g>
<defs>
<clipPath id="clip0_830_1821">
<rect width="316" height="218" fill="white"/>
</clipPath>
</defs>
</svg>
