<svg width="960" height="642" viewBox="0 0 960 642" fill="none" xmlns="http://www.w3.org/2000/svg">
<rect width="960" height="642" fill="#C5E6BA"/>
<path d="M693.232 149.566C693.232 149.566 688.797 141.383 681.761 130.083C681.761 130.083 659.162 146.966 659.334 146.029C659.506 145.092 693.232 149.566 693.232 149.566Z" fill="#1F2223"/>
<path d="M693.232 150.522H693.098C681.206 148.935 661.8 146.583 659.678 146.87C659.123 147.099 658.951 146.985 658.76 146.87C658.595 146.759 658.466 146.602 658.388 146.419C658.31 146.236 658.286 146.034 658.32 145.838C658.32 145.57 658.435 145.302 659.066 145.149C660.366 144.633 673.291 135.169 681.11 129.319C681.216 129.239 681.336 129.183 681.465 129.153C681.593 129.123 681.727 129.121 681.856 129.146C681.985 129.168 682.108 129.216 682.217 129.289C682.326 129.361 682.418 129.456 682.487 129.567C689.542 140.771 693.959 149.03 694.073 149.107C694.153 149.253 694.193 149.417 694.19 149.583C694.188 149.749 694.141 149.912 694.056 150.054C693.971 150.197 693.851 150.315 693.706 150.397C693.562 150.479 693.398 150.522 693.232 150.522V150.522ZM662.641 145.092C666.809 145.321 675.05 146.22 691.416 148.38C689.829 145.532 686.254 139.28 681.359 131.479C671.149 139.127 665.7 143.084 662.699 145.092H662.641Z" fill="#1F2223"/>
<path d="M393.787 490.557L382.507 471.743L398.127 457.634L393.787 490.557Z" fill="#1F2223"/>
<path d="M393.787 491.513C393.623 491.51 393.462 491.467 393.319 491.387C393.175 491.307 393.054 491.192 392.965 491.054L381.685 472.241C381.572 472.049 381.529 471.824 381.564 471.604C381.598 471.384 381.709 471.183 381.876 471.036L397.477 456.926C397.623 456.794 397.806 456.711 398.001 456.687C398.196 456.663 398.394 456.7 398.567 456.792C398.738 456.886 398.877 457.03 398.966 457.203C399.054 457.377 399.089 457.574 399.064 457.767L394.743 490.633C394.719 490.833 394.632 491.021 394.494 491.168C394.357 491.316 394.177 491.416 393.979 491.455L393.787 491.513ZM383.731 471.935L393.29 487.708L396.923 460.081L383.731 471.935Z" fill="#1F2223"/>
<path d="M401.11 494.457L582.742 520.325C586.468 520.818 590.247 519.967 593.401 517.924C596.555 515.881 598.877 512.78 599.95 509.179L693.94 157.577C695.852 150.292 691.206 143.887 683.501 143.256L498.293 128.324C494.632 128.144 491.016 129.2 488.027 131.322C485.039 133.444 482.85 136.509 481.812 140.025L391.627 480.003C391.159 481.581 391.041 483.241 391.28 484.87C391.52 486.498 392.112 488.054 393.015 489.43C393.917 490.806 395.109 491.969 396.508 492.837C397.906 493.705 399.476 494.258 401.11 494.457V494.457Z" fill="#1F2223"/>
<path d="M584.75 521.492C584.015 521.488 583.28 521.437 582.551 521.339L400.919 495.451C399.162 495.235 397.473 494.644 395.965 493.717C394.458 492.79 393.167 491.549 392.182 490.079C391.202 488.568 390.557 486.865 390.29 485.084C390.022 483.304 390.14 481.486 390.633 479.754L480.818 139.834C481.921 136.1 484.244 132.843 487.415 130.583C490.586 128.324 494.423 127.192 498.312 127.369L683.52 142.301C685.397 142.412 687.227 142.936 688.879 143.835C690.532 144.734 691.966 145.986 693.08 147.501C694.104 148.991 694.783 150.691 695.068 152.477C695.352 154.264 695.235 156.091 694.724 157.825L600.734 509.427C599.711 512.884 597.607 515.921 594.73 518.093C591.852 520.264 588.355 521.456 584.75 521.492V521.492ZM401.206 493.559L582.838 519.446C586.34 519.913 589.894 519.117 592.862 517.2C595.83 515.284 598.017 512.372 599.032 508.988L692.946 157.405C693.389 155.94 693.497 154.394 693.262 152.881C693.027 151.369 692.455 149.929 691.588 148.667C690.631 147.369 689.397 146.3 687.975 145.54C686.552 144.779 684.978 144.345 683.367 144.27L498.159 129.28C494.717 129.1 491.314 130.087 488.503 132.082C485.692 134.078 483.638 136.964 482.673 140.274L392.545 480.252C392.118 481.721 392.011 483.265 392.232 484.779C392.453 486.293 392.997 487.741 393.826 489.027C394.668 490.268 395.765 491.314 397.045 492.095C398.324 492.877 399.756 493.376 401.244 493.559H401.206Z" fill="#1F2223"/>
<path d="M389.294 475.108L570.927 500.977C574.651 501.462 578.426 500.607 581.579 498.565C584.731 496.523 587.054 493.427 588.134 489.83L682.105 138.228C684.017 130.944 679.371 124.539 671.666 123.908L486.42 108.976C482.757 108.798 479.14 109.855 476.149 111.976C473.158 114.098 470.964 117.161 469.92 120.677L379.792 460.597C379.314 462.18 379.189 463.848 379.425 465.484C379.661 467.121 380.253 468.686 381.159 470.069C382.064 471.452 383.262 472.62 384.668 473.491C386.073 474.362 387.653 474.914 389.294 475.108V475.108Z" fill="white"/>
<path d="M572.934 502.105C572.199 502.101 571.464 502.05 570.735 501.952L389.103 476.064C387.346 475.848 385.657 475.257 384.149 474.33C382.641 473.403 381.351 472.162 380.365 470.692C379.384 469.182 378.739 467.479 378.471 465.698C378.204 463.917 378.322 462.099 378.817 460.368L469.021 120.447C470.125 116.717 472.449 113.464 475.621 111.211C478.793 108.958 482.629 107.834 486.515 108.02L671.685 122.952C673.578 123.051 675.426 123.569 677.096 124.468C678.765 125.368 680.215 126.626 681.34 128.152C682.359 129.645 683.036 131.345 683.32 133.13C683.604 134.915 683.49 136.741 682.984 138.477L588.994 490.079C587.961 493.541 585.842 496.578 582.95 498.744C580.058 500.909 576.547 502.088 572.934 502.105ZM485.311 109.893C482.058 109.984 478.916 111.099 476.334 113.08C473.752 115.061 471.862 117.806 470.933 120.925L380.729 460.845C380.302 462.315 380.195 463.859 380.416 465.372C380.637 466.886 381.18 468.335 382.01 469.621C382.852 470.862 383.949 471.908 385.229 472.689C386.508 473.471 387.94 473.97 389.428 474.152V474.152L571.06 500.04C574.553 500.492 578.093 499.689 581.049 497.774C584.005 495.858 586.183 492.955 587.197 489.582L681.13 137.999C681.569 136.533 681.674 134.988 681.44 133.476C681.205 131.965 680.635 130.524 679.772 129.261C678.813 127.96 677.576 126.89 676.15 126.13C674.724 125.369 673.146 124.936 671.532 124.864L486.343 109.932L485.311 109.893Z" fill="#1F2223"/>
<path d="M664.114 161.362L474.509 144.939L401.76 419.223L588.593 444.059L664.114 161.362Z" fill="#66CCBA"/>
<path d="M580.945 406.26C580.763 406.261 580.585 406.21 580.432 406.111C580.28 406.013 580.159 405.872 580.085 405.706L541.846 324.851C541.791 324.737 541.76 324.613 541.753 324.486C541.747 324.36 541.765 324.234 541.808 324.114C541.851 323.995 541.917 323.886 542.002 323.792C542.087 323.699 542.19 323.623 542.305 323.57C542.534 323.465 542.794 323.455 543.03 323.54C543.266 323.626 543.459 323.802 543.567 324.029L581.805 404.903C581.86 405.016 581.891 405.138 581.897 405.263C581.904 405.388 581.885 405.513 581.842 405.631C581.8 405.748 581.734 405.856 581.648 405.948C581.563 406.04 581.461 406.113 581.347 406.165C581.22 406.223 581.084 406.256 580.945 406.26V406.26Z" fill="white"/>
<path d="M464.337 473.063L499.784 478.053C502.036 478.33 504.312 477.797 506.207 476.55C508.102 475.303 509.492 473.423 510.128 471.246L513.646 458.035C513.94 457.032 514.01 455.976 513.85 454.942C513.69 453.909 513.305 452.924 512.72 452.057C512.136 451.189 511.368 450.462 510.47 449.925C509.573 449.389 508.568 449.057 507.528 448.953L472.042 444.135C469.812 443.892 467.568 444.44 465.701 445.684C463.835 446.928 462.466 448.79 461.833 450.942L458.334 464.038C458.039 465.03 457.966 466.073 458.12 467.096C458.273 468.119 458.65 469.095 459.223 469.956C459.795 470.817 460.55 471.542 461.434 472.079C462.318 472.615 463.309 472.951 464.337 473.063Z" fill="white"/>
<path d="M500.969 479.162C500.528 479.168 500.086 479.136 499.65 479.066L464.203 474.095C463.042 473.961 461.924 473.575 460.927 472.964C459.93 472.353 459.079 471.532 458.433 470.558C457.786 469.584 457.361 468.48 457.185 467.324C457.009 466.169 457.088 464.988 457.416 463.866L460.896 450.77C461.592 448.392 463.105 446.336 465.169 444.965C467.232 443.593 469.714 442.995 472.176 443.275L507.661 448.074C508.842 448.213 509.978 448.605 510.994 449.221C512.01 449.838 512.882 450.666 513.55 451.649C514.188 452.631 514.608 453.737 514.783 454.895C514.958 456.052 514.883 457.234 514.563 458.36L511.084 471.514C510.448 473.709 509.12 475.64 507.297 477.018C505.474 478.397 503.255 479.149 500.969 479.162V479.162ZM464.471 472.202L499.918 477.173C501.935 477.419 503.975 476.941 505.673 475.824C507.37 474.707 508.617 473.024 509.191 471.074L512.728 457.863C512.972 456.997 513.03 456.09 512.899 455.2C512.767 454.31 512.448 453.458 511.963 452.701C511.441 451.949 510.766 451.316 509.981 450.845C509.197 450.373 508.321 450.074 507.413 449.967L471.908 445.168C469.91 444.938 467.895 445.422 466.219 446.535C464.543 447.648 463.314 449.317 462.75 451.248L459.27 464.363C459.009 465.223 458.941 466.131 459.071 467.02C459.202 467.909 459.527 468.759 460.024 469.508C460.521 470.257 461.177 470.887 461.946 471.353C462.715 471.819 463.577 472.109 464.471 472.202V472.202Z" fill="#E6EBDE"/>
<path d="M608.018 137.788L553.853 133.257C553.728 133.246 553.606 133.21 553.494 133.152C553.382 133.093 553.283 133.013 553.203 132.916C553.122 132.82 553.061 132.708 553.023 132.588C552.986 132.467 552.972 132.341 552.983 132.215C552.995 132.09 553.031 131.968 553.089 131.856C553.148 131.744 553.227 131.645 553.324 131.564C553.421 131.484 553.533 131.423 553.653 131.385C553.773 131.348 553.9 131.334 554.025 131.345L608.171 135.857C608.424 135.857 608.668 135.958 608.847 136.137C609.026 136.317 609.127 136.56 609.127 136.813C609.127 137.067 609.026 137.31 608.847 137.489C608.668 137.669 608.424 137.769 608.171 137.769L608.018 137.788Z" fill="#E6EBDE"/>
<path d="M546.34 132.626L539.151 132.034C539.026 132.024 538.904 131.99 538.793 131.932C538.681 131.875 538.583 131.796 538.502 131.699C538.422 131.603 538.362 131.492 538.326 131.372C538.289 131.252 538.277 131.126 538.29 131.001C538.315 130.749 538.436 130.517 538.629 130.353C538.821 130.188 539.07 130.106 539.323 130.122L546.492 130.734C546.746 130.734 546.989 130.834 547.168 131.014C547.348 131.193 547.448 131.436 547.448 131.689C547.448 131.943 547.348 132.186 547.168 132.365C546.989 132.545 546.746 132.645 546.492 132.645L546.34 132.626Z" fill="#E6EBDE"/>
<path d="M599.529 312.71C599.529 312.71 622.816 235.927 602.627 218.911L503.819 207.019C503.819 207.019 486.879 224.666 484.432 238.222C481.984 251.777 461.489 280.647 469.136 297.873L599.529 312.71Z" fill="#1F2223"/>
<path d="M599.529 313.666H599.433L469.021 298.81C468.857 298.79 468.701 298.729 468.567 298.632C468.433 298.535 468.326 298.406 468.256 298.256C462.96 286.287 470.704 269.023 476.937 255.142C480.015 248.297 482.672 242.371 483.437 238.05C485.903 224.36 502.365 207.076 503.072 206.35C503.175 206.243 503.301 206.162 503.44 206.112C503.58 206.062 503.729 206.046 503.875 206.063L602.684 217.974C602.865 217.999 603.037 218.072 603.181 218.185C623.619 235.392 601.269 309.842 600.389 312.997C600.331 313.183 600.217 313.346 600.064 313.466C599.91 313.586 599.723 313.655 599.529 313.666ZM469.862 296.975L598.841 311.678C601.173 303.686 620.273 235.698 602.225 219.905L504.181 208.09C501.849 210.614 487.548 226.368 485.368 238.47C484.546 243.021 481.85 249.043 478.734 256.003C472.845 269.252 465.331 285.79 469.862 296.975Z" fill="#1F2223"/>
<path d="M608.859 314.966H608.726L443.593 291.794C443.346 291.756 443.123 291.622 442.973 291.422C442.823 291.222 442.757 290.971 442.79 290.723C442.823 290.472 442.955 290.245 443.155 290.091C443.356 289.936 443.61 289.868 443.861 289.901L608.993 313.073C609.246 313.111 609.473 313.247 609.627 313.45C609.781 313.654 609.848 313.91 609.815 314.163C609.775 314.388 609.657 314.591 609.483 314.738C609.308 314.884 609.088 314.965 608.859 314.966V314.966Z" fill="#1F2223"/>
<path d="M602.626 218.911C602.626 218.911 592.608 220.288 586.471 241.128C577.083 273.019 564.713 340.318 556.893 365.632C545.422 402.455 514.831 407.694 514.831 407.694L385.49 388.938C385.49 388.938 438.125 370.699 447.015 339.687C456.365 307.012 469.308 245.277 472.807 231.492C478.983 207.076 503.876 207.076 503.876 207.076L602.626 218.911Z" fill="white"/>
<path d="M514.774 408.593H514.64L385.298 389.837C385.086 389.804 384.89 389.702 384.741 389.547C384.592 389.391 384.499 389.19 384.476 388.976C384.455 388.764 384.506 388.551 384.621 388.371C384.735 388.19 384.906 388.054 385.107 387.982C385.643 387.81 437.398 369.532 446.04 339.362C452.521 316.706 460.838 279.653 466.326 255.123C468.792 244.129 470.742 235.43 471.813 231.205C478.103 206.35 503.57 206.063 503.818 206.063L602.741 217.974C602.971 218.002 603.183 218.112 603.338 218.285C603.492 218.457 603.579 218.68 603.582 218.911C603.581 219.142 603.497 219.365 603.347 219.54C603.196 219.715 602.988 219.831 602.76 219.867C602.607 219.867 593.201 221.607 587.465 241.395C582.704 257.532 577.217 282.693 571.883 307.031C566.682 330.873 561.749 353.396 557.887 365.919C551.922 385.21 540.68 395.783 532.153 401.251C526.927 404.752 521.09 407.242 514.946 408.593H514.774ZM389.218 388.479L514.754 406.681C516.991 406.222 545.345 399.893 555.975 365.345C559.799 352.898 564.751 330.414 569.952 306.63C575.267 282.253 580.792 257.054 585.553 240.86C589.587 227.19 595.285 221.741 598.936 219.427L503.704 207.956C502.824 207.956 479.594 208.281 473.667 231.683C472.616 235.87 470.666 244.55 468.199 255.543C462.693 280.093 454.376 317.184 447.876 339.897C443.191 356.206 426.519 368.92 413.346 376.702C405.61 381.227 397.545 385.164 389.218 388.479V388.479Z" fill="#1F2223"/>
<path d="M540.451 367.869H540.336L522.842 365.957C522.591 365.928 522.362 365.801 522.205 365.604C522.047 365.408 521.974 365.156 522.001 364.905C522.012 364.78 522.049 364.659 522.109 364.548C522.169 364.438 522.25 364.34 522.348 364.262C522.446 364.183 522.559 364.125 522.68 364.092C522.801 364.058 522.927 364.048 523.052 364.064L540.565 365.976C540.816 366.005 541.045 366.132 541.202 366.329C541.36 366.526 541.433 366.777 541.407 367.028C541.374 367.259 541.26 367.471 541.085 367.626C540.909 367.78 540.684 367.867 540.451 367.869V367.869Z" fill="#E6EBDE"/>
<path d="M508.732 364.274H508.617L456.25 358.328C455.999 358.3 455.77 358.173 455.612 357.976C455.455 357.779 455.381 357.528 455.408 357.277C455.42 357.152 455.457 357.03 455.517 356.92C455.576 356.809 455.658 356.712 455.756 356.633C455.854 356.555 455.967 356.497 456.088 356.463C456.209 356.429 456.335 356.42 456.46 356.436L508.846 362.363C509.1 362.378 509.337 362.493 509.506 362.683C509.674 362.873 509.76 363.122 509.745 363.376C509.73 363.629 509.615 363.866 509.424 364.035C509.234 364.203 508.985 364.29 508.732 364.274V364.274Z" fill="#E6EBDE"/>
<path d="M524.812 387.848H524.697L508.618 385.936C508.492 385.921 508.371 385.882 508.261 385.82C508.15 385.758 508.053 385.675 507.975 385.575C507.897 385.476 507.839 385.362 507.805 385.24C507.771 385.119 507.761 384.991 507.776 384.866C507.791 384.74 507.831 384.619 507.893 384.509C507.955 384.398 508.038 384.301 508.138 384.223C508.237 384.145 508.351 384.087 508.473 384.053C508.594 384.019 508.722 384.009 508.847 384.024L524.926 385.936C525.052 385.944 525.175 385.976 525.288 386.031C525.401 386.086 525.502 386.163 525.585 386.257C525.669 386.351 525.733 386.461 525.774 386.579C525.815 386.698 525.832 386.824 525.825 386.95C525.817 387.075 525.785 387.198 525.73 387.311C525.675 387.424 525.598 387.525 525.504 387.609C525.41 387.692 525.301 387.756 525.182 387.797C525.063 387.839 524.937 387.856 524.812 387.848V387.848Z" fill="#E6EBDE"/>
<path d="M490.798 383.986H490.684L440.61 378.25C440.357 378.223 440.125 378.095 439.965 377.896C439.806 377.697 439.732 377.443 439.76 377.189C439.788 376.936 439.915 376.704 440.114 376.544C440.313 376.385 440.567 376.311 440.821 376.339L490.913 382.074C491.164 382.103 491.393 382.23 491.55 382.427C491.708 382.624 491.781 382.875 491.754 383.126C491.727 383.361 491.614 383.578 491.438 383.736C491.262 383.894 491.035 383.983 490.798 383.986Z" fill="#E6EBDE"/>
<path d="M514.773 407.637C507.207 400.646 501.388 391.977 497.785 382.327C494.182 372.676 492.896 362.315 494.029 352.076L358.283 327.585C358.283 327.585 369.926 373.031 385.413 388.881L514.773 407.637Z" fill="white"/>
<path d="M514.774 408.593H514.64L385.299 389.837C385.089 389.801 384.895 389.7 384.744 389.55C369.257 373.7 357.843 329.688 357.365 327.814C357.326 327.66 357.326 327.498 357.366 327.345C357.406 327.191 357.485 327.05 357.595 326.935C357.703 326.813 357.841 326.721 357.995 326.667C358.149 326.614 358.314 326.6 358.474 326.629L494.221 351.12C494.455 351.171 494.663 351.306 494.804 351.5C494.945 351.694 495.01 351.933 494.985 352.172C493.913 362.254 495.2 372.448 498.744 381.948C502.287 391.447 507.991 399.993 515.405 406.91C515.564 407.031 515.681 407.2 515.738 407.392C515.794 407.584 515.788 407.789 515.719 407.977C515.651 408.165 515.524 408.327 515.357 408.437C515.191 408.548 514.993 408.603 514.793 408.593H514.774ZM385.891 387.982L511.925 406.26C505.087 399.263 499.851 390.864 496.58 381.644C493.308 372.423 492.079 362.602 492.978 352.86L359.602 328.789C361.744 336.609 372.412 373.891 385.891 387.982Z" fill="#1F2223"/>
<path d="M568.537 248.718H568.441L484.317 239.158C484.19 239.147 484.067 239.109 483.955 239.048C483.843 238.988 483.744 238.904 483.666 238.804C483.587 238.704 483.529 238.589 483.497 238.466C483.464 238.342 483.457 238.214 483.476 238.088C483.504 237.837 483.631 237.608 483.828 237.45C484.025 237.293 484.276 237.22 484.527 237.246L568.652 246.806C568.905 246.819 569.143 246.932 569.314 247.12C569.484 247.308 569.572 247.556 569.56 247.81C569.547 248.063 569.434 248.301 569.246 248.472C569.058 248.642 568.809 248.731 568.556 248.718H568.537Z" fill="#E6EBDE"/>
<path d="M565.019 270.361H564.904L549.112 268.564C548.986 268.549 548.865 268.509 548.755 268.447C548.644 268.385 548.548 268.302 548.469 268.203C548.391 268.103 548.334 267.989 548.299 267.868C548.265 267.746 548.255 267.619 548.271 267.493C548.286 267.368 548.325 267.246 548.387 267.136C548.449 267.026 548.532 266.929 548.632 266.851C548.731 266.773 548.845 266.715 548.967 266.681C549.088 266.647 549.216 266.637 549.341 266.652L565.115 268.43C565.24 268.436 565.363 268.467 565.477 268.521C565.59 268.575 565.692 268.651 565.777 268.744C565.861 268.837 565.926 268.946 565.968 269.064C566.01 269.183 566.029 269.308 566.023 269.434C566.016 269.559 565.985 269.682 565.932 269.796C565.878 269.909 565.802 270.011 565.709 270.096C565.616 270.18 565.507 270.245 565.388 270.287C565.27 270.33 565.144 270.348 565.019 270.342V270.361Z" fill="#E6EBDE"/>
<path d="M531.541 266.556L480.914 260.82C480.66 260.793 480.428 260.665 480.269 260.466C480.109 260.267 480.035 260.013 480.063 259.759C480.091 259.506 480.218 259.274 480.417 259.114C480.616 258.955 480.87 258.881 481.124 258.908L531.752 264.644C531.877 264.652 532 264.684 532.113 264.739C532.226 264.794 532.327 264.871 532.411 264.965C532.494 265.059 532.558 265.168 532.599 265.287C532.641 265.406 532.658 265.532 532.65 265.658C532.643 265.783 532.611 265.906 532.556 266.019C532.501 266.132 532.424 266.233 532.33 266.317C532.236 266.4 532.126 266.464 532.007 266.505C531.888 266.546 531.762 266.564 531.637 266.556H531.541Z" fill="#E6EBDE"/>
<path d="M559.819 290.532H559.704L533.683 287.587C533.431 287.554 533.201 287.423 533.044 287.223C532.887 287.023 532.814 286.77 532.842 286.517C532.875 286.265 533.006 286.035 533.206 285.878C533.406 285.721 533.659 285.648 533.912 285.675L559.914 288.639C560.039 288.651 560.161 288.688 560.271 288.747C560.382 288.807 560.479 288.888 560.558 288.986C560.636 289.085 560.694 289.197 560.728 289.318C560.762 289.439 560.771 289.566 560.756 289.691C560.728 289.92 560.617 290.132 560.445 290.287C560.273 290.442 560.05 290.529 559.819 290.532V290.532Z" fill="#E6EBDE"/>
<path d="M508.732 284.739H508.618L475.618 280.915C475.492 280.901 475.371 280.863 475.26 280.802C475.149 280.741 475.052 280.659 474.973 280.56C474.894 280.462 474.835 280.349 474.8 280.227C474.764 280.106 474.753 279.979 474.767 279.854C474.781 279.728 474.819 279.607 474.88 279.496C474.941 279.385 475.023 279.287 475.121 279.208C475.22 279.129 475.333 279.071 475.454 279.035C475.576 279 475.703 278.989 475.828 279.003L508.847 282.731C509.099 282.765 509.328 282.895 509.485 283.095C509.643 283.295 509.715 283.549 509.688 283.802C509.678 284.05 509.574 284.286 509.396 284.46C509.219 284.634 508.981 284.734 508.732 284.739V284.739Z" fill="#E6EBDE"/>
<path d="M555.383 309.632H555.268L533.568 307.089C533.316 307.055 533.087 306.925 532.93 306.725C532.772 306.525 532.7 306.271 532.727 306.018C532.765 305.768 532.897 305.542 533.095 305.386C533.294 305.229 533.545 305.155 533.797 305.177L555.479 307.643C555.732 307.656 555.97 307.769 556.141 307.957C556.311 308.145 556.399 308.394 556.387 308.647C556.374 308.901 556.261 309.139 556.073 309.309C555.885 309.479 555.637 309.568 555.383 309.555V309.632Z" fill="#E6EBDE"/>
<path d="M510.529 304.546H510.414L471.163 300.091C470.912 300.062 470.683 299.936 470.525 299.739C470.368 299.542 470.294 299.29 470.321 299.04C470.355 298.787 470.486 298.558 470.686 298.401C470.886 298.244 471.139 298.171 471.392 298.198L510.625 302.653C510.878 302.653 511.121 302.754 511.301 302.933C511.48 303.112 511.581 303.356 511.581 303.609C511.581 303.863 511.48 304.106 511.301 304.285C511.121 304.464 510.878 304.565 510.625 304.565L510.529 304.546Z" fill="#E6EBDE"/>
<path d="M550.775 330.777L531.522 328.598C531.271 328.569 531.042 328.442 530.885 328.245C530.727 328.048 530.654 327.797 530.681 327.546C530.693 327.421 530.729 327.3 530.789 327.189C530.849 327.079 530.93 326.981 531.028 326.903C531.126 326.824 531.239 326.766 531.36 326.732C531.481 326.698 531.608 326.689 531.732 326.705L550.985 328.885C551.239 328.9 551.476 329.015 551.644 329.205C551.813 329.395 551.899 329.644 551.884 329.898C551.869 330.152 551.753 330.389 551.563 330.557C551.373 330.726 551.124 330.812 550.871 330.797L550.775 330.777Z" fill="#E6EBDE"/>
<path d="M519.515 327.24H519.401L466.574 321.237C466.324 321.208 466.095 321.081 465.937 320.885C465.779 320.688 465.706 320.436 465.733 320.185C465.745 320.06 465.782 319.939 465.841 319.828C465.901 319.718 465.982 319.62 466.08 319.542C466.179 319.463 466.291 319.406 466.412 319.372C466.533 319.338 466.66 319.328 466.785 319.344L519.611 325.329C519.864 325.341 520.103 325.454 520.273 325.642C520.443 325.831 520.532 326.079 520.519 326.332C520.506 326.586 520.393 326.824 520.205 326.994C520.017 327.165 519.769 327.253 519.515 327.24V327.24Z" fill="#E6EBDE"/>
<path d="M545.919 347.889H545.804L522.861 345.289C522.611 345.26 522.382 345.133 522.224 344.937C522.067 344.74 521.993 344.488 522.02 344.237C522.032 344.112 522.069 343.991 522.128 343.88C522.188 343.77 522.269 343.672 522.368 343.594C522.466 343.515 522.579 343.458 522.7 343.424C522.82 343.39 522.947 343.38 523.072 343.396L546.015 345.996C546.268 346.012 546.505 346.127 546.674 346.317C546.842 346.507 546.929 346.756 546.913 347.01C546.898 347.263 546.783 347.5 546.593 347.669C546.403 347.837 546.154 347.924 545.9 347.908L545.919 347.889Z" fill="#E6EBDE"/>
<path d="M512.594 344.123L461.814 338.387C461.56 338.359 461.328 338.232 461.168 338.033C461.009 337.834 460.935 337.579 460.963 337.326C460.991 337.072 461.118 336.84 461.317 336.681C461.516 336.521 461.77 336.447 462.024 336.475L512.804 342.211C513.058 342.226 513.295 342.341 513.464 342.531C513.632 342.721 513.718 342.971 513.703 343.224C513.688 343.478 513.573 343.715 513.383 343.883C513.193 344.052 512.943 344.138 512.69 344.123H512.594Z" fill="#E6EBDE"/>
<path d="M248.532 219.874L292.422 314.211C296.057 322.023 305.336 325.41 313.148 321.775L457.912 254.425C465.724 250.79 469.111 241.511 465.476 233.698L421.587 139.362C417.952 131.549 408.673 128.163 400.86 131.797L256.096 199.148C248.284 202.783 244.898 212.062 248.532 219.874Z" fill="white"/>
<path d="M306.604 324.296C303.449 324.3 300.358 323.403 297.695 321.709C295.033 320.016 292.91 317.596 291.576 314.737L247.602 220.403C245.753 216.422 245.56 211.87 247.066 207.747C248.572 203.624 251.653 200.267 255.632 198.416L400.403 131.059C404.384 129.209 408.936 129.016 413.059 130.522C417.182 132.028 420.538 135.109 422.39 139.089L466.269 233.423C467.187 235.392 467.709 237.524 467.804 239.695C467.898 241.866 467.564 244.035 466.82 246.077C466.076 248.119 464.937 249.994 463.468 251.595C461.999 253.197 460.228 254.493 458.258 255.41L313.487 322.767C311.33 323.768 308.982 324.29 306.604 324.296V324.296ZM407.439 131.307C405.313 131.309 403.212 131.772 401.282 132.665L256.512 200.022C252.995 201.661 250.272 204.63 248.942 208.276C247.612 211.922 247.783 215.946 249.419 219.466V219.466L293.393 313.819C295.036 317.338 298.009 320.06 301.658 321.39C305.307 322.72 309.334 322.548 312.856 320.912L457.55 253.555C461.067 251.915 463.79 248.947 465.12 245.301C466.45 241.655 466.279 237.631 464.643 234.111L420.669 139.758C419.492 137.24 417.623 135.109 415.28 133.613C412.938 132.117 410.218 131.317 407.439 131.307V131.307Z" fill="#1F2223"/>
<path d="M375.15 176.956L386.224 200.757C388.852 206.406 395.561 208.854 401.21 206.227L418.059 198.387C423.708 195.759 426.156 189.05 423.528 183.401L412.455 159.601C409.827 153.952 403.118 151.503 397.469 154.131L380.62 161.97C374.971 164.598 372.522 171.308 375.15 176.956Z" fill="#66CCBA"/>
<path d="M271.44 212.759C267.965 214.376 266.458 218.504 268.075 221.979C269.692 225.454 273.82 226.961 277.295 225.344L309.729 210.255C313.204 208.638 314.711 204.51 313.094 201.034C311.477 197.559 307.349 196.053 303.873 197.669L271.44 212.759Z" fill="#E6EBDE"/>
<path d="M411.5 238.004L414.605 244.677C415.42 246.429 417.501 247.189 419.253 246.374L443.66 235.018C445.412 234.203 446.172 232.122 445.357 230.37L442.252 223.696C441.437 221.944 439.356 221.185 437.604 222L413.196 233.355C411.444 234.17 410.685 236.251 411.5 238.004Z" fill="#E6EBDE"/>
<path d="M374.246 255.354L377.351 262.028C378.166 263.78 380.247 264.54 381.999 263.725L406.407 252.369C408.159 251.554 408.918 249.473 408.103 247.721L404.998 241.047C404.183 239.295 402.102 238.536 400.35 239.351L375.942 250.706C374.19 251.521 373.431 253.602 374.246 255.354Z" fill="#E6EBDE"/>
<path d="M336.966 272.677L340.071 279.351C340.887 281.103 342.968 281.862 344.72 281.047L369.127 269.692C370.879 268.877 371.639 266.796 370.824 265.044L367.719 258.37C366.903 256.618 364.822 255.858 363.07 256.673L338.663 268.029C336.911 268.844 336.151 270.925 336.966 272.677Z" fill="#E6EBDE"/>
<path d="M299.713 290.009L302.818 296.683C303.633 298.435 305.714 299.194 307.466 298.379L331.873 287.024C333.625 286.209 334.385 284.128 333.57 282.376L330.465 275.702C329.65 273.95 327.569 273.19 325.817 274.005L301.409 285.361C299.657 286.176 298.897 288.257 299.713 290.009Z" fill="#E6EBDE"/>
<path d="M571.558 203.845C571.397 203.847 571.239 203.807 571.099 203.73C570.958 203.653 570.84 203.541 570.755 203.406L545.116 163.255C544.995 163.043 544.959 162.792 545.018 162.554C545.076 162.316 545.223 162.11 545.429 161.978C545.635 161.845 545.884 161.797 546.124 161.842C546.365 161.888 546.579 162.024 546.722 162.223L572.361 202.373C572.497 202.586 572.544 202.845 572.49 203.092C572.436 203.339 572.287 203.555 572.074 203.692C571.923 203.797 571.742 203.851 571.558 203.845V203.845Z" fill="white"/>
<path d="M494.029 192.182C493.853 192.182 493.679 192.134 493.528 192.043C493.376 191.953 493.252 191.822 493.169 191.666L480.072 166.371C480.013 166.261 479.976 166.14 479.964 166.016C479.952 165.891 479.965 165.766 480.003 165.646C480.04 165.527 480.101 165.416 480.182 165.321C480.263 165.225 480.362 165.147 480.474 165.09C480.585 165.031 480.708 164.994 480.834 164.981C480.96 164.969 481.087 164.982 481.208 165.019C481.329 165.057 481.441 165.118 481.538 165.199C481.636 165.28 481.716 165.38 481.774 165.492L494.871 190.787C494.986 191.013 495.009 191.276 494.934 191.518C494.859 191.761 494.692 191.965 494.469 192.087C494.329 192.144 494.18 192.176 494.029 192.182Z" fill="white"/>
<path d="M280.449 340.414L272.438 349.61C267.333 355.996 251.101 351.522 236.226 339.572C221.352 327.623 213.398 312.825 218.56 306.42L226.59 297.223L280.449 340.414Z" fill="white"/>
<path d="M264.867 353.491C257.219 353.491 246.187 348.769 235.614 340.318C228.904 335.141 223.267 328.705 219.019 321.371C215.482 314.737 215.042 309.23 217.757 305.827L225.806 296.592C225.969 296.407 226.197 296.291 226.443 296.27C226.689 296.248 226.933 296.323 227.125 296.478L281.042 339.592C281.145 339.668 281.231 339.765 281.294 339.877C281.356 339.989 281.394 340.114 281.405 340.242C281.426 340.504 281.343 340.765 281.175 340.968L273.145 350.164C272.112 351.315 270.828 352.213 269.393 352.79C267.957 353.367 266.409 353.607 264.867 353.491ZM226.628 298.543L219.229 307.089C217.069 309.785 217.604 314.737 220.701 320.472C224.825 327.589 230.3 333.83 236.819 338.846C251.024 350.317 266.989 354.887 271.692 349.036L279.072 340.548L226.628 298.543Z" fill="#1F2223"/>
<path d="M280.442 340.398C285.551 334.018 277.62 319.178 262.726 307.251C247.833 295.323 231.618 290.826 226.51 297.205C221.401 303.584 229.332 318.424 244.225 330.352C259.119 342.279 275.333 346.777 280.442 340.398Z" fill="white"/>
<path d="M272.878 344.276C265.23 344.276 254.179 339.554 243.644 331.122C236.923 325.95 231.279 319.514 227.03 312.175C223.493 305.54 223.053 300.034 225.787 296.631C228.502 293.228 233.989 292.444 241.216 294.451C249.306 296.991 256.821 301.09 263.337 306.516C278.881 318.962 286.72 334.105 281.194 340.93C280.156 342.086 278.866 342.989 277.424 343.569C275.983 344.149 274.427 344.391 272.878 344.276ZM234.085 295.293C232.833 295.174 231.572 295.34 230.393 295.777C229.215 296.214 228.15 296.911 227.278 297.816V297.816C225.08 300.55 225.615 305.464 228.731 311.2C232.849 318.314 238.318 324.556 244.83 329.573C259.035 341.045 275.019 345.614 279.703 339.764C284.387 333.913 276.357 319.325 262.133 307.949C255.823 302.684 248.541 298.709 240.7 296.249C238.549 295.63 236.323 295.308 234.085 295.293Z" fill="#1F2223"/>
<path d="M240.949 302.462L244.448 305.789H244.849C245.977 305.999 247.048 306.152 248.195 306.439C251.209 307.245 254.057 308.579 256.607 310.377C258.202 311.459 259.648 312.745 260.909 314.201C261.702 314.99 262.23 316.005 262.42 317.107C262.459 317.497 262.377 317.89 262.185 318.232C261.994 318.574 261.702 318.849 261.349 319.019C260.794 319.402 260.183 319.746 259.571 320.128L266.148 326.38C267.276 325.577 266.779 324.22 265.23 322.556L269.264 321.868C270.491 322.933 271.493 324.233 272.209 325.692C272.513 326.24 272.644 326.867 272.586 327.491C272.528 328.116 272.283 328.708 271.884 329.191C271.482 329.63 270.928 330.013 270.431 330.453L272.82 332.728L268.997 333.932L266.549 331.619C265.364 331.619 264.255 331.619 263.031 331.619C260.673 331.393 258.374 330.746 256.244 329.707C253.355 328.431 250.754 326.584 248.596 324.277C246.398 321.868 245.92 319.975 247.277 318.694C248.184 317.914 249.237 317.323 250.375 316.954L250.833 316.782L244.161 310.473H243.97C243.818 310.88 243.716 311.304 243.664 311.735C243.881 312.599 244.37 313.369 245.059 313.934L238.807 314.316C238.31 313.781 237.813 313.264 237.373 312.748C235.767 310.836 235.156 309.249 235.653 308.007C235.98 307.406 236.452 306.897 237.027 306.527C237.601 306.156 238.259 305.935 238.941 305.884C239.152 305.884 239.152 305.77 238.941 305.559C237.737 304.45 236.551 303.322 235.366 302.194L240.949 302.462ZM256.053 321.772C255.46 322.25 254.695 322.614 254.848 323.512C255.001 324.411 257.085 326.285 259.016 326.935C259.966 327.274 260.972 327.43 261.98 327.393L256.053 321.772ZM254.523 315.367C255.04 315.081 255.556 314.851 255.632 314.335C255.766 313.379 253.72 311.563 251.617 310.798C250.719 310.454 249.858 310.263 248.864 309.976L254.523 315.367Z" fill="#E6EBDE"/>
<path d="M342.606 437.425L347.29 448.686C350.731 456.104 339.508 468.627 322.225 476.695C304.941 484.764 288.116 485.261 284.655 477.862L279.971 466.581L342.606 437.425Z" fill="white"/>
<path d="M297.197 484.075C290.525 484.075 285.592 482.163 283.814 478.34L279.111 467.04C279.018 466.811 279.016 466.555 279.105 466.325C279.193 466.094 279.366 465.905 279.589 465.797L342.223 436.641C342.341 436.588 342.468 436.562 342.596 436.562C342.724 436.562 342.851 436.588 342.969 436.641C343.089 436.69 343.199 436.762 343.291 436.854C343.382 436.946 343.455 437.056 343.504 437.176L348.188 448.437C351.897 456.41 340.694 469.258 322.645 477.67C314.702 481.558 306.034 483.74 297.197 484.075V484.075ZM281.214 467.059L285.535 477.479C288.689 484.247 305.304 483.502 321.861 475.816C338.418 468.13 349.622 455.894 346.449 449.049L342.147 438.667L281.214 467.059Z" fill="#1F2223"/>
<path d="M317.524 465.43C334.821 457.375 346.046 444.839 342.596 437.43C339.146 430.021 322.327 430.545 305.03 438.6C287.733 446.654 276.508 459.19 279.958 466.599C283.408 474.008 300.227 473.485 317.524 465.43Z" fill="white"/>
<path d="M292.456 472.776C285.573 472.776 280.85 470.749 279.072 467.04C275.248 459.048 286.548 446.181 304.596 437.788C322.645 429.394 339.699 429.069 343.427 437.08C347.156 445.091 335.952 457.939 317.903 466.352C310.281 470.068 302.007 472.263 293.545 472.814L292.456 472.776ZM330.178 433.276C321.585 433.629 313.16 435.764 305.437 439.547C288.938 447.194 277.676 459.469 280.831 466.314C282.322 469.487 286.987 471.17 293.526 470.979C301.732 470.446 309.755 468.309 317.138 464.688C333.638 457.041 344.9 444.766 341.726 437.922C340.273 434.71 335.99 433.276 330.178 433.276Z" fill="#1F2223"/>
<path d="M291.06 455.989L295.591 454.326L295.839 454.001C296.528 453.083 297.12 452.089 297.904 451.286C299.971 448.963 302.431 447.022 305.17 445.55C306.853 444.606 308.653 443.886 310.523 443.409C311.586 443.064 312.73 443.064 313.792 443.409C314.142 443.552 314.44 443.796 314.651 444.109C314.862 444.422 314.976 444.79 314.978 445.168C314.978 445.837 315.112 446.544 315.169 447.252L323.696 444.135C323.467 442.759 322.052 442.606 319.872 443.256L321.039 439.432C322.561 438.809 324.193 438.497 325.837 438.514C326.472 438.484 327.099 438.652 327.634 438.994C328.168 439.337 328.583 439.837 328.82 440.426C329.027 441.052 329.193 441.691 329.317 442.338L332.414 441.21L331.803 445.168L328.648 446.353C328.113 447.405 327.654 448.418 327.042 449.489C325.814 451.506 324.234 453.287 322.377 454.746C319.966 456.774 317.16 458.278 314.137 459.163C311.001 460.081 309.108 459.66 308.554 457.882C308.256 456.727 308.191 455.525 308.363 454.345C308.363 454.173 308.363 454.001 308.363 453.848L299.759 457.041L299.606 457.175C299.897 457.493 300.232 457.77 300.6 457.997C301.467 458.194 302.374 458.1 303.181 457.729L300.753 463.465C300.046 463.675 299.377 463.885 298.726 464.038C296.298 464.65 294.597 464.497 293.698 463.484C293.315 462.932 293.075 462.294 292.998 461.627C292.921 460.96 293.011 460.284 293.258 459.66C293.258 459.469 293.258 459.431 292.952 459.545L288.345 461.247L291.06 455.989ZM315.073 451.018C315.245 451.764 315.226 452.605 316.087 452.93C317.017 452.919 317.935 452.717 318.784 452.335C319.633 451.954 320.394 451.401 321.019 450.712C321.745 450.007 322.329 449.17 322.74 448.246L315.073 451.018ZM308.649 449.546C308.649 448.972 308.649 448.38 308.21 448.093C307.426 447.558 304.902 448.571 303.258 450.12C302.569 450.77 302.015 451.458 301.346 452.223L308.649 449.546Z" fill="#E6EBDE"/>
<path d="M296.815 367.066C290.009 378.403 297.637 403.526 297.637 403.526L307.713 410.868C311.305 413.028 315.287 414.46 319.432 415.082C323.577 415.704 327.804 415.503 331.871 414.491C335.938 413.479 339.767 411.675 343.137 409.184C346.508 406.693 349.354 403.562 351.515 399.97C353.676 396.378 355.107 392.396 355.729 388.251C356.351 384.106 356.15 379.879 355.138 375.812C354.126 371.744 352.323 367.916 349.831 364.546C347.34 361.175 344.209 358.328 340.617 356.168L329.451 350.681C329.451 350.681 303.621 355.747 296.815 367.066Z" fill="white"/>
<path d="M324.098 416.393C318.154 416.383 312.325 414.757 307.235 411.69L297.063 404.31C296.899 404.185 296.778 404.011 296.719 403.813C296.394 402.761 289.071 378.136 295.993 366.569C302.952 355.097 328.151 349.954 329.222 349.744C329.415 349.688 329.621 349.688 329.814 349.744L341.018 355.231C347.186 358.931 351.971 364.551 354.64 371.23C357.309 377.909 357.714 385.279 355.794 392.21C353.874 399.142 349.735 405.253 344.01 409.607C338.285 413.961 331.29 416.318 324.098 416.317V416.393ZM298.459 403.01L308.286 410.141C315.322 414.344 323.737 415.585 331.687 413.593C339.636 411.6 346.471 406.536 350.693 399.511C354.913 392.476 356.171 384.054 354.189 376.092C352.206 368.131 347.147 361.282 340.12 357.047L329.279 351.751C326.354 352.363 303.755 357.487 297.637 367.62C291.519 377.83 297.637 400.085 298.459 402.952V403.01Z" fill="#1F2223"/>
<path d="M317.215 411.25C334.838 411.25 349.125 396.964 349.125 379.34C349.125 361.717 334.838 347.43 317.215 347.43C299.592 347.43 285.305 361.717 285.305 379.34C285.305 396.964 299.592 411.25 317.215 411.25Z" fill="white"/>
<path d="M317.158 412.245C312.097 412.231 307.107 411.049 302.578 408.791C298.049 406.532 294.103 403.259 291.047 399.224C287.991 395.19 285.908 390.505 284.96 385.534C284.012 380.562 284.225 375.439 285.583 370.564C286.94 365.688 289.405 361.192 292.786 357.426C296.166 353.659 300.371 350.725 305.072 348.85C309.773 346.976 314.843 346.212 319.888 346.619C324.932 347.027 329.815 348.593 334.154 351.197V351.197C340.324 354.899 345.108 360.523 347.773 367.206C350.438 373.89 350.836 381.263 348.906 388.194C346.976 395.125 342.825 401.232 337.09 405.577C331.355 409.921 324.352 412.264 317.158 412.245V412.245ZM317.272 348.425C309.783 348.413 302.544 351.118 296.897 356.036C291.249 360.954 287.576 367.753 286.559 375.172C285.541 382.591 287.248 390.128 291.362 396.385C295.477 402.643 301.72 407.196 308.935 409.202C316.151 411.208 323.848 410.529 330.602 407.293C337.355 404.057 342.707 398.482 345.664 391.602C348.621 384.722 348.984 377.003 346.685 369.876C344.386 362.748 339.581 356.696 333.16 352.841C328.365 349.946 322.874 348.406 317.272 348.387V348.425Z" fill="#1F2223"/>
<path d="M299.32 364.714L303.297 367.123C303.564 367.276 303.698 367.257 303.889 367.028C305.45 365.292 307.423 363.977 309.625 363.204C311.923 362.393 314.438 362.447 316.699 363.357C317.311 363.605 317.904 363.892 318.611 364.179L314.902 370.335C313.969 369.786 312.877 369.571 311.805 369.723C310.981 369.938 310.17 370.2 309.377 370.507V370.66L317.024 375.287L317.579 374.714C318.911 373.271 320.406 371.988 322.033 370.89C323.232 370.026 324.643 369.506 326.115 369.385C327.587 369.264 329.065 369.546 330.389 370.201C332.963 371.251 335.023 373.27 336.124 375.822C337.032 377.897 337.259 380.206 336.774 382.419C336.488 383.795 336.029 385.153 335.627 386.567L338.61 388.365L335.207 394.1L332.147 392.188C331.134 393.144 330.236 394.1 329.26 394.942C327.361 396.606 324.957 397.583 322.435 397.714C320.266 397.767 318.13 397.175 316.298 396.012L319.93 389.952C321.008 390.545 322.251 390.767 323.467 390.584C324.683 390.401 325.805 389.823 326.66 388.938L318.42 384.005C317.407 384.942 316.393 385.917 315.361 386.835C314.151 387.998 312.674 388.845 311.059 389.301C309.401 389.716 307.654 389.595 306.069 388.957C304.092 388.268 302.344 387.043 301.021 385.42C300.073 384.245 299.395 382.875 299.035 381.408C298.675 379.941 298.641 378.413 298.937 376.931C299.167 375.727 299.645 374.561 299.989 373.394C299.989 373.26 299.989 373.127 300.142 372.974L296.012 370.488L299.32 364.714ZM330.064 383.183C330.506 382.181 330.652 381.073 330.484 379.99C330.313 379.069 329.809 378.243 329.069 377.669C328.329 377.094 327.404 376.811 326.469 376.874C325.146 377.238 323.949 377.959 323.009 378.958L330.064 383.183ZM305.304 376.052C305.168 376.989 305.104 377.935 305.113 378.882C305.155 379.394 305.309 379.891 305.563 380.338C305.817 380.785 306.166 381.171 306.584 381.469C307.003 381.768 307.482 381.971 307.987 382.066C308.492 382.161 309.012 382.144 309.51 382.017C310.517 381.577 311.417 380.925 312.149 380.105L305.304 376.052Z" fill="#E6EBDE"/>
</svg>
