<svg width="960" height="642" viewBox="0 0 960 642" fill="none" xmlns="http://www.w3.org/2000/svg">
<rect width="960" height="642" fill="#66CCBA"/>
<path d="M224.932 139.244L209.282 292.731L333.655 299.635C333.655 299.635 369.145 204.226 370.02 160.444L224.932 139.244Z" fill="#C5E6BA"/>
<path d="M333.639 299.635C333.639 299.635 330.862 276.061 316.121 262.758C316.121 262.758 350.231 230.764 361.741 209.884C361.741 209.884 346.074 270.133 333.639 299.635Z" fill="#2D2D2D"/>
<path d="M309.693 139.211H289.651V170.767H309.693V139.211Z" fill="white"/>
<path d="M309.676 171.609H289.651C289.428 171.609 289.214 171.52 289.056 171.362C288.898 171.204 288.81 170.99 288.81 170.767V139.21C288.81 138.987 288.898 138.773 289.056 138.615C289.214 138.457 289.428 138.368 289.651 138.368H309.676C309.899 138.368 310.113 138.457 310.271 138.615C310.429 138.773 310.517 138.987 310.517 139.21V170.767C310.517 170.99 310.429 171.204 310.271 171.362C310.113 171.52 309.899 171.609 309.676 171.609ZM290.492 169.925H308.835V140.052H290.492V169.925Z" fill="#2D2D2D"/>
<path d="M609.64 351.852C609.64 351.852 599.19 450.798 601.647 458.173C604.104 465.549 690.699 498.738 702.378 504.261C714.056 509.785 744.127 504.261 744.127 504.261L756.411 361.13L609.64 351.852Z" fill="#C5E6BA"/>
<path d="M611.323 464.926C611.323 464.926 638.248 464.926 652.618 458.476C652.618 458.476 683.262 493.249 692.349 499.984C692.416 499.984 631.803 476.915 611.323 464.926Z" fill="#2D2D2D"/>
<path d="M696.117 337.194L672.878 333.531L667.179 369.743L690.418 373.406L696.117 337.194Z" fill="#E6EBDE"/>
<path d="M359.917 349.646L212.842 338.044L196.368 475.635L349.029 488.77L359.917 349.646Z" fill="white"/>
<path d="M323.467 336.596L236.721 328.985C236.721 328.985 239.11 332.083 238.252 333.111C237.394 334.138 234.146 333.784 235.341 335.165C236.109 335.826 236.641 336.719 236.857 337.71C237.072 338.7 236.96 339.734 236.536 340.654C235.509 343.399 236.199 344.612 237.226 345.285C238.252 345.959 233.86 348.552 235.088 348.653C236.317 348.754 323.568 355.591 323.568 355.591C323.568 355.591 321.011 351.987 322.037 351.128C323.064 350.27 327.085 350.859 325.52 347.761C323.956 344.662 322.71 343.635 324.427 342.355C326.143 341.075 322.744 338.667 323.232 338.145C323.386 337.922 323.488 337.667 323.529 337.398C323.569 337.13 323.549 336.855 323.467 336.596V336.596Z" fill="#FFDFBB"/>
<path d="M407.135 336.529L396.719 484.88C396.719 484.88 410.484 482.775 422.532 486.699C434.581 490.622 437.459 493.299 444.577 488.248C451.695 483.196 454.286 481.512 463.171 486.48C472.056 491.447 494.505 487.456 505.527 488.164C516.549 488.871 515.405 496.684 524.037 497.071C532.67 497.459 547.596 498.755 547.596 498.755L558.248 347.205L407.135 336.529ZM419.083 355.321C418.246 355.262 417.445 354.956 416.782 354.441C416.118 353.927 415.623 353.227 415.357 352.43C415.092 351.634 415.069 350.776 415.29 349.966C415.512 349.156 415.969 348.43 416.604 347.881C417.238 347.331 418.021 346.982 418.854 346.877C419.687 346.773 420.532 346.919 421.282 347.295C422.032 347.672 422.653 348.263 423.068 348.993C423.482 349.723 423.671 350.56 423.609 351.398C423.528 352.518 423.005 353.56 422.157 354.296C421.308 355.031 420.203 355.4 419.083 355.321V355.321ZM439.848 356.786C439.01 356.73 438.207 356.427 437.542 355.914C436.876 355.401 436.378 354.702 436.11 353.906C435.842 353.109 435.816 352.251 436.036 351.44C436.257 350.629 436.713 349.901 437.347 349.35C437.98 348.798 438.764 348.447 439.597 348.342C440.43 348.237 441.276 348.381 442.027 348.758C442.778 349.134 443.401 349.725 443.816 350.456C444.231 351.187 444.419 352.024 444.358 352.863C444.276 353.98 443.756 355.019 442.911 355.754C442.066 356.489 440.965 356.86 439.848 356.786V356.786ZM460.597 358.251C459.76 358.192 458.96 357.887 458.297 357.373C457.634 356.86 457.138 356.161 456.872 355.365C456.605 354.569 456.581 353.712 456.801 352.903C457.022 352.093 457.477 351.367 458.11 350.816C458.742 350.266 459.524 349.915 460.356 349.809C461.188 349.702 462.032 349.845 462.783 350.219C463.534 350.593 464.157 351.182 464.573 351.91C464.99 352.638 465.181 353.474 465.123 354.311C465.096 354.874 464.956 355.427 464.712 355.935C464.469 356.444 464.126 356.899 463.704 357.274C463.283 357.649 462.791 357.936 462.257 358.118C461.724 358.3 461.159 358.374 460.597 358.335V358.251ZM481.362 359.716C480.526 359.657 479.725 359.352 479.062 358.838C478.399 358.325 477.903 357.626 477.637 356.83C477.371 356.034 477.346 355.177 477.567 354.368C477.787 353.558 478.242 352.832 478.875 352.281C479.508 351.731 480.289 351.38 481.121 351.274C481.953 351.167 482.798 351.31 483.548 351.684C484.299 352.058 484.922 352.647 485.339 353.375C485.755 354.103 485.947 354.939 485.889 355.776C485.85 356.332 485.703 356.875 485.454 357.374C485.206 357.873 484.862 358.319 484.441 358.685C484.021 359.051 483.533 359.33 483.004 359.507C482.476 359.684 481.918 359.755 481.362 359.716V359.716ZM502.127 361.164C501.29 361.105 500.489 360.799 499.826 360.285C499.163 359.77 498.667 359.07 498.402 358.273C498.137 357.477 498.113 356.619 498.335 355.809C498.557 354.999 499.014 354.274 499.648 353.724C500.283 353.174 501.066 352.825 501.899 352.721C502.731 352.616 503.576 352.762 504.326 353.138C505.077 353.515 505.698 354.106 506.112 354.836C506.527 355.566 506.715 356.403 506.654 357.241C506.618 357.797 506.472 358.341 506.224 358.84C505.976 359.339 505.632 359.784 505.21 360.149C504.789 360.514 504.3 360.792 503.771 360.966C503.241 361.14 502.683 361.208 502.127 361.164V361.164ZM522.893 362.629C522.056 362.57 521.255 362.264 520.592 361.75C519.928 361.235 519.433 360.535 519.167 359.738C518.902 358.942 518.879 358.084 519.101 357.274C519.322 356.464 519.78 355.739 520.414 355.189C521.048 354.639 521.831 354.29 522.664 354.186C523.497 354.081 524.342 354.227 525.092 354.603C525.842 354.98 526.464 355.571 526.878 356.301C527.292 357.031 527.481 357.868 527.42 358.706C527.333 359.824 526.81 360.864 525.962 361.598C525.115 362.333 524.012 362.703 522.893 362.629V362.629ZM543.658 364.094C542.821 364.039 542.019 363.736 541.353 363.224C540.688 362.712 540.189 362.014 539.92 361.219C539.652 360.423 539.625 359.565 539.844 358.755C540.062 357.944 540.516 357.216 541.149 356.664C541.781 356.111 542.563 355.759 543.395 355.651C544.228 355.544 545.073 355.686 545.825 356.06C546.576 356.434 547.2 357.022 547.617 357.751C548.035 358.48 548.226 359.316 548.168 360.154C548.09 361.274 547.572 362.318 546.727 363.056C545.881 363.795 544.778 364.168 543.658 364.094V364.094Z" fill="#FF7747"/>
<path d="M448.195 363.875C446.907 363.872 445.656 363.436 444.646 362.635C443.636 361.835 442.924 360.718 442.625 359.463L437.089 336.613C436.73 335.128 436.975 333.561 437.77 332.257C438.565 330.953 439.846 330.018 441.329 329.658C442.813 329.299 444.379 329.544 445.683 330.34C446.986 331.136 447.92 332.417 448.279 333.902L453.227 354.361C453.254 354.47 453.26 354.582 453.243 354.693C453.227 354.804 453.189 354.91 453.131 355.005C453.073 355.101 452.996 355.184 452.906 355.25C452.815 355.316 452.713 355.363 452.604 355.388C452.388 355.439 452.16 355.402 451.971 355.285C451.782 355.168 451.646 354.982 451.594 354.765L446.647 334.306C446.393 333.254 445.731 332.347 444.808 331.783C443.885 331.219 442.776 331.046 441.725 331.3C440.674 331.555 439.767 332.217 439.204 333.14C438.64 334.064 438.467 335.174 438.721 336.226L444.258 359.076C444.517 360.123 445.178 361.025 446.098 361.586C447.018 362.147 448.123 362.322 449.171 362.073L451.763 361.434C452.282 361.311 452.772 361.085 453.202 360.77C453.633 360.455 453.996 360.056 454.27 359.598C454.551 359.142 454.739 358.635 454.823 358.106C454.907 357.577 454.885 357.037 454.758 356.517L447.101 324.893C446.955 323.975 446.62 323.097 446.118 322.315C445.615 321.533 444.957 320.864 444.184 320.349C443.41 319.834 442.539 319.485 441.624 319.323C440.709 319.162 439.771 319.191 438.868 319.411C437.965 319.63 437.117 320.034 436.378 320.597C435.639 321.159 435.024 321.869 434.573 322.682C434.121 323.494 433.842 324.391 433.754 325.317C433.666 326.242 433.77 327.176 434.06 328.059L436.483 338.027C436.534 338.246 436.498 338.476 436.381 338.668C436.265 338.86 436.078 338.999 435.86 339.055C435.644 339.105 435.416 339.068 435.227 338.951C435.038 338.835 434.903 338.648 434.851 338.431L432.428 328.446C431.907 326.282 432.264 323.999 433.42 322.098C434.292 320.691 435.558 319.573 437.06 318.883C438.563 318.192 440.235 317.96 441.869 318.215C443.503 318.47 445.025 319.201 446.246 320.317C447.467 321.433 448.332 322.884 448.734 324.489L456.39 356.129C456.568 356.865 456.6 357.628 456.483 358.375C456.367 359.123 456.104 359.84 455.71 360.486C455.316 361.132 454.799 361.693 454.188 362.139C453.577 362.585 452.885 362.906 452.15 363.084L449.575 363.707C449.123 363.813 448.66 363.869 448.195 363.875V363.875Z" fill="#2D2D2D"/>
<path d="M736.739 149.835L599.627 156.571C599.627 156.571 603.464 267.792 615.748 305.898L763.748 297.9C763.748 297.9 741.653 210.152 736.739 149.835Z" fill="#FF7747"/>
<path d="M651.709 181.711H649.05C647.524 181.711 646.06 181.105 644.981 180.025C643.901 178.945 643.295 177.48 643.295 175.952V152.378C643.295 150.85 643.901 149.386 644.981 148.306C646.06 147.226 647.524 146.619 649.05 146.619C650.576 146.619 652.04 147.226 653.12 148.306C654.199 149.386 654.805 150.85 654.805 152.378V173.426C654.805 173.65 654.716 173.864 654.559 174.022C654.401 174.18 654.187 174.268 653.964 174.268C653.741 174.268 653.527 174.18 653.369 174.022C653.211 173.864 653.122 173.65 653.122 173.426V152.445C653.122 151.364 652.693 150.328 651.93 149.564C651.166 148.799 650.13 148.37 649.05 148.37C647.97 148.37 646.934 148.799 646.17 149.564C645.407 150.328 644.978 151.364 644.978 152.445V176.02C644.978 177.1 645.407 178.137 646.17 178.901C646.934 179.665 647.97 180.095 649.05 180.095H651.709C652.789 180.095 653.825 179.665 654.588 178.901C655.352 178.137 655.781 177.1 655.781 176.02V143.419C655.781 141.633 655.072 139.92 653.81 138.657C652.547 137.394 650.835 136.684 649.05 136.684C647.265 136.684 645.553 137.394 644.29 138.657C643.028 139.92 642.319 141.633 642.319 143.419V153.674C642.319 153.898 642.23 154.112 642.073 154.27C641.915 154.428 641.701 154.516 641.478 154.516C641.254 154.516 641.04 154.428 640.883 154.27C640.725 154.112 640.636 153.898 640.636 153.674V143.419C640.636 141.186 641.523 139.045 643.101 137.466C644.678 135.887 646.819 135 649.05 135C651.282 135 653.422 135.887 655 137.466C656.577 139.045 657.464 141.186 657.464 143.419V175.952C657.464 177.48 656.858 178.945 655.778 180.025C654.699 181.105 653.235 181.711 651.709 181.711V181.711Z" fill="#FFDFBB"/>
<path d="M401.733 152.378V303.828H553.082V152.378H401.733Z" fill="white"/>
<path d="M553.081 304.669H401.733C401.511 304.665 401.3 304.575 401.143 304.418C400.986 304.261 400.896 304.049 400.892 303.827V152.378C400.892 152.155 400.98 151.94 401.138 151.782C401.296 151.625 401.51 151.536 401.733 151.536H553.081C553.305 151.536 553.519 151.625 553.676 151.782C553.834 151.94 553.923 152.155 553.923 152.378V303.827C553.923 304.051 553.834 304.265 553.676 304.423C553.519 304.581 553.305 304.669 553.081 304.669ZM402.574 302.985H552.24V153.22H402.659L402.574 302.985Z" fill="#1F2223"/>
<path d="M544.011 178.041H411.072C410.849 178.041 410.635 177.952 410.477 177.794C410.32 177.636 410.231 177.422 410.231 177.199C410.231 176.975 410.32 176.761 410.477 176.603C410.635 176.445 410.849 176.357 411.072 176.357H544.011C544.234 176.357 544.448 176.445 544.606 176.603C544.764 176.761 544.853 176.975 544.853 177.199C544.853 177.422 544.764 177.636 544.606 177.794C544.448 177.952 544.234 178.041 544.011 178.041Z" fill="#1F2223"/>
<path d="M544.011 203.838H411.072C410.849 203.838 410.635 203.749 410.477 203.591C410.32 203.433 410.231 203.219 410.231 202.996C410.231 202.773 410.32 202.559 410.477 202.401C410.635 202.243 410.849 202.154 411.072 202.154H544.011C544.234 202.154 544.448 202.243 544.606 202.401C544.764 202.559 544.853 202.773 544.853 202.996C544.853 203.219 544.764 203.433 544.606 203.591C544.448 203.749 544.234 203.838 544.011 203.838Z" fill="#1F2223"/>
<path d="M544.011 229.652H411.072C410.849 229.652 410.635 229.563 410.477 229.405C410.32 229.248 410.231 229.033 410.231 228.81C410.231 228.587 410.32 228.373 410.477 228.215C410.635 228.057 410.849 227.968 411.072 227.968H544.011C544.234 227.968 544.448 228.057 544.606 228.215C544.764 228.373 544.853 228.587 544.853 228.81C544.853 229.033 544.764 229.248 544.606 229.405C544.448 229.563 544.234 229.652 544.011 229.652Z" fill="#1F2223"/>
<path d="M544.011 255.466H411.072C410.849 255.466 410.635 255.377 410.477 255.219C410.32 255.062 410.231 254.847 410.231 254.624C410.231 254.401 410.32 254.187 410.477 254.029C410.635 253.871 410.849 253.782 411.072 253.782H544.011C544.234 253.782 544.448 253.871 544.606 254.029C544.764 254.187 544.853 254.401 544.853 254.624C544.853 254.847 544.764 255.062 544.606 255.219C544.448 255.377 544.234 255.466 544.011 255.466Z" fill="#1F2223"/>
<path d="M544.011 281.28H411.072C410.849 281.28 410.635 281.192 410.477 281.034C410.32 280.876 410.231 280.662 410.231 280.438C410.231 280.215 410.32 280.001 410.477 279.843C410.635 279.685 410.849 279.596 411.072 279.596H544.011C544.234 279.596 544.448 279.685 544.606 279.843C544.764 280.001 544.853 280.215 544.853 280.438C544.853 280.662 544.764 280.876 544.606 281.034C544.448 281.192 544.234 281.28 544.011 281.28Z" fill="#1F2223"/>
<path d="M477.66 164.687C478.021 164.37 478.358 164.027 478.669 163.66C480.352 161.707 486.578 151.873 486.578 151.873L484.138 150.829C484.138 150.829 478.013 160.191 476.902 161.909C476.597 162.399 476.354 162.925 476.179 163.475L477.66 164.687Z" fill="#2D2D2D"/>
<path d="M486.04 157.682C489.86 157.682 492.956 154.584 492.956 150.762C492.956 146.939 489.86 143.841 486.04 143.841C482.221 143.841 479.124 146.939 479.124 150.762C479.124 154.584 482.221 157.682 486.04 157.682Z" fill="white"/>
<path d="M486.04 158.524C484.505 158.527 483.003 158.075 481.725 157.224C480.447 156.373 479.45 155.162 478.86 153.744C478.271 152.326 478.115 150.764 478.412 149.257C478.71 147.75 479.447 146.366 480.531 145.278C481.616 144.191 482.998 143.45 484.503 143.149C486.008 142.848 487.569 143.001 488.987 143.588C490.406 144.175 491.619 145.17 492.472 146.447C493.325 147.724 493.78 149.225 493.78 150.761C493.78 152.817 492.965 154.789 491.514 156.245C490.063 157.7 488.094 158.52 486.04 158.524V158.524ZM486.04 144.683C484.837 144.679 483.661 145.033 482.66 145.699C481.659 146.365 480.878 147.313 480.415 148.423C479.953 149.534 479.83 150.757 480.063 151.937C480.295 153.117 480.872 154.202 481.721 155.054C482.57 155.906 483.652 156.486 484.831 156.722C486.01 156.958 487.233 156.839 488.344 156.379C489.455 155.92 490.404 155.14 491.073 154.14C491.741 153.14 492.097 151.964 492.097 150.761C492.097 149.152 491.46 147.608 490.324 146.469C489.189 145.329 487.648 144.687 486.04 144.683V144.683Z" fill="#2D2D2D"/>
<path d="M488.194 152.715C491.419 152.715 494.033 150.099 494.033 146.872C494.033 143.645 491.419 141.029 488.194 141.029C484.969 141.029 482.355 143.645 482.355 146.872C482.355 150.099 484.969 152.715 488.194 152.715Z" fill="white"/>
<path d="M488.193 153.557C486.862 153.557 485.561 153.162 484.454 152.422C483.347 151.681 482.484 150.63 481.975 149.399C481.465 148.168 481.332 146.814 481.592 145.507C481.851 144.201 482.493 143 483.434 142.058C484.375 141.116 485.575 140.475 486.88 140.215C488.186 139.955 489.539 140.088 490.769 140.598C491.999 141.108 493.051 141.971 493.79 143.079C494.53 144.187 494.925 145.489 494.925 146.821C494.925 148.608 494.215 150.321 492.953 151.584C491.691 152.847 489.979 153.557 488.193 153.557ZM488.193 141.871C487.195 141.871 486.219 142.167 485.389 142.722C484.559 143.277 483.912 144.066 483.529 144.989C483.147 145.912 483.047 146.928 483.242 147.908C483.437 148.888 483.918 149.788 484.624 150.494C485.33 151.201 486.229 151.682 487.209 151.877C488.188 152.072 489.203 151.972 490.125 151.589C491.048 151.207 491.836 150.56 492.391 149.729C492.946 148.898 493.242 147.921 493.242 146.922C493.242 145.582 492.71 144.297 491.763 143.35C490.816 142.403 489.532 141.871 488.193 141.871Z" fill="#2D2D2D"/>
</svg>
