<svg width="960" height="642" viewBox="0 0 960 642" fill="none" xmlns="http://www.w3.org/2000/svg">
<rect width="960" height="642" fill="#C5E6BA"/>
<path d="M394.112 470.46C453.06 470.46 500.848 466.822 500.848 462.334C500.848 457.846 453.06 454.208 394.112 454.208C335.164 454.208 287.376 457.846 287.376 462.334C287.376 466.822 335.164 470.46 394.112 470.46Z" fill="white"/>
<path d="M408.064 467.564C483.734 467.564 545.076 406.222 545.076 330.552C545.076 254.883 483.734 193.541 408.064 193.541C332.395 193.541 271.053 254.883 271.053 330.552C271.053 406.222 332.395 467.564 408.064 467.564Z" fill="#FF7747"/>
<path d="M408.065 468.487C380.783 468.491 354.113 460.404 331.427 445.25C308.742 430.095 291.059 408.554 280.617 383.35C270.174 358.146 267.44 330.412 272.76 303.654C278.08 276.896 291.216 252.317 310.506 233.024C329.795 213.732 354.373 200.593 381.13 195.27C407.887 189.946 435.622 192.676 460.828 203.116C486.033 213.555 507.576 231.235 522.734 253.918C537.891 276.602 545.981 303.271 545.981 330.552C545.943 367.12 531.401 402.179 505.545 428.038C479.689 453.897 444.632 468.444 408.065 468.487ZM408.065 194.446C381.14 194.442 354.819 202.423 332.431 217.379C310.042 232.335 292.592 253.595 282.287 278.469C271.982 303.344 269.284 330.715 274.536 357.123C279.788 383.53 292.753 407.787 311.792 426.825C330.83 445.864 355.087 458.829 381.494 464.081C407.902 469.333 435.273 466.635 460.148 456.33C485.022 446.025 506.281 428.575 521.238 406.186C536.194 383.798 544.175 357.477 544.171 330.552C544.128 294.468 529.775 259.874 504.259 234.358C478.743 208.842 444.149 194.489 408.065 194.446V194.446Z" fill="#1F2223"/>
<path d="M461.124 200.472L446.032 216.759C437.707 225.808 444.982 246.076 462.319 262.001C479.656 277.927 500.431 283.573 508.756 274.543L523.848 258.255L461.124 200.472Z" fill="#1F2223"/>
<path d="M497.319 279.827C487.076 279.827 473.539 273.71 461.686 262.78C453.779 255.767 447.619 247.005 443.698 237.191C440.513 228.305 441.092 220.903 445.363 216.216L460.455 199.929C460.628 199.762 460.858 199.669 461.098 199.669C461.338 199.669 461.568 199.762 461.74 199.929L524.446 257.839C524.534 257.92 524.605 258.018 524.654 258.127C524.704 258.236 524.732 258.353 524.736 258.473C524.742 258.591 524.725 258.71 524.684 258.822C524.644 258.934 524.581 259.037 524.5 259.124L509.408 275.411C507.811 276.949 505.911 278.136 503.83 278.896C501.748 279.657 499.53 279.974 497.319 279.827ZM461.125 201.757L446.647 217.447C442.847 221.555 442.395 228.305 445.344 236.575C449.156 246.121 455.156 254.638 462.862 261.44C479.783 277.04 500.033 282.686 508.105 274.108L522.582 258.418L461.125 201.757Z" fill="#1F2223"/>
<path d="M523.817 258.273C532.149 249.234 524.862 228.963 507.541 212.997C490.22 197.03 469.424 191.414 461.092 200.453C452.76 209.492 460.047 229.763 477.368 245.73C494.689 261.696 515.485 267.312 523.817 258.273Z" fill="#FF7747"/>
<path d="M512.412 263.449C502.169 263.449 488.632 257.332 476.779 246.402C459.116 230.115 451.805 209.249 460.492 199.856C469.178 190.464 490.55 196.074 508.213 212.343C525.876 228.612 533.187 249.514 524.5 258.907C522.915 260.468 521.021 261.679 518.938 262.461C516.856 263.244 514.632 263.58 512.412 263.449V263.449ZM472.598 197.033C470.605 196.91 468.609 197.207 466.738 197.906C464.868 198.604 463.165 199.688 461.74 201.087C453.759 209.737 461.053 229.481 478.027 245.081C495.002 260.68 515.198 266.326 523.27 257.748C531.25 249.08 523.975 229.354 506.982 213.755C495.4 203.005 482.316 197.033 472.616 197.033H472.598Z" fill="#1F2223"/>
<path d="M616.468 391.611C614.866 391.614 613.298 391.143 611.962 390.259C610.625 389.374 609.58 388.115 608.956 386.639C608.332 385.163 608.157 383.535 608.454 381.96C608.75 380.386 609.505 378.933 610.623 377.785C618.477 369.696 622.314 362.892 621.988 357.535C621.572 350.296 613.193 343.51 604.307 336.307C590.101 324.761 570.629 308.945 580.256 282.216C584.359 271.547 589.259 261.202 594.915 251.27C610.605 222.007 616.034 209.538 588.418 194.554C570.321 184.709 550.759 186.881 530.2 200.96C519.841 208.25 510.646 217.067 502.928 227.11C502.302 227.978 501.511 228.714 500.601 229.275C499.69 229.837 498.678 230.214 497.622 230.385C496.566 230.555 495.486 230.516 494.445 230.269C493.404 230.023 492.422 229.574 491.554 228.947C490.687 228.321 489.951 227.53 489.39 226.62C488.828 225.709 488.451 224.697 488.28 223.641C488.11 222.585 488.149 221.505 488.396 220.464C488.642 219.423 489.091 218.441 489.718 217.573C506.783 193.957 550.994 155.628 596.127 180.24C639.035 203.585 623.164 233.028 609.175 258.997C603.921 268.221 599.354 277.821 595.512 287.717C590.083 302.828 599.132 311.243 614.514 323.657C625.734 332.706 637.334 342.189 638.185 356.576C638.782 366.819 633.57 377.478 622.241 389.15C620.718 390.702 618.643 391.587 616.468 391.611V391.611Z" fill="white"/>
<path d="M616.468 392.516C614.111 392.521 611.845 391.605 610.152 389.965C609.298 389.136 608.615 388.147 608.143 387.054C607.672 385.961 607.42 384.786 607.403 383.596C607.386 382.406 607.605 381.224 608.045 380.118C608.486 379.012 609.141 378.004 609.971 377.152C617.645 369.262 621.391 362.674 621.083 357.571C620.685 350.767 612.451 344.071 603.746 336.995C589.269 325.286 569.561 309.252 579.406 281.908C583.532 271.208 588.443 260.829 594.101 250.854C610.261 220.867 614.496 209.774 587.984 195.35C570.249 185.687 550.976 187.822 530.725 201.721C520.406 208.929 511.252 217.675 503.58 227.653C502.174 229.6 500.052 230.908 497.681 231.289C495.311 231.671 492.885 231.096 490.939 229.689C488.993 228.283 487.685 226.161 487.303 223.791C486.921 221.42 487.497 218.995 488.903 217.049C506.204 193.161 550.885 154.524 596.634 179.479C640.32 203.259 624.25 233.119 610.044 259.468C604.814 268.653 600.266 278.21 596.435 288.061C591.205 302.538 600.145 310.791 615.147 322.988C626.53 332.217 638.293 341.772 639.162 356.558C639.777 367.072 634.475 377.948 622.875 389.82C622.037 390.669 621.04 391.345 619.941 391.808C618.841 392.27 617.661 392.511 616.468 392.516V392.516ZM565.363 187.587C573.603 187.604 581.701 189.729 588.889 193.758C617.138 209.122 611.401 222.713 595.747 251.668C590.117 261.544 585.235 271.827 581.143 282.433C571.733 308.583 590.915 324.056 604.922 335.529C613.971 342.768 622.495 349.789 623.019 357.408C623.363 363.018 619.4 370.076 611.401 378.346C610.062 379.724 609.325 381.577 609.352 383.498C609.379 385.419 610.168 387.25 611.546 388.589C612.923 389.928 614.776 390.665 616.697 390.638C618.618 390.611 620.45 389.822 621.789 388.444C632.936 376.971 638.076 366.547 637.479 356.558C636.664 342.569 625.209 333.267 614.152 324.291C598.516 311.623 589.214 303.009 594.861 287.337C598.717 277.397 603.302 267.755 608.578 258.491C622.368 232.883 638.004 203.874 595.91 180.963C551.265 156.659 507.489 194.59 490.586 218.044C489.72 219.587 489.448 221.394 489.823 223.124C490.199 224.854 491.195 226.386 492.623 227.431C494.052 228.476 495.813 228.962 497.575 228.796C499.338 228.63 500.978 227.825 502.186 226.531C509.96 216.393 519.236 207.502 529.694 200.164C541.981 191.803 553.925 187.587 565.363 187.587Z" fill="#1F2223"/>
<path d="M614.188 334.1L566.503 311.026L595.06 342.677L518.474 348.287L604.144 359.725L577.922 379.758L610.732 375.252L593.54 410.251L611.618 401.076L601.846 435.189L629.733 397.402L655.16 469.772L652.897 401.8L686.25 419.788L666.416 381.731L722.172 380.048L682.812 363.797L705.704 355.327L666.181 350.731L719.965 317.487L660.1 336.868L675.627 307.787L654.472 321.269L650.183 290.576L639.451 325.431L617.084 257.568L624.811 325.485L607.275 304.964L614.188 334.1Z" fill="#E6EBDE"/>
<path d="M655.16 470.677C654.974 470.677 654.792 470.619 654.64 470.512C654.488 470.406 654.372 470.254 654.309 470.08L629.462 399.321L602.588 435.732C602.457 435.899 602.273 436.017 602.066 436.066C601.858 436.116 601.641 436.093 601.448 436.003C601.261 435.904 601.113 435.745 601.027 435.551C600.942 435.357 600.924 435.14 600.978 434.935L610.171 402.831L593.884 411.047C593.715 411.134 593.524 411.166 593.336 411.138C593.149 411.11 592.975 411.024 592.839 410.892C592.703 410.76 592.612 410.589 592.579 410.403C592.545 410.216 592.571 410.024 592.653 409.853L609.103 376.374L578.031 380.645C577.833 380.676 577.631 380.639 577.457 380.54C577.282 380.442 577.147 380.287 577.072 380.102C576.995 379.917 576.982 379.712 577.034 379.518C577.087 379.325 577.202 379.155 577.361 379.034L601.846 360.322L518.311 349.192C518.09 349.158 517.889 349.046 517.743 348.877C517.597 348.708 517.516 348.493 517.515 348.269C517.523 348.043 517.614 347.827 517.771 347.664C517.928 347.5 518.139 347.4 518.365 347.383L593.105 341.953L565.833 311.587C565.693 311.432 565.61 311.234 565.6 311.026C565.589 310.817 565.65 310.611 565.774 310.443C565.897 310.275 566.075 310.154 566.277 310.102C566.48 310.05 566.694 310.07 566.883 310.157L612.867 332.416L606.407 305.126C606.365 304.931 606.388 304.728 606.474 304.548C606.559 304.368 606.702 304.222 606.879 304.131C607.057 304.04 607.259 304.01 607.455 304.046C607.651 304.082 607.829 304.182 607.963 304.33L623.562 322.608L616.197 257.622C616.147 257.382 616.194 257.132 616.328 256.926C616.462 256.721 616.672 256.577 616.912 256.527C617.152 256.477 617.402 256.524 617.607 256.658C617.813 256.792 617.956 257.002 618.007 257.242L639.47 322.391L649.369 290.233C649.388 289.993 649.502 289.77 649.685 289.614C649.868 289.458 650.106 289.381 650.346 289.4C650.586 289.419 650.808 289.533 650.965 289.716C651.121 289.9 651.198 290.137 651.178 290.377L655.286 319.676L675.193 307.008C675.359 306.903 675.555 306.856 675.751 306.872C675.947 306.888 676.132 306.968 676.279 307.099C676.426 307.237 676.525 307.419 676.561 307.618C676.597 307.817 676.567 308.022 676.478 308.203L662 335.348L719.711 316.654C719.923 316.585 720.153 316.597 720.357 316.687C720.56 316.777 720.724 316.94 720.815 317.143C720.914 317.341 720.933 317.569 720.869 317.781C720.805 317.993 720.663 318.172 720.471 318.283L668.877 350.133L705.813 354.422C706.053 354.396 706.294 354.466 706.482 354.617C706.67 354.768 706.791 354.988 706.817 355.228C706.844 355.468 706.774 355.708 706.623 355.897C706.472 356.085 706.252 356.206 706.012 356.232L685.291 363.887L722.516 379.251C722.756 379.294 722.969 379.431 723.108 379.631C723.248 379.832 723.301 380.079 723.258 380.319C723.215 380.559 723.078 380.772 722.878 380.911C722.678 381.05 722.431 381.104 722.191 381.061L667.9 382.69L687.064 419.481C687.153 419.652 687.184 419.847 687.154 420.038C687.123 420.228 687.033 420.404 686.895 420.539C686.758 420.675 686.581 420.763 686.39 420.79C686.199 420.818 686.004 420.784 685.834 420.693L653.857 403.338L656.065 469.754C656.072 469.969 656 470.179 655.864 470.346C655.727 470.512 655.535 470.624 655.323 470.659L655.16 470.677ZM629.824 396.479H629.951C630.114 396.503 630.268 396.572 630.396 396.677C630.524 396.782 630.62 396.92 630.675 397.077L654.201 463.872L652.138 401.782C652.132 401.624 652.167 401.468 652.24 401.328C652.313 401.189 652.421 401.071 652.554 400.986C652.695 400.906 652.854 400.865 653.015 400.865C653.177 400.865 653.336 400.906 653.477 400.986L684.241 417.58L665.602 382.165C665.53 382.028 665.493 381.876 665.493 381.721C665.493 381.567 665.53 381.415 665.602 381.278C665.674 381.145 665.781 381.034 665.912 380.958C666.043 380.881 666.192 380.842 666.344 380.844L717.884 379.287L682.432 364.647C682.263 364.58 682.118 364.464 682.016 364.314C681.914 364.164 681.859 363.987 681.859 363.805C681.859 363.624 681.914 363.447 682.016 363.297C682.118 363.147 682.263 363.031 682.432 362.964L701.777 355.816L666 351.653C665.814 351.629 665.639 351.548 665.5 351.422C665.361 351.296 665.264 351.13 665.222 350.948C665.186 350.764 665.206 350.575 665.281 350.403C665.355 350.232 665.48 350.088 665.638 349.989L713.052 320.672L660.317 337.755C660.144 337.811 659.958 337.813 659.784 337.761C659.61 337.709 659.455 337.606 659.34 337.465C659.227 337.325 659.156 337.154 659.137 336.975C659.117 336.795 659.15 336.614 659.231 336.452L673.148 310.429L654.888 322.047C654.755 322.118 654.605 322.155 654.454 322.155C654.302 322.155 654.153 322.118 654.02 322.047C653.883 321.986 653.765 321.89 653.676 321.77C653.587 321.649 653.531 321.508 653.513 321.359L649.767 294.702L640.248 325.666C640.19 325.851 640.074 326.012 639.918 326.126C639.761 326.24 639.573 326.301 639.379 326.3C639.193 326.284 639.014 326.218 638.861 326.11C638.708 326.002 638.587 325.855 638.511 325.684L618.912 266.164L625.626 325.359C625.643 325.548 625.6 325.738 625.504 325.902C625.407 326.066 625.261 326.195 625.087 326.271C624.912 326.347 624.718 326.367 624.533 326.326C624.347 326.286 624.178 326.188 624.051 326.046L608.958 308.366L615.003 333.864C615.043 334.03 615.034 334.205 614.976 334.366C614.918 334.527 614.814 334.667 614.677 334.769C614.547 334.882 614.385 334.953 614.214 334.973C614.043 334.992 613.87 334.959 613.718 334.878L570.285 313.831L595.748 342.026C595.862 342.151 595.938 342.306 595.966 342.473C595.995 342.639 595.976 342.811 595.91 342.967C595.85 343.126 595.744 343.265 595.606 343.365C595.467 343.464 595.303 343.521 595.132 343.528L527.359 348.559L604.362 358.82C604.538 358.844 604.704 358.921 604.836 359.04C604.968 359.16 605.062 359.316 605.104 359.489C605.152 359.661 605.147 359.843 605.089 360.011C605.031 360.18 604.922 360.326 604.778 360.43L581.252 378.383L610.605 374.347C610.771 374.326 610.939 374.35 611.092 374.417C611.245 374.484 611.377 374.591 611.474 374.727C611.558 374.866 611.603 375.026 611.603 375.188C611.603 375.351 611.558 375.511 611.474 375.65L595.476 408.224L611.13 400.298C611.287 400.217 611.463 400.184 611.639 400.203C611.814 400.221 611.98 400.29 612.116 400.402C612.253 400.513 612.354 400.662 612.407 400.83C612.46 400.998 612.462 401.178 612.415 401.348L604.036 430.628L628.937 396.896C629.029 396.766 629.151 396.662 629.293 396.592C629.436 396.522 629.593 396.49 629.752 396.498L629.824 396.479Z" fill="#1F2223"/>
<path d="M503.272 224.143C503.114 224.142 502.96 224.099 502.823 224.02C502.687 223.941 502.573 223.827 502.494 223.69C499.996 219.237 498.699 214.21 498.73 209.104C498.735 208.985 498.763 208.868 498.813 208.76C498.862 208.652 498.933 208.555 499.02 208.475C499.108 208.394 499.21 208.331 499.322 208.29C499.434 208.249 499.552 208.231 499.671 208.235C499.789 208.24 499.905 208.268 500.012 208.318C500.119 208.368 500.215 208.439 500.294 208.527C500.374 208.615 500.435 208.717 500.474 208.829C500.513 208.94 500.529 209.058 500.522 209.176C500.564 213.951 501.809 218.637 504.141 222.803C504.258 223.012 504.288 223.259 504.223 223.49C504.159 223.72 504.006 223.916 503.797 224.034C503.636 224.118 503.454 224.156 503.272 224.143V224.143Z" fill="#E6EBDE"/>
<path d="M513.479 212.163C513.311 212.167 513.145 212.123 513.001 212.036C512.857 211.95 512.74 211.824 512.664 211.674C510.971 207.962 510.024 203.952 509.878 199.875C509.878 199.35 509.787 198.753 509.751 198.608C509.689 198.513 509.648 198.406 509.629 198.294C509.61 198.182 509.615 198.067 509.642 197.957C509.669 197.847 509.718 197.744 509.787 197.653C509.855 197.563 509.942 197.487 510.04 197.432C510.259 197.313 510.514 197.281 510.755 197.342C510.996 197.402 511.206 197.55 511.343 197.757C511.607 198.386 511.725 199.067 511.687 199.748C511.831 203.577 512.71 207.344 514.275 210.841C514.385 211.056 514.406 211.304 514.335 211.534C514.264 211.764 514.106 211.957 513.895 212.072C513.766 212.136 513.623 212.167 513.479 212.163V212.163Z" fill="#E6EBDE"/>
<path d="M524.862 202.734C524.663 202.736 524.469 202.671 524.312 202.55C524.154 202.428 524.042 202.257 523.993 202.064C521.568 193.016 522.527 189.035 522.582 188.872C522.639 188.632 522.79 188.425 523 188.296C523.211 188.167 523.464 188.127 523.704 188.184C523.944 188.242 524.151 188.392 524.28 188.603C524.409 188.813 524.449 189.066 524.391 189.306C524.391 189.306 523.541 193.034 525.803 201.612C525.864 201.842 525.832 202.087 525.713 202.294C525.595 202.501 525.399 202.652 525.17 202.716L524.862 202.734Z" fill="#E6EBDE"/>
<path d="M535.901 195.767C535.685 195.764 535.476 195.685 535.314 195.542C535.151 195.399 535.045 195.203 535.014 194.988C534.241 190.166 534.481 185.235 535.72 180.511C535.795 180.283 535.956 180.092 536.169 179.981C536.382 179.869 536.63 179.845 536.86 179.914C537.088 179.988 537.277 180.15 537.386 180.364C537.494 180.578 537.514 180.826 537.439 181.054C536.303 185.5 536.087 190.131 536.806 194.663C536.824 194.782 536.818 194.903 536.788 195.02C536.759 195.136 536.706 195.246 536.634 195.342C536.561 195.438 536.47 195.519 536.366 195.579C536.262 195.64 536.147 195.679 536.028 195.694L535.901 195.767Z" fill="#E6EBDE"/>
<path d="M548.134 189.994C547.924 189.99 547.722 189.914 547.56 189.779C547.399 189.644 547.289 189.458 547.247 189.252C545.999 182.701 550.414 175.643 550.595 175.353C550.725 175.152 550.93 175.01 551.164 174.959C551.398 174.909 551.642 174.953 551.844 175.082C551.947 175.143 552.037 175.224 552.107 175.321C552.178 175.418 552.229 175.528 552.256 175.644C552.283 175.761 552.286 175.882 552.265 176C552.244 176.118 552.199 176.23 552.134 176.331C552.134 176.331 547.917 183.063 549.021 188.998C549.044 189.115 549.044 189.235 549.02 189.352C548.996 189.468 548.949 189.579 548.882 189.677C548.814 189.775 548.728 189.858 548.627 189.922C548.527 189.986 548.414 190.028 548.297 190.048L548.134 189.994Z" fill="#E6EBDE"/>
<path d="M560.205 186.573C560.128 186.593 560.047 186.593 559.97 186.573C559.854 186.546 559.744 186.496 559.648 186.425C559.552 186.353 559.472 186.263 559.413 186.16C559.353 186.056 559.316 185.941 559.303 185.822C559.29 185.704 559.301 185.584 559.336 185.47C560.654 181.012 563.075 176.96 566.376 173.688C566.46 173.604 566.56 173.536 566.671 173.49C566.781 173.444 566.899 173.421 567.019 173.421C567.138 173.421 567.256 173.444 567.367 173.49C567.477 173.536 567.577 173.604 567.661 173.688C567.746 173.773 567.813 173.873 567.859 173.983C567.905 174.093 567.929 174.211 567.929 174.331C567.929 174.45 567.905 174.569 567.859 174.679C567.813 174.789 567.746 174.889 567.661 174.973C564.631 178.006 562.388 181.734 561.128 185.831C561.093 186.047 560.979 186.242 560.809 186.379C560.638 186.516 560.423 186.585 560.205 186.573Z" fill="#E6EBDE"/>
<path d="M573.036 188.039C572.84 188.044 572.648 187.98 572.493 187.858C572.303 187.717 572.176 187.508 572.139 187.275C572.102 187.041 572.158 186.803 572.294 186.61C572.547 186.284 578.194 178.647 583.152 176.457C583.262 176.394 583.385 176.354 583.511 176.341C583.637 176.328 583.765 176.342 583.886 176.381C584.007 176.421 584.118 176.485 584.212 176.571C584.306 176.656 584.382 176.761 584.433 176.877C584.484 176.993 584.51 177.119 584.509 177.246C584.509 177.373 584.481 177.499 584.428 177.615C584.376 177.731 584.3 177.834 584.204 177.918C584.109 178.003 583.997 178.066 583.876 178.104C579.316 180.113 573.76 187.605 573.706 187.677C573.626 187.782 573.525 187.868 573.41 187.931C573.294 187.993 573.167 188.03 573.036 188.039Z" fill="#E6EBDE"/>
<path d="M587.387 192.383C587.24 192.383 587.095 192.347 586.966 192.277C586.836 192.208 586.726 192.107 586.645 191.984C586.576 191.886 586.528 191.775 586.503 191.658C586.478 191.541 586.476 191.42 586.498 191.302C586.52 191.184 586.565 191.072 586.63 190.971C586.696 190.871 586.781 190.785 586.88 190.718C587.206 190.5 595.06 185.289 601.358 185.813C601.593 185.841 601.809 185.957 601.96 186.139C602.112 186.321 602.188 186.554 602.172 186.791C602.161 186.91 602.126 187.025 602.07 187.131C602.013 187.236 601.937 187.33 601.844 187.405C601.752 187.481 601.645 187.538 601.53 187.572C601.416 187.606 601.296 187.617 601.177 187.605C595.603 187.08 588.002 192.165 587.93 192.22C587.772 192.332 587.581 192.389 587.387 192.383V192.383Z" fill="#E6EBDE"/>
<path d="M601.231 202.064C601.059 202.065 600.89 202.016 600.746 201.923C600.601 201.83 600.487 201.697 600.416 201.54C600.365 201.432 600.335 201.314 600.328 201.195C600.322 201.075 600.34 200.955 600.38 200.843C600.421 200.73 600.483 200.626 600.564 200.538C600.645 200.449 600.742 200.378 600.851 200.327C605.699 198.196 611.056 197.499 616.287 198.318C616.404 198.342 616.514 198.389 616.613 198.455C616.711 198.522 616.796 198.607 616.861 198.706C616.927 198.805 616.972 198.916 616.995 199.033C617.018 199.15 617.017 199.27 616.993 199.386C616.941 199.619 616.801 199.822 616.602 199.954C616.402 200.086 616.16 200.135 615.925 200.092C611.079 199.348 606.12 199.975 601.611 201.901C601.497 201.982 601.368 202.038 601.231 202.064Z" fill="#E6EBDE"/>
<path d="M621.463 223.129C621.323 223.128 621.185 223.095 621.06 223.032C620.934 222.969 620.825 222.879 620.739 222.767C616.885 217.646 609.483 216.922 609.411 216.922C609.292 216.913 609.176 216.88 609.07 216.826C608.963 216.772 608.869 216.697 608.791 216.607C608.714 216.516 608.655 216.411 608.619 216.297C608.582 216.183 608.568 216.064 608.578 215.945C608.601 215.706 608.716 215.486 608.898 215.331C609.081 215.175 609.316 215.097 609.556 215.112C609.899 215.112 617.826 215.909 622.223 221.682C622.367 221.873 622.429 222.115 622.395 222.352C622.361 222.59 622.234 222.804 622.042 222.948C621.878 223.078 621.672 223.142 621.463 223.129V223.129Z" fill="#E6EBDE"/>
<path d="M615.546 243.434C615.427 243.429 615.31 243.401 615.202 243.351C615.094 243.302 614.997 243.231 614.916 243.144C614.836 243.056 614.773 242.954 614.732 242.842C614.691 242.73 614.672 242.612 614.677 242.493C614.677 240.14 611.981 237.263 606.371 233.933C605.701 233.535 605.592 233.463 605.448 233.264C605.325 233.08 605.273 232.858 605.302 232.639C605.331 232.421 605.439 232.22 605.606 232.075C605.773 231.931 605.987 231.852 606.208 231.854C606.429 231.856 606.641 231.939 606.805 232.087L607.294 232.377C609.628 233.752 616.668 237.933 616.487 242.565C616.482 242.684 616.454 242.801 616.404 242.909C616.354 243.017 616.284 243.114 616.196 243.195C616.109 243.275 616.006 243.338 615.895 243.379C615.783 243.42 615.665 243.439 615.546 243.434Z" fill="#E6EBDE"/>
<path d="M607.782 257.712C607.663 257.71 607.546 257.684 607.437 257.637C607.328 257.589 607.23 257.52 607.147 257.435C607.065 257.349 607 257.248 606.957 257.137C606.914 257.027 606.893 256.908 606.895 256.79C606.928 254.702 606.326 252.653 605.169 250.915C604.012 249.176 602.355 247.83 600.416 247.053C599.964 246.836 599.674 246.691 599.548 246.293C599.473 246.068 599.489 245.822 599.594 245.608C599.699 245.395 599.884 245.231 600.109 245.153C600.255 245.1 600.413 245.087 600.565 245.116C600.718 245.145 600.86 245.214 600.977 245.316L601.231 245.443C606.28 247.94 608.795 251.777 608.705 256.826C608.695 257.064 608.594 257.29 608.422 257.455C608.25 257.62 608.02 257.713 607.782 257.712Z" fill="#E6EBDE"/>
<path d="M601.737 269.964C601.504 269.964 601.279 269.874 601.11 269.712C600.941 269.55 600.842 269.329 600.833 269.095C600.752 267.001 600.087 264.971 598.914 263.235C597.74 261.498 596.104 260.124 594.191 259.269C593.449 258.853 593.087 258.654 592.924 258.219C592.88 258.109 592.858 257.991 592.86 257.872C592.862 257.753 592.887 257.635 592.934 257.526C592.981 257.417 593.049 257.318 593.134 257.235C593.22 257.152 593.32 257.087 593.431 257.043C593.614 256.974 593.814 256.964 594.003 257.016C594.192 257.068 594.359 257.179 594.481 257.332L595.06 257.676C597.249 258.682 599.117 260.274 600.455 262.278C601.794 264.281 602.551 266.616 602.642 269.023C602.647 269.142 602.629 269.261 602.587 269.372C602.546 269.484 602.484 269.586 602.403 269.674C602.322 269.761 602.225 269.832 602.117 269.882C602.009 269.931 601.892 269.959 601.774 269.964H601.737Z" fill="#E6EBDE"/>
<path d="M597.069 278.777C596.897 278.776 596.73 278.726 596.585 278.633C596.441 278.54 596.326 278.408 596.254 278.252C592.816 271.014 586.518 272.642 586.265 272.715C586.025 272.777 585.77 272.742 585.556 272.616C585.342 272.49 585.187 272.285 585.125 272.045C585.062 271.805 585.098 271.55 585.223 271.336C585.349 271.123 585.554 270.967 585.794 270.905C588.254 270.392 590.816 270.764 593.028 271.956C595.24 273.148 596.959 275.083 597.883 277.42C597.936 277.527 597.966 277.643 597.974 277.762C597.981 277.881 597.965 278 597.927 278.113C597.888 278.225 597.828 278.329 597.749 278.418C597.67 278.508 597.574 278.58 597.467 278.632C597.345 278.707 597.21 278.756 597.069 278.777V278.777Z" fill="#E6EBDE"/>
<path d="M592.508 291.771C592.312 291.774 592.12 291.712 591.963 291.594C591.806 291.476 591.692 291.309 591.64 291.119C590.283 286.559 581.831 285.147 581.741 285.129C581.501 285.091 581.286 284.959 581.143 284.762C581.001 284.565 580.942 284.32 580.981 284.08C581.019 283.84 581.151 283.625 581.348 283.482C581.545 283.34 581.79 283.281 582.03 283.32C582.41 283.32 591.712 284.912 593.377 290.558C593.439 290.789 593.41 291.034 593.296 291.243C593.181 291.452 592.99 291.609 592.762 291.68L592.508 291.771Z" fill="#E6EBDE"/>
<path d="M580.419 302.9C580.179 302.924 579.94 302.852 579.753 302.699C579.566 302.547 579.448 302.326 579.424 302.086C579.4 301.846 579.472 301.606 579.625 301.42C579.778 301.233 579.998 301.115 580.238 301.091C580.582 301.091 588.581 299.444 592.743 300.693C592.869 300.715 592.988 300.765 593.093 300.837C593.199 300.909 593.287 301.003 593.354 301.112C593.42 301.221 593.463 301.343 593.479 301.47C593.495 301.596 593.484 301.725 593.446 301.847C593.409 301.969 593.347 302.082 593.263 302.178C593.179 302.274 593.075 302.351 592.959 302.405C592.843 302.458 592.717 302.486 592.59 302.488C592.462 302.489 592.335 302.463 592.218 302.412C588.49 301.308 580.673 302.846 580.6 302.864L580.419 302.9Z" fill="#E6EBDE"/>
<path d="M589.088 319.55C588.891 319.553 588.699 319.49 588.542 319.372C588.385 319.254 588.271 319.088 588.219 318.898C588.186 318.784 588.176 318.664 588.188 318.546C588.201 318.428 588.237 318.314 588.295 318.21C588.352 318.105 588.429 318.014 588.521 317.939C588.614 317.865 588.721 317.809 588.835 317.776C589.215 317.667 597.883 315.188 602.606 315.279C602.725 315.281 602.842 315.307 602.951 315.354C603.06 315.402 603.159 315.471 603.241 315.556C603.323 315.642 603.388 315.743 603.431 315.854C603.474 315.965 603.495 316.083 603.493 316.202C603.499 316.323 603.478 316.444 603.433 316.556C603.389 316.669 603.32 316.77 603.233 316.854C603.145 316.938 603.041 317.003 602.927 317.043C602.812 317.083 602.691 317.099 602.57 317.088C598.299 316.98 589.414 319.495 589.323 319.513C589.248 319.543 589.168 319.555 589.088 319.55V319.55Z" fill="#E6EBDE"/>
<path d="M315.028 258.617C314.614 258.619 314.211 258.478 313.888 258.219C313.702 258.07 313.548 257.885 313.433 257.676C313.319 257.467 313.247 257.237 313.222 257C313.197 256.763 313.219 256.523 313.286 256.294C313.354 256.066 313.466 255.853 313.617 255.667C356.126 202.644 414.507 207.294 415.158 207.331C415.396 207.352 415.627 207.42 415.839 207.531C416.05 207.641 416.238 207.793 416.39 207.976C416.543 208.159 416.659 208.371 416.73 208.598C416.801 208.826 416.827 209.066 416.805 209.303C416.784 209.541 416.716 209.772 416.605 209.983C416.495 210.195 416.343 210.382 416.16 210.535C415.977 210.688 415.765 210.803 415.538 210.875C415.31 210.946 415.07 210.971 414.833 210.95C414.272 210.95 357.755 206.462 316.512 258.002C316.329 258.212 316.1 258.377 315.842 258.483C315.585 258.59 315.306 258.636 315.028 258.617Z" fill="white"/>
<path d="M302.27 280.822C302.144 280.84 302.016 280.84 301.89 280.822C301.422 280.718 301.015 280.433 300.757 280.03C300.499 279.626 300.412 279.136 300.515 278.669C301.756 274.528 303.545 270.572 305.835 266.906C305.929 266.66 306.075 266.438 306.264 266.254C306.452 266.071 306.679 265.931 306.927 265.844C307.175 265.757 307.44 265.725 307.701 265.751C307.963 265.776 308.216 265.859 308.443 265.992C308.67 266.125 308.865 266.306 309.014 266.523C309.164 266.739 309.264 266.986 309.309 267.245C309.353 267.504 309.341 267.77 309.272 268.024C309.204 268.278 309.081 268.514 308.911 268.715C306.847 272.043 305.211 275.618 304.043 279.356C303.964 279.768 303.743 280.14 303.42 280.407C303.096 280.675 302.69 280.821 302.27 280.822Z" fill="white"/>
<path d="M669.384 287.373C669.306 287.389 669.226 287.389 669.149 287.373C669.033 287.342 668.925 287.288 668.83 287.214C668.735 287.141 668.656 287.049 668.597 286.945C668.538 286.84 668.501 286.725 668.487 286.606C668.473 286.487 668.482 286.366 668.515 286.251L680.749 240.376C680.778 240.261 680.83 240.153 680.902 240.058C680.974 239.964 681.064 239.884 681.167 239.825C681.27 239.766 681.383 239.729 681.501 239.714C681.619 239.7 681.739 239.709 681.853 239.742C681.968 239.772 682.076 239.824 682.172 239.895C682.267 239.967 682.347 240.056 682.408 240.159C682.468 240.261 682.508 240.375 682.524 240.493C682.541 240.611 682.534 240.731 682.504 240.846L670.325 286.704C670.268 286.906 670.143 287.082 669.972 287.204C669.801 287.326 669.594 287.385 669.384 287.373V287.373Z" fill="#E6EBDE"/>
<path d="M545.076 420.168C544.88 420.162 544.692 420.093 544.538 419.971C544.385 419.848 544.276 419.68 544.227 419.49C544.178 419.3 544.192 419.099 544.267 418.918C544.342 418.737 544.473 418.585 544.642 418.485L572.602 402.922C572.811 402.805 573.057 402.775 573.288 402.839C573.519 402.904 573.714 403.057 573.832 403.266C573.893 403.368 573.932 403.482 573.947 403.601C573.963 403.719 573.954 403.839 573.922 403.954C573.89 404.069 573.835 404.176 573.761 404.269C573.686 404.363 573.594 404.44 573.488 404.496L545.456 420.168C545.331 420.193 545.202 420.193 545.076 420.168V420.168Z" fill="#E6EBDE"/>
<path d="M610.859 463.474H610.587C610.359 463.399 610.169 463.238 610.057 463.025C609.946 462.812 609.921 462.564 609.99 462.334L615.238 445.612C615.313 445.384 615.474 445.194 615.687 445.082C615.9 444.971 616.148 444.947 616.378 445.015C616.606 445.09 616.795 445.252 616.904 445.465C617.012 445.679 617.031 445.927 616.957 446.155L611.727 462.877C611.661 463.053 611.542 463.205 611.387 463.312C611.231 463.418 611.047 463.475 610.859 463.474V463.474Z" fill="#E6EBDE"/>
<path d="M727.837 412.423C727.698 412.429 727.561 412.398 727.439 412.332L699.569 398.398C699.462 398.346 699.367 398.273 699.288 398.184C699.209 398.094 699.148 397.991 699.11 397.878C699.071 397.765 699.055 397.646 699.062 397.527C699.07 397.408 699.101 397.292 699.153 397.185C699.265 396.971 699.457 396.809 699.687 396.735C699.917 396.66 700.167 396.679 700.384 396.787L728.235 410.722C728.342 410.774 728.438 410.847 728.517 410.936C728.596 411.025 728.656 411.129 728.695 411.241C728.733 411.354 728.75 411.473 728.742 411.592C728.735 411.711 728.704 411.827 728.651 411.934C728.572 412.082 728.455 412.205 728.312 412.291C728.168 412.377 728.004 412.423 727.837 412.423Z" fill="#E6EBDE"/>
<path d="M727.836 341.41H708.129C707.889 341.41 707.659 341.315 707.489 341.145C707.319 340.976 707.224 340.745 707.224 340.505C707.224 340.265 707.319 340.035 707.489 339.866C707.659 339.696 707.889 339.601 708.129 339.601H727.836C728.076 339.601 728.307 339.696 728.476 339.866C728.646 340.035 728.741 340.265 728.741 340.505C728.741 340.745 728.646 340.976 728.476 341.145C728.307 341.315 728.076 341.41 727.836 341.41Z" fill="#E6EBDE"/>
<path d="M573.036 364.575H551.32C551.08 364.575 550.85 364.479 550.68 364.31C550.51 364.14 550.415 363.91 550.415 363.67C550.415 363.43 550.51 363.2 550.68 363.03C550.85 362.86 551.08 362.765 551.32 362.765H573.036C573.275 362.77 573.502 362.866 573.671 363.035C573.84 363.204 573.936 363.431 573.941 363.67C573.941 363.91 573.846 364.14 573.676 364.31C573.506 364.479 573.276 364.575 573.036 364.575Z" fill="#E6EBDE"/>
<path d="M675.501 439.948C675.322 439.95 675.146 439.897 674.998 439.797C674.849 439.697 674.734 439.554 674.669 439.387L668.516 423.787C668.472 423.677 668.45 423.559 668.451 423.44C668.453 423.321 668.478 423.204 668.525 423.094C668.572 422.985 668.64 422.886 668.726 422.803C668.811 422.72 668.912 422.655 669.022 422.611C669.246 422.527 669.493 422.533 669.713 422.627C669.932 422.722 670.106 422.898 670.199 423.118L676.315 438.754C676.359 438.865 676.38 438.984 676.377 439.104C676.374 439.224 676.348 439.342 676.299 439.451C676.25 439.561 676.18 439.66 676.093 439.742C676.005 439.824 675.903 439.888 675.791 439.93L675.501 439.948Z" fill="#E6EBDE"/>
<path d="M640.502 279.881C640.262 279.881 640.031 279.786 639.862 279.616C639.692 279.446 639.597 279.216 639.597 278.976V256.808C639.597 256.568 639.692 256.337 639.862 256.168C640.031 255.998 640.262 255.903 640.502 255.903C640.742 255.903 640.972 255.998 641.141 256.168C641.311 256.337 641.406 256.568 641.406 256.808V279.012C641.397 279.246 641.298 279.467 641.129 279.629C640.96 279.791 640.735 279.881 640.502 279.881Z" fill="#E6EBDE"/>
</svg>
