<svg width="960" height="642" viewBox="0 0 960 642" fill="none" xmlns="http://www.w3.org/2000/svg">
<rect width="960" height="642" fill="#FF7747"/>
<path d="M555.638 216.573C555.638 216.573 562.09 212.118 586.888 232.919C611.685 253.721 612.68 272.535 612.68 272.535V190.261C612.68 190.261 599.776 154.557 558.125 140.741L555.638 216.573Z" fill="#E6EBDE"/>
<path d="M612.68 273.312C612.48 273.316 612.287 273.242 612.142 273.105C611.996 272.969 611.91 272.781 611.902 272.582C611.902 272.396 610.596 253.814 586.389 233.509C562.711 213.655 556.181 217.194 556.057 217.225C555.934 217.298 555.795 217.336 555.652 217.336C555.51 217.336 555.37 217.298 555.248 217.225C555.128 217.156 555.029 217.056 554.961 216.936C554.893 216.816 554.858 216.68 554.859 216.542L557.347 140.772C557.348 140.651 557.377 140.532 557.433 140.425C557.489 140.318 557.57 140.226 557.669 140.156C557.768 140.086 557.882 140.041 558.001 140.024C558.121 140.007 558.243 140.018 558.358 140.058C599.9 153.874 613.286 189.733 613.41 190.043C613.424 190.131 613.424 190.22 613.41 190.307V272.582C613.41 272.785 613.331 272.98 613.188 273.125C613.046 273.271 612.852 273.354 612.648 273.358L612.68 273.312ZM557.736 215.44C561.514 215.44 570.065 217.862 587.384 232.392C603.242 245.695 609.461 258.114 611.902 265.519V190.478C606.901 179.158 599.605 168.995 590.475 160.63C581.346 152.265 570.579 145.879 558.855 141.874L556.445 215.44C556.874 215.395 557.307 215.395 557.736 215.44V215.44Z" fill="#2D2D2D"/>
<path d="M358.576 244.516V171.291C387.065 161.402 417.255 157.331 447.351 159.322V229.582C447.351 229.582 393.013 231.072 358.576 244.516Z" fill="#E6EBDE"/>
<path d="M358.591 245.292C358.432 245.297 358.275 245.253 358.141 245.168C358.04 245.091 357.958 244.993 357.901 244.88C357.844 244.767 357.815 244.642 357.814 244.516V171.291C357.812 171.135 357.856 170.982 357.942 170.852C358.028 170.722 358.152 170.621 358.296 170.562C386.923 160.686 417.234 156.601 447.459 158.546C447.655 158.562 447.837 158.651 447.969 158.794C448.102 158.938 448.175 159.127 448.175 159.322V229.582C448.175 229.783 448.097 229.975 447.958 230.12C447.819 230.265 447.629 230.35 447.428 230.358C446.884 230.358 392.78 232.004 358.809 245.245C358.739 245.27 358.666 245.285 358.591 245.292V245.292ZM359.369 171.819V243.382C391.349 231.243 439.981 229.054 446.62 228.806V160.052C417.046 158.257 387.406 162.254 359.369 171.819V171.819Z" fill="#2D2D2D"/>
<path d="M324.528 285.296C324.528 285.296 298.097 296.256 288.101 328.638V263.811C288.101 263.811 287.525 232.423 324.528 212.491V285.296Z" fill="#E6EBDE"/>
<path d="M288.022 329.352H287.914C287.728 329.322 287.559 329.228 287.437 329.086C287.314 328.944 287.246 328.763 287.245 328.576V263.811C287.245 263.501 287.245 231.74 324.076 211.808C324.196 211.742 324.329 211.708 324.465 211.708C324.601 211.708 324.735 211.742 324.854 211.808C324.967 211.878 325.061 211.977 325.126 212.093C325.192 212.21 325.226 212.341 325.227 212.475V285.296C325.226 285.449 325.18 285.599 325.094 285.726C325.009 285.853 324.887 285.952 324.745 286.01C316.146 290.311 308.519 296.322 302.332 303.674C296.145 311.026 291.53 319.563 288.769 328.762C288.727 328.929 288.632 329.077 288.497 329.184C288.362 329.291 288.195 329.35 288.022 329.352ZM323.672 213.888C288.769 233.292 288.769 263.563 288.769 263.796V323.903C295.062 306.943 307.509 292.963 323.641 284.737L323.672 213.888Z" fill="#2D2D2D"/>
<path d="M288.023 263.811C288.023 263.811 294.506 291.971 319.459 301.316V377.087C319.459 377.087 291.024 357.48 288.023 328.576V263.811Z" fill="white"/>
<path d="M319.46 377.863C319.303 377.864 319.151 377.815 319.024 377.723C318.729 377.521 290.246 357.542 287.261 328.653V263.811C287.264 263.619 287.336 263.434 287.465 263.292C287.593 263.149 287.77 263.058 287.961 263.035C288.151 263.012 288.344 263.061 288.5 263.173C288.655 263.286 288.763 263.452 288.8 263.64C288.8 263.92 295.501 291.583 319.755 300.586C319.902 300.643 320.029 300.743 320.118 300.874C320.207 301.004 320.254 301.158 320.252 301.316V377.086C320.251 377.228 320.212 377.366 320.138 377.486C320.064 377.607 319.958 377.705 319.833 377.769C319.719 377.834 319.59 377.866 319.46 377.863ZM288.769 268.856V328.575C291.335 353.304 313.21 371.405 318.651 375.55V301.844C300.336 294.719 291.879 277.363 288.769 268.856Z" fill="#2D2D2D"/>
<path d="M493.417 298.615C493.417 298.615 523.454 399.937 535.597 405.013C547.739 410.089 566.442 396.491 568.013 387.844C569.583 379.198 545.127 278.978 545.127 278.978L493.417 298.615Z" fill="white"/>
<path d="M541.458 406.907C539.326 406.941 537.21 406.54 535.239 405.727C529.984 403.539 521.247 384.848 509.151 350.169C500.227 324.477 492.687 299.081 492.609 298.832C492.549 298.645 492.564 298.442 492.651 298.265C492.738 298.088 492.89 297.952 493.075 297.885L544.785 278.264C544.886 278.221 544.995 278.2 545.104 278.2C545.214 278.2 545.322 278.221 545.423 278.264C545.521 278.316 545.607 278.388 545.674 278.477C545.741 278.565 545.788 278.667 545.812 278.776C546.822 282.874 570.314 379.229 568.728 387.953C567.826 392.843 561.996 399.068 554.549 403.104C550.552 405.396 546.063 406.7 541.458 406.907V406.907ZM494.366 299.081C495.625 303.319 502.59 326.371 510.69 349.656C526.238 394.566 533.187 403.166 535.908 404.299C540.665 406.302 547.226 405.37 553.881 401.769C560.83 398.012 566.458 392.082 567.251 387.705C568.464 381.045 553.072 314.868 544.568 280.018L494.366 299.081Z" fill="#2D2D2D"/>
<path d="M545.298 383.094C544.023 350.262 595.158 305.088 595.158 305.088L623.143 322.816C623.143 322.816 602.326 382.038 581.85 401.986C571.729 411.875 545.998 403.275 545.298 383.094Z" fill="white"/>
<path d="M570.547 406.923C567.181 406.89 563.853 406.221 560.737 404.951C553.149 401.94 544.878 394.628 544.443 383.141C543.899 369.325 552.217 351.892 569.07 331.308C576.92 321.787 585.44 312.838 594.567 304.53C594.702 304.429 594.865 304.374 595.034 304.374C595.202 304.374 595.366 304.429 595.5 304.53L623.485 322.242C623.636 322.335 623.75 322.476 623.81 322.643C623.869 322.809 623.87 322.991 623.812 323.158C623.594 323.748 602.714 382.784 582.332 402.7C579.103 405.585 574.876 407.1 570.547 406.923V406.923ZM545.998 383.094C546.402 393.836 554.176 400.682 561.312 403.523C568.93 406.55 576.968 405.759 581.29 401.521C600.335 382.892 619.956 329.352 622.179 323.158L595.174 306.082C590.214 310.568 544.816 352.653 545.998 383.079V383.094Z" fill="#2D2D2D"/>
<path d="M567.406 400.993C567.246 400.992 567.089 400.943 566.956 400.853C566.789 400.732 566.677 400.55 566.642 400.348C566.607 400.145 566.653 399.936 566.769 399.766C567.173 399.208 607.192 342.997 614.53 310.848C614.552 310.748 614.594 310.653 614.653 310.569C614.712 310.485 614.787 310.413 614.873 310.359C614.96 310.304 615.057 310.267 615.158 310.249C615.259 310.232 615.363 310.235 615.463 310.258C615.563 310.28 615.657 310.321 615.741 310.38C615.824 310.439 615.895 310.515 615.949 310.602C616.002 310.688 616.038 310.785 616.053 310.886C616.069 310.987 616.064 311.09 616.038 311.189C608.622 343.633 568.448 400.108 568.044 400.667C567.973 400.769 567.877 400.852 567.766 400.909C567.655 400.966 567.531 400.995 567.406 400.993V400.993Z" fill="#E6EBDE"/>
<path d="M503.709 319.82C526.618 319.82 545.189 301.277 545.189 278.403C545.189 255.53 526.618 236.987 503.709 236.987C480.801 236.987 462.229 255.53 462.229 278.403C462.229 301.277 480.801 319.82 503.709 319.82Z" fill="#2D2D2D"/>
<path d="M503.71 320.596C495.352 320.596 487.182 318.122 480.233 313.486C473.283 308.849 467.867 302.26 464.669 294.55C461.47 286.84 460.634 278.357 462.264 270.172C463.895 261.987 467.919 254.469 473.829 248.568C479.739 242.668 487.268 238.649 495.466 237.021C503.663 235.393 512.159 236.229 519.881 239.422C527.602 242.616 534.202 248.024 538.845 254.962C543.489 261.901 545.967 270.058 545.967 278.403C545.955 289.59 541.498 300.315 533.576 308.225C525.654 316.135 514.913 320.584 503.71 320.596V320.596ZM503.71 237.763C495.659 237.763 487.79 240.146 481.096 244.612C474.403 249.078 469.186 255.425 466.105 262.851C463.025 270.277 462.218 278.448 463.789 286.332C465.36 294.216 469.236 301.457 474.928 307.141C480.621 312.824 487.873 316.695 495.769 318.263C503.664 319.831 511.848 319.026 519.286 315.95C526.723 312.874 533.08 307.665 537.553 300.982C542.025 294.299 544.412 286.441 544.412 278.403C544.396 267.63 540.102 257.302 532.472 249.684C524.843 242.066 514.499 237.779 503.71 237.763V237.763Z" fill="#2D2D2D"/>
<path d="M444.879 248.039C444.879 248.039 386.157 264.976 374.683 294.858C363.209 324.741 400.258 476.484 400.258 476.484C400.258 476.484 463.846 510.139 527.745 474.776C527.745 474.776 545.703 346.226 536.234 313.844C526.766 281.462 504.876 249.7 491.287 244.935C477.699 240.169 444.879 248.039 444.879 248.039Z" fill="white"/>
<path d="M464.577 491.495C442.214 491.462 420.13 486.529 399.885 477.043C399.788 476.993 399.703 476.923 399.636 476.837C399.568 476.751 399.521 476.652 399.496 476.546C399.403 476.173 390.168 438.125 382.394 396.926C371.993 341.491 369.148 307.044 373.952 294.47C378.756 281.896 392.174 270.098 413.738 259.418C423.71 254.533 434.05 250.433 444.661 247.155V247.155C445.998 246.829 477.808 239.393 491.489 244.19C506.135 249.266 527.761 282.284 536.887 313.456C546.309 345.636 529.114 469.452 528.43 474.698C528.418 474.819 528.376 474.934 528.308 475.035C528.24 475.135 528.148 475.217 528.041 475.273C508.629 486.025 486.775 491.611 464.577 491.495ZM400.927 475.832C405.793 478.269 466.614 507.36 526.999 474.155C528.072 466.393 544.521 344.922 535.457 313.937C525.6 280.282 503.88 250.151 491.038 245.633C477.901 241.085 446.029 248.428 445.081 248.645C443.775 249.017 386.546 266.016 375.414 294.998C364.422 323.701 398.968 467.728 400.927 475.832V475.832Z" fill="#2D2D2D"/>
<path d="M500.072 484.447C499.87 484.443 499.676 484.362 499.532 484.221C499.387 484.08 499.303 483.888 499.295 483.687C499.295 482.025 496.341 318.144 494.63 305.166C492.734 291.195 462.277 279.211 461.981 279.086C461.792 279.007 461.641 278.858 461.56 278.67C461.479 278.481 461.474 278.269 461.546 278.077C461.582 277.983 461.637 277.897 461.706 277.824C461.776 277.751 461.86 277.692 461.952 277.652C462.045 277.611 462.145 277.59 462.246 277.588C462.347 277.587 462.447 277.605 462.541 277.643C463.831 278.139 494.18 290.062 496.185 304.964C497.926 317.973 500.756 476.856 500.849 483.609C500.851 483.711 500.833 483.812 500.796 483.907C500.759 484.002 500.703 484.089 500.633 484.162C500.562 484.236 500.477 484.295 500.384 484.336C500.29 484.376 500.19 484.399 500.088 484.401L500.072 484.447Z" fill="#E6EBDE"/>
<path d="M429.907 244.935L432.395 280.81C432.395 280.81 447.196 296.613 462.23 294.781C478.586 292.763 490.324 280.81 490.324 280.81L488.038 255.692L429.907 244.935Z" fill="#2D2D2D"/>
<path d="M459.789 295.712C445.517 295.712 432.488 281.989 431.913 281.368C431.786 281.238 431.709 281.068 431.695 280.887L429.223 245.012C429.212 244.897 429.229 244.78 429.272 244.672C429.315 244.564 429.384 244.468 429.472 244.391C429.56 244.309 429.667 244.248 429.783 244.216C429.9 244.183 430.022 244.18 430.14 244.205L488.271 254.901C488.437 254.934 488.587 255.02 488.699 255.146C488.812 255.272 488.88 255.431 488.893 255.599L491.179 280.716C491.187 280.829 491.172 280.943 491.135 281.05C491.097 281.156 491.038 281.254 490.961 281.337C490.464 281.834 478.834 293.539 462.401 295.557C461.534 295.663 460.662 295.715 459.789 295.712ZM433.234 280.499C434.991 282.284 448.657 295.697 462.214 294.02C476.798 292.219 487.805 282.207 489.593 280.499L487.401 256.329L430.84 245.913L433.234 280.499Z" fill="#2D2D2D"/>
<path d="M501.269 323.189C501.269 323.189 468.433 333.652 468.091 375.969C467.749 418.286 496.9 408.568 513.738 394.597C530.575 380.626 533.203 359.98 531.71 347.514C530.218 335.049 522.226 317.212 501.269 323.189Z" fill="white"/>
<path d="M486.779 407.357C484.145 407.415 481.532 406.885 479.13 405.805C471.154 402.017 467.174 392.005 467.314 376.046C467.656 333.636 500.694 322.614 501.036 322.506C508.56 320.363 515.028 321.047 520.345 324.555C529.767 330.764 532.006 343.757 532.456 347.576C534.182 361.935 530.311 382.023 514.22 395.342C506.788 401.443 496.107 407.357 486.779 407.357ZM501.502 323.934C500.787 324.167 469.21 334.987 468.853 376C468.713 391.306 472.398 400.837 479.736 404.346C489.624 409.003 503.927 401.738 513.178 394.085C528.725 381.169 532.55 361.656 530.871 347.685C530.435 344.037 528.305 331.68 519.428 325.781C514.608 322.552 508.56 321.916 501.502 323.934Z" fill="#2D2D2D"/>
<path d="M523.719 359.064C523.112 371.482 510.27 389.785 501.284 393.215C495.796 395.327 488.442 397.158 483.653 391.88C480.622 388.512 478.616 382.287 478.818 371.451C479.316 343.509 500.087 335.825 505.995 334.583C508.732 334.156 511.533 334.671 513.939 336.042C519.241 338.914 524.356 345.744 523.719 359.064Z" fill="white"/>
<path d="M491.972 396.15C490.312 396.201 488.66 395.893 487.131 395.247C485.601 394.601 484.23 393.633 483.11 392.408C479.581 388.496 477.886 381.433 478.072 371.436C478.632 339.892 504.767 334.055 505.871 333.823C508.785 333.378 511.764 333.925 514.329 335.375C518.464 337.579 525.212 343.556 524.528 359.064C523.89 372.197 510.659 390.437 501.595 393.945C498.549 395.261 495.287 396.008 491.972 396.15V396.15ZM507.799 335.235C507.276 335.24 506.755 335.297 506.244 335.406C505.171 335.623 480.202 341.196 479.674 371.514C479.503 381.123 481.058 387.813 484.338 391.43C488.924 396.476 496.107 394.535 501.113 392.548C509.664 389.226 522.46 371.327 523.051 359.033C523.75 344.379 517.485 338.852 513.722 336.788C511.908 335.785 509.872 335.252 507.799 335.235Z" fill="#2D2D2D"/>
<path d="M523.719 359.064C523.113 371.482 510.271 389.785 501.284 393.215C495.796 395.327 488.442 397.158 483.654 391.88C488.955 392.455 496.838 390.53 505.42 379.089C516.925 363.767 517.858 347.079 513.924 336.042C519.241 338.914 524.356 345.744 523.719 359.064Z" fill="#2D2D2D"/>
<path d="M491.971 396.149C490.311 396.2 488.66 395.893 487.131 395.247C485.601 394.601 484.229 393.633 483.109 392.408C483 392.293 482.929 392.146 482.906 391.989C482.883 391.831 482.908 391.671 482.98 391.528C483.051 391.386 483.164 391.269 483.304 391.193C483.444 391.117 483.604 391.086 483.762 391.104C488.722 391.632 496.371 389.893 504.845 378.685C516.567 363.069 516.863 346.583 513.24 336.353C513.189 336.207 513.182 336.05 513.221 335.901C513.26 335.751 513.342 335.617 513.458 335.515C513.575 335.411 513.721 335.345 513.876 335.326C514.032 335.306 514.189 335.334 514.328 335.406C518.464 337.61 525.211 343.587 524.527 359.095C523.89 372.228 510.659 390.468 501.595 393.976C498.547 395.281 495.285 396.017 491.971 396.149V396.149ZM485.753 392.796C490.292 396.056 496.511 394.271 500.989 392.548C509.54 389.226 522.335 371.327 522.926 359.033C523.532 346.459 519.008 340.575 515.308 337.874C518.34 348.554 517.376 364.497 505.979 379.617C498.299 389.956 491.039 392.657 485.768 392.796H485.753Z" fill="#2D2D2D"/>
<path d="M350.57 353.087C350.57 353.087 354.068 458.647 364.562 466.673C375.057 474.698 396.559 466.176 400.321 458.197C404.083 450.218 405.638 347.095 405.638 347.095L350.57 353.087Z" fill="white"/>
<path d="M375.414 470.662C371.368 470.811 367.386 469.627 364.08 467.294C359.54 463.847 355.778 443.543 352.855 406.954C350.694 379.85 349.746 353.367 349.746 353.103C349.744 352.908 349.815 352.719 349.944 352.573C350.073 352.427 350.252 352.334 350.445 352.311L405.436 346.334C405.544 346.321 405.654 346.331 405.759 346.363C405.863 346.395 405.96 346.449 406.042 346.521C406.124 346.595 406.19 346.687 406.236 346.788C406.281 346.89 406.305 346.999 406.306 347.111C406.306 351.333 404.658 450.497 400.912 458.538C398.813 463.04 391.583 467.604 383.374 469.638C380.77 470.286 378.098 470.63 375.414 470.662V470.662ZM351.378 353.77C351.534 358.194 352.451 382.256 354.488 406.83C358.265 454.207 362.759 464.267 365.091 466.052C369.211 469.157 375.772 469.933 383.126 468.132C390.806 466.238 397.74 461.923 399.621 457.871C402.482 451.739 404.285 383.824 404.861 347.964L351.378 353.77Z" fill="#2D2D2D"/>
<path d="M388.131 437.007C410.706 413.086 478.803 417.851 478.803 417.851L485.799 450.233C485.799 450.233 428.912 476.934 400.289 476.359C386.203 476.096 374.279 451.677 388.131 437.007Z" fill="white"/>
<path d="M401.145 477.151H400.243C393.48 477.027 386.873 471.609 383.405 463.382C380.296 455.853 379.674 444.847 387.557 436.495C397.056 426.42 415.324 420.102 441.863 417.696C454.162 416.616 466.522 416.414 478.85 417.091C479.02 417.097 479.182 417.161 479.312 417.27C479.441 417.38 479.531 417.53 479.565 417.696L486.561 450.078C486.599 450.251 486.576 450.431 486.497 450.589C486.418 450.747 486.287 450.874 486.126 450.947C485.566 451.196 429.923 477.151 401.145 477.151ZM465.215 418.255C444.242 418.255 404.581 420.63 388.692 437.535C381.322 445.297 381.866 455.698 384.836 462.761C388.023 470.305 394.164 475.475 400.274 475.583C426.86 476.173 478.928 452.546 484.913 449.783L478.166 418.581C476.564 418.488 471.807 418.255 465.215 418.255Z" fill="#2D2D2D"/>
<path d="M392.935 465.803C392.756 465.803 392.583 465.742 392.444 465.629C392.305 465.515 392.21 465.358 392.174 465.183C392.137 464.979 392.182 464.769 392.298 464.598C392.414 464.427 392.593 464.308 392.796 464.267C393.449 464.142 459.042 451.087 479.611 437.877C479.784 437.778 479.988 437.75 480.182 437.797C480.375 437.844 480.543 437.964 480.65 438.131C480.758 438.298 480.797 438.5 480.76 438.696C480.723 438.891 480.612 439.064 480.451 439.181C459.633 452.577 395.796 465.276 393.091 465.803H392.935Z" fill="#E6EBDE"/>
<path d="M476.984 422.99C476.984 422.99 491.256 409.639 497.6 404.361C503.943 399.083 516.567 391.772 516.256 398.152C515.945 404.532 504.176 407.668 503.725 409.375C503.725 409.375 527.761 405.665 538.971 409.375C550.18 413.086 553.181 416.082 549.854 417.913C546.527 419.745 534.213 415.414 528.554 416.082C522.895 416.749 517.578 417.913 517.578 417.913C517.578 417.913 537.214 419.078 543.526 423.052C549.838 427.026 552.512 431.031 548.517 432.366C544.521 433.701 532.223 424.061 520.252 425.722C520.252 425.722 545.889 434.027 545.205 440.655C544.521 447.284 541.738 446.306 538.986 444.645C536.234 442.984 522.879 437.318 516.894 436.324C516.894 436.324 544.226 458.275 536.887 459.61C529.549 460.945 514.08 444.334 514.08 444.334C514.08 444.334 484.338 458.306 477.015 449.985C469.692 441.664 476.984 422.99 476.984 422.99Z" fill="#2D2D2D"/>
<path d="M535.97 460.386C528.693 460.386 516.225 447.718 513.815 445.188C509.679 447.082 483.513 458.538 476.346 450.42C468.806 441.851 475.911 423.486 476.206 422.71C476.25 422.602 476.319 422.506 476.408 422.431C476.548 422.291 490.774 408.987 497.055 403.802C501.237 400.325 511.685 393.324 515.541 395.249C516.054 395.526 516.468 395.956 516.724 396.479C516.981 397.003 517.067 397.593 516.971 398.167C516.722 402.824 511.078 405.836 507.347 407.807L506.663 408.165C513.566 407.295 530.202 405.665 539.157 408.63C551.595 412.728 551.766 415.259 551.843 416.097C551.921 416.935 551.657 417.758 550.164 418.581C548.112 419.699 543.774 418.907 538.752 417.975C535.423 417.177 532.008 416.797 528.585 416.842C526.719 417.06 524.884 417.339 523.267 417.603C529.642 418.255 539.592 419.683 543.883 422.384C546.728 424.185 551.47 427.647 551.097 430.627C551.004 431.419 550.506 432.474 548.703 433.08C546.899 433.685 543.914 432.49 539.887 430.798C535.348 428.904 529.922 426.622 524.34 426.312C531.772 429.028 546.495 435.113 545.92 440.733C545.593 443.838 544.8 445.654 543.417 446.337C542.033 447.02 540.152 446.337 538.519 445.297C532.556 442.275 526.34 439.782 519.94 437.846C538.939 453.478 538.97 458.026 538.784 458.849C538.682 459.269 538.45 459.645 538.12 459.924C537.79 460.203 537.38 460.37 536.949 460.401C536.623 460.428 536.295 460.423 535.97 460.386V460.386ZM514.048 443.481C514.156 443.479 514.263 443.5 514.362 443.543C514.462 443.586 514.55 443.649 514.623 443.729C518.837 448.262 531.041 459.811 536.716 458.771C537.26 458.678 537.307 458.492 537.322 458.43C538.006 455.713 525.491 444.179 516.38 436.868C516.244 436.759 516.148 436.609 516.106 436.441C516.064 436.273 516.078 436.095 516.147 435.936C516.217 435.779 516.337 435.649 516.489 435.568C516.641 435.486 516.816 435.457 516.986 435.486C522.925 436.479 536.405 442.146 539.359 443.915C540.572 444.645 541.924 445.328 542.764 444.909C543.339 444.614 544.101 443.62 544.412 440.516C544.863 436.138 529.673 429.525 519.987 426.389C519.885 426.38 519.786 426.351 519.695 426.303C519.604 426.256 519.524 426.191 519.458 426.112C519.325 425.954 519.261 425.749 519.28 425.543C519.298 425.337 519.398 425.147 519.557 425.015C519.716 424.882 519.921 424.818 520.127 424.837C527.496 423.812 535.037 426.964 540.54 429.277C543.976 430.72 546.93 431.962 548.314 431.512C549.154 431.232 549.604 430.844 549.667 430.348C549.807 429.214 548.112 426.777 543.168 423.61C537.089 419.776 517.779 418.581 517.577 418.581C517.391 418.57 517.216 418.491 517.084 418.359C516.952 418.228 516.873 418.052 516.862 417.867C516.843 417.679 516.894 417.491 517.006 417.339C517.118 417.187 517.283 417.082 517.468 417.044C517.468 417.044 522.894 415.864 528.522 415.197C532.097 415.132 535.666 415.523 539.141 416.361C543.277 417.122 547.956 417.913 549.527 417.122C549.947 416.889 550.428 416.532 550.397 416.144C550.366 415.756 549.636 413.598 538.784 410.012C527.932 406.426 504.129 410.012 503.896 410.012C503.768 410.027 503.638 410.012 503.517 409.969C503.396 409.926 503.286 409.856 503.196 409.763C503.113 409.666 503.054 409.551 503.024 409.427C502.995 409.303 502.995 409.173 503.025 409.049C503.243 408.18 504.315 407.59 506.725 406.317C510.146 404.501 515.323 401.753 515.525 397.966C515.525 396.832 515.136 396.599 514.965 396.522C512.571 395.311 503.973 400.03 498.159 404.874C492.344 409.717 479.16 421.949 477.714 423.362C477.03 425.178 471.06 441.851 477.621 449.317C480.404 452.422 487.478 452.422 498.081 449.317C503.44 447.7 508.686 445.73 513.784 443.418C513.875 443.42 513.965 443.441 514.048 443.481V443.481Z" fill="#2D2D2D"/>
<path d="M503.927 177.206C503.927 177.206 508.249 218.731 507.254 240.65C506.259 262.569 497.615 269.54 479.269 273.25C460.923 276.96 432.021 260.955 415.727 240.029C399.434 219.104 397.599 208.097 402.994 177.206H503.927Z" fill="white"/>
<path d="M473.906 274.429C455.902 274.429 430.373 260.024 415.168 240.417C398.984 219.693 396.683 208.423 402.264 177.066C402.294 176.886 402.387 176.723 402.527 176.607C402.666 176.49 402.844 176.427 403.026 176.429H503.958C504.152 176.428 504.339 176.499 504.482 176.629C504.626 176.758 504.716 176.936 504.736 177.128C504.736 177.547 509.058 218.948 508.063 240.681C506.99 264.075 497.18 270.424 479.503 273.964C477.656 274.298 475.782 274.454 473.906 274.429V274.429ZM403.648 177.982C398.284 208.641 400.538 219.088 416.381 239.501C433.001 260.831 461.748 275.92 479.161 272.442C496.091 269.058 505.466 262.989 506.477 240.619C507.394 220.547 503.787 183.508 503.228 177.982H403.648Z" fill="#2D2D2D"/>
<path d="M402.995 177.206C402.995 177.206 406.462 191.487 441.723 193.816C476.984 196.144 503.912 186.846 503.912 177.206C503.912 167.565 478.818 158.577 453.445 157.941C428.072 157.304 404.441 168.233 402.995 177.206Z" fill="white"/>
<path d="M452.855 194.964C449.279 194.964 445.553 194.84 441.676 194.592C406.244 192.248 402.388 177.997 402.264 177.392C402.241 177.29 402.241 177.184 402.264 177.081C403.819 167.55 427.762 156.513 453.57 157.165C477.761 157.801 504.798 166.479 504.798 177.206C504.727 178.372 504.414 179.512 503.879 180.551C503.344 181.591 502.598 182.508 501.689 183.244C495.143 189.252 477.621 194.964 452.855 194.964ZM403.819 177.159C404.052 177.842 405.28 180.885 409.789 184.129C414.531 187.544 423.921 191.891 441.801 193.04C470.656 194.949 493.184 188.972 500.538 182.173C501.293 181.581 501.917 180.839 502.372 179.995C502.826 179.151 503.102 178.223 503.181 177.268C503.181 168.435 479.021 159.447 453.43 158.779C429.005 158.003 405.482 168.45 403.819 177.159Z" fill="#2D2D2D"/>
<path d="M421.9 239.098C427.792 241.395 441.645 241.97 439.639 223.295C437.634 204.62 430.311 194.297 417.593 194.266C404.876 194.235 404.72 209.339 406.213 215.316C407.705 221.292 409.198 234.068 421.9 239.098Z" fill="#2D2D2D"/>
<path d="M428.165 241.007C425.93 241 423.713 240.595 421.62 239.812V239.812C409.882 235.155 407.41 224.195 405.933 217.598C405.777 216.837 405.606 216.139 405.451 215.502C404.362 211.155 404.191 202.819 408.171 197.743C409.278 196.347 410.7 195.234 412.322 194.494C413.944 193.755 415.719 193.41 417.5 193.49V193.49C430.357 193.49 438.255 203.797 440.323 223.217C441.1 230.56 439.592 235.76 435.799 238.648C433.58 240.244 430.899 241.072 428.165 241.007ZM422.195 238.368C425.009 239.47 430.886 240.51 434.959 237.406C438.271 234.875 439.623 230.156 438.877 223.435C436.872 204.667 429.704 195.135 417.593 195.104C416.038 195.021 414.487 195.31 413.067 195.947C411.647 196.584 410.4 197.552 409.431 198.768C405.808 203.425 406.01 211.295 406.99 215.192C407.161 215.828 407.316 216.542 407.487 217.318C408.887 223.528 411.25 234.146 422.226 238.43L422.195 238.368Z" fill="#2D2D2D"/>
<path d="M432.395 227.859C432.003 228.872 431.376 229.778 430.565 230.501C429.754 231.224 428.783 231.745 427.73 232.019C419.242 234.115 413.893 224.04 412.385 218.933C410.877 213.826 411.763 200.724 419.257 201.717C420.246 201.736 421.218 201.974 422.102 202.416C424.811 203.745 427.133 205.743 428.85 208.222C432.597 213.189 434.758 222.395 432.395 227.859Z" fill="white"/>
<path d="M425.445 233.075C418.34 233.075 413.334 225.111 411.577 219.104C410.535 215.502 410.426 207.042 413.94 202.944C414.572 202.178 415.389 201.587 416.315 201.226C417.24 200.864 418.242 200.745 419.226 200.879C420.306 200.9 421.368 201.16 422.336 201.64C425.171 203.017 427.606 205.096 429.41 207.678C433.188 212.63 435.628 222.224 433.11 228.107C432.67 229.246 431.964 230.264 431.05 231.074C430.135 231.884 429.04 232.464 427.855 232.764C427.067 232.964 426.258 233.068 425.445 233.075V233.075ZM418.402 202.447C417.773 202.439 417.151 202.575 416.582 202.844C416.014 203.113 415.514 203.508 415.122 203.999C412.277 207.306 412.012 215.021 413.069 218.684C414.298 222.86 419.288 233.261 427.482 231.227C428.43 230.994 429.307 230.535 430.038 229.889C430.77 229.243 431.333 228.429 431.679 227.517V227.517C434.012 222.131 431.68 213.251 428.166 208.656C426.52 206.295 424.307 204.384 421.729 203.099C420.961 202.712 420.118 202.495 419.257 202.462H419.102L418.402 202.447Z" fill="#2D2D2D"/>
<path d="M402.995 177.206C402.995 177.206 407.923 146.158 437.199 141.501C462.54 137.465 495.127 149.263 503.927 177.206C503.927 177.206 507.254 196.144 456.353 195.834C405.451 195.523 402.995 177.206 402.995 177.206Z" fill="#2D2D2D"/>
<path d="M457.658 196.594H456.352C405.373 196.253 402.264 178.09 402.264 177.314V177.081C402.264 176.771 407.627 145.475 437.121 140.787C463.411 136.627 495.889 149.015 504.72 176.973C504.843 178.473 504.643 179.982 504.134 181.398C503.624 182.815 502.817 184.106 501.766 185.185C497.35 190.416 486.11 196.594 457.658 196.594ZM403.818 177.205C404.145 178.634 408.965 194.716 456.399 195.026H457.705C485.457 195.026 496.324 189.174 500.569 184.16C501.461 183.252 502.155 182.17 502.607 180.981C503.059 179.792 503.26 178.522 503.196 177.252C496.48 156.016 470.003 137.046 437.338 142.231C409.897 146.686 404.176 175.079 403.818 177.205Z" fill="#2D2D2D"/>
<path d="M380.576 377.614C403.484 377.614 422.056 359.071 422.056 336.198C422.056 313.324 403.484 294.781 380.576 294.781C357.667 294.781 339.096 313.324 339.096 336.198C339.096 359.071 357.667 377.614 380.576 377.614Z" fill="#2D2D2D"/>
<path d="M380.575 378.437C372.218 378.437 364.047 375.963 357.098 371.326C350.149 366.69 344.733 360.101 341.535 352.391C338.336 344.681 337.499 336.197 339.13 328.013C340.76 319.828 344.785 312.31 350.695 306.409C356.605 300.509 364.134 296.49 372.331 294.862C380.528 293.234 389.025 294.07 396.746 297.263C404.468 300.457 411.068 305.864 415.711 312.803C420.354 319.742 422.833 327.899 422.833 336.244C422.82 347.431 418.364 358.156 410.442 366.066C402.52 373.976 391.779 378.425 380.575 378.437V378.437ZM380.575 295.604C372.525 295.604 364.656 297.987 357.962 302.453C351.269 306.918 346.052 313.266 342.971 320.692C339.89 328.118 339.084 336.289 340.655 344.173C342.225 352.056 346.102 359.298 351.794 364.981C357.486 370.665 364.739 374.536 372.635 376.104C380.53 377.672 388.714 376.867 396.151 373.791C403.589 370.715 409.946 365.506 414.418 358.823C418.891 352.14 421.278 344.282 421.278 336.244C421.274 325.463 416.986 315.123 409.355 307.495C401.724 299.867 391.373 295.574 380.575 295.557V295.604Z" fill="#2D2D2D"/>
<path d="M479.378 229.24C481.619 229.24 483.436 226.495 483.436 223.109C483.436 219.722 481.619 216.977 479.378 216.977C477.137 216.977 475.32 219.722 475.32 223.109C475.32 226.495 477.137 229.24 479.378 229.24Z" fill="#2D2D2D"/>
<path d="M497.46 218.933C499.701 218.933 501.518 216.187 501.518 212.801C501.518 209.414 499.701 206.669 497.46 206.669C495.219 206.669 493.402 209.414 493.402 212.801C493.402 216.187 495.219 218.933 497.46 218.933Z" fill="#2D2D2D"/>
<path d="M433.358 232.19C433.244 232.187 433.132 232.159 433.03 232.108C432.928 232.057 432.838 231.984 432.768 231.895L411.11 205.831C411.045 205.753 410.996 205.662 410.966 205.564C410.935 205.467 410.925 205.365 410.934 205.263C410.943 205.161 410.973 205.063 411.02 204.972C411.068 204.882 411.133 204.802 411.211 204.737C411.29 204.671 411.381 204.622 411.478 204.592C411.576 204.562 411.679 204.551 411.78 204.56C411.882 204.57 411.981 204.599 412.072 204.647C412.162 204.694 412.242 204.759 412.308 204.838L433.98 230.964C434.046 231.041 434.096 231.132 434.126 231.229C434.156 231.326 434.166 231.429 434.156 231.53C434.146 231.631 434.116 231.73 434.067 231.819C434.018 231.908 433.951 231.987 433.872 232.05C433.724 232.16 433.541 232.209 433.358 232.19V232.19Z" fill="#2D2D2D"/>
<path d="M623.128 322.832C618.045 323.233 612.931 322.952 607.923 321.994C598.19 320.441 593.2 314.697 592.951 303.489C592.702 292.281 589.468 277.596 592.951 273.715C596.433 269.834 610.923 260.629 611.607 265.115C612.292 269.602 602.372 275.501 601.875 278.403C601.377 281.306 605.124 283.557 604.876 289.782C604.876 289.782 610.317 261.638 623.066 258.642C635.814 255.646 637.058 262.383 633.809 264.619C630.56 266.854 624.791 267.366 623.066 270.098C621.34 272.831 620.096 283.557 620.096 283.557C620.096 283.557 633.311 262.632 641.551 267.366C649.791 272.101 650.025 278.077 646.029 277.332C642.033 276.587 637.556 275.407 635.053 278.978C632.55 282.548 629.067 288.292 629.067 288.292C629.067 288.292 644.086 279.319 648.548 281.555C653.01 283.79 657.021 290.869 651.533 290.45C646.045 290.031 640.79 289.782 638.302 292.514C635.814 295.246 635.053 300.99 633.063 306.967C631.073 312.943 630.326 322.754 623.128 322.832Z" fill="#2D2D2D"/>
<path d="M619.35 323.779C615.479 323.747 611.616 323.409 607.798 322.77C597.537 321.109 592.437 314.806 592.173 303.505C592.173 299.95 591.722 296.038 591.349 292.25C590.494 283.573 589.794 276.09 592.375 273.203C595.485 269.803 606.912 262.104 610.908 263.268C611.31 263.367 611.673 263.584 611.95 263.891C612.227 264.198 612.406 264.581 612.462 264.991C612.975 268.096 609.508 271.34 606.446 274.305C604.704 275.966 602.901 277.674 602.73 278.605C602.711 279.774 603.059 280.919 603.725 281.881C604.332 282.993 604.827 284.163 605.202 285.373C607.332 277.224 612.882 260.318 622.972 257.943C633.062 255.568 635.41 259.201 635.876 260.365C636.232 261.242 636.272 262.216 635.988 263.119C635.705 264.023 635.116 264.8 634.322 265.317C632.727 266.303 631.006 267.07 629.207 267.599C626.859 268.437 624.636 269.151 623.781 270.58C622.926 272.008 621.915 276.789 621.371 280.437C625.413 274.771 635.068 262.771 642.002 266.745C647.879 270.129 650.087 274.29 649.216 276.634C648.968 277.256 648.494 277.762 647.889 278.05C647.283 278.337 646.591 278.386 645.951 278.186L645.111 278.015C641.52 277.332 637.789 276.603 635.783 279.568C634.399 281.57 632.674 284.225 631.43 286.243C636.094 283.697 645.329 279.18 648.998 281.011C652.232 282.564 655.684 287.003 654.968 289.596C654.751 290.341 654.067 291.536 651.564 291.366C645.967 290.931 641.162 290.776 638.97 293.182C637.416 294.92 636.529 298.118 635.519 301.813C635.037 303.598 634.539 305.445 633.886 307.355C633.513 308.504 633.171 309.807 632.814 311.174C631.352 316.731 629.549 323.592 623.205 323.748C621.922 323.828 620.635 323.839 619.35 323.779V323.779ZM609.913 264.681C606.414 264.681 596.589 270.89 593.541 274.243C591.38 276.618 592.158 284.489 592.888 292.095C593.261 295.914 593.65 299.857 593.728 303.458C593.977 314.045 598.516 319.696 608.047 321.233C612.98 322.161 618.014 322.438 623.019 322.056H623.112C628.305 322.056 629.813 316.219 631.274 310.646C631.648 309.249 631.99 307.929 632.394 306.718C633.016 304.855 633.513 303.024 633.949 301.27C635.006 297.373 635.923 294.02 637.758 291.955C640.416 289.037 645.609 289.177 651.61 289.627C652.652 289.72 653.258 289.503 653.398 289.006C653.818 287.454 651.222 283.712 648.236 282.207C644.878 280.515 633.575 286.476 629.502 288.913C629.352 288.998 629.178 289.032 629.007 289.01C628.836 288.987 628.677 288.91 628.554 288.789C628.433 288.665 628.356 288.505 628.337 288.334C628.317 288.162 628.355 287.989 628.445 287.842C628.445 287.842 631.974 282.051 634.446 278.528C636.918 275.004 641.473 275.64 645.329 276.385L646.169 276.541C646.728 276.649 647.444 276.649 647.723 276.028C648.236 274.616 646.526 271.092 641.194 268.018C634.975 264.432 624.34 278.31 620.78 283.945C620.686 284.094 620.545 284.206 620.379 284.264C620.214 284.322 620.033 284.322 619.867 284.264C619.701 284.207 619.56 284.095 619.466 283.946C619.372 283.798 619.331 283.623 619.35 283.449C619.35 282.998 620.64 272.582 622.459 269.679C623.61 267.847 626.082 266.978 628.678 266.062C630.34 265.564 631.933 264.86 633.42 263.967C633.93 263.653 634.31 263.167 634.49 262.597C634.67 262.026 634.638 261.41 634.399 260.862C633.591 259.046 630.248 257.757 623.283 259.309C611.172 262.15 605.73 289.565 605.684 289.829C605.643 290.02 605.534 290.191 605.376 290.308C605.219 290.425 605.024 290.481 604.829 290.465C604.634 290.442 604.455 290.346 604.328 290.196C604.201 290.046 604.135 289.854 604.145 289.658C604.23 287.125 603.588 284.62 602.294 282.44C601.451 281.188 601.051 279.691 601.159 278.186C601.408 276.758 603.134 275.081 605.326 273.032C607.969 270.517 611.265 267.413 610.892 265.146C610.883 265.029 610.836 264.918 610.757 264.831C610.678 264.744 610.573 264.685 610.457 264.665C610.275 264.646 610.092 264.651 609.913 264.681V264.681Z" fill="#2D2D2D"/>
<path d="M335.085 415.523V338.774C335.085 338.774 378.073 367.136 442.361 360.802V435.657C442.361 435.657 400.259 448.433 335.085 415.523Z" fill="white"/>
<path d="M419.941 438.792C401.098 438.792 371.465 434.756 334.726 416.221C334.6 416.154 334.494 416.053 334.42 415.93C334.346 415.807 334.307 415.666 334.307 415.523V338.774C334.301 338.633 334.336 338.493 334.406 338.37C334.476 338.247 334.579 338.146 334.703 338.078C334.828 338.011 334.968 337.979 335.11 337.987C335.251 337.994 335.388 338.041 335.504 338.122C335.939 338.402 379.036 366.251 442.267 360.042C442.373 360.031 442.479 360.043 442.581 360.075C442.682 360.107 442.776 360.159 442.857 360.228C442.935 360.302 442.997 360.391 443.04 360.49C443.082 360.589 443.105 360.695 443.106 360.802V435.657C443.107 435.823 443.055 435.985 442.957 436.119C442.859 436.253 442.721 436.352 442.562 436.402C442.375 436.464 434.291 438.792 419.941 438.792ZM335.861 415.057C395.765 445.157 436.405 436.371 441.582 435.067V361.672C384.058 367.043 343.293 344.596 335.861 340.156V415.057Z" fill="#2D2D2D"/>
<path d="M535.193 371.063V261.374C535.193 261.374 631.959 257.742 672.008 218.514V331.835C672.008 331.835 631.959 363.798 535.193 371.063Z" fill="#66CCBA"/>
<path d="M535.192 371.84C534.998 371.837 534.811 371.765 534.664 371.638C534.586 371.563 534.524 371.474 534.481 371.376C534.439 371.277 534.416 371.171 534.415 371.063V261.374C534.415 261.173 534.493 260.981 534.632 260.836C534.771 260.691 534.961 260.606 535.161 260.598C536.125 260.598 632.083 256.515 671.433 217.955C671.541 217.848 671.679 217.776 671.829 217.749C671.978 217.721 672.133 217.739 672.272 217.8C672.425 217.855 672.557 217.956 672.649 218.09C672.741 218.223 672.788 218.383 672.785 218.545V331.866C672.786 331.983 672.76 332.099 672.708 332.204C672.657 332.309 672.582 332.4 672.49 332.472C672.086 332.798 631.181 364.668 535.286 371.871L535.192 371.84ZM535.97 262.119V370.225C626.517 363.271 667.39 334.288 671.231 331.416V220.33C632.565 256.344 544.987 261.654 535.97 262.119Z" fill="#2D2D2D"/>
<path d="M488.038 501.073V431.791C488.038 431.791 554.72 431.295 602.341 395.637V466.921C602.341 466.921 558.762 503.107 488.038 501.073Z" fill="#66CCBA"/>
<path d="M493.573 501.989C491.738 501.989 489.904 501.989 488.023 501.989C487.82 501.981 487.629 501.896 487.487 501.752C487.346 501.608 487.265 501.415 487.261 501.213V431.791C487.265 431.587 487.348 431.392 487.493 431.247C487.638 431.102 487.833 431.019 488.038 431.015C488.707 431.015 555.016 430.115 601.875 395.016C601.992 394.935 602.128 394.887 602.27 394.877C602.412 394.867 602.554 394.895 602.681 394.959C602.808 395.022 602.916 395.119 602.993 395.238C603.07 395.358 603.113 395.495 603.119 395.637V466.921C603.117 467.036 603.091 467.149 603.043 467.253C602.995 467.358 602.925 467.451 602.839 467.527C602.403 467.915 560.535 501.989 493.573 501.989ZM488.815 500.436C555.062 502.082 597.646 469.684 601.564 466.642V397.252C557.146 429.727 496.356 432.412 488.815 432.614V500.436Z" fill="#2D2D2D"/>
</svg>
