<svg width="960" height="642" viewBox="0 0 960 642" fill="none" xmlns="http://www.w3.org/2000/svg">
<rect width="960" height="642" fill="#66CCBA"/>
<path d="M207.926 321.074L564.512 177.012L759.545 313.05L394.351 489.052L207.926 321.074Z" fill="white"/>
<path d="M394.351 489.917C394.144 489.913 393.945 489.835 393.791 489.696L207.365 321.769C207.26 321.671 207.181 321.55 207.135 321.414C207.088 321.279 207.077 321.134 207.1 320.992C207.124 320.851 207.182 320.718 207.27 320.605C207.357 320.492 207.472 320.402 207.603 320.344L564.207 176.232C564.328 176.162 564.466 176.125 564.606 176.125C564.746 176.125 564.883 176.162 565.005 176.232L760.122 312.355C760.241 312.442 760.335 312.558 760.398 312.691C760.46 312.824 760.488 312.971 760.479 313.118C760.469 313.266 760.419 313.408 760.336 313.53C760.252 313.653 760.137 313.75 760.003 313.813L394.724 489.832C394.607 489.884 394.48 489.913 394.351 489.917V489.917ZM209.504 321.345L394.555 488.051L757.864 312.914L564.325 177.962L209.504 321.345Z" fill="#E6EBDE"/>
<path d="M583.747 236.686C583.571 236.685 583.4 236.632 583.255 236.533L536.364 203.066C536.242 202.983 536.145 202.87 536.081 202.737C536.018 202.604 535.991 202.457 536.003 202.311C536.015 202.164 536.066 202.023 536.15 201.903C536.234 201.782 536.349 201.686 536.483 201.624L546.567 196.637C546.695 196.56 546.842 196.518 546.992 196.518C547.142 196.518 547.288 196.56 547.416 196.637L595.954 230.257C596.047 230.32 596.126 230.401 596.188 230.495C596.25 230.589 596.292 230.694 596.313 230.804C596.333 230.915 596.331 231.028 596.308 231.138C596.284 231.248 596.239 231.352 596.174 231.444C596.042 231.626 595.843 231.749 595.621 231.787C595.4 231.825 595.172 231.775 594.986 231.648L546.873 198.385L538.503 202.506L584.239 235.142C584.331 235.206 584.409 235.288 584.469 235.383C584.529 235.477 584.57 235.583 584.589 235.693C584.608 235.804 584.605 235.917 584.58 236.026C584.555 236.135 584.508 236.238 584.443 236.329C584.365 236.441 584.261 236.532 584.14 236.594C584.018 236.656 583.883 236.688 583.747 236.686V236.686Z" fill="#E6EBDE"/>
<path d="M519.591 263.859C519.406 263.863 519.227 263.803 519.081 263.69L471.104 227.695C471.015 227.629 470.94 227.545 470.883 227.449C470.826 227.353 470.789 227.247 470.773 227.137C470.757 227.027 470.764 226.914 470.791 226.806C470.819 226.699 470.868 226.597 470.934 226.508C471.001 226.419 471.085 226.344 471.181 226.287C471.277 226.23 471.383 226.193 471.493 226.177C471.604 226.162 471.716 226.168 471.824 226.195C471.932 226.223 472.034 226.272 472.123 226.338L519.659 262.044L605.682 226.237C605.785 226.192 605.896 226.169 606.009 226.168C606.122 226.167 606.234 226.188 606.338 226.231C606.442 226.274 606.537 226.337 606.617 226.416C606.696 226.496 606.759 226.59 606.802 226.695C606.882 226.902 606.879 227.132 606.794 227.338C606.708 227.543 606.547 227.707 606.344 227.797L519.862 263.791C519.777 263.831 519.685 263.854 519.591 263.859V263.859Z" fill="#E6EBDE"/>
<path d="M391.719 278.82L290.841 274.054C290.841 274.054 299.635 249.305 344.591 238.602C387.628 228.425 408.153 233.514 408.153 233.514L391.719 278.82Z" fill="#FF7747"/>
<path d="M391.719 279.668L290.841 274.902C290.708 274.892 290.58 274.852 290.465 274.784C290.35 274.717 290.252 274.623 290.179 274.512C290.117 274.397 290.084 274.269 290.084 274.139C290.084 274.008 290.117 273.88 290.179 273.765C290.536 272.731 299.636 248.474 344.506 237.788C387.254 227.611 407.627 232.53 408.476 232.699C408.592 232.725 408.701 232.776 408.795 232.85C408.89 232.923 408.966 233.017 409.019 233.124C409.069 233.23 409.095 233.345 409.095 233.463C409.095 233.58 409.069 233.696 409.019 233.802L392.585 279.058C392.532 279.242 392.417 279.404 392.259 279.515C392.102 279.626 391.912 279.68 391.719 279.668V279.668ZM292.115 273.257L391.125 277.938L406.999 234.192C402.551 233.378 382.059 230.562 344.761 239.434C306.24 248.627 294.508 268.524 292.166 273.257H292.115Z" fill="#2D2D2D"/>
<path d="M470.544 360.324C479.836 353.897 486.911 344.755 490.798 334.152L496.027 267.303L456.487 291.542L470.544 360.324Z" fill="white"/>
<path d="M470.544 361.173C470.426 361.17 470.31 361.141 470.204 361.088C470.079 361.038 469.968 360.958 469.882 360.854C469.795 360.751 469.737 360.627 469.712 360.494L455.655 291.712C455.621 291.54 455.641 291.362 455.71 291.202C455.78 291.041 455.897 290.905 456.045 290.813L495.585 266.573C495.721 266.491 495.876 266.447 496.035 266.447C496.194 266.447 496.349 266.491 496.485 266.573C496.619 266.656 496.726 266.774 496.795 266.916C496.865 267.057 496.892 267.214 496.875 267.371L491.646 334.219C491.662 334.298 491.662 334.378 491.646 334.457C487.713 345.249 480.509 354.547 471.036 361.054C470.885 361.135 470.715 361.176 470.544 361.173V361.173ZM457.438 291.949L471.121 358.917C479.656 352.565 486.195 343.908 489.966 333.965L495.059 268.897L457.438 291.949Z" fill="#2D2D2D"/>
<path d="M474.907 299.599L391.719 263.622L412.992 220.283C412.992 220.283 453.55 223.082 481.749 244.03C515.143 268.727 480.153 296.495 474.907 299.599Z" fill="#FF7747"/>
<path d="M474.907 300.447C474.795 300.471 474.679 300.471 474.567 300.447L391.498 264.47C391.393 264.423 391.298 264.355 391.219 264.27C391.141 264.186 391.08 264.086 391.04 263.978C390.994 263.874 390.97 263.761 390.97 263.647C390.97 263.533 390.994 263.421 391.04 263.317L412.312 219.978C412.389 219.825 412.508 219.699 412.656 219.615C412.804 219.53 412.974 219.491 413.144 219.503C413.552 219.503 454.263 222.556 482.343 243.386C492.529 250.917 497.401 259.483 496.875 268.829C495.992 285.062 478.676 298.446 475.297 300.413C475.172 300.458 475.038 300.47 474.907 300.447V300.447ZM392.992 263.13L474.839 298.581C478.795 296.071 494.396 283.553 495.211 268.592C495.704 259.856 491.035 251.782 481.358 244.607C455.485 225.423 418.543 221.555 413.62 221.097L392.992 263.13Z" fill="#2D2D2D"/>
<path d="M474.839 299.599L470.544 360.324L391.77 325.365V263.622L474.839 299.599Z" fill="#2D2D2D"/>
<path d="M470.544 361.173C470.426 361.17 470.31 361.141 470.204 361.088L391.414 326.196C391.265 326.132 391.139 326.025 391.051 325.889C390.963 325.753 390.918 325.594 390.921 325.433V263.69C390.92 263.549 390.953 263.411 391.018 263.286C391.083 263.162 391.178 263.056 391.295 262.977C391.42 262.91 391.56 262.875 391.702 262.875C391.844 262.875 391.984 262.91 392.11 262.977L475.179 298.954C475.337 299.031 475.47 299.152 475.56 299.302C475.651 299.453 475.695 299.627 475.688 299.803L471.393 360.511C471.382 360.648 471.34 360.781 471.269 360.898C471.199 361.016 471.101 361.116 470.985 361.189C470.839 361.217 470.688 361.211 470.544 361.173V361.173ZM392.619 324.805L469.814 359.052L473.99 300.142L392.653 264.911L392.619 324.805Z" fill="#2D2D2D"/>
<path d="M391.77 325.365L293.897 324.551L290.892 274.054L391.77 278.82V325.365Z" fill="#2D2D2D"/>
<path d="M391.72 326.196L293.847 325.382C293.632 325.382 293.425 325.299 293.27 325.151C293.115 325.002 293.024 324.799 293.015 324.585L290.01 274.088C290.001 273.967 290.018 273.846 290.058 273.732C290.099 273.618 290.164 273.514 290.248 273.426C290.33 273.34 290.431 273.274 290.543 273.233C290.654 273.191 290.774 273.176 290.893 273.189L391.771 277.955C391.99 277.964 392.197 278.057 392.349 278.215C392.501 278.373 392.586 278.584 392.585 278.803V325.348C392.58 325.571 392.489 325.784 392.331 325.942C392.253 326.025 392.158 326.091 392.053 326.135C391.947 326.179 391.834 326.2 391.72 326.196V326.196ZM294.645 323.703L390.871 324.483V279.617L291.742 274.936L294.645 323.703Z" fill="#2D2D2D"/>
<path d="M324.032 366.906C324.032 366.906 310.942 359.239 302.861 351.47C294.78 343.701 292.42 332.15 292.42 332.15L290.892 299.752L391.719 295.918V313.508L367.782 340.088L324.032 366.906Z" fill="white"/>
<path d="M324.032 367.703C323.884 367.702 323.739 367.667 323.607 367.601C323.471 367.601 310.331 359.782 302.267 352.03C294.203 344.278 291.69 332.761 291.554 332.269L290.01 299.735C290.003 299.623 290.02 299.512 290.058 299.407C290.096 299.302 290.154 299.206 290.23 299.124C290.386 298.961 290.599 298.864 290.824 298.853L391.719 295.07C391.832 295.067 391.944 295.087 392.049 295.128C392.154 295.168 392.249 295.229 392.33 295.308C392.498 295.468 392.595 295.687 392.602 295.918V313.508C392.598 313.715 392.52 313.914 392.381 314.068L368.444 340.648C368.394 340.713 368.33 340.765 368.257 340.801L324.456 367.584C324.328 367.662 324.181 367.703 324.032 367.703ZM293.252 332.065C293.252 332.065 295.646 343.328 303.438 350.724C309.8 356.389 316.69 361.433 324.015 365.786L367.272 339.427L390.921 313.186V296.8L291.775 300.515L293.269 332.065H293.252Z" fill="#2D2D2D"/>
<path d="M391.719 295.918L323.166 340.02C323.166 340.02 304.746 333.88 296.359 319.971C291.364 311.312 289.766 301.108 291.877 291.338L391.719 295.918Z" fill="#FF7747"/>
<path d="M323.217 340.937C323.127 340.953 323.035 340.953 322.945 340.937C322.181 340.682 304.134 334.542 295.68 320.582C290.537 311.734 288.901 301.281 291.096 291.288C291.152 291.103 291.267 290.941 291.423 290.828C291.579 290.715 291.769 290.656 291.962 290.66L391.804 295.172C391.984 295.179 392.158 295.244 392.298 295.356C392.439 295.469 392.541 295.623 392.588 295.797C392.636 295.971 392.626 296.155 392.562 296.324C392.497 296.492 392.38 296.635 392.229 296.733L323.675 340.835C323.535 340.911 323.376 340.946 323.217 340.937V340.937ZM292.59 292.271C290.782 301.631 292.397 311.327 297.14 319.598C304.61 331.963 320.466 338.155 323.115 339.122L389.071 296.716L292.59 292.271Z" fill="#2D2D2D"/>
<path d="M391.77 295.918V340.088L324.032 366.855L323.217 340.088L391.77 295.918Z" fill="#2D2D2D"/>
<path d="M324.032 367.703C323.868 367.708 323.708 367.66 323.573 367.567C323.46 367.493 323.365 367.393 323.297 367.275C323.229 367.157 323.19 367.025 323.183 366.889L322.368 340.105C322.366 339.958 322.4 339.813 322.468 339.682C322.537 339.552 322.636 339.441 322.758 339.359L391.312 295.257C391.442 295.177 391.592 295.135 391.745 295.135C391.898 295.135 392.047 295.177 392.178 295.257C392.311 295.331 392.421 295.44 392.499 295.571C392.576 295.702 392.618 295.851 392.619 296.003V340.105C392.615 340.274 392.561 340.438 392.464 340.577C392.368 340.715 392.233 340.823 392.076 340.886L324.354 367.669C324.249 367.698 324.14 367.71 324.032 367.703V367.703ZM324.032 340.563L324.796 365.668L390.871 339.545V297.479L324.032 340.563Z" fill="#2D2D2D"/>
<path d="M389.512 362.563V380.764C389.512 380.764 348.326 380.628 324.032 366.855L323.471 348.502L385.828 350.639L389.512 362.563Z" fill="white"/>
<path d="M389.512 381.612C389.105 381.612 347.816 381.324 323.624 367.601C323.496 367.53 323.389 367.427 323.311 367.302C323.234 367.178 323.19 367.035 323.183 366.889L322.622 348.536C322.62 348.419 322.642 348.304 322.686 348.196C322.729 348.088 322.795 347.99 322.877 347.908C322.957 347.823 323.055 347.756 323.163 347.712C323.272 347.669 323.388 347.648 323.505 347.654L385.862 349.791C386.04 349.798 386.211 349.861 386.351 349.97C386.491 350.08 386.593 350.231 386.643 350.402L390.327 362.275C390.336 362.354 390.336 362.434 390.327 362.513V380.713C390.323 380.937 390.232 381.15 390.074 381.308C389.915 381.466 389.702 381.557 389.478 381.561L389.512 381.612ZM324.863 366.346C346.798 378.542 382.687 379.763 388.663 379.916V362.699L385.268 351.47L324.422 349.384L324.863 366.346Z" fill="#2D2D2D"/>
<path d="M391.719 305.943L323.471 348.502C323.471 348.502 330.381 355.202 352.078 359.086C364.395 361.384 376.897 362.548 389.427 362.563L391.719 305.943Z" fill="#FF7747"/>
<path d="M388.324 363.513C376.137 363.374 363.983 362.205 351.993 360.019C330.296 356.135 323.234 349.485 322.945 349.197C322.857 349.105 322.791 348.995 322.75 348.875C322.709 348.754 322.696 348.626 322.711 348.5C322.725 348.373 322.767 348.252 322.834 348.144C322.901 348.036 322.991 347.943 323.098 347.874L391.38 305.298C391.513 305.219 391.666 305.178 391.821 305.178C391.977 305.178 392.129 305.219 392.263 305.298C392.396 305.375 392.506 305.487 392.581 305.621C392.656 305.756 392.692 305.908 392.687 306.062L390.429 362.682C390.425 362.9 390.335 363.107 390.18 363.259C390.024 363.411 389.815 363.496 389.597 363.496L388.324 363.513ZM324.999 348.688C327.444 350.384 335.288 355.304 352.282 358.34C364.322 360.52 376.529 361.655 388.765 361.732L390.921 307.453L324.999 348.688Z" fill="#2D2D2D"/>
<path d="M471.036 353.234L470.544 360.325C470.544 360.325 454.976 370.061 445.078 372.995V365.498L471.036 353.234Z" fill="white"/>
<path d="M445.163 373.843C444.984 373.846 444.81 373.786 444.671 373.674C444.561 373.598 444.472 373.496 444.41 373.378C444.348 373.26 444.315 373.129 444.314 372.995V365.498C444.318 365.338 444.365 365.181 444.452 365.046C444.539 364.912 444.662 364.804 444.807 364.735L470.68 352.471C470.812 352.404 470.96 352.373 471.108 352.382C471.257 352.391 471.4 352.44 471.522 352.523C471.645 352.606 471.744 352.721 471.808 352.855C471.872 352.989 471.898 353.137 471.885 353.285L471.393 360.375C471.384 360.51 471.342 360.641 471.271 360.756C471.2 360.872 471.102 360.968 470.985 361.037C470.357 361.444 455.214 370.875 445.418 373.809L445.163 373.843ZM446.012 366.041V371.842C454.772 368.907 467.42 361.24 469.78 359.832L470.154 354.625L446.012 366.041Z" fill="#2D2D2D"/>
<path d="M445.163 365.498C454.379 362.795 463.111 358.656 471.036 353.234L402.466 321.006L445.163 365.498Z" fill="#FF7747"/>
<path d="M445.163 366.346C444.934 366.345 444.714 366.254 444.552 366.092L401.906 321.65C401.762 321.508 401.674 321.318 401.658 321.117C401.641 320.915 401.698 320.714 401.816 320.55C401.935 320.386 402.109 320.27 402.306 320.223C402.503 320.176 402.71 320.201 402.89 320.293L471.461 352.522C471.594 352.588 471.708 352.688 471.791 352.811C471.875 352.935 471.925 353.078 471.937 353.226C471.949 353.374 471.922 353.523 471.86 353.659C471.797 353.794 471.701 353.91 471.58 353.997C463.564 359.462 454.743 363.64 445.435 366.38C445.343 366.397 445.248 366.385 445.163 366.346V366.346ZM406.252 323.77L445.435 364.48C453.892 361.918 461.941 358.166 469.339 353.336L406.252 323.77Z" fill="#2D2D2D"/>
<path d="M445.163 359.782V372.995C427.246 378.969 408.382 381.603 389.512 380.764V362.563L445.163 359.782Z" fill="white"/>
<path d="M396.592 381.799C394.249 381.799 391.872 381.799 389.462 381.612C389.245 381.599 389.042 381.504 388.894 381.347C388.746 381.189 388.663 380.981 388.664 380.764V362.564C388.667 362.346 388.754 362.137 388.905 361.98C389.056 361.823 389.261 361.728 389.478 361.715L445.129 358.934C445.244 358.926 445.358 358.942 445.466 358.98C445.574 359.018 445.673 359.077 445.758 359.154C445.84 359.236 445.905 359.334 445.949 359.442C445.993 359.55 446.014 359.665 446.012 359.782V372.995C446.013 373.168 445.962 373.336 445.865 373.479C445.768 373.621 445.63 373.731 445.469 373.793C429.702 379.022 413.205 381.724 396.592 381.799ZM390.361 379.95C408.662 380.632 426.938 378.076 444.348 372.402V360.664L390.395 363.378L390.361 379.95Z" fill="#2D2D2D"/>
<path d="M391.719 307.283L445.163 359.866C437.261 362.245 429.191 364.031 421.022 365.21C410.589 366.75 400.059 367.538 389.512 367.567L391.719 307.283Z" fill="#FF7747"/>
<path d="M389.716 368.432H389.512C389.397 368.433 389.283 368.409 389.178 368.362C389.072 368.315 388.978 368.247 388.901 368.161C388.749 367.994 388.665 367.776 388.664 367.55L390.871 307.249C390.873 307.084 390.924 306.923 391.017 306.787C391.111 306.651 391.243 306.546 391.397 306.486C391.552 306.428 391.72 306.415 391.882 306.448C392.044 306.481 392.194 306.558 392.314 306.672L445.758 359.171C445.864 359.271 445.942 359.398 445.983 359.538C446.025 359.678 446.029 359.826 445.995 359.968C445.962 360.109 445.893 360.24 445.795 360.346C445.697 360.453 445.573 360.533 445.435 360.579C437.492 363.014 429.377 364.846 421.158 366.058C410.747 367.591 400.24 368.385 389.716 368.432V368.432ZM392.483 309.234L390.395 366.736C400.623 366.658 410.834 365.876 420.954 364.395C428.615 363.185 436.191 361.485 443.635 359.307L392.483 309.234Z" fill="#2D2D2D"/>
<path d="M651.129 181.914L687.307 168.056L655.119 146.887L619.739 161.542L651.129 181.914Z" fill="#FF7747"/>
<path d="M651.129 182.762C650.967 182.759 650.809 182.712 650.671 182.627L619.212 162.255C619.084 162.167 618.98 162.047 618.912 161.908C618.843 161.768 618.812 161.613 618.822 161.457C618.842 161.304 618.901 161.158 618.993 161.034C619.085 160.909 619.207 160.81 619.348 160.745L654.864 146.107C654.985 146.044 655.119 146.011 655.255 146.011C655.39 146.011 655.524 146.044 655.645 146.107L687.902 167.293C688.034 167.376 688.139 167.495 688.205 167.636C688.272 167.778 688.296 167.935 688.275 168.09C688.257 168.244 688.197 168.391 688.101 168.514C688.005 168.636 687.877 168.73 687.732 168.785L651.469 182.711C651.359 182.748 651.244 182.766 651.129 182.762V182.762ZM621.555 161.661L651.231 180.93L685.423 167.869L655.017 147.837L621.555 161.661Z" fill="#2D2D2D"/>
<path d="M651.13 181.914L647.734 344.872L684.116 327.417L687.308 168.056L651.13 181.914Z" fill="white"/>
<path d="M647.734 345.72C647.571 345.725 647.41 345.677 647.276 345.584C647.152 345.507 647.052 345.399 646.983 345.271C646.915 345.143 646.881 345 646.885 344.855L650.281 181.897C650.283 181.728 650.336 181.563 650.433 181.424C650.529 181.285 650.666 181.178 650.824 181.117L687.002 167.275C687.123 167.213 687.257 167.18 687.392 167.18C687.528 167.18 687.662 167.213 687.783 167.275C687.897 167.355 687.99 167.462 688.052 167.586C688.114 167.711 688.144 167.849 688.139 167.988L684.965 327.349C684.958 327.507 684.909 327.659 684.823 327.791C684.736 327.923 684.615 328.028 684.472 328.096L648.074 345.635C647.969 345.69 647.852 345.719 647.734 345.72V345.72ZM651.961 182.508L648.566 343.515L683.216 326.874L686.374 169.311L651.961 182.508Z" fill="#2D2D2D"/>
<path d="M619.739 161.542V328.69L647.734 344.872L651.129 181.914L619.739 161.542Z" fill="white"/>
<path d="M647.734 345.72C647.583 345.723 647.436 345.681 647.309 345.601L619.314 329.436C619.188 329.359 619.083 329.253 619.009 329.125C618.935 328.998 618.894 328.854 618.889 328.706V161.542C618.887 161.389 618.927 161.239 619.005 161.107C619.083 160.975 619.196 160.868 619.331 160.796C619.461 160.716 619.611 160.674 619.764 160.674C619.917 160.674 620.066 160.716 620.197 160.796L651.587 181.151C651.709 181.229 651.809 181.337 651.878 181.465C651.946 181.592 651.98 181.735 651.978 181.88L648.582 344.838C648.582 344.986 648.542 345.131 648.467 345.259C648.393 345.387 648.286 345.493 648.158 345.567C648.031 345.651 647.885 345.703 647.734 345.72V345.72ZM620.57 328.215L646.902 343.481L650.297 182.423L620.587 163.103L620.57 328.215Z" fill="#2D2D2D"/>
<path d="M610.707 234.124L646.885 220.283L614.697 199.114L579.316 213.753L610.707 234.124Z" fill="#FF7747"/>
<path d="M610.724 234.972C610.56 234.977 610.4 234.93 610.265 234.837L578.875 214.482C578.745 214.396 578.642 214.276 578.576 214.135C578.511 213.995 578.485 213.839 578.501 213.685C578.513 213.533 578.566 213.387 578.656 213.264C578.746 213.141 578.869 213.046 579.011 212.989L614.391 198.334C614.515 198.271 614.651 198.238 614.79 198.238C614.928 198.238 615.065 198.271 615.189 198.334L647.36 219.503C647.493 219.587 647.599 219.705 647.668 219.846C647.737 219.987 647.766 220.144 647.751 220.3C647.735 220.455 647.675 220.603 647.579 220.726C647.483 220.849 647.354 220.942 647.208 220.995L611.029 234.854C610.936 234.912 610.832 234.952 610.724 234.972V234.972ZM581.133 213.922L610.809 233.174L645.034 220.079L614.612 200.064L581.133 213.922Z" fill="#2D2D2D"/>
<path d="M610.707 234.124L607.312 363.496L643.693 346.042L646.885 220.283L610.707 234.124Z" fill="white"/>
<path d="M607.328 364.344C607.165 364.349 607.004 364.302 606.87 364.209C606.75 364.128 606.652 364.02 606.584 363.893C606.516 363.765 606.48 363.624 606.479 363.479L609.875 234.107C609.884 233.939 609.942 233.778 610.041 233.642C610.141 233.507 610.278 233.403 610.435 233.344L646.596 219.486C646.727 219.435 646.869 219.418 647.008 219.436C647.147 219.454 647.28 219.506 647.394 219.587C647.504 219.671 647.594 219.779 647.656 219.902C647.718 220.026 647.75 220.162 647.751 220.3L644.559 346.059C644.558 346.216 644.513 346.369 644.429 346.501C644.345 346.633 644.225 346.738 644.084 346.805L607.702 364.26C607.587 364.321 607.458 364.351 607.328 364.344V364.344ZM611.573 234.718L608.177 362.139L642.827 345.499L645.968 221.521L611.573 234.718Z" fill="#2D2D2D"/>
<path d="M579.316 213.752V347.331L607.312 363.496L610.707 234.124L579.316 213.752Z" fill="white"/>
<path d="M607.328 364.344C607.181 364.343 607.036 364.308 606.904 364.243L578.909 348.061C578.783 347.984 578.678 347.877 578.604 347.75C578.529 347.622 578.488 347.479 578.484 347.331V213.752C578.486 213.598 578.529 213.447 578.61 213.316C578.69 213.184 578.806 213.077 578.943 213.006C579.073 212.927 579.223 212.885 579.376 212.885C579.528 212.885 579.678 212.927 579.809 213.006L611.199 233.361C611.319 233.444 611.417 233.556 611.482 233.686C611.547 233.817 611.578 233.961 611.573 234.107L608.177 363.479C608.173 363.625 608.132 363.766 608.058 363.891C607.984 364.016 607.879 364.119 607.753 364.192C607.626 364.277 607.48 364.33 607.328 364.344ZM580.165 346.839L606.514 362.105L609.909 234.633L580.165 215.313V346.839Z" fill="#2D2D2D"/>
<path d="M570.233 283.4L606.395 269.542L574.206 248.373L538.843 263.011L570.233 283.4Z" fill="#FF7747"/>
<path d="M570.233 284.248C570.066 284.245 569.902 284.198 569.758 284.112L538.367 263.757C538.239 263.672 538.136 263.553 538.07 263.413C538.004 263.274 537.977 263.119 537.993 262.965C538.009 262.811 538.066 262.665 538.159 262.542C538.252 262.418 538.377 262.323 538.52 262.265L573.883 247.626C574.006 247.559 574.143 247.524 574.282 247.524C574.422 247.524 574.559 247.559 574.681 247.626L606.938 268.795C607.065 268.884 607.166 269.006 607.23 269.148C607.294 269.29 607.319 269.446 607.302 269.6C607.284 269.755 607.225 269.902 607.132 270.026C607.038 270.15 606.912 270.246 606.768 270.305L570.59 284.146C570.486 284.22 570.36 284.256 570.233 284.248V284.248ZM540.659 263.181L570.335 282.45L604.544 269.338L574.121 249.322L540.659 263.181Z" fill="#2D2D2D"/>
<path d="M570.233 283.4L566.838 382.596L603.203 365.142L606.395 269.542L570.233 283.4Z" fill="white"/>
<path d="M566.838 383.461C566.724 383.459 566.612 383.434 566.508 383.389C566.404 383.343 566.309 383.278 566.231 383.196C566.152 383.114 566.09 383.017 566.048 382.911C566.007 382.806 565.987 382.693 565.989 382.579L569.384 283.366C569.385 283.198 569.438 283.035 569.535 282.898C569.632 282.762 569.769 282.659 569.928 282.603L606.089 268.744C606.22 268.697 606.361 268.682 606.5 268.699C606.639 268.717 606.771 268.767 606.887 268.846C607.004 268.927 607.098 269.037 607.16 269.164C607.223 269.292 607.251 269.434 607.243 269.576L604.052 365.21C604.052 365.364 604.007 365.515 603.922 365.645C603.838 365.774 603.718 365.876 603.576 365.939L567.194 383.41C567.08 383.451 566.959 383.468 566.838 383.461V383.461ZM571.048 283.977L567.653 381.239L602.303 364.599L605.444 270.797L571.048 283.977Z" fill="#2D2D2D"/>
<path d="M538.843 263.011V366.431L566.838 382.596L570.233 283.4L538.843 263.011Z" fill="white"/>
<path d="M566.838 383.461C566.689 383.458 566.543 383.417 566.413 383.342L538.418 367.16C538.288 367.089 538.179 366.983 538.104 366.855C538.029 366.726 537.991 366.58 537.994 366.431V262.96C537.995 262.808 538.037 262.659 538.114 262.528C538.192 262.397 538.302 262.289 538.435 262.214C538.567 262.14 538.716 262.101 538.868 262.101C539.02 262.101 539.169 262.14 539.301 262.214L570.692 282.569C570.814 282.647 570.914 282.755 570.982 282.883C571.05 283.01 571.085 283.154 571.082 283.298L567.687 382.511C567.68 382.658 567.635 382.8 567.558 382.924C567.481 383.049 567.373 383.152 567.245 383.224C567.132 383.336 566.992 383.418 566.838 383.461V383.461ZM539.674 365.939L566.006 381.205L569.401 283.875L539.725 264.606L539.674 365.939Z" fill="#2D2D2D"/>
<path d="M529.302 328.316L565.48 314.458L533.291 293.289L497.928 307.928L529.302 328.316Z" fill="#FF7747"/>
<path d="M529.234 329.165C529.072 329.161 528.913 329.115 528.776 329.029L497.385 308.674C497.258 308.589 497.157 308.472 497.091 308.335C497.025 308.198 496.998 308.045 497.011 307.894C497.02 307.739 497.072 307.589 497.162 307.463C497.252 307.337 497.377 307.239 497.521 307.181L532.901 292.543C533.023 292.476 533.161 292.441 533.3 292.441C533.439 292.441 533.577 292.476 533.699 292.543L565.955 313.712C566.086 313.797 566.192 313.916 566.261 314.057C566.329 314.197 566.359 314.353 566.346 314.509C566.327 314.665 566.267 314.814 566.171 314.939C566.076 315.065 565.949 315.162 565.803 315.221L529.624 329.063C529.505 329.129 529.371 329.164 529.234 329.165V329.165ZM499.66 308.097L529.336 327.367L563.629 314.322L533.207 294.307L499.66 308.097Z" fill="#2D2D2D"/>
<path d="M529.302 328.317L525.906 403.138L562.288 385.683L565.48 314.458L529.302 328.317Z" fill="white"/>
<path d="M525.839 403.986C525.676 403.982 525.518 403.936 525.38 403.85C525.256 403.771 525.156 403.659 525.09 403.528C525.025 403.397 524.996 403.25 525.007 403.103L528.402 328.265C528.404 328.1 528.457 327.939 528.555 327.806C528.652 327.672 528.789 327.572 528.945 327.519L565.107 313.661C565.238 313.613 565.379 313.598 565.518 313.616C565.657 313.633 565.789 313.684 565.904 313.763C566.021 313.844 566.115 313.953 566.178 314.081C566.24 314.209 566.269 314.35 566.261 314.492L563.069 385.734C563.062 385.887 563.014 386.035 562.93 386.163C562.847 386.291 562.731 386.395 562.594 386.463L526.212 403.918C526.096 403.974 525.967 403.997 525.839 403.986ZM530.066 328.91L526.755 401.848L561.406 385.225L564.512 315.798L530.066 328.91Z" fill="#2D2D2D"/>
<path d="M497.928 307.927V386.955L525.906 403.137L529.302 328.316L497.928 307.927Z" fill="white"/>
<path d="M525.838 403.986C525.691 403.984 525.546 403.95 525.414 403.884L497.436 387.702C497.307 387.628 497.201 387.521 497.126 387.393C497.052 387.265 497.012 387.12 497.011 386.972V307.928C497.013 307.775 497.054 307.626 497.132 307.495C497.209 307.364 497.32 307.256 497.453 307.181C497.585 307.107 497.734 307.068 497.886 307.068C498.037 307.068 498.186 307.107 498.318 307.181L529.709 327.536C529.834 327.614 529.935 327.725 530.001 327.857C530.067 327.988 530.095 328.136 530.083 328.282L526.687 403.12C526.686 403.266 526.644 403.408 526.566 403.531C526.488 403.654 526.377 403.753 526.246 403.816C526.128 403.909 525.987 403.968 525.838 403.986V403.986ZM498.675 386.48L525.023 401.746L528.334 328.808L498.675 309.539V386.48Z" fill="#2D2D2D"/>
<path d="M488.149 372.351L524.327 358.509L492.139 337.323L456.759 351.979L488.149 372.351Z" fill="#FF7747"/>
<path d="M488.149 373.199C487.987 373.196 487.829 373.149 487.691 373.063L456.3 352.708C456.171 352.622 456.068 352.503 456.002 352.362C455.936 352.221 455.91 352.065 455.927 351.911C455.938 351.759 455.992 351.614 456.082 351.491C456.172 351.368 456.295 351.272 456.436 351.216L491.884 336.543C492.012 336.493 492.149 336.475 492.285 336.49C492.421 336.505 492.552 336.552 492.665 336.628L524.922 357.797C525.05 357.883 525.153 358.002 525.219 358.141C525.285 358.281 525.312 358.436 525.296 358.59C525.28 358.743 525.223 358.89 525.13 359.013C525.037 359.136 524.912 359.232 524.769 359.29L488.489 373.148L488.149 373.199ZM458.575 352.149L488.251 371.401L522.443 358.306L492.02 338.29L458.575 352.149Z" fill="#2D2D2D"/>
<path d="M488.149 372.351L484.754 422.559L521.136 405.105L524.327 358.51L488.149 372.351Z" fill="white"/>
<path d="M484.754 423.407C484.585 423.41 484.42 423.363 484.278 423.272C484.157 423.186 484.059 423.071 483.994 422.938C483.928 422.805 483.898 422.657 483.905 422.508L487.3 372.3C487.31 372.139 487.367 371.984 487.463 371.854C487.56 371.725 487.692 371.626 487.843 371.57L524.022 357.712C524.155 357.66 524.3 357.643 524.442 357.66C524.584 357.678 524.72 357.731 524.837 357.814C524.947 357.903 525.036 358.017 525.095 358.147C525.154 358.277 525.181 358.418 525.176 358.56L521.984 405.173C521.976 405.321 521.927 405.464 521.844 405.587C521.76 405.709 521.644 405.807 521.509 405.868L485.093 423.323C484.989 423.379 484.872 423.408 484.754 423.407V423.407ZM488.964 372.944L485.704 421.185L520.321 404.579L523.393 359.782L488.964 372.944Z" fill="#2D2D2D"/>
<path d="M456.759 351.979V406.394L484.754 422.559L488.149 372.351L456.759 351.979Z" fill="white"/>
<path d="M484.754 423.408C484.606 423.406 484.461 423.372 484.329 423.306L456.334 407.124C456.206 407.05 456.099 406.943 456.025 406.815C455.95 406.688 455.911 406.542 455.91 406.394V351.979C455.911 351.825 455.954 351.674 456.035 351.542C456.116 351.411 456.231 351.304 456.368 351.233C456.498 351.153 456.648 351.111 456.801 351.111C456.954 351.111 457.103 351.153 457.234 351.233L488.625 371.587C488.75 371.673 488.85 371.791 488.916 371.928C488.981 372.065 489.01 372.216 488.998 372.368L485.603 422.576C485.591 422.719 485.545 422.858 485.468 422.979C485.391 423.1 485.286 423.201 485.161 423.272C485.035 423.342 484.897 423.388 484.754 423.408V423.408ZM457.59 405.902L483.99 421.169L487.249 372.809L457.59 353.556V405.902Z" fill="#2D2D2D"/>
<path d="M667.512 192.736C667.512 192.736 632.115 263.384 590.097 310.794C567.483 336.34 504.549 397.625 504.549 397.625L531.712 376.286C531.712 376.286 593.747 330.623 619.739 296.851C645.73 263.079 678.055 206.102 678.632 203.88C679.209 201.658 672.894 187.647 672.894 187.647L667.512 192.736Z" fill="#2D2D2D"/>
<path d="M504.549 398.473C504.427 398.472 504.307 398.446 504.196 398.396C504.085 398.346 503.986 398.274 503.904 398.185C503.753 398.027 503.669 397.817 503.669 397.599C503.669 397.381 503.753 397.172 503.904 397.014C504.532 396.404 567.076 335.458 589.417 310.235C630.909 263.435 666.408 193.058 666.748 192.363C666.785 192.271 666.843 192.19 666.918 192.125L672.367 187.037C672.464 186.942 672.584 186.874 672.715 186.838C672.845 186.803 672.983 186.801 673.114 186.833C673.245 186.857 673.368 186.912 673.472 186.995C673.576 187.078 673.657 187.186 673.709 187.308C675.237 190.701 680.16 201.777 679.498 204.135C678.904 206.187 646.715 263.266 620.401 297.428C594.562 330.912 532.816 376.574 532.12 377.032L504.956 398.337C504.835 398.417 504.694 398.463 504.549 398.473V398.473ZM668.208 193.228C666.425 196.756 631.47 265.386 590.742 311.337C574.121 330.098 535.345 368.551 516.212 387.363L531.169 375.608C531.814 375.133 593.39 329.606 619.076 296.325C645.289 262.401 677.206 205.695 677.885 203.626C678.191 202.473 675.491 195.382 672.673 189.055L668.208 193.228Z" fill="#2D2D2D"/>
<path d="M708.648 142.748L704.505 141.001L654.474 187.172L656.069 191.464L708.648 142.748Z" fill="#2D2D2D"/>
<path d="M656.069 192.312H655.866C655.73 192.276 655.605 192.208 655.502 192.114C655.398 192.019 655.319 191.901 655.271 191.769L653.676 187.478C653.618 187.32 653.608 187.149 653.647 186.986C653.686 186.823 653.773 186.676 653.896 186.562L703.928 140.373C704.05 140.263 704.201 140.191 704.364 140.164C704.526 140.136 704.693 140.156 704.844 140.22L708.987 141.917C709.113 141.975 709.223 142.063 709.308 142.172C709.394 142.281 709.452 142.408 709.479 142.544C709.506 142.685 709.497 142.831 709.453 142.967C709.408 143.104 709.33 143.227 709.225 143.325L656.596 192.041C656.456 192.188 656.27 192.283 656.069 192.312V192.312ZM655.475 187.41L656.426 189.971L707.102 143.002L704.675 141.968L655.475 187.41Z" fill="#2D2D2D"/>
<path d="M531.695 373.589C531.695 373.589 586.616 328.316 625.477 273.935C642.829 249.721 658.279 224.201 671.688 197.604L656.069 191.549L708.698 142.833L705.795 207.069L692.095 203.253C692.095 203.253 656.12 265.793 629.28 296.546C591.523 339.851 526.823 386.446 504.532 397.642L531.695 373.589Z" fill="#FF7747"/>
<path d="M504.549 398.473C504.409 398.473 504.271 398.439 504.147 398.374C504.022 398.309 503.916 398.215 503.836 398.1C503.722 397.93 503.673 397.726 503.698 397.523C503.723 397.321 503.82 397.134 503.972 396.997L531.135 372.945C531.696 372.504 586.413 327.146 624.764 273.46C641.877 249.483 657.165 224.257 670.5 197.994L655.764 192.193C655.63 192.137 655.512 192.049 655.42 191.937C655.328 191.824 655.266 191.691 655.238 191.549C655.212 191.408 655.222 191.263 655.267 191.127C655.311 190.99 655.389 190.867 655.492 190.768L708.121 142.053C708.247 141.942 708.402 141.87 708.568 141.846C708.734 141.822 708.903 141.847 709.055 141.917C709.209 141.983 709.339 142.095 709.428 142.238C709.516 142.38 709.558 142.547 709.547 142.714L706.678 207.035C706.673 207.162 706.638 207.286 706.578 207.398C706.518 207.51 706.434 207.607 706.331 207.682C706.228 207.757 706.11 207.808 705.985 207.831C705.86 207.854 705.732 207.849 705.609 207.816L692.536 204.169C688.835 210.53 655.187 268.134 629.993 297.021C592.762 339.715 527.893 386.922 504.974 398.32C504.846 398.403 504.7 398.455 504.549 398.473V398.473ZM532.256 374.234L510.729 393.282C537.604 377.643 594.681 334.949 628.669 295.969C655.102 265.657 690.991 203.439 691.348 202.829C691.437 202.664 691.58 202.534 691.752 202.46C691.925 202.386 692.118 202.372 692.299 202.422L704.981 205.967L707.714 144.783L657.649 191.159L671.994 196.722C672.103 196.763 672.201 196.827 672.283 196.908C672.365 196.99 672.429 197.089 672.47 197.197C672.516 197.304 672.54 197.42 672.54 197.536C672.54 197.653 672.516 197.769 672.47 197.876C659.022 224.536 643.55 250.128 626.19 274.427C587.873 328.011 533.325 373.335 532.256 374.234V374.234Z" fill="#2D2D2D"/>
<path d="M393.977 458.35C393.777 458.353 393.583 458.28 393.434 458.146L322.928 398.269C322.842 398.199 322.771 398.112 322.719 398.014C322.667 397.915 322.636 397.808 322.626 397.697C322.617 397.586 322.63 397.475 322.664 397.369C322.698 397.264 322.754 397.166 322.826 397.082C322.974 396.911 323.183 396.805 323.408 396.786C323.634 396.767 323.857 396.836 324.032 396.98L394.113 456.501L470.697 421.796C470.799 421.742 470.912 421.71 471.027 421.701C471.143 421.692 471.259 421.707 471.369 421.744C471.478 421.782 471.579 421.842 471.665 421.92C471.75 421.998 471.819 422.092 471.866 422.198C471.914 422.304 471.94 422.418 471.941 422.533C471.943 422.649 471.921 422.764 471.877 422.871C471.832 422.978 471.767 423.075 471.683 423.155C471.6 423.236 471.501 423.299 471.393 423.34L394.334 458.282C394.221 458.329 394.1 458.352 393.977 458.35V458.35Z" fill="#E6EBDE"/>
<path d="M689.854 316.104C689.699 316.104 689.547 316.062 689.415 315.981C689.283 315.9 689.177 315.784 689.107 315.646C689.004 315.445 688.984 315.212 689.051 314.996C689.117 314.781 689.266 314.6 689.464 314.492L718.223 299.854C718.322 299.801 718.43 299.77 718.541 299.76C718.653 299.751 718.765 299.764 718.871 299.799C718.977 299.834 719.075 299.889 719.159 299.963C719.243 300.037 719.312 300.126 719.36 300.227C719.412 300.325 719.444 300.434 719.454 300.545C719.463 300.656 719.45 300.768 719.415 300.874C719.38 300.98 719.324 301.078 719.251 301.162C719.177 301.246 719.087 301.315 718.987 301.363L690.245 316.019C690.124 316.08 689.989 316.11 689.854 316.104V316.104Z" fill="#E6EBDE"/>
<path d="M532.85 258.347C532.674 258.346 532.503 258.293 532.358 258.194L491.613 229.12C491.489 229.03 491.391 228.909 491.329 228.769C491.266 228.629 491.241 228.475 491.256 228.323C491.274 228.175 491.33 228.035 491.42 227.916C491.509 227.797 491.628 227.703 491.765 227.645L504.21 222.386C504.346 222.332 504.493 222.312 504.639 222.33C504.784 222.348 504.923 222.402 505.042 222.488L545.074 251.935C545.253 252.07 545.372 252.269 545.407 252.491C545.442 252.712 545.389 252.939 545.26 253.122C545.125 253.302 544.924 253.421 544.701 253.453C544.478 253.485 544.252 253.427 544.072 253.292L504.43 224.133L493.837 228.611L533.342 256.803C533.491 256.907 533.602 257.055 533.661 257.226C533.719 257.398 533.72 257.583 533.665 257.756C533.61 257.928 533.501 258.079 533.355 258.185C533.208 258.291 533.031 258.348 532.85 258.347Z" fill="#E6EBDE"/>
<path d="M559.64 246.592C559.464 246.591 559.293 246.538 559.147 246.439L526.263 222.963C526.138 222.882 526.039 222.767 525.976 222.632C525.912 222.497 525.889 222.347 525.906 222.2C525.918 222.052 525.968 221.911 526.052 221.789C526.135 221.667 526.249 221.569 526.382 221.504L538.028 215.941C538.162 215.861 538.314 215.82 538.469 215.82C538.625 215.82 538.777 215.861 538.911 215.941L571.88 240.18C572.063 240.313 572.185 240.512 572.22 240.735C572.255 240.958 572.2 241.185 572.067 241.367C571.934 241.549 571.734 241.671 571.512 241.706C571.289 241.741 571.061 241.686 570.879 241.554L538.317 217.637L528.402 222.437L560.149 245.099C560.292 245.206 560.397 245.355 560.45 245.525C560.503 245.694 560.501 245.877 560.445 246.046C560.389 246.214 560.281 246.361 560.136 246.465C559.992 246.57 559.818 246.626 559.64 246.626V246.592Z" fill="#E6EBDE"/>
<path d="M391.719 449.682H391.549C391.439 449.662 391.334 449.62 391.24 449.558C391.147 449.496 391.067 449.416 391.005 449.323C390.943 449.229 390.901 449.124 390.881 449.014C390.86 448.904 390.863 448.791 390.887 448.681C391.006 448.037 394.13 432.906 401.889 426.63C405.844 423.475 410.173 422.831 413.993 422.271C419.001 421.542 423.331 420.914 426.03 415.147C430.351 406.398 433.103 396.959 434.162 387.261C434.168 387.149 434.197 387.04 434.246 386.94C434.294 386.839 434.363 386.749 434.446 386.675C434.53 386.601 434.627 386.544 434.733 386.508C434.838 386.472 434.95 386.457 435.062 386.463C435.173 386.468 435.281 386.494 435.382 386.541C435.482 386.588 435.572 386.654 435.647 386.737C435.721 386.819 435.778 386.915 435.815 387.02C435.851 387.124 435.867 387.235 435.86 387.345C435.86 387.871 435.113 400.118 427.66 415.961C424.553 422.542 419.596 423.272 414.333 424.035C410.547 424.595 406.625 425.172 403.043 428.038C395.743 433.856 392.67 448.885 392.636 449.038C392.588 449.238 392.468 449.414 392.299 449.533C392.131 449.651 391.924 449.704 391.719 449.682Z" fill="#E6EBDE"/>
<path d="M239.961 326.196C239.85 326.217 239.735 326.216 239.624 326.193C239.513 326.17 239.407 326.125 239.314 326.062C239.22 325.998 239.14 325.916 239.077 325.821C239.015 325.726 238.972 325.62 238.951 325.509C238.93 325.398 238.931 325.283 238.954 325.172C238.977 325.061 239.022 324.956 239.086 324.862C239.149 324.768 239.231 324.688 239.326 324.626C239.421 324.564 239.527 324.521 239.639 324.5L273.593 311.116C273.802 311.033 274.036 311.036 274.243 311.126C274.45 311.215 274.613 311.382 274.696 311.591C274.78 311.801 274.776 312.034 274.687 312.241C274.598 312.448 274.43 312.611 274.221 312.694L240.267 326.077C240.176 326.142 240.071 326.183 239.961 326.196V326.196Z" fill="#E6EBDE"/>
<path d="M247.55 335.305C247.325 335.345 247.093 335.295 246.905 335.165C246.717 335.034 246.589 334.834 246.548 334.61C246.508 334.385 246.558 334.153 246.689 333.965C246.819 333.777 247.019 333.649 247.244 333.609L270.299 324.5C270.509 324.421 270.741 324.426 270.947 324.515C271.152 324.604 271.316 324.768 271.403 324.975C271.444 325.078 271.464 325.189 271.463 325.301C271.461 325.412 271.438 325.522 271.394 325.625C271.35 325.727 271.286 325.82 271.206 325.897C271.125 325.975 271.031 326.036 270.927 326.077L247.872 335.186C247.772 335.243 247.663 335.283 247.55 335.305V335.305Z" fill="#E6EBDE"/>
</svg>
