<svg width="336" height="222" viewBox="0 0 336 222" fill="none" xmlns="http://www.w3.org/2000/svg">
<path d="M5.33606 108.95L218.527 22.7457L335.13 104.149L116.793 209.465L5.33606 108.95Z" fill="white"/>
<path d="M116.793 209.983C116.669 209.98 116.551 209.934 116.458 209.851L5.00112 109.366C4.93832 109.308 4.89097 109.235 4.8633 109.154C4.83564 109.073 4.82853 108.986 4.84262 108.901C4.8567 108.817 4.89154 108.737 4.944 108.669C4.99647 108.602 5.06492 108.548 5.14322 108.513L218.344 22.2789C218.417 22.237 218.499 22.215 218.583 22.215C218.666 22.215 218.749 22.237 218.821 22.2789L335.475 103.733C335.546 103.785 335.602 103.854 335.64 103.934C335.677 104.014 335.693 104.102 335.688 104.189C335.682 104.278 335.653 104.363 335.603 104.436C335.553 104.509 335.484 104.568 335.404 104.606L117.017 209.932C116.946 209.963 116.87 209.98 116.793 209.983V209.983ZM6.28002 109.112L116.915 208.866L334.125 104.068L218.415 23.3142L6.28002 109.112Z" fill="#E6EBDE"/>
<path d="M230.027 58.4535C229.922 58.453 229.819 58.4212 229.732 58.3621L201.698 38.3362C201.625 38.2867 201.567 38.2187 201.529 38.1393C201.491 38.0599 201.475 37.9718 201.482 37.8841C201.489 37.7964 201.52 37.7121 201.57 37.64C201.62 37.5678 201.689 37.5103 201.769 37.4734L207.798 34.4893C207.875 34.4427 207.962 34.418 208.052 34.418C208.141 34.418 208.229 34.4427 208.306 34.4893L237.324 54.6066C237.38 54.6443 237.428 54.6927 237.465 54.7489C237.501 54.8052 237.527 54.8682 237.539 54.9343C237.551 55.0004 237.55 55.0683 237.536 55.134C237.522 55.1997 237.495 55.262 237.456 55.3171C237.377 55.4258 237.258 55.4993 237.126 55.522C236.993 55.5448 236.857 55.515 236.746 55.4389L207.981 35.5348L202.977 38.0012L230.321 57.5298C230.376 57.5683 230.423 57.6172 230.458 57.6739C230.494 57.7305 230.519 57.7936 230.53 57.8597C230.541 57.9257 230.539 57.9934 230.524 58.0587C230.509 58.1241 230.482 58.1858 230.443 58.2403C230.396 58.3072 230.334 58.3617 230.261 58.3989C230.189 58.436 230.108 58.4548 230.027 58.4535V58.4535Z" fill="#E6EBDE"/>
<path d="M191.67 74.7138C191.56 74.7161 191.452 74.6803 191.365 74.6123L162.681 53.074C162.628 53.034 162.583 52.9839 162.549 52.9265C162.515 52.8692 162.493 52.8057 162.483 52.7398C162.474 52.6738 162.478 52.6066 162.494 52.542C162.511 52.4775 162.54 52.4168 162.58 52.3635C162.62 52.3102 162.67 52.2652 162.727 52.2313C162.785 52.1973 162.848 52.175 162.914 52.1656C162.98 52.1562 163.047 52.1598 163.112 52.1764C163.176 52.1929 163.237 52.222 163.29 52.262L191.71 73.6277L243.14 52.2011C243.202 52.1745 243.269 52.1605 243.336 52.1599C243.404 52.1593 243.47 52.1722 243.533 52.1977C243.595 52.2232 243.652 52.2609 243.699 52.3085C243.747 52.3561 243.785 52.4128 243.81 52.4751C243.858 52.5992 243.856 52.737 243.805 52.8599C243.754 52.9827 243.658 53.0812 243.536 53.1349L191.832 74.6732C191.781 74.6971 191.726 74.7109 191.67 74.7138V74.7138Z" fill="#E6EBDE"/>
<path d="M115.22 83.6661L54.9087 80.8139C54.9087 80.8139 60.1664 66.0051 87.0436 59.6004C112.774 53.5104 125.045 56.5554 125.045 56.5554L115.22 83.6661Z" fill="#FF7747"/>
<path d="M115.22 84.1736L54.9086 81.3214C54.8291 81.3156 54.7521 81.2915 54.6834 81.251C54.6147 81.2105 54.5563 81.1547 54.5128 81.088C54.4755 81.0194 54.4559 80.9427 54.4559 80.8647C54.4559 80.7866 54.4755 80.7099 54.5128 80.6414C54.7259 80.0222 60.1663 65.5077 86.9928 59.1132C112.55 53.0232 124.73 55.9667 125.238 56.0682C125.308 56.0835 125.373 56.1143 125.429 56.1582C125.485 56.2021 125.531 56.2581 125.563 56.322C125.593 56.3855 125.608 56.4548 125.608 56.525C125.608 56.5951 125.593 56.6645 125.563 56.728L115.738 83.8082C115.706 83.9188 115.637 84.0152 115.543 84.0816C115.449 84.148 115.335 84.1804 115.22 84.1736V84.1736ZM55.6699 80.3369L114.865 83.1383L124.355 56.9614C121.696 56.4742 109.445 54.7893 87.145 60.0978C64.1147 65.5991 57.101 77.505 55.7003 80.3369H55.6699Z" fill="#2D2D2D"/>
<path d="M162.346 132.437C167.902 128.591 172.132 123.12 174.455 116.775L177.582 76.7742L153.942 91.2786L162.346 132.437Z" fill="white"/>
<path d="M162.346 132.944C162.276 132.943 162.206 132.926 162.143 132.894C162.068 132.864 162.002 132.816 161.95 132.754C161.899 132.692 161.864 132.618 161.849 132.538L153.445 91.3801C153.425 91.2773 153.436 91.1709 153.478 91.0748C153.52 90.9788 153.59 90.8976 153.678 90.8421L177.318 76.3378C177.399 76.2885 177.492 76.2624 177.587 76.2624C177.682 76.2624 177.775 76.2885 177.856 76.3378C177.936 76.3871 178 76.4581 178.041 76.5425C178.083 76.6269 178.099 76.7214 178.089 76.8148L174.963 116.816C174.972 116.863 174.972 116.911 174.963 116.958C172.611 123.416 168.304 128.979 162.641 132.873C162.55 132.922 162.449 132.946 162.346 132.944V132.944ZM154.511 91.5222L162.692 131.594C167.794 127.794 171.703 122.613 173.958 116.664L177.003 77.7283L154.511 91.5222Z" fill="#2D2D2D"/>
<path d="M164.955 96.0998L115.22 74.5717L127.938 48.6384C127.938 48.6384 152.186 50.3132 169.045 62.8484C189.01 77.6268 168.091 94.2424 164.955 96.0998Z" fill="#FF7747"/>
<path d="M164.955 96.6073C164.888 96.6216 164.819 96.6216 164.752 96.6073L115.088 75.0792C115.025 75.0509 114.968 75.0102 114.921 74.9597C114.874 74.9091 114.838 74.8497 114.814 74.7848C114.786 74.7225 114.772 74.6551 114.772 74.5869C114.772 74.5187 114.786 74.4513 114.814 74.389L127.532 48.4557C127.578 48.3647 127.649 48.2891 127.738 48.2386C127.826 48.188 127.928 48.1647 128.029 48.1715C128.273 48.1715 152.613 49.9985 169.401 62.4627C175.491 66.9693 178.404 72.0951 178.089 77.6877C177.561 87.4013 167.208 95.4096 165.188 96.587C165.114 96.614 165.033 96.621 164.955 96.6073V96.6073ZM115.981 74.2773L164.914 95.4908C167.279 93.9886 176.607 86.4979 177.094 77.5456C177.389 72.3184 174.597 67.487 168.812 63.1935C153.343 51.7139 131.257 49.3997 128.313 49.1256L115.981 74.2773Z" fill="#2D2D2D"/>
<path d="M164.914 96.0998L162.346 132.437L115.25 111.518V74.5717L164.914 96.0998Z" fill="#2D2D2D"/>
<path d="M162.346 132.944C162.276 132.943 162.206 132.926 162.143 132.894L115.037 112.015C114.948 111.977 114.873 111.913 114.82 111.831C114.768 111.75 114.741 111.655 114.743 111.558V74.6123C114.742 74.5283 114.762 74.4454 114.801 74.371C114.84 74.2966 114.897 74.233 114.966 74.186C115.041 74.146 115.125 74.1251 115.21 74.1251C115.295 74.1251 115.378 74.146 115.453 74.186L165.117 95.7141C165.212 95.7597 165.292 95.832 165.346 95.9222C165.4 96.0124 165.426 96.1165 165.422 96.2216L162.854 132.548C162.848 132.63 162.822 132.71 162.78 132.78C162.738 132.851 162.68 132.91 162.61 132.954C162.523 132.971 162.432 132.967 162.346 132.944V132.944ZM115.758 111.183L161.91 131.676L164.407 96.4246L115.778 75.3431L115.758 111.183Z" fill="#2D2D2D"/>
<path d="M115.25 111.518L56.7357 111.03L54.9391 80.8139L115.25 83.6661V111.518Z" fill="#2D2D2D"/>
<path d="M115.22 112.015L56.7052 111.528C56.5768 111.528 56.4532 111.478 56.3605 111.389C56.2678 111.3 56.2131 111.179 56.2079 111.051L54.4113 80.8342C54.406 80.762 54.4159 80.6894 54.4404 80.6212C54.4648 80.553 54.5034 80.4908 54.5534 80.4384C54.6026 80.3868 54.6629 80.3472 54.7298 80.3226C54.7966 80.298 54.8683 80.289 54.9391 80.2963L115.25 83.1484C115.381 83.1537 115.505 83.2095 115.596 83.3041C115.687 83.3987 115.738 83.5248 115.738 83.6559V111.508C115.735 111.641 115.68 111.768 115.585 111.863C115.539 111.913 115.482 111.952 115.419 111.979C115.356 112.005 115.288 112.017 115.22 112.015V112.015ZM57.1823 110.523L114.712 110.99V84.1431L55.4466 81.3417L57.1823 110.523Z" fill="#2D2D2D"/>
<path d="M74.7519 136.375C74.7519 136.375 66.9263 131.787 62.0949 127.139C57.2635 122.49 55.8526 115.578 55.8526 115.578L54.9391 96.1912L115.22 93.8973V104.423L100.908 120.328L74.7519 136.375Z" fill="white"/>
<path d="M74.7519 136.852C74.6638 136.851 74.577 136.831 74.4982 136.791C74.417 136.791 66.5609 132.112 61.7396 127.473C56.9184 122.835 55.4162 115.943 55.335 115.649L54.4113 96.181C54.4077 96.1144 54.4175 96.0477 54.4402 95.9849C54.4628 95.9221 54.4979 95.8645 54.5433 95.8156C54.6366 95.718 54.7637 95.6599 54.8985 95.6532L115.22 93.3898C115.287 93.388 115.354 93.3997 115.417 93.4241C115.48 93.4485 115.537 93.4851 115.585 93.5319C115.685 93.6276 115.744 93.7589 115.748 93.8973V104.423C115.745 104.547 115.698 104.665 115.616 104.758L101.304 120.663C101.275 120.701 101.236 120.733 101.193 120.754L75.0057 136.781C74.9292 136.828 74.8414 136.852 74.7519 136.852ZM56.35 115.527C56.35 115.527 57.7811 122.267 62.44 126.692C66.2434 130.082 70.3628 133.1 74.7418 135.705L100.604 119.932L114.743 104.23V94.4251L55.4669 96.6479L56.3601 115.527H56.35Z" fill="#2D2D2D"/>
<path d="M115.22 93.8972L74.2342 120.287C74.2342 120.287 63.2215 116.613 58.2074 108.29C55.2207 103.109 54.2657 97.0025 55.5278 91.1567L115.22 93.8972Z" fill="#FF7747"/>
<path d="M74.2647 120.835C74.211 120.845 74.156 120.845 74.1023 120.835C73.6456 120.683 62.8561 117.009 57.8014 108.655C54.7265 103.361 53.7486 97.1064 55.0609 91.1263C55.0942 91.0157 55.1629 90.919 55.2564 90.8512C55.3499 90.7834 55.4631 90.7481 55.5786 90.7508L115.271 93.4507C115.378 93.4551 115.482 93.4937 115.566 93.561C115.651 93.6282 115.711 93.7206 115.74 93.8246C115.768 93.9287 115.762 94.039 115.724 94.1397C115.685 94.2404 115.615 94.3261 115.524 94.3845L74.5388 120.774C74.455 120.82 74.36 120.841 74.2647 120.835V120.835ZM55.9541 91.715C54.8732 97.3154 55.8385 103.118 58.6743 108.067C63.1403 115.466 72.6204 119.171 74.2038 119.749L113.637 94.3743L55.9541 91.715Z" fill="#2D2D2D"/>
<path d="M115.25 93.8973V120.328L74.7519 136.345L74.2647 120.328L115.25 93.8973Z" fill="#2D2D2D"/>
<path d="M74.7519 136.852C74.6542 136.855 74.5582 136.827 74.4779 136.771C74.4098 136.726 74.3532 136.666 74.3126 136.596C74.272 136.525 74.2487 136.446 74.2444 136.365L73.7572 120.338C73.7558 120.25 73.7764 120.163 73.8172 120.085C73.858 120.007 73.9176 119.94 73.9907 119.891L114.976 93.5014C115.054 93.4539 115.144 93.4288 115.235 93.4288C115.326 93.4288 115.416 93.4539 115.494 93.5014C115.573 93.5461 115.64 93.6109 115.686 93.6893C115.732 93.7677 115.757 93.8569 115.758 93.948V120.338C115.755 120.439 115.723 120.537 115.665 120.62C115.608 120.703 115.527 120.767 115.433 120.805L74.9448 136.832C74.882 136.849 74.8169 136.856 74.7519 136.852V136.852ZM74.7519 120.612L75.2087 135.634L114.712 120.003V94.8311L74.7519 120.612Z" fill="#2D2D2D"/>
<path d="M113.9 133.777V144.668C113.9 144.668 89.2766 144.586 74.7519 136.345L74.417 125.362L111.698 126.641L113.9 133.777Z" fill="white"/>
<path d="M113.9 145.175C113.657 145.175 88.9721 145.002 74.5083 136.791C74.4318 136.748 74.3675 136.687 74.3213 136.612C74.2752 136.537 74.2487 136.452 74.2444 136.365L73.9095 125.383C73.9083 125.313 73.9212 125.244 73.9473 125.179C73.9735 125.115 74.0124 125.056 74.0617 125.007C74.1097 124.956 74.1681 124.916 74.2329 124.89C74.2977 124.864 74.3674 124.852 74.4373 124.855L111.718 126.134C111.825 126.138 111.927 126.175 112.011 126.241C112.094 126.307 112.155 126.397 112.185 126.499L114.388 133.604C114.393 133.651 114.393 133.699 114.388 133.746V144.637C114.385 144.771 114.331 144.898 114.236 144.993C114.142 145.088 114.014 145.142 113.88 145.145L113.9 145.175ZM75.2493 136.04C88.3631 143.338 109.82 144.069 113.393 144.16V133.858L111.363 127.138L74.9854 125.89L75.2493 136.04Z" fill="#2D2D2D"/>
<path d="M115.22 99.8959L74.417 125.362C74.417 125.362 78.548 129.371 91.5197 131.696C98.8838 133.071 106.358 133.768 113.85 133.777L115.22 99.8959Z" fill="#FF7747"/>
<path d="M113.19 134.345C105.904 134.261 98.6375 133.562 91.469 132.254C78.4973 129.93 74.2749 125.951 74.1023 125.778C74.0497 125.723 74.0099 125.658 73.9856 125.585C73.9614 125.513 73.9533 125.437 73.962 125.361C73.9708 125.285 73.996 125.213 74.0361 125.148C74.0761 125.083 74.1299 125.028 74.1937 124.987L115.017 99.5102C115.097 99.4628 115.188 99.4379 115.281 99.4379C115.374 99.4379 115.465 99.4628 115.545 99.5102C115.625 99.5561 115.69 99.6229 115.735 99.7034C115.78 99.7839 115.802 99.875 115.799 99.9669L114.449 133.848C114.446 133.978 114.392 134.102 114.299 134.193C114.206 134.284 114.081 134.335 113.951 134.335L113.19 134.345ZM75.3305 125.474C76.7921 126.489 81.4814 129.432 91.6415 131.249C98.8401 132.554 106.138 133.233 113.454 133.279L114.743 100.799L75.3305 125.474Z" fill="#2D2D2D"/>
<path d="M162.641 128.194L162.346 132.437C162.346 132.437 153.039 138.263 147.121 140.019V135.533L162.641 128.194Z" fill="white"/>
<path d="M147.172 140.526C147.065 140.528 146.961 140.492 146.878 140.425C146.812 140.379 146.759 140.319 146.722 140.248C146.685 140.177 146.665 140.099 146.665 140.019V135.533C146.667 135.437 146.695 135.343 146.747 135.262C146.799 135.182 146.872 135.117 146.959 135.076L162.428 127.737C162.507 127.697 162.595 127.679 162.684 127.684C162.772 127.69 162.858 127.719 162.931 127.769C163.005 127.819 163.064 127.887 163.102 127.967C163.14 128.047 163.156 128.136 163.148 128.225L162.854 132.467C162.849 132.548 162.824 132.626 162.781 132.695C162.739 132.764 162.68 132.822 162.61 132.863C162.235 133.107 153.181 138.75 147.324 140.506L147.172 140.526ZM147.68 135.857V139.329C152.917 137.573 160.479 132.985 161.89 132.142L162.113 129.026L147.68 135.857Z" fill="#2D2D2D"/>
<path d="M147.172 135.533C152.682 133.915 157.902 131.438 162.641 128.194L121.645 108.909L147.172 135.533Z" fill="#FF7747"/>
<path d="M147.172 136.04C147.035 136.04 146.904 135.985 146.807 135.888L121.31 109.295C121.224 109.21 121.171 109.096 121.162 108.976C121.152 108.855 121.185 108.735 121.257 108.637C121.328 108.539 121.431 108.469 121.549 108.441C121.667 108.413 121.791 108.428 121.899 108.483L162.894 127.768C162.974 127.808 163.042 127.867 163.092 127.941C163.142 128.015 163.172 128.101 163.179 128.189C163.186 128.278 163.17 128.367 163.133 128.448C163.095 128.529 163.038 128.599 162.966 128.651C158.173 131.921 152.899 134.421 147.335 136.06C147.28 136.07 147.223 136.063 147.172 136.04V136.04ZM123.908 110.564L147.335 134.924C152.391 133.391 157.203 131.145 161.626 128.255L123.908 110.564Z" fill="#2D2D2D"/>
<path d="M147.172 132.112V140.019C136.46 143.594 125.182 145.169 113.9 144.668V133.777L147.172 132.112Z" fill="white"/>
<path d="M118.133 145.287C116.732 145.287 115.311 145.287 113.87 145.175C113.741 145.167 113.619 145.11 113.531 145.016C113.442 144.922 113.393 144.797 113.393 144.668V133.777C113.395 133.646 113.447 133.522 113.537 133.427C113.627 133.333 113.75 133.277 113.88 133.269L147.152 131.605C147.22 131.6 147.289 131.61 147.353 131.632C147.418 131.655 147.477 131.69 147.527 131.737C147.577 131.786 147.616 131.844 147.642 131.909C147.668 131.973 147.681 132.042 147.68 132.112V140.019C147.68 140.122 147.65 140.223 147.592 140.308C147.534 140.393 147.451 140.459 147.355 140.496C137.928 143.625 128.065 145.242 118.133 145.287ZM114.408 144.18C125.349 144.588 136.276 143.059 146.685 139.664V132.64L114.428 134.264L114.408 144.18Z" fill="#2D2D2D"/>
<path d="M115.22 100.698L147.172 132.163C142.447 133.586 137.623 134.655 132.739 135.36C126.501 136.282 120.206 136.753 113.9 136.771L115.22 100.698Z" fill="#FF7747"/>
<path d="M114.022 137.289H113.9C113.832 137.289 113.763 137.275 113.7 137.247C113.637 137.219 113.581 137.178 113.535 137.126C113.444 137.026 113.394 136.896 113.393 136.761L114.712 100.677C114.714 100.579 114.744 100.483 114.8 100.401C114.856 100.32 114.935 100.257 115.027 100.221C115.12 100.186 115.22 100.178 115.317 100.198C115.414 100.218 115.503 100.264 115.575 100.332L147.527 131.747C147.591 131.807 147.637 131.882 147.662 131.966C147.687 132.05 147.69 132.139 147.669 132.224C147.65 132.308 147.608 132.386 147.55 132.45C147.491 132.514 147.417 132.562 147.335 132.589C142.586 134.046 137.734 135.142 132.82 135.868C126.596 136.785 120.314 137.26 114.022 137.289V137.289ZM115.677 101.865L114.428 136.274C120.543 136.227 126.648 135.759 132.698 134.873C137.279 134.148 141.808 133.131 146.259 131.828L115.677 101.865Z" fill="#2D2D2D"/>
<path d="M270.312 25.6791L291.942 17.3866L272.697 4.71936L251.545 13.489L270.312 25.6791Z" fill="#FF7747"/>
<path d="M270.312 26.1866C270.215 26.1847 270.12 26.1567 270.038 26.1054L251.23 13.9152C251.153 13.8627 251.091 13.7911 251.05 13.7075C251.009 13.6239 250.991 13.5311 250.997 13.4382C251.009 13.3463 251.044 13.259 251.099 13.1845C251.154 13.1099 251.227 13.0506 251.311 13.0119L272.545 4.25244C272.617 4.21506 272.697 4.19556 272.778 4.19556C272.86 4.19556 272.94 4.21506 273.012 4.25244L292.297 16.9298C292.376 16.9795 292.439 17.051 292.479 17.1355C292.518 17.2201 292.533 17.3143 292.52 17.4068C292.509 17.4993 292.473 17.5871 292.416 17.6605C292.359 17.7339 292.283 17.7901 292.195 17.823L270.515 26.1561C270.45 26.1783 270.381 26.1886 270.312 26.1866V26.1866ZM252.631 13.56L270.373 25.0904L290.815 17.2749L272.636 5.28774L252.631 13.56Z" fill="#2D2D2D"/>
<path d="M270.312 25.6791L268.282 123.19L290.033 112.746L291.942 17.3865L270.312 25.6791Z" fill="white"/>
<path d="M268.282 123.698C268.184 123.701 268.088 123.672 268.008 123.616C267.934 123.57 267.874 123.506 267.833 123.429C267.792 123.353 267.772 123.267 267.774 123.18L269.804 25.669C269.806 25.5676 269.837 25.469 269.895 25.3858C269.953 25.3025 270.035 25.2386 270.129 25.2021L291.759 16.9197C291.831 16.8823 291.911 16.8628 291.992 16.8628C292.074 16.8628 292.154 16.8823 292.226 16.9197C292.294 16.9672 292.35 17.0311 292.387 17.1056C292.424 17.1801 292.442 17.2628 292.439 17.346L290.541 112.705C290.537 112.799 290.508 112.891 290.456 112.969C290.404 113.048 290.332 113.111 290.247 113.152L268.485 123.647C268.422 123.68 268.353 123.697 268.282 123.698V123.698ZM270.809 26.0344L268.779 122.378L289.495 112.421L291.383 18.1377L270.809 26.0344Z" fill="#2D2D2D"/>
<path d="M251.545 13.489V113.507L268.282 123.19L270.312 25.6791L251.545 13.489Z" fill="white"/>
<path d="M268.282 123.698C268.192 123.699 268.104 123.675 268.028 123.627L251.291 113.954C251.215 113.908 251.153 113.844 251.108 113.768C251.064 113.692 251.04 113.605 251.037 113.517V13.489C251.036 13.3975 251.06 13.3073 251.106 13.2285C251.153 13.1498 251.22 13.0853 251.301 13.0424C251.379 12.9949 251.469 12.9697 251.56 12.9697C251.651 12.9697 251.741 12.9949 251.819 13.0424L270.586 25.2224C270.659 25.2692 270.719 25.3338 270.76 25.4102C270.8 25.4866 270.821 25.5722 270.819 25.6588L268.789 123.17C268.789 123.258 268.765 123.345 268.721 123.422C268.676 123.498 268.612 123.562 268.536 123.606C268.459 123.656 268.373 123.688 268.282 123.698V123.698ZM252.042 113.223L267.785 122.358L269.815 25.9836L252.052 14.4228L252.042 113.223Z" fill="#2D2D2D"/>
<path d="M246.145 56.9208L267.774 48.6384L248.53 35.9712L227.378 44.7306L246.145 56.9208Z" fill="#FF7747"/>
<path d="M246.155 57.4283C246.057 57.4312 245.961 57.4028 245.881 57.3471L227.114 45.1671C227.036 45.1156 226.975 45.0439 226.935 44.9598C226.896 44.8757 226.88 44.7824 226.89 44.69C226.897 44.5991 226.929 44.5119 226.983 44.4384C227.037 44.3648 227.11 44.3078 227.195 44.2739L248.347 35.5043C248.421 35.4668 248.503 35.4473 248.586 35.4473C248.669 35.4473 248.751 35.4668 248.824 35.5043L268.059 48.1715C268.138 48.2217 268.202 48.2928 268.243 48.377C268.284 48.4613 268.301 48.5552 268.292 48.6485C268.283 48.7414 268.247 48.8297 268.19 48.9033C268.132 48.9769 268.055 49.0328 267.967 49.0647L246.338 57.3572C246.282 57.3921 246.22 57.4162 246.155 57.4283V57.4283ZM228.464 44.8321L246.206 56.3524L266.668 48.5166L248.479 36.5396L228.464 44.8321Z" fill="#2D2D2D"/>
<path d="M246.145 56.9208L244.115 134.335L265.866 123.891L267.774 48.6384L246.145 56.9208Z" fill="white"/>
<path d="M244.125 134.842C244.027 134.845 243.931 134.817 243.851 134.761C243.779 134.713 243.721 134.648 243.68 134.572C243.639 134.496 243.618 134.411 243.617 134.325L245.647 56.9107C245.653 56.8102 245.687 56.7135 245.747 56.6324C245.806 56.5513 245.888 56.4893 245.982 56.4539L267.602 48.1614C267.68 48.1313 267.765 48.1211 267.848 48.1317C267.931 48.1423 268.011 48.1735 268.079 48.2223C268.145 48.2722 268.198 48.3366 268.235 48.4105C268.272 48.4844 268.292 48.5659 268.292 48.6486L266.384 123.901C266.383 123.994 266.356 124.086 266.306 124.165C266.256 124.244 266.184 124.307 266.1 124.347L244.348 134.792C244.28 134.829 244.203 134.846 244.125 134.842V134.842ZM246.662 57.2761L244.632 133.523L265.349 123.566L267.226 49.3794L246.662 57.2761Z" fill="#2D2D2D"/>
<path d="M227.378 44.7307V124.662L244.115 134.335L246.145 56.9208L227.378 44.7307Z" fill="white"/>
<path d="M244.125 134.842C244.037 134.842 243.95 134.821 243.871 134.781L227.134 125.098C227.058 125.053 226.996 124.989 226.951 124.912C226.907 124.836 226.883 124.75 226.88 124.662V44.7307C226.881 44.6384 226.907 44.548 226.955 44.4693C227.003 44.3906 227.072 44.3265 227.154 44.2841C227.232 44.2366 227.322 44.2114 227.413 44.2114C227.504 44.2114 227.594 44.2366 227.672 44.2841L246.439 56.4641C246.511 56.5137 246.569 56.5806 246.608 56.6587C246.647 56.7368 246.666 56.8234 246.662 56.9107L244.632 134.325C244.63 134.412 244.606 134.496 244.561 134.571C244.517 134.646 244.454 134.708 244.379 134.751C244.303 134.802 244.216 134.834 244.125 134.842ZM227.885 124.368L243.638 133.503L245.668 57.2253L227.885 45.6645V124.368Z" fill="#2D2D2D"/>
<path d="M221.947 86.4065L243.567 78.114L224.322 65.4468L203.18 74.2062L221.947 86.4065Z" fill="#FF7747"/>
<path d="M221.947 86.914C221.847 86.912 221.749 86.8841 221.663 86.8329L202.896 74.6529C202.819 74.6017 202.757 74.5305 202.718 74.4469C202.678 74.3633 202.663 74.2706 202.672 74.1787C202.681 74.0868 202.716 73.9992 202.771 73.9253C202.827 73.8515 202.901 73.7942 202.987 73.7596L224.129 65.0002C224.203 64.9602 224.285 64.9393 224.368 64.9393C224.451 64.9393 224.533 64.9602 224.607 65.0002L243.892 77.6674C243.968 77.7208 244.028 77.7937 244.066 77.8785C244.105 77.9632 244.119 78.0568 244.109 78.1492C244.099 78.2416 244.063 78.3296 244.007 78.4038C243.951 78.4779 243.876 78.5356 243.79 78.5708L222.16 86.8531C222.098 86.8971 222.023 86.9185 221.947 86.914V86.914ZM204.266 74.3077L222.008 85.8381L242.46 77.9922L224.272 66.0152L204.266 74.3077Z" fill="#2D2D2D"/>
<path d="M221.947 86.4066L219.917 145.764L241.659 135.319L243.567 78.114L221.947 86.4066Z" fill="white"/>
<path d="M219.917 146.281C219.849 146.28 219.782 146.265 219.72 146.238C219.658 146.211 219.601 146.172 219.554 146.123C219.507 146.074 219.47 146.016 219.445 145.952C219.42 145.889 219.408 145.822 219.41 145.754L221.44 86.3862C221.44 86.2859 221.472 86.1882 221.53 86.1065C221.588 86.0247 221.67 85.9629 221.765 85.9295L243.384 77.6369C243.463 77.6086 243.547 77.5993 243.63 77.6099C243.713 77.6205 243.792 77.6506 243.861 77.6978C243.931 77.7463 243.987 77.8119 244.025 77.8883C244.062 77.9647 244.079 78.0494 244.074 78.1343L242.166 135.36C242.166 135.452 242.139 135.543 242.089 135.62C242.038 135.698 241.966 135.759 241.882 135.796L220.13 146.251C220.062 146.275 219.99 146.285 219.917 146.281V146.281ZM222.434 86.7516L220.404 144.952L241.121 134.995L242.998 78.8651L222.434 86.7516Z" fill="#2D2D2D"/>
<path d="M203.18 74.2062V136.091L219.917 145.764L221.947 86.4065L203.18 74.2062Z" fill="white"/>
<path d="M219.917 146.281C219.828 146.28 219.741 146.255 219.663 146.21L202.926 136.527C202.848 136.485 202.783 136.421 202.738 136.344C202.694 136.268 202.671 136.18 202.672 136.091V74.1758C202.673 74.0847 202.698 73.9955 202.744 73.9171C202.791 73.8386 202.857 73.7738 202.936 73.7292C203.015 73.6847 203.104 73.6614 203.195 73.6614C203.286 73.6614 203.375 73.6847 203.454 73.7292L222.221 85.9092C222.294 85.956 222.354 86.0206 222.395 86.097C222.436 86.1734 222.456 86.259 222.455 86.3456L220.425 145.713C220.42 145.801 220.394 145.886 220.348 145.96C220.302 146.035 220.237 146.096 220.161 146.139C220.093 146.207 220.009 146.256 219.917 146.281V146.281ZM203.677 135.796L219.42 144.931L221.45 86.6908L203.708 75.1604L203.677 135.796Z" fill="#2D2D2D"/>
<path d="M197.476 113.284L219.105 104.991L199.861 92.324L178.718 101.083L197.476 113.284Z" fill="#FF7747"/>
<path d="M197.435 113.791C197.338 113.789 197.243 113.761 197.161 113.71L178.394 101.53C178.318 101.479 178.257 101.409 178.218 101.327C178.179 101.245 178.162 101.154 178.17 101.063C178.175 100.97 178.206 100.881 178.26 100.806C178.314 100.73 178.389 100.672 178.475 100.637L199.627 91.8774C199.701 91.8374 199.783 91.8165 199.866 91.8165C199.949 91.8165 200.031 91.8374 200.104 91.8774L219.389 104.545C219.468 104.596 219.531 104.667 219.572 104.751C219.613 104.835 219.631 104.928 219.623 105.022C219.612 105.115 219.576 105.204 219.519 105.279C219.461 105.354 219.385 105.412 219.298 105.448L197.668 113.73C197.597 113.77 197.517 113.791 197.435 113.791V113.791ZM179.754 101.185L197.496 112.715L217.999 104.91L199.81 92.933L179.754 101.185Z" fill="#2D2D2D"/>
<path d="M197.476 113.284L195.446 158.055L217.197 147.611L219.105 104.991L197.476 113.284Z" fill="white"/>
<path d="M195.405 158.563C195.308 158.561 195.213 158.533 195.131 158.482C195.057 158.434 194.997 158.368 194.958 158.289C194.918 158.211 194.901 158.123 194.908 158.035L196.938 113.253C196.939 113.154 196.971 113.058 197.029 112.978C197.087 112.898 197.169 112.838 197.262 112.807L218.882 104.514C218.961 104.486 219.045 104.477 219.128 104.487C219.211 104.498 219.29 104.528 219.359 104.575C219.429 104.624 219.485 104.689 219.522 104.766C219.56 104.842 219.577 104.927 219.572 105.012L217.664 147.642C217.659 147.733 217.631 147.821 217.581 147.898C217.531 147.975 217.461 148.037 217.38 148.078L195.628 158.522C195.559 158.556 195.482 158.57 195.405 158.563ZM197.932 113.639L195.953 157.284L216.669 147.337L218.527 105.793L197.932 113.639Z" fill="#2D2D2D"/>
<path d="M178.718 101.083V148.372L195.446 158.055L197.476 113.284L178.718 101.083Z" fill="white"/>
<path d="M195.405 158.563C195.317 158.562 195.23 158.541 195.151 158.502L178.424 148.819C178.347 148.775 178.284 148.711 178.239 148.634C178.195 148.558 178.171 148.471 178.17 148.382V101.083C178.171 100.992 178.196 100.903 178.242 100.825C178.289 100.746 178.355 100.681 178.434 100.637C178.513 100.592 178.602 100.569 178.693 100.569C178.784 100.569 178.873 100.592 178.952 100.637L197.719 112.817C197.794 112.863 197.855 112.93 197.894 113.009C197.933 113.087 197.95 113.176 197.942 113.263L195.912 158.045C195.912 158.132 195.887 158.217 195.84 158.291C195.793 158.364 195.727 158.424 195.649 158.461C195.578 158.517 195.494 158.552 195.405 158.563V158.563ZM179.165 148.088L194.918 157.223L196.897 113.578L179.165 102.048V148.088Z" fill="#2D2D2D"/>
<path d="M172.872 139.633L194.502 131.351L175.257 118.673L154.105 127.443L172.872 139.633Z" fill="#FF7747"/>
<path d="M172.872 140.141C172.775 140.139 172.68 140.111 172.598 140.059L153.831 127.879C153.753 127.828 153.692 127.756 153.652 127.672C153.613 127.588 153.597 127.495 153.607 127.402C153.614 127.311 153.646 127.224 153.7 127.151C153.754 127.077 153.827 127.02 153.912 126.986L175.105 118.206C175.181 118.177 175.263 118.166 175.345 118.175C175.426 118.183 175.504 118.212 175.572 118.257L194.857 130.924C194.934 130.976 194.995 131.047 195.035 131.13C195.074 131.214 195.09 131.307 195.081 131.399C195.071 131.491 195.037 131.578 194.981 131.652C194.926 131.726 194.851 131.783 194.765 131.818L173.075 140.11L172.872 140.141ZM155.191 127.544L172.933 139.065L193.375 131.229L175.186 119.252L155.191 127.544Z" fill="#2D2D2D"/>
<path d="M172.872 139.633L170.842 169.677L192.593 159.233L194.502 131.351L172.872 139.633Z" fill="white"/>
<path d="M170.842 170.185C170.741 170.186 170.642 170.158 170.558 170.103C170.485 170.052 170.427 169.984 170.387 169.904C170.348 169.824 170.33 169.736 170.334 169.647L172.364 139.603C172.37 139.506 172.404 139.414 172.462 139.336C172.52 139.259 172.599 139.2 172.689 139.166L194.319 130.874C194.399 130.843 194.485 130.832 194.57 130.843C194.655 130.853 194.736 130.885 194.806 130.935C194.872 130.988 194.925 131.056 194.96 131.134C194.996 131.211 195.012 131.296 195.009 131.381L193.101 159.273C193.096 159.362 193.067 159.448 193.017 159.521C192.967 159.594 192.898 159.653 192.817 159.69L171.045 170.134C170.983 170.167 170.913 170.185 170.842 170.185V170.185ZM173.359 139.988L171.41 168.855L192.106 158.918L193.943 132.112L173.359 139.988Z" fill="#2D2D2D"/>
<path d="M154.105 127.443V160.004L170.842 169.677L172.872 139.633L154.105 127.443Z" fill="white"/>
<path d="M170.842 170.185C170.754 170.184 170.667 170.163 170.588 170.124L153.851 160.441C153.774 160.396 153.71 160.333 153.666 160.256C153.621 160.18 153.598 160.093 153.597 160.004V127.443C153.598 127.351 153.624 127.26 153.672 127.182C153.72 127.103 153.789 127.039 153.871 126.996C153.949 126.949 154.039 126.924 154.13 126.924C154.221 126.924 154.311 126.949 154.389 126.996L173.156 139.176C173.231 139.228 173.291 139.298 173.33 139.38C173.37 139.462 173.386 139.553 173.379 139.643L171.349 169.687C171.343 169.773 171.315 169.856 171.269 169.928C171.223 170.001 171.16 170.061 171.086 170.103C171.01 170.145 170.927 170.173 170.842 170.185V170.185ZM154.602 159.71L170.385 168.845L172.334 139.907L154.602 128.387V159.71Z" fill="#2D2D2D"/>
<path d="M280.107 32.1548C280.107 32.1548 258.944 74.4295 233.823 102.799C220.303 118.085 182.677 154.757 182.677 154.757L198.917 141.988C198.917 141.988 236.005 114.664 251.545 94.4555C267.084 74.2468 286.41 40.153 286.755 38.8234C287.1 37.4937 283.324 29.1098 283.324 29.1098L280.107 32.1548Z" fill="#2D2D2D"/>
<path d="M182.677 155.264C182.604 155.264 182.532 155.248 182.466 155.218C182.4 155.188 182.34 155.145 182.291 155.092C182.201 154.997 182.151 154.872 182.151 154.741C182.151 154.611 182.201 154.486 182.291 154.391C182.667 154.026 220.059 117.557 233.417 102.464C258.223 74.46 279.447 32.3476 279.65 31.9315C279.672 31.8766 279.707 31.8279 279.751 31.7894L283.01 28.7444C283.068 28.6879 283.139 28.647 283.217 28.6257C283.295 28.6044 283.378 28.6033 283.456 28.6226C283.534 28.6366 283.608 28.67 283.67 28.7196C283.732 28.7693 283.781 28.8336 283.811 28.9068C284.725 30.9368 287.668 37.5647 287.273 38.9756C286.917 40.2037 267.673 74.3585 251.94 94.8006C236.492 114.837 199.577 142.16 199.16 142.435L182.92 155.183C182.848 155.23 182.764 155.258 182.677 155.264V155.264ZM280.523 32.4491C279.457 34.5603 258.558 75.6273 234.208 103.124C224.272 114.35 201.089 137.36 189.65 148.616L198.592 141.582C198.978 141.298 235.792 114.055 251.149 94.1408C266.82 73.8408 285.902 39.9094 286.308 38.6711C286.491 37.9809 284.877 33.7382 283.192 29.9522L280.523 32.4491Z" fill="#2D2D2D"/>
<path d="M304.7 2.24278L302.224 1.19733L272.312 28.8256L273.266 31.3936L304.7 2.24278Z" fill="#2D2D2D"/>
<path d="M273.266 31.9011H273.144C273.063 31.8797 272.988 31.839 272.926 31.7825C272.864 31.7259 272.817 31.6551 272.789 31.5763L271.834 29.0083C271.8 28.9141 271.794 28.8118 271.817 28.7143C271.841 28.6167 271.893 28.5283 271.966 28.4602L301.878 0.821764C301.952 0.75601 302.042 0.712493 302.139 0.696313C302.236 0.680134 302.336 0.691963 302.427 0.730413L304.903 1.74541C304.978 1.7805 305.044 1.83278 305.095 1.89803C305.146 1.96327 305.181 2.03965 305.198 2.12096C305.214 2.20531 305.208 2.29239 305.182 2.37405C305.155 2.45571 305.108 2.52928 305.045 2.58786L273.58 31.7387C273.497 31.8268 273.386 31.884 273.266 31.9011V31.9011ZM272.91 28.9677L273.479 30.5004L303.777 2.39501L302.325 1.77586L272.91 28.9677Z" fill="#2D2D2D"/>
<path d="M198.907 140.374C198.907 140.374 231.742 113.284 254.975 80.7429C265.349 66.2535 274.586 50.9829 282.604 35.0679L273.266 31.4443L304.731 2.29352L302.995 40.7316L294.804 38.4478C294.804 38.4478 273.296 75.8709 257.249 94.2728C234.675 120.186 195.994 148.068 182.667 154.767L198.907 140.374Z" fill="#FF7747"/>
<path d="M182.677 155.264C182.593 155.264 182.51 155.244 182.436 155.205C182.362 155.166 182.298 155.11 182.251 155.041C182.182 154.939 182.153 154.817 182.168 154.696C182.183 154.575 182.241 154.463 182.332 154.381L198.572 139.988C198.907 139.724 231.62 112.583 254.549 80.4586C264.78 66.1113 273.921 51.0164 281.893 35.3013L273.083 31.83C273.003 31.7965 272.932 31.7438 272.877 31.6766C272.822 31.6093 272.785 31.5295 272.768 31.4443C272.753 31.3599 272.759 31.2731 272.785 31.1916C272.812 31.1101 272.858 31.0365 272.921 30.9774L304.385 1.82659C304.461 1.76052 304.554 1.71768 304.653 1.70327C304.752 1.68885 304.853 1.70349 304.944 1.74539C305.036 1.78493 305.114 1.85196 305.166 1.93734C305.219 2.02273 305.244 2.1223 305.238 2.22244L303.523 40.7112C303.519 40.7872 303.499 40.8613 303.463 40.9283C303.427 40.9953 303.376 41.0533 303.315 41.0981C303.254 41.1429 303.183 41.1734 303.108 41.1872C303.034 41.2011 302.957 41.198 302.883 41.1781L295.068 38.9959C292.855 42.8021 272.738 77.2715 257.675 94.557C235.416 120.105 196.633 148.352 182.931 155.173C182.854 155.222 182.767 155.253 182.677 155.264V155.264ZM199.242 140.76L186.371 152.158C202.439 142.8 236.563 117.252 256.884 93.9277C272.687 75.7896 294.144 38.5594 294.357 38.194C294.411 38.0952 294.496 38.0174 294.599 37.9732C294.702 37.9289 294.817 37.9209 294.926 37.9504L302.508 40.0718L304.142 3.46074L274.21 31.2108L282.786 34.54C282.851 34.5645 282.91 34.6025 282.959 34.6515C283.008 34.7005 283.046 34.7594 283.071 34.8242C283.098 34.8883 283.113 34.9574 283.113 35.0272C283.113 35.0971 283.098 35.1662 283.071 35.2302C275.031 51.1833 265.781 66.497 255.402 81.0372C232.493 113.101 199.881 140.222 199.242 140.76V140.76Z" fill="#2D2D2D"/>
<path d="M116.57 191.094C116.45 191.095 116.334 191.052 116.245 190.972L74.0922 155.142C74.0407 155.1 73.9983 155.048 73.9673 154.989C73.9362 154.931 73.9173 154.866 73.9117 154.8C73.906 154.734 73.9137 154.667 73.9342 154.604C73.9547 154.541 73.9878 154.482 74.0313 154.432C74.1197 154.33 74.2446 154.266 74.3792 154.255C74.5139 154.243 74.6476 154.285 74.7519 154.371L116.651 189.987L162.438 169.22C162.499 169.188 162.566 169.169 162.635 169.163C162.704 169.158 162.774 169.167 162.839 169.189C162.905 169.212 162.965 169.248 163.016 169.294C163.068 169.341 163.109 169.398 163.137 169.461C163.166 169.524 163.181 169.592 163.182 169.662C163.183 169.731 163.17 169.8 163.143 169.864C163.117 169.928 163.077 169.986 163.028 170.034C162.978 170.082 162.919 170.12 162.854 170.144L116.783 191.053C116.716 191.081 116.643 191.095 116.57 191.094V191.094Z" fill="#E6EBDE"/>
<path d="M293.464 105.976C293.372 105.976 293.281 105.951 293.202 105.902C293.123 105.854 293.059 105.784 293.018 105.702C292.956 105.582 292.944 105.442 292.984 105.313C293.024 105.184 293.112 105.076 293.231 105.012L310.425 96.2521C310.484 96.2209 310.549 96.2019 310.615 96.1963C310.682 96.1907 310.749 96.1985 310.812 96.2193C310.876 96.2402 310.934 96.2736 310.985 96.3176C311.035 96.3616 311.076 96.4152 311.105 96.4754C311.136 96.5345 311.155 96.5992 311.161 96.6658C311.166 96.7323 311.158 96.7994 311.138 96.8628C311.117 96.9263 311.083 96.9849 311.039 97.0352C310.995 97.0855 310.942 97.1264 310.882 97.1554L293.698 105.925C293.625 105.962 293.545 105.979 293.464 105.976V105.976Z" fill="#E6EBDE"/>
<path d="M199.597 71.415C199.492 71.4145 199.389 71.3827 199.303 71.3237L174.943 53.9266C174.869 53.8724 174.81 53.7999 174.773 53.7163C174.735 53.6326 174.721 53.5407 174.729 53.4495C174.74 53.3611 174.774 53.277 174.827 53.2057C174.881 53.1344 174.952 53.0785 175.034 53.0435L182.474 49.897C182.555 49.8642 182.643 49.8526 182.73 49.8633C182.817 49.8739 182.9 49.9065 182.971 49.9579L206.905 67.5783C207.012 67.6592 207.083 67.7785 207.104 67.911C207.125 68.0435 207.094 68.179 207.017 68.2888C206.936 68.3965 206.816 68.4677 206.682 68.4867C206.549 68.5057 206.414 68.4711 206.306 68.3903L182.606 50.9425L176.272 53.6221L199.891 70.4914C199.98 70.5534 200.047 70.6422 200.082 70.7448C200.116 70.8474 200.117 70.9584 200.084 71.0616C200.051 71.1648 199.986 71.2548 199.899 71.3184C199.811 71.382 199.705 71.4158 199.597 71.415Z" fill="#E6EBDE"/>
<path d="M215.614 64.3811C215.509 64.3806 215.406 64.3488 215.319 64.2897L195.659 50.2421C195.584 50.1935 195.525 50.1249 195.487 50.0442C195.449 49.9635 195.435 49.8738 195.446 49.7854C195.453 49.6973 195.483 49.6125 195.532 49.5395C195.582 49.4666 195.65 49.4078 195.73 49.3692L202.693 46.04C202.773 45.9927 202.864 45.9677 202.957 45.9677C203.049 45.9677 203.141 45.9927 203.22 46.04L222.932 60.5444C223.041 60.6238 223.114 60.7433 223.135 60.8765C223.156 61.0098 223.123 61.1459 223.043 61.2549C222.964 61.3639 222.845 61.4369 222.711 61.4579C222.578 61.4788 222.442 61.4459 222.333 61.3665L202.865 47.055L196.938 49.9275L215.918 63.4879C216.003 63.5518 216.066 63.6409 216.098 63.7426C216.13 63.8442 216.129 63.9533 216.095 64.0544C216.061 64.1554 215.997 64.2433 215.91 64.3056C215.824 64.3679 215.72 64.4014 215.614 64.4014V64.3811Z" fill="#E6EBDE"/>
<path d="M115.22 185.907H115.118C115.052 185.895 114.99 185.87 114.934 185.833C114.878 185.796 114.83 185.748 114.793 185.692C114.756 185.636 114.731 185.573 114.719 185.507C114.706 185.441 114.708 185.374 114.723 185.308C114.794 184.923 116.661 175.869 121.3 172.113C123.665 170.225 126.253 169.84 128.537 169.505C131.531 169.068 134.119 168.693 135.733 165.242C138.316 160.006 139.962 154.359 140.595 148.555C140.599 148.488 140.616 148.423 140.645 148.363C140.674 148.303 140.715 148.249 140.765 148.205C140.815 148.161 140.873 148.126 140.936 148.105C140.999 148.083 141.066 148.074 141.133 148.078C141.199 148.081 141.264 148.096 141.324 148.124C141.384 148.153 141.438 148.192 141.483 148.241C141.527 148.291 141.561 148.348 141.583 148.411C141.605 148.473 141.614 148.54 141.61 148.606C141.61 148.92 141.163 156.249 136.708 165.729C134.85 169.667 131.886 170.103 128.74 170.56C126.476 170.895 124.132 171.24 121.99 172.956C117.626 176.437 115.788 185.43 115.768 185.521C115.739 185.641 115.668 185.747 115.567 185.818C115.466 185.889 115.343 185.92 115.22 185.907Z" fill="#E6EBDE"/>
<path d="M24.4891 112.015C24.4225 112.028 24.354 112.027 24.2876 112.013C24.2211 111.999 24.1581 111.973 24.102 111.935C24.0459 111.896 23.9979 111.848 23.9607 111.791C23.9235 111.734 23.8978 111.671 23.8852 111.604C23.8725 111.537 23.8731 111.469 23.8869 111.402C23.9007 111.336 23.9275 111.273 23.9656 111.217C24.0038 111.161 24.0527 111.113 24.1094 111.076C24.1661 111.038 24.2296 111.013 24.2963 111L44.5963 102.992C44.7214 102.942 44.8613 102.944 44.985 102.997C45.1087 103.05 45.2062 103.151 45.256 103.276C45.3058 103.401 45.3038 103.541 45.2505 103.665C45.1972 103.788 45.097 103.886 44.9718 103.936L24.6718 111.944C24.6178 111.983 24.555 112.007 24.4891 112.015V112.015Z" fill="#E6EBDE"/>
<path d="M29.0262 117.466C28.8916 117.49 28.7529 117.46 28.6406 117.381C28.5283 117.303 28.4516 117.184 28.4273 117.049C28.4031 116.915 28.4334 116.776 28.5114 116.664C28.5894 116.551 28.7089 116.475 28.8435 116.451L42.6272 111C42.7526 110.953 42.8914 110.956 43.0144 111.009C43.1374 111.062 43.2351 111.161 43.2869 111.284C43.3117 111.346 43.3239 111.412 43.323 111.479C43.3221 111.546 43.3081 111.612 43.2817 111.673C43.2553 111.734 43.217 111.79 43.1692 111.836C43.1213 111.883 43.0648 111.919 43.0027 111.944L29.219 117.395C29.159 117.428 29.0939 117.452 29.0262 117.466V117.466Z" fill="#E6EBDE"/>
</svg>
