<svg width="36" height="39" viewBox="0 0 36 39" fill="none" xmlns="http://www.w3.org/2000/svg">
<path fill-rule="evenodd" clip-rule="evenodd" d="M13.928 5.67935C16.0575 4.81489 18.3615 4.44212 20.6616 4.58986C22.9617 4.7376 25.1962 5.4019 27.1924 6.53136L29.2065 7.67094L31.5322 3.72332L29.5181 2.58373C26.904 1.10468 23.9778 0.234764 20.9658 0.0412939C17.9538 -0.152176 14.9367 0.335981 12.148 1.468C9.35929 2.60002 6.87368 4.34557 4.88346 6.5696C2.89324 8.79363 1.45175 11.4365 0.670513 14.2938C-0.110726 17.1512 -0.210779 20.1463 0.378096 23.0476C0.966972 25.9489 2.22899 28.6785 4.06653 31.0253C5.90406 33.3722 8.26785 35.2733 10.975 36.5816C13.6822 37.89 17.1741 38.5705 19.6787 38.5705C22.1834 38.5705 23.6459 38.2024 25.5665 37.4227C27.4331 36.665 29.1292 35.5544 30.5578 34.1543C31.9865 32.7543 33.1197 31.0921 33.8929 29.2628C34.6661 27.4335 35.064 25.4729 35.064 23.4929C35.064 21.5129 34.6661 19.5523 33.8929 17.723C33.1197 15.8937 31.9865 14.2316 30.5578 12.8315C29.1292 11.4314 27.4331 10.3208 25.5665 9.56308C23.6999 8.80536 21.6992 8.41537 19.6788 8.41537C17.6584 8.41537 15.6578 8.80536 13.7912 9.56308C11.9245 10.3208 10.2285 11.4314 8.79984 12.8315C7.37119 14.2316 6.23792 15.8937 5.46474 17.723C5.13217 18.5098 4.86902 19.321 4.6771 20.1475C4.58319 18.5784 4.74595 17.0003 5.16336 15.4736C5.75995 13.2917 6.86072 11.2735 8.38052 9.57511C9.90033 7.87676 11.7984 6.5438 13.928 5.67935Z" fill="#FF7747"/>
</svg>
