<svg width="149" height="34" viewBox="0 0 149 34" fill="none" xmlns="http://www.w3.org/2000/svg">
<path d="M44.9888 21.9599V17.9425H49.0063C49.3464 17.9425 49.7077 17.9319 50.0903 17.9106C50.4942 17.8893 50.8875 17.8256 51.2701 17.7193C51.6739 17.5918 52.0353 17.4004 52.3541 17.1454C52.673 16.8903 52.9281 16.5396 53.1194 16.0932C53.3107 15.6255 53.4063 15.0304 53.4063 14.3077C53.4063 13.6062 53.3107 13.0323 53.1194 12.5859C52.9281 12.1183 52.673 11.7675 52.3541 11.5337C52.0353 11.2786 51.6952 11.0979 51.3338 10.9917C50.9937 10.8854 50.6643 10.8216 50.3454 10.8004C50.0266 10.7791 49.7715 10.7685 49.5802 10.7685H44.9888V6.75103H49.8353C51.1532 6.75103 52.3435 6.91046 53.4063 7.2293C54.4904 7.52689 55.415 7.99453 56.1803 8.63222C56.9668 9.24865 57.5726 10.0351 57.9977 10.9917C58.4228 11.9269 58.6354 13.0535 58.6354 14.3714C58.6354 16.0294 58.2528 17.4217 57.4875 18.5483C56.7436 19.6749 55.6382 20.5251 54.1716 21.099C52.7261 21.673 50.93 21.9599 48.7831 21.9599H44.9888ZM41.1946 27.7948V6.75103H46.328V27.7948H41.1946Z" fill="#2D2D2D"/>
<path d="M68.6464 28.2412C67.1797 28.2412 65.8937 28.0392 64.7883 27.6354C63.7043 27.2315 62.7902 26.6576 62.0463 25.9136C61.3236 25.1484 60.7709 24.245 60.3883 23.2034C60.0269 22.1619 59.8462 20.9928 59.8462 19.6961C59.8462 18.4207 60.0269 17.2198 60.3883 16.0932C60.7496 14.9666 61.281 13.9888 61.9825 13.1598C62.7052 12.3308 63.598 11.6825 64.6608 11.2149C65.7236 10.7472 66.9352 10.5134 68.2956 10.5134C69.6773 10.5134 70.8783 10.7472 71.8986 11.2149C72.9401 11.6612 73.7904 12.3202 74.4493 13.1917C75.1083 14.0632 75.5653 15.1048 75.8204 16.3164C76.0967 17.5067 76.1605 18.8459 76.0117 20.3338L63.1622 20.4614V17.7512L72.7276 17.6236L71.3246 18.9947C71.4522 17.9744 71.399 17.1347 71.1652 16.4758C70.9314 15.7956 70.57 15.2961 70.0812 14.9772C69.5923 14.6371 69.0183 14.4671 68.3594 14.4671C67.5942 14.4671 66.9458 14.669 66.4144 15.0729C65.883 15.4767 65.4792 16.0613 65.2028 16.8265C64.9265 17.5705 64.7883 18.4845 64.7883 19.5686C64.7883 21.2903 65.1284 22.5445 65.8086 23.331C66.5101 24.1174 67.456 24.5107 68.6464 24.5107C69.199 24.5107 69.656 24.4363 70.0174 24.2875C70.3787 24.1387 70.6763 23.9474 70.9102 23.7136C71.144 23.4585 71.314 23.1715 71.4203 22.8527C71.5478 22.5338 71.6329 22.2044 71.6754 21.8643L76.2349 22.5976C76.1498 23.3628 75.9479 24.0856 75.6291 24.7658C75.3315 25.4247 74.8745 26.0199 74.258 26.5513C73.6628 27.0614 72.9082 27.4759 71.9942 27.7948C71.0802 28.0924 69.9642 28.2412 68.6464 28.2412Z" fill="#2D2D2D"/>
<path d="M82.6225 28.2412C81.6872 28.2412 80.8476 28.0711 80.1036 27.731C79.3809 27.3909 78.7963 26.8808 78.3499 26.2006C77.9248 25.4991 77.7122 24.6276 77.7122 23.586C77.7122 22.4594 77.9567 21.5561 78.4456 20.8759C78.9557 20.1956 79.6041 19.6749 80.3905 19.3135C81.1983 18.9309 82.0379 18.6546 82.9094 18.4845C83.8022 18.3145 84.6418 18.1657 85.4283 18.0381C86.236 17.9106 86.8631 17.7937 87.3095 17.6874C87.7771 17.5811 88.1066 17.4217 88.2979 17.2091C88.5105 16.9966 88.6167 16.7202 88.6167 16.3801C88.6167 15.9975 88.5211 15.6681 88.3298 15.3917C88.1597 15.0941 87.894 14.8709 87.5327 14.7221C87.1713 14.5521 86.7249 14.4671 86.1935 14.4671C85.6409 14.4671 85.1201 14.5627 84.6312 14.754C84.1635 14.9453 83.7597 15.2536 83.4196 15.6787C83.1007 16.0826 82.8882 16.614 82.7819 17.2729L78.2543 16.2845C78.4243 15.2429 78.7538 14.3608 79.2427 13.6381C79.7316 12.8941 80.3374 12.2883 81.0601 11.8207C81.7828 11.353 82.5799 11.0236 83.4515 10.8322C84.3442 10.6197 85.2901 10.5134 86.2892 10.5134C87.5645 10.5134 88.6593 10.6728 89.5733 10.9917C90.5086 11.3105 91.2738 11.7994 91.869 12.4584C92.4854 13.096 92.9318 13.9038 93.2081 14.8816C93.5057 15.8594 93.6545 17.0072 93.6545 18.3251V21.0353C93.6545 21.7792 93.6651 22.5338 93.6864 23.2991C93.7076 24.043 93.7289 24.787 93.7501 25.531C93.7926 26.275 93.8458 27.0296 93.9096 27.7948H89.4138C89.3501 27.1996 89.2863 26.5513 89.2225 25.8498C89.18 25.1271 89.1481 24.3725 89.1269 23.586H88.6486C88.4361 24.4575 88.0428 25.244 87.4689 25.9455C86.9162 26.6469 86.2254 27.2102 85.3964 27.6354C84.5887 28.0392 83.664 28.2412 82.6225 28.2412ZM84.8544 24.5744C85.2157 24.5744 85.5983 24.5107 86.0022 24.3831C86.4061 24.2343 86.7887 24.0218 87.1501 23.7455C87.5114 23.4691 87.8303 23.1184 88.1066 22.6933C88.3829 22.2681 88.5742 21.7686 88.6805 21.1947L88.6486 19.2816L89.382 19.3454C89.0631 19.6217 88.6805 19.8343 88.2341 19.9831C87.7877 20.1319 87.3095 20.2594 86.7993 20.3657C86.3104 20.4507 85.8215 20.5464 85.3326 20.6527C84.8437 20.7377 84.3974 20.8546 83.9935 21.0034C83.6109 21.1522 83.3027 21.3541 83.0688 21.6092C82.8563 21.8643 82.75 22.2256 82.75 22.6933C82.75 23.2672 82.9413 23.7242 83.3239 24.0643C83.7278 24.4044 84.2379 24.5744 84.8544 24.5744Z" fill="#2D2D2D"/>
<path d="M104.533 28.2412C103.045 28.2412 101.748 28.0286 100.643 27.6035C99.5586 27.1783 98.6552 26.5832 97.9325 25.8179C97.2098 25.0315 96.6571 24.1174 96.2745 23.0759C95.9131 22.0131 95.7325 20.8546 95.7325 19.6005C95.7325 18.3038 95.9131 17.1135 96.2745 16.0294C96.6571 14.9241 97.2098 13.9569 97.9325 13.1279C98.6552 12.2989 99.548 11.6612 100.611 11.2149C101.695 10.7472 102.96 10.5134 104.405 10.5134C105.553 10.5134 106.563 10.6622 107.434 10.9598C108.306 11.2574 109.05 11.6825 109.666 12.2352C110.282 12.7666 110.761 13.3936 111.101 14.1163C111.441 14.8391 111.643 15.6255 111.707 16.4758L107.051 17.6236C107.03 16.9009 106.892 16.3057 106.637 15.8381C106.382 15.3705 106.042 15.0304 105.617 14.8178C105.192 14.6052 104.713 14.499 104.182 14.499C103.714 14.499 103.278 14.584 102.875 14.754C102.492 14.9241 102.152 15.2004 101.854 15.583C101.578 15.9656 101.355 16.4652 101.185 17.0816C101.015 17.698 100.93 18.4526 100.93 19.3454C100.93 20.5357 101.078 21.5135 101.376 22.2788C101.674 23.0227 102.099 23.5754 102.651 23.9368C103.204 24.2769 103.852 24.4469 104.596 24.4469C105.404 24.4469 106.031 24.2769 106.478 23.9368C106.924 23.5754 107.232 23.129 107.402 22.5976C107.593 22.0662 107.678 21.5348 107.657 21.0034L112.249 21.7367C112.227 22.587 112.068 23.4054 111.77 24.1918C111.494 24.9571 111.037 25.6479 110.399 26.2643C109.783 26.8808 108.986 27.3697 108.008 27.731C107.051 28.0711 105.893 28.2412 104.533 28.2412Z" fill="#2D2D2D"/>
<path d="M114.052 27.7948V17.7193V5.06116H119.186V9.93948C119.186 10.3859 119.164 10.8854 119.122 11.4381C119.101 11.9907 119.048 12.5753 118.963 13.1917C118.877 13.7869 118.792 14.3714 118.707 14.9453C118.622 15.5193 118.537 16.0507 118.452 16.5396H119.026C119.303 15.2429 119.664 14.1482 120.11 13.2555C120.557 12.3627 121.152 11.6825 121.896 11.2149C122.661 10.7472 123.618 10.5134 124.765 10.5134C125.743 10.5134 126.562 10.6835 127.221 11.0236C127.901 11.3637 128.453 11.8207 128.879 12.3946C129.304 12.9685 129.633 13.6274 129.867 14.3714C130.101 15.0941 130.26 15.8594 130.345 16.6671C130.43 17.4536 130.473 18.2294 130.473 18.9947V27.7948H125.308V19.4729C125.308 18.7715 125.265 18.1444 125.18 17.5918C125.095 17.0178 124.946 16.5289 124.734 16.1251C124.542 15.7212 124.266 15.413 123.905 15.2004C123.565 14.9666 123.15 14.8497 122.661 14.8497C121.917 14.8497 121.29 15.0941 120.78 15.583C120.27 16.0507 119.877 16.7309 119.6 17.6236C119.324 18.5164 119.186 19.5898 119.186 20.844V27.7948H114.052Z" fill="#2D2D2D"/>
<path d="M139.632 33.3427C138.867 33.3427 138.048 33.2789 137.177 33.1514C136.327 33.0238 135.508 32.8219 134.722 32.5456C133.935 32.2692 133.244 31.9185 132.649 31.4934L133.861 26.7107C134.626 27.4122 135.519 27.9223 136.539 28.2412C137.559 28.5813 138.516 28.7513 139.409 28.7513C140.365 28.7513 141.162 28.5919 141.8 28.273C142.459 27.9542 142.969 27.5184 143.33 26.9658C143.713 26.3919 143.979 25.7435 144.128 25.0208C144.298 24.2981 144.404 23.5329 144.446 22.7251L144.51 20.1425H143.936C143.787 21.5454 143.479 22.7039 143.012 23.6179C142.565 24.5107 141.97 25.1696 141.226 25.5948C140.482 26.0199 139.621 26.2324 138.643 26.2324C137.538 26.2324 136.635 26.0092 135.933 25.5629C135.232 25.1165 134.69 24.5532 134.307 23.873C133.925 23.1715 133.648 22.4382 133.478 21.673C133.308 20.8865 133.202 20.1531 133.159 19.4729C133.138 18.7927 133.127 18.2507 133.127 17.8468V10.9598H138.261V16.3801C138.261 16.784 138.261 17.241 138.261 17.7512C138.282 18.2613 138.325 18.7608 138.388 19.2497C138.473 19.7386 138.601 20.185 138.771 20.5889C138.962 20.9928 139.207 21.3222 139.504 21.5773C139.823 21.8111 140.227 21.928 140.716 21.928C141.311 21.928 141.789 21.7474 142.151 21.386C142.533 21.0034 142.82 20.5251 143.012 19.9512C143.203 19.3773 143.33 18.7821 143.394 18.1657C143.479 17.528 143.522 16.9753 143.522 16.5077V10.9598H148.655V22.9165C148.655 23.5329 148.613 24.2237 148.528 24.9889C148.443 25.7542 148.294 26.53 148.081 27.3165C147.869 28.103 147.55 28.847 147.125 29.5484C146.7 30.2711 146.158 30.9195 145.499 31.4934C144.84 32.0673 144.021 32.5137 143.044 32.8325C142.087 33.1726 140.95 33.3427 139.632 33.3427Z" fill="#2D2D2D"/>
<path fill-rule="evenodd" clip-rule="evenodd" d="M11.9165 4.85912C13.7385 4.11951 15.7097 3.80058 17.6776 3.92698C19.6455 4.05338 21.5573 4.62174 23.2652 5.58808L24.9885 6.56308L26.9782 3.18558L25.255 2.21058C23.0185 0.945135 20.5149 0.200859 17.9379 0.0353301C15.3609 -0.130199 12.7795 0.287458 10.3936 1.25599C8.00761 2.22452 5.88099 3.71797 4.1782 5.6208C2.47541 7.52362 1.24211 9.78483 0.573699 12.2295C-0.0947112 14.6741 -0.180314 17.2367 0.323514 19.719C0.827342 22.2013 1.9071 24.5367 3.47925 26.5446C5.0514 28.5525 7.07381 30.179 9.39002 31.2984C11.7062 32.4178 14.6938 33 16.8367 33C18.9796 33 20.2309 32.6851 21.8741 32.018C23.4712 31.3698 24.9223 30.4196 26.1446 29.2217C27.3669 28.0238 28.3365 26.6017 28.998 25.0366C29.6595 23.4715 30 21.794 30 20.1C30 18.4059 29.6595 16.7285 28.998 15.1634C28.3365 13.5983 27.3669 12.1762 26.1446 10.9783C24.9223 9.78044 23.4712 8.83024 21.8741 8.18195C20.2771 7.53367 18.5654 7.2 16.8368 7.2C15.1081 7.2 13.3965 7.53367 11.7994 8.18195C10.2024 8.83024 8.75128 9.78045 7.52896 10.9783C6.30664 12.1762 5.33705 13.5983 4.67553 15.1634C4.39099 15.8366 4.16584 16.5306 4.00164 17.2378C3.9213 15.8953 4.06055 14.545 4.41768 13.2389C4.9281 11.3721 5.86989 9.64531 7.17021 8.19224C8.47051 6.73917 10.0945 5.59873 11.9165 4.85912Z" fill="#FF7747"/>
</svg>
