<svg width="194" height="45" viewBox="0 0 194 45" fill="none" xmlns="http://www.w3.org/2000/svg">
<path d="M58.712 29.5731V24.3302H63.9549C64.3987 24.3302 64.8703 24.3163 65.3696 24.2886C65.8967 24.2609 66.4099 24.1776 66.9092 24.0389C67.4363 23.8725 67.9079 23.6228 68.324 23.29C68.7401 22.9571 69.073 22.4994 69.3226 21.9168C69.5723 21.3065 69.6971 20.5298 69.6971 19.5866C69.6971 18.6712 69.5723 17.9222 69.3226 17.3397C69.073 16.7294 68.7401 16.2717 68.324 15.9665C67.9079 15.6337 67.464 15.3979 66.9924 15.2592C66.5486 15.1205 66.1186 15.0372 65.7025 15.0095C65.2864 14.9818 64.9535 14.9679 64.7039 14.9679H58.712V9.725H65.0368C66.7567 9.725 68.3101 9.93305 69.6971 10.3492C71.1119 10.7375 72.3186 11.3478 73.3172 12.18C74.3436 12.9845 75.1342 14.0109 75.689 15.2592C76.2438 16.4797 76.5212 17.95 76.5212 19.6699C76.5212 21.8336 76.0219 23.6506 75.0232 25.1208C74.0523 26.591 72.6098 27.7006 70.6958 28.4496C68.8094 29.1986 66.4654 29.5731 63.6636 29.5731H58.712ZM53.7604 37.1878V9.725H60.4596V37.1878H53.7604Z" fill="white"/>
<path d="M89.5859 37.7703C87.6718 37.7703 85.9935 37.5068 84.551 36.9797C83.1363 36.4527 81.9434 35.7037 80.9725 34.7328C80.0294 33.7341 79.3081 32.5552 78.8088 31.1959C78.3372 29.8366 78.1014 28.3109 78.1014 26.6188C78.1014 24.9544 78.3372 23.387 78.8088 21.9168C79.2804 20.4466 79.9739 19.1705 80.8893 18.0887C81.8325 17.0068 82.9976 16.1607 84.3846 15.5504C85.7716 14.9402 87.3528 14.635 89.1281 14.635C90.9313 14.635 92.4986 14.9402 93.8301 15.5504C95.1894 16.133 96.299 16.9929 97.1589 18.1303C98.0189 19.2676 98.6153 20.6269 98.9482 22.2081C99.3088 23.7615 99.392 25.5092 99.1978 27.451L82.4289 27.6174V24.0805L94.912 23.9141L93.0811 25.7034C93.2476 24.3718 93.1782 23.2761 92.8731 22.4161C92.5679 21.5285 92.0963 20.8766 91.4583 20.4605C90.8203 20.0166 90.0713 19.7947 89.2114 19.7947C88.2127 19.7947 87.3666 20.0582 86.6731 20.5853C85.9796 21.1123 85.4526 21.8752 85.0919 22.8739C84.7313 23.8448 84.551 25.0376 84.551 26.4523C84.551 28.6993 84.9949 30.336 85.8825 31.3623C86.798 32.3887 88.0324 32.9019 89.5859 32.9019C90.3071 32.9019 90.9035 32.8048 91.3751 32.6107C91.8467 32.4165 92.235 32.1668 92.5402 31.8617C92.8453 31.5288 93.0672 31.1543 93.206 30.7382C93.3724 30.3221 93.4834 29.8921 93.5388 29.4483L99.4891 30.4053C99.3781 31.404 99.1146 32.3471 98.6985 33.2348C98.3101 34.0948 97.7137 34.8715 96.9093 35.565C96.1325 36.2308 95.1478 36.7717 93.9549 37.1878C92.7621 37.5762 91.3057 37.7703 89.5859 37.7703Z" fill="white"/>
<path d="M107.825 37.7703C106.605 37.7703 105.509 37.5484 104.538 37.1046C103.595 36.6607 102.832 35.995 102.249 35.1073C101.695 34.1918 101.417 33.0545 101.417 31.6952C101.417 30.225 101.736 29.046 102.374 28.1584C103.04 27.2707 103.886 26.591 104.912 26.1195C105.967 25.6201 107.062 25.2595 108.2 25.0376C109.365 24.8157 110.46 24.6215 111.487 24.455C112.541 24.2886 113.359 24.136 113.942 23.9973C114.552 23.8586 114.982 23.6506 115.232 23.3732C115.509 23.0958 115.648 22.7352 115.648 22.2913C115.648 21.792 115.523 21.362 115.273 21.0014C115.051 20.613 114.705 20.3218 114.233 20.1276C113.762 19.9056 113.179 19.7947 112.485 19.7947C111.764 19.7947 111.085 19.9195 110.447 20.1692C109.836 20.4188 109.309 20.8211 108.865 21.3759C108.449 21.9029 108.172 22.5964 108.033 23.4564L102.125 22.1665C102.346 20.8072 102.776 19.656 103.414 18.7128C104.052 17.7419 104.843 16.9513 105.786 16.341C106.729 15.7308 107.77 15.3008 108.907 15.0511C110.072 14.7737 111.307 14.635 112.61 14.635C114.275 14.635 115.703 14.8431 116.896 15.2592C118.117 15.6753 119.115 16.3133 119.892 17.1732C120.697 18.0054 121.279 19.0596 121.64 20.3356C122.028 21.6117 122.222 23.1096 122.222 24.8295V28.3664C122.222 29.3373 122.236 30.3221 122.264 31.3207C122.292 32.2916 122.319 33.2626 122.347 34.2335C122.403 35.2044 122.472 36.1891 122.555 37.1878H116.688C116.605 36.4111 116.522 35.565 116.438 34.6496C116.383 33.7064 116.341 32.7216 116.314 31.6952H115.689C115.412 32.8326 114.899 33.859 114.15 34.7744C113.429 35.6898 112.527 36.4249 111.445 36.9797C110.391 37.5068 109.184 37.7703 107.825 37.7703ZM110.738 32.9851C111.209 32.9851 111.709 32.9019 112.236 32.7355C112.763 32.5413 113.262 32.2639 113.734 31.9033C114.205 31.5427 114.621 31.0849 114.982 30.5301C115.343 29.9753 115.592 29.3234 115.731 28.5745L115.689 26.0778L116.647 26.1611C116.23 26.5217 115.731 26.7991 115.149 26.9933C114.566 27.1875 113.942 27.3539 113.276 27.4926C112.638 27.6036 112 27.7284 111.362 27.8671C110.724 27.978 110.141 28.1306 109.614 28.3248C109.115 28.519 108.713 28.7825 108.408 29.1154C108.13 29.4483 107.992 29.9199 107.992 30.5301C107.992 31.2791 108.241 31.8755 108.741 32.3194C109.268 32.7632 109.933 32.9851 110.738 32.9851Z" fill="white"/>
<path d="M136.419 37.7703C134.477 37.7703 132.785 37.4929 131.342 36.9381C129.927 36.3833 128.748 35.6066 127.805 34.608C126.862 33.5816 126.141 32.3887 125.641 31.0295C125.17 29.6425 124.934 28.1306 124.934 26.4939C124.934 24.8018 125.17 23.2483 125.641 21.8336C126.141 20.3911 126.862 19.1289 127.805 18.0471C128.748 16.9652 129.913 16.133 131.3 15.5504C132.715 14.9402 134.366 14.635 136.252 14.635C137.75 14.635 139.068 14.8292 140.205 15.2176C141.342 15.6059 142.313 16.1607 143.118 16.882C143.922 17.5755 144.546 18.3938 144.99 19.337C145.434 20.2801 145.698 21.3065 145.781 22.4161L139.706 23.9141C139.678 22.9709 139.498 22.1942 139.165 21.5839C138.832 20.9736 138.388 20.5298 137.833 20.2524C137.279 19.975 136.654 19.8363 135.961 19.8363C135.351 19.8363 134.782 19.9473 134.255 20.1692C133.756 20.3911 133.312 20.7517 132.923 21.251C132.563 21.7504 132.271 22.4023 132.049 23.2067C131.828 24.0112 131.717 24.996 131.717 26.1611C131.717 27.7145 131.911 28.9906 132.299 29.9892C132.688 30.9601 133.242 31.6814 133.964 32.1529C134.685 32.5968 135.531 32.8187 136.502 32.8187C137.556 32.8187 138.374 32.5968 138.957 32.1529C139.539 31.6814 139.942 31.0988 140.163 30.4053C140.413 29.7118 140.524 29.0183 140.496 28.3248L146.488 29.2818C146.461 30.3914 146.252 31.4594 145.864 32.4858C145.503 33.4845 144.907 34.386 144.075 35.1905C143.27 35.995 142.23 36.633 140.954 37.1046C139.706 37.5484 138.194 37.7703 136.419 37.7703Z" fill="white"/>
<path d="M148.842 37.1878V24.0389V7.51965H155.541V13.886C155.541 14.4686 155.514 15.1205 155.458 15.8417C155.43 16.563 155.361 17.3258 155.25 18.1303C155.139 18.907 155.028 19.6699 154.917 20.4188C154.806 21.1678 154.695 21.8613 154.584 22.4994H155.333C155.694 20.8072 156.166 19.3786 156.748 18.2135C157.331 17.0484 158.107 16.1607 159.078 15.5504C160.077 14.9402 161.325 14.635 162.823 14.635C164.099 14.635 165.167 14.8569 166.027 15.3008C166.915 15.7446 167.636 16.341 168.191 17.09C168.746 17.839 169.176 18.699 169.481 19.6699C169.786 20.613 169.994 21.6117 170.105 22.6658C170.216 23.6922 170.271 24.7047 170.271 25.7034V37.1878H163.531V26.3275C163.531 25.4121 163.475 24.5937 163.364 23.8725C163.253 23.1235 163.059 22.4855 162.782 21.9584C162.532 21.4314 162.171 21.0291 161.7 20.7517C161.256 20.4466 160.715 20.294 160.077 20.294C159.106 20.294 158.288 20.613 157.622 21.251C156.956 21.8613 156.443 22.749 156.082 23.9141C155.722 25.0792 155.541 26.4801 155.541 28.1167V37.1878H148.842Z" fill="white"/>
<path d="M182.224 44.428C181.226 44.428 180.158 44.3448 179.02 44.1783C177.911 44.0119 176.843 43.7483 175.816 43.3877C174.79 43.0271 173.888 42.5694 173.112 42.0146L174.693 35.773C175.692 36.6885 176.857 37.3542 178.188 37.7703C179.52 38.2142 180.768 38.4361 181.933 38.4361C183.181 38.4361 184.222 38.228 185.054 37.8119C185.914 37.3958 186.58 36.8272 187.051 36.1059C187.55 35.3569 187.897 34.5109 188.091 33.5677C188.313 32.6245 188.452 31.6259 188.507 30.5718L188.591 27.2013H187.842C187.648 29.0322 187.245 30.544 186.635 31.7368C186.052 32.9019 185.276 33.7619 184.305 34.3167C183.334 34.8715 182.21 35.1489 180.934 35.1489C179.492 35.1489 178.313 34.8576 177.398 34.2751C176.482 33.6925 175.775 32.9574 175.275 32.0697C174.776 31.1543 174.415 30.1973 174.194 29.1986C173.972 28.1722 173.833 27.2152 173.777 26.3275C173.75 25.4398 173.736 24.7324 173.736 24.2054V15.2176H180.435V22.2913C180.435 22.8184 180.435 23.4148 180.435 24.0805C180.463 24.7463 180.518 25.3982 180.602 26.0362C180.712 26.6743 180.879 27.2568 181.101 27.7839C181.351 28.3109 181.67 28.7409 182.058 29.0738C182.474 29.3789 183.001 29.5315 183.639 29.5315C184.416 29.5315 185.04 29.2957 185.512 28.8241C186.011 28.3248 186.385 27.7006 186.635 26.9517C186.885 26.2027 187.051 25.4259 187.134 24.6215C187.245 23.7893 187.301 23.068 187.301 22.4577V15.2176H194V30.8214C194 31.6259 193.945 32.5274 193.834 33.5261C193.723 34.5247 193.528 35.5372 193.251 36.5636C192.974 37.59 192.558 38.5609 192.003 39.4764C191.448 40.4195 190.741 41.2656 189.881 42.0146C189.021 42.7636 187.953 43.3461 186.677 43.7622C185.428 44.2061 183.944 44.428 182.224 44.428Z" fill="white"/>
<path fill-rule="evenodd" clip-rule="evenodd" d="M15.5514 7.25599C17.9292 6.29078 20.5017 5.87455 23.0698 6.03951C25.638 6.20447 28.133 6.9462 30.3619 8.20731L32.6108 9.47971L35.2075 5.07197L32.9587 3.79956C30.0399 2.14811 26.7726 1.1768 23.4095 0.96078C20.0464 0.744759 16.6777 1.28981 13.564 2.55378C10.4502 3.81775 7.67488 5.76674 5.45269 8.25C3.2305 10.7333 1.621 13.6842 0.748695 16.8746C-0.1236 20.0649 -0.235317 23.4092 0.422195 26.6486C1.07971 29.8881 2.48883 32.9358 4.54054 35.5562C6.59225 38.1766 9.23155 40.2993 12.2543 41.7601C15.277 43.221 19.1758 43.9808 21.9724 43.9808C24.769 43.9808 26.402 43.5698 28.5465 42.6993C30.6306 41.8533 32.5244 40.6132 34.1195 39.0499C35.7147 37.4867 36.9801 35.6308 37.8434 33.5883C38.7067 31.5458 39.151 29.3566 39.151 27.1458C39.151 24.935 38.7067 22.7459 37.8434 20.7034C36.9801 18.6609 35.7147 16.805 34.1195 15.2417C32.5244 13.6785 30.6306 12.4384 28.5465 11.5924C26.4623 10.7464 24.2285 10.3109 21.9725 10.3109C19.7166 10.3109 17.4828 10.7464 15.3986 11.5924C13.3144 12.4384 11.4207 13.6785 9.82555 15.2418C8.23038 16.805 6.96502 18.6609 6.10173 20.7034C5.73039 21.582 5.43656 22.4877 5.22228 23.4106C5.11742 21.6586 5.29916 19.8964 5.76522 18.1919C6.43134 15.7556 7.66041 13.5021 9.35736 11.6058C11.0543 9.70952 13.1736 8.2212 15.5514 7.25599Z" fill="#FFDFBB"/>
</svg>
