<svg width="32" height="32" viewBox="0 0 32 32" fill="none" xmlns="http://www.w3.org/2000/svg">
<path d="M18.7074 18.7075L16.4137 21L18.7074 23.2925C18.8004 23.3854 18.8741 23.4957 18.9243 23.6171C18.9746 23.7385 19.0005 23.8686 19.0005 24C19.0005 24.1314 18.9746 24.2615 18.9243 24.3829C18.8741 24.5043 18.8004 24.6146 18.7074 24.7075C18.6145 24.8004 18.5042 24.8741 18.3828 24.9244C18.2614 24.9747 18.1313 25.0005 17.9999 25.0005C17.8686 25.0005 17.7384 24.9747 17.617 24.9244C17.4957 24.8741 17.3854 24.8004 17.2924 24.7075L16.4999 23.9137L13.5862 26.8287C12.8351 27.5773 11.8179 27.9975 10.7574 27.9975C9.69703 27.9975 8.67984 27.5773 7.9287 26.8287L7.25745 26.1562L3.70745 29.7075C3.61454 29.8004 3.50423 29.8741 3.38284 29.9244C3.26145 29.9747 3.13134 30.0005 2.99995 30.0005C2.86855 30.0005 2.73844 29.9747 2.61705 29.9244C2.49566 29.8741 2.38536 29.8004 2.29245 29.7075C2.19954 29.6146 2.12583 29.5043 2.07555 29.3829C2.02527 29.2615 1.99939 29.1314 1.99939 29C1.99939 28.8686 2.02527 28.7385 2.07555 28.6171C2.12583 28.4957 2.19954 28.3854 2.29245 28.2925L5.8437 24.7425L5.1712 24.0712C4.79966 23.6998 4.50495 23.2588 4.30387 22.7734C4.10279 22.2881 3.9993 21.7679 3.9993 21.2425C3.9993 20.7171 4.10279 20.1969 4.30387 19.7115C4.50495 19.2262 4.79966 18.7852 5.1712 18.4137L8.0862 15.5L7.29245 14.7075C7.10481 14.5199 6.99939 14.2654 6.99939 14C6.99939 13.7346 7.1048 13.4801 7.29245 13.2925C7.48009 13.1049 7.73458 12.9994 7.99995 12.9994C8.26531 12.9994 8.51981 13.1049 8.70745 13.2925L10.9999 15.5862L13.2924 13.2925C13.4801 13.1049 13.7346 12.9994 13.9999 12.9994C14.2653 12.9994 14.5198 13.1049 14.7074 13.2925C14.8951 13.4801 15.0005 13.7346 15.0005 14C15.0005 14.2654 14.8951 14.5199 14.7074 14.7075L12.4137 17L14.9999 19.5862L17.2924 17.2925C17.4801 17.1049 17.7346 16.9994 17.9999 16.9994C18.2653 16.9994 18.5198 17.1049 18.7074 17.2925C18.8951 17.4801 19.0005 17.7346 19.0005 18C19.0005 18.2654 18.8951 18.5199 18.7074 18.7075ZM29.7074 2.29249C29.6146 2.19952 29.5043 2.12576 29.3829 2.07543C29.2615 2.02511 29.1314 1.99921 28.9999 1.99921C28.8685 1.99921 28.7384 2.02511 28.617 2.07543C28.4956 2.12576 28.3853 2.19952 28.2924 2.29249L24.7424 5.84374L24.0712 5.17124C23.3202 4.42243 22.303 4.00193 21.2424 4.00193C20.1819 4.00193 19.1647 4.42243 18.4137 5.17124L15.4999 8.08624L14.7074 7.29249C14.5198 7.10485 14.2653 6.99944 13.9999 6.99944C13.7346 6.99944 13.4801 7.10485 13.2924 7.29249C13.1048 7.48013 12.9994 7.73463 12.9994 7.99999C12.9994 8.26536 13.1048 8.51985 13.2924 8.70749L23.2924 18.7075C23.3854 18.8004 23.4957 18.8741 23.6171 18.9244C23.7384 18.9747 23.8686 19.0005 23.9999 19.0005C24.1313 19.0005 24.2614 18.9747 24.3828 18.9244C24.5042 18.8741 24.6145 18.8004 24.7074 18.7075C24.8004 18.6146 24.8741 18.5043 24.9243 18.3829C24.9746 18.2615 25.0005 18.1314 25.0005 18C25.0005 17.8686 24.9746 17.7385 24.9243 17.6171C24.8741 17.4957 24.8004 17.3854 24.7074 17.2925L23.9137 16.5L26.8287 13.5862C27.2002 13.2148 27.4949 12.7738 27.696 12.2884C27.8971 11.8031 28.0006 11.2829 28.0006 10.7575C28.0006 10.2321 27.8971 9.71191 27.696 9.22655C27.4949 8.74119 27.2002 8.30019 26.8287 7.92874L26.1562 7.25749L29.7074 3.70749C29.8004 3.61462 29.8742 3.50433 29.9245 3.38293C29.9748 3.26154 30.0007 3.13141 30.0007 2.99999C30.0007 2.86858 29.9748 2.73845 29.9245 2.61705C29.8742 2.49565 29.8004 2.38537 29.7074 2.29249Z" fill="#FF7747"/>
</svg>
