<svg width="32" height="32" viewBox="0 0 32 32" fill="none" xmlns="http://www.w3.org/2000/svg">
<path d="M29.7074 2.29249C29.6146 2.19952 29.5043 2.12576 29.3829 2.07543C29.2615 2.02511 29.1314 1.99921 28.9999 1.99921C28.8685 1.99921 28.7384 2.02511 28.617 2.07543C28.4956 2.12576 28.3853 2.19952 28.2924 2.29249L21.7424 8.84374L21.0712 8.17124C20.3202 7.42243 19.303 7.00193 18.2424 7.00193C17.1819 7.00193 16.1647 7.42243 15.4137 8.17124L12.4999 11.0862L11.7074 10.2925C11.5198 10.1049 11.2653 9.99944 10.9999 9.99944C10.7346 9.99944 10.4801 10.1049 10.2924 10.2925C10.1048 10.4801 9.99939 10.7346 9.99939 11C9.99939 11.2654 10.1048 11.5199 10.2924 11.7075L11.0862 12.5L8.1712 15.4137C7.79966 15.7852 7.50495 16.2262 7.30387 16.7115C7.10279 17.1969 6.9993 17.7171 6.9993 18.2425C6.9993 18.7679 7.10279 19.2881 7.30387 19.7734C7.50495 20.2588 7.79966 20.6998 8.1712 21.0712L8.8437 21.7425L2.29245 28.2925C2.19954 28.3854 2.12583 28.4957 2.07555 28.6171C2.02527 28.7385 1.99939 28.8686 1.99939 29C1.99939 29.1314 2.02527 29.2615 2.07555 29.3829C2.12583 29.5043 2.19954 29.6146 2.29245 29.7075C2.48009 29.8951 2.73458 30.0005 2.99995 30.0005C3.13134 30.0005 3.26145 29.9747 3.38284 29.9244C3.50423 29.8741 3.61454 29.8004 3.70745 29.7075L10.2574 23.1562L10.9287 23.8287C11.6798 24.5773 12.697 24.9975 13.7574 24.9975C14.8179 24.9975 15.8351 24.5773 16.5862 23.8287L19.4999 20.9137L20.2924 21.7075C20.3854 21.8004 20.4957 21.8741 20.6171 21.9244C20.7384 21.9747 20.8686 22.0005 20.9999 22.0005C21.1313 22.0005 21.2614 21.9747 21.3828 21.9244C21.5042 21.8741 21.6145 21.8004 21.7074 21.7075C21.8004 21.6146 21.8741 21.5043 21.9243 21.3829C21.9746 21.2615 22.0005 21.1314 22.0005 21C22.0005 20.8686 21.9746 20.7385 21.9243 20.6171C21.8741 20.4957 21.8004 20.3854 21.7074 20.2925L20.9137 19.5L23.8287 16.5862C24.2002 16.2148 24.4949 15.7738 24.696 15.2884C24.8971 14.8031 25.0006 14.2829 25.0006 13.7575C25.0006 13.2321 24.8971 12.7119 24.696 12.2265C24.4949 11.7412 24.2002 11.3002 23.8287 10.9287L23.1562 10.2575L29.7074 3.70749C29.8004 3.61462 29.8742 3.50433 29.9245 3.38293C29.9748 3.26154 30.0007 3.13141 30.0007 2.99999C30.0007 2.86858 29.9748 2.73845 29.9245 2.61705C29.8742 2.49565 29.8004 2.38537 29.7074 2.29249ZM22.4137 15.1675L19.4999 18.0862L13.9137 12.5L16.8287 9.58624C17.2037 9.21145 17.7122 9.00092 18.2424 9.00092C18.7727 9.00092 19.2812 9.21145 19.6562 9.58624L22.4137 12.3362C22.5995 12.522 22.7468 12.7425 22.8474 12.9851C22.9479 13.2278 22.9996 13.4879 22.9996 13.7506C22.9996 14.0133 22.9479 14.2734 22.8474 14.5161C22.7468 14.7588 22.5995 14.9793 22.4137 15.165V15.1675ZM11.0512 4.31624C10.9673 4.06462 10.9868 3.78998 11.1055 3.55275C11.2241 3.31551 11.4321 3.13512 11.6837 3.05124C11.9353 2.96737 12.21 2.98689 12.4472 3.1055C12.6844 3.22412 12.8648 3.43212 12.9487 3.68374L13.9487 6.68374C13.9902 6.80834 14.0068 6.93989 13.9975 7.07089C13.9882 7.20189 13.9532 7.32977 13.8944 7.44724C13.8357 7.5647 13.7544 7.66945 13.6552 7.7555C13.556 7.84155 13.4408 7.90721 13.3162 7.94874C13.0646 8.03262 12.7899 8.0131 12.5527 7.89448C12.4352 7.83575 12.3305 7.75446 12.2444 7.65524C12.1584 7.55603 12.0927 7.44083 12.0512 7.31624L11.0512 4.31624ZM3.0512 11.6837C3.09272 11.5591 3.15838 11.4439 3.24442 11.3447C3.33047 11.2455 3.43522 11.1642 3.55269 11.1055C3.67016 11.0467 3.79804 11.0117 3.92905 11.0024C4.06005 10.9931 4.1916 11.0097 4.3162 11.0512L7.3162 12.0512C7.44079 12.0928 7.55598 12.1584 7.65519 12.2445C7.75441 12.3305 7.8357 12.4353 7.89444 12.5527C7.95317 12.6702 7.98819 12.7981 7.9975 12.9291C8.00681 13.0601 7.99023 13.1917 7.9487 13.3162C7.90717 13.4408 7.8415 13.556 7.75545 13.6552C7.6694 13.7545 7.56466 13.8358 7.44719 13.8945C7.32972 13.9532 7.20184 13.9882 7.07084 13.9975C6.93984 14.0069 6.80829 13.9903 6.6837 13.9487L3.6837 12.9487C3.5591 12.9072 3.4439 12.8416 3.34468 12.7555C3.24546 12.6695 3.16416 12.5647 3.10543 12.4473C3.0467 12.3298 3.01168 12.2019 3.00237 12.0709C2.99306 11.9399 3.00966 11.8083 3.0512 11.6837ZM28.9487 20.3162C28.9072 20.4408 28.8415 20.556 28.7555 20.6553C28.6694 20.7545 28.5647 20.8358 28.4472 20.8945C28.3297 20.9532 28.2018 20.9883 28.0708 20.9976C27.9398 21.0069 27.8083 20.9903 27.6837 20.9487L24.6837 19.9487C24.4321 19.8649 24.2241 19.6845 24.1055 19.4472C23.9868 19.21 23.9673 18.9354 24.0512 18.6837C24.1351 18.4321 24.3155 18.2241 24.5527 18.1055C24.7899 17.9869 25.0646 17.9674 25.3162 18.0512L28.3162 19.0512C28.4408 19.0928 28.556 19.1584 28.6552 19.2445C28.7544 19.3305 28.8357 19.4353 28.8945 19.5527C28.9532 19.6702 28.9882 19.7981 28.9975 19.9291C29.0068 20.0601 28.9902 20.1917 28.9487 20.3162ZM20.9487 27.6837C21.0326 27.9354 21.0131 28.21 20.8944 28.4472C20.7758 28.6845 20.5678 28.8649 20.3162 28.9487C20.0646 29.0326 19.7899 29.0131 19.5527 28.8945C19.3155 28.7759 19.1351 28.5679 19.0512 28.3162L18.0512 25.3162C17.9673 25.0646 17.9868 24.79 18.1055 24.5527C18.2241 24.3155 18.4321 24.1351 18.6837 24.0512C18.9353 23.9674 19.21 23.9869 19.4472 24.1055C19.6844 24.2241 19.8648 24.4321 19.9487 24.6837L20.9487 27.6837Z" fill="#FF7747"/>
</svg>
