<svg width="46" height="38" viewBox="0 0 46 38" fill="none" xmlns="http://www.w3.org/2000/svg">
<path d="M45.4209 5.032C43.7487 5.77278 41.975 6.25888 40.1586 6.4738C42.0717 5.32919 43.5033 3.52793 44.1868 1.40584C42.3885 2.47335 40.4207 3.22506 38.3688 3.6284C37.5115 2.71397 36.4755 1.98537 35.325 1.48773C34.1746 0.990071 32.9342 0.733993 31.6807 0.735357C26.6208 0.735357 22.518 4.83712 22.518 9.89815C22.518 10.6156 22.5992 11.3157 22.7558 11.9868C15.1404 11.6046 8.38912 7.9564 3.86976 2.41214C3.0549 3.81055 2.62672 5.40056 2.62914 7.019C2.62795 8.52763 2.9994 10.0132 3.71052 11.3436C4.42163 12.6742 5.4504 13.8083 6.70538 14.6455C5.25056 14.5993 3.82782 14.2063 2.55548 13.4995C2.55432 13.5377 2.55432 13.5753 2.55432 13.6149C2.55432 18.0529 5.71242 21.7563 9.90346 22.5991C8.55399 22.9643 7.13904 23.0179 5.76578 22.7557C6.93158 26.3951 10.3153 29.0452 14.3248 29.1194C11.0791 31.6665 7.07107 33.0481 2.94524 33.0419C2.20574 33.0419 1.47668 32.9991 0.759216 32.9138C4.94876 35.6056 9.82477 37.0345 14.8045 37.0295C31.6582 37.0295 40.8744 23.0682 40.8744 10.9613C40.8744 10.5647 40.8651 10.1684 40.8477 9.77463C42.6424 8.47887 44.1913 6.87274 45.4209 5.032Z" fill="black"/>
</svg>
